solid
facet normal 0.3009623701039163 0.866760847464375 0.3976773630523513
 outer loop
  vertex -6.465102465734644 112.34920731445963 364.506018706145
  vertex -7.366950112758066 111.97163802247776 366.01147146870704
  vertex -7.274990452575422 111.1237996876058 367.7897891253517
 endloop
endfacet
facet normal -0.09755899929489505 -0.924301481503178 -0.3689837570240851
 outer loop
  vertex -6.465102465734644 112.34920731445963 364.506018706145
  vertex -7.274990452575422 111.1237996876058 367.7897891253517
  vertex -8.14173868628081 110.39093765434748 369.85477041218184
 endloop
endfacet
facet normal 0.5931059802137492 -0.7980796779917185 -0.10627381526661515
 outer loop
  vertex -6.465102465734644 112.34920731445963 364.506018706145
  vertex -8.14173868628081 110.39093765434748 369.85477041218184
  vertex -9.25222371669914 109.34238790471088 371.53148573121206
 endloop
endfacet
facet normal 0.9329797193950422 -0.026035012788364887 0.35898610182938556
 outer loop
  vertex -6.465102465734644 112.34920731445963 364.506018706145
  vertex -9.25222371669914 109.34238790471088 371.53148573121206
  vertex -9.846976108841423 107.82200808171561 372.96694189280043
 endloop
endfacet
facet normal 0.8430321848586526 -0.5354930751555043 0.050437106905015114
 outer loop
  vertex -6.465102465734644 112.34920731445963 364.506018706145
  vertex -9.846976108841423 107.82200808171561 372.96694189280043
  vertex -10.539857040730288 106.84039193665946 374.1262525929339
 endloop
endfacet
facet normal 0.5190744080365554 0.6282043241483126 0.579586996095376
 outer loop
  vertex -6.465102465734644 112.34920731445963 364.506018706145
  vertex -10.539857040730288 106.84039193665946 374.1262525929339
  vertex -10.114307332756056 105.64322868600078 375.04271754400565
 endloop
endfacet
facet normal 0.12193817667997284 -0.855926394946383 -0.5025147634667586
 outer loop
  vertex -6.465102465734644 112.34920731445963 364.506018706145
  vertex -10.114307332756056 105.64322868600078 375.04271754400565
  vertex -11.325744582174968 104.77400581678306 376.22929033917006
 endloop
endfacet
facet normal -0.5388291297378057 -0.5879406972263653 -0.6033149306050484
 outer loop
  vertex -6.465102465734644 112.34920731445963 364.506018706145
  vertex -11.325744582174968 104.77400581678306 376.22929033917006
  vertex -12.480398836861676 104.0945729601304 377.9226473619031
 endloop
endfacet
facet normal 0.26735307549382015 0.7625877849091288 0.5890519529985313
 outer loop
  vertex -6.465102465734644 112.34920731445963 364.506018706145
  vertex -12.480398836861676 104.0945729601304 377.9226473619031
  vertex -11.898838096347951 102.60534053437533 379.5866574703817
 endloop
endfacet
facet normal 0.6548069327595331 -0.7201515708022524 -0.22936781788450827
 outer loop
  vertex -6.465102465734644 112.34920731445963 364.506018706145
  vertex -11.898838096347951 102.60534053437533 379.5866574703817
  vertex -12.665156952980851 101.33346341694792 381.39228743091843
 endloop
endfacet
facet normal 0.7405533250162694 -0.6539491048700634 -0.15469757931845776
 outer loop
  vertex -6.465102465734644 112.34920731445963 364.506018706145
  vertex -12.665156952980851 101.33346341694792 381.39228743091843
  vertex -13.626836658255383 99.95021849099248 382.63598289564726
 endloop
endfacet
facet normal 0.45963037938342916 0.6379571425572685 0.6178596916841316
 outer loop
  vertex -6.465102465734644 112.34920731445963 364.506018706145
  vertex -13.626836658255383 99.95021849099248 382.63598289564726
  vertex -12.853750782319743 98.49348439064214 383.56499667887107
 endloop
endfacet
facet normal 0.5251765962111592 -0.7623457645251143 -0.3781778392538093
 outer loop
  vertex -6.465102465734644 112.34920731445963 364.506018706145
  vertex -12.853750782319743 98.49348439064214 383.56499667887107
  vertex -13.89457023002661 97.14032096914966 384.84736792839993
 endloop
endfacet
facet normal 0.9103499980565972 -0.41316699295220666 0.023577891618734477
 outer loop
  vertex -6.465102465734644 112.34920731445963 364.506018706145
  vertex -13.89457023002661 97.14032096914966 384.84736792839993
  vertex -14.552841209735076 95.77346653321482 386.31136006806645
 endloop
endfacet
facet normal 0.9254351721530809 0.04359546701692084 0.37638966165076043
 outer loop
  vertex -6.465102465734644 112.34920731445963 364.506018706145
  vertex -14.552841209735076 95.77346653321482 386.31136006806645
  vertex -15.10332627366944 94.33473912773948 387.8314874556046
 endloop
endfacet
facet normal 0.7000260421829656 -0.6667667412747857 -0.25570618489871505
 outer loop
  vertex -6.465102465734644 112.34920731445963 364.506018706145
  vertex -15.10332627366944 94.33473912773948 387.8314874556046
  vertex -15.855148490199705 92.93680226604835 389.4184755657105
 endloop
endfacet
facet normal 0.6293048136993341 -0.7099933225401913 -0.3160457773854704
 outer loop
  vertex -6.465102465734644 112.34920731445963 364.506018706145
  vertex -15.855148490199705 92.93680226604835 389.4184755657105
  vertex -16.966424582186168 91.56801498258315 390.2806874878454
 endloop
endfacet
facet normal 0.4383493083842195 -0.7785499714921609 -0.4491211704302437
 outer loop
  vertex -6.465102465734644 112.34920731445963 364.506018706145
  vertex -16.966424582186168 91.56801498258315 390.2806874878454
  vertex -18.414846449112993 90.78121035561914 390.23092807948393
 endloop
endfacet
facet normal 0.8976156997808565 0.02739255696558804 0.43992692953467893
 outer loop
  vertex -6.465102465734644 112.34920731445963 364.506018706145
  vertex -18.414846449112993 90.78121035561914 390.23092807948393
  vertex -18.75235098004714 88.74348617037771 391.0464449697946
 endloop
endfacet
facet normal 0.6918469157943107 -0.6680754900803282 -0.2739032395935274
 outer loop
  vertex -6.465102465734644 112.34920731445963 364.506018706145
  vertex -18.75235098004714 88.74348617037771 391.0464449697946
  vertex -20.300426580526388 87.13856438275447 391.0507442259872
 endloop
endfacet
facet normal 0.6934716521852702 -0.667110776111811 -0.27214018448389593
 outer loop
  vertex -6.465102465734644 112.34920731445963 364.506018706145
  vertex -20.300426580526388 87.13856438275447 391.0507442259872
  vertex -21.57002236943396 85.83563506166297 391.0094768962457
 endloop
endfacet
facet normal 0.5743001639081947 -0.7188107962726695 -0.39177845894953384
 outer loop
  vertex -6.465102465734644 112.34920731445963 364.506018706145
  vertex -21.57002236943396 85.83563506166297 391.0094768962457
  vertex -23.001291189813273 84.77391232791236 390.8593916806621
 endloop
endfacet
facet normal 0.6390261762751837 -0.6960515230650195 -0.32734969569862815
 outer loop
  vertex -6.465102465734644 112.34920731445963 364.506018706145
  vertex -23.001291189813273 84.77391232791236 390.8593916806621
  vertex -24.385124496641588 83.49999892591384 390.8667344614279
 endloop
endfacet
facet normal 0.5394245118777515 -0.7255404086259499 -0.4273316176417785
 outer loop
  vertex -6.465102465734644 112.34920731445963 364.506018706145
  vertex -24.385124496641588 83.49999892591384 390.8667344614279
  vertex -25.681888245523425 82.6611360083335 390.6540724338427
 endloop
endfacet
facet normal 0.8479951844140776 -0.5295483812269454 0.02196996018330907
 outer loop
  vertex -6.465102465734644 112.34920731445963 364.506018706145
  vertex -25.681888245523425 82.6611360083335 390.6540724338427
  vertex -26.502392159868077 81.31754606249491 389.9388907692719
 endloop
endfacet
facet normal 0.8297108862263249 -0.5575586590979863 -0.026611782021920792
 outer loop
  vertex -6.465102465734644 112.34920731445963 364.506018706145
  vertex -26.502392159868077 81.31754606249491 389.9388907692719
  vertex -27.56897832989364 79.78256746597899 388.8447307341741
 endloop
endfacet
facet normal 0.5671216771684983 -0.6962953418256079 -0.43993840504955883
 outer loop
  vertex -6.465102465734644 112.34920731445963 364.506018706145
  vertex -27.56897832989364 79.78256746597899 388.8447307341741
  vertex -29.14021977323655 79.09767538476909 387.9032400344955
 endloop
endfacet
facet normal 0.8088818642784742 -0.5859418891992216 -0.0488081153398396
 outer loop
  vertex -6.465102465734644 112.34920731445963 364.506018706145
  vertex -29.14021977323655 79.09767538476909 387.9032400344955
  vertex -30.032859588467065 77.97950166380052 386.5334814423002
 endloop
endfacet
facet normal 0.5052567905581272 -0.6838282273383757 -0.5263976928997274
 outer loop
  vertex -6.465102465734644 112.34920731445963 364.506018706145
  vertex -30.032859588467065 77.97950166380052 386.5334814423002
  vertex -31.7223555239149 77.80079835690309 385.14398650663463
 endloop
endfacet
facet normal 0.8468712927040762 -0.4473061915395793 0.2876215996827844
 outer loop
  vertex -6.465102465734644 112.34920731445963 364.506018706145
  vertex -31.7223555239149 77.80079835690309 385.14398650663463
  vertex -31.773732442661004 76.81177873643466 383.75714712240233
 endloop
endfacet
facet normal 0.7757987998730168 -0.6189439781960857 -0.12265632462449755
 outer loop
  vertex -6.465102465734644 112.34920731445963 364.506018706145
  vertex -31.773732442661004 76.81177873643466 383.75714712240233
  vertex -32.52217253391354 76.15677649926154 382.3285274837188
 endloop
endfacet
facet normal 0.7935051904154138 -0.6047570100108036 -0.06795933803820355
 outer loop
  vertex -6.465102465734644 112.34920731445963 364.506018706145
  vertex -32.52217253391354 76.15677649926154 382.3285274837188
  vertex -33.23348244476393 75.42866959290613 380.50243037653047
 endloop
endfacet
facet normal 0.7693335699307926 -0.6216245094928766 -0.14733915764413336
 outer loop
  vertex -6.465102465734644 112.34920731445963 364.506018706145
  vertex -33.23348244476393 75.42866959290613 380.50243037653047
  vertex -34.02338775239607 74.94493997213883 378.41878549284814
 endloop
endfacet
facet normal 0.8222159884110023 -0.546053740390174 0.1605807616348203
 outer loop
  vertex -6.465102465734644 112.34920731445963 364.506018706145
  vertex -34.02338775239607 74.94493997213883 378.41878549284814
  vertex -34.1013412956948 74.28172768949258 376.5626795999393
 endloop
endfacet
facet normal 0.6922472616323266 -0.6196908770174118 -0.36983367302604575
 outer loop
  vertex -6.465102465734644 112.34920731445963 364.506018706145
  vertex -34.1013412956948 74.28172768949258 376.5626795999393
  vertex -35.1022943948435 74.22438728327394 374.78519484601964
 endloop
endfacet
facet normal 0.8089972418593728 -0.5758122924924535 0.11816795876426316
 outer loop
  vertex -6.465102465734644 112.34920731445963 364.506018706145
  vertex -35.1022943948435 74.22438728327394 374.78519484601964
  vertex -35.10135072855937 73.76108646557789 372.5211485497981
 endloop
endfacet
facet normal 0.8089927554489796 -0.5762585977457121 0.11600323338257881
 outer loop
  vertex -6.465102465734644 112.34920731445963 364.506018706145
  vertex -35.10135072855937 73.76108646557789 372.5211485497981
  vertex -35.09144885061073 73.35914558144056 370.4554092526431
 endloop
endfacet
facet normal 0.8091234158224212 -0.577347997389112 0.10949241014170416
 outer loop
  vertex -6.465102465734644 112.34920731445963 364.506018706145
  vertex -35.09144885061073 73.35914558144056 370.4554092526431
  vertex -35.137357461896706 72.91496161639911 368.4525033888865
 endloop
endfacet
facet normal 0.8099577902629446 -0.5806544820899664 0.08251515267634628
 outer loop
  vertex -6.465102465734644 112.34920731445963 364.506018706145
  vertex -35.137357461896706 72.91496161639911 368.4525033888865
  vertex -35.2960274968053 72.3713208408745 366.18441787938264
 endloop
endfacet
facet normal 0.552453529673078 -0.42843236031742976 -0.7150110559876635
 outer loop
  vertex -6.465102465734644 112.34920731445963 364.506018706145
  vertex -35.2960274968053 72.3713208408745 366.18441787938264
  vertex -36.65394379625847 73.42699593688614 364.50266622578744
 endloop
endfacet
facet normal 0.6033416388261854 -0.4679081524370662 -0.6457869832548997
 outer loop
  vertex -6.465102465734644 112.34920731445963 364.506018706145
  vertex -36.65394379625847 73.42699593688614 364.50266622578744
  vertex -37.72762474994836 74.27676451902502 362.8838505782897
 endloop
endfacet
facet normal 0.6432673364864048 -0.5036370206042189 -0.5766774534231351
 outer loop
  vertex -6.465102465734644 112.34920731445963 364.506018706145
  vertex -37.72762474994836 74.27676451902502 362.8838505782897
  vertex -38.605190614168045 75.24779546386384 361.05690800963674
 endloop
endfacet
facet normal 0.7552718099738862 -0.6420207180638854 -0.1318100551380778
 outer loop
  vertex -6.465102465734644 112.34920731445963 364.506018706145
  vertex -38.605190614168045 75.24779546386384 361.05690800963674
  vertex -38.6757803406935 75.61948585317269 358.84199837429725
 endloop
endfacet
facet normal 0.7460441439981684 -0.6148102980292325 -0.2557859117372311
 outer loop
  vertex -6.465102465734644 112.34920731445963 364.506018706145
  vertex -38.6757803406935 75.61948585317269 358.84199837429725
  vertex -38.915501663142976 76.12857828827298 356.9191482954445
 endloop
endfacet
facet normal 0.7434762021812605 -0.6075320713214298 -0.2795494931242452
 outer loop
  vertex -6.465102465734644 112.34920731445963 364.506018706145
  vertex -38.915501663142976 76.12857828827298 356.9191482954445
  vertex -39.13049528811045 76.72379323631569 355.05380842942617
 endloop
endfacet
facet normal 0.7415633253624457 -0.6006731230367184 -0.29879028387601025
 outer loop
  vertex -6.465102465734644 112.34920731445963 364.506018706145
  vertex -39.13049528811045 76.72379323631569 355.05380842942617
  vertex -39.23130912686678 77.47321508720779 353.296999599003
 endloop
endfacet
facet normal 0.744872001525455 -0.623342499485706 -0.23792820278053445
 outer loop
  vertex -6.465102465734644 112.34920731445963 364.506018706145
  vertex -39.23130912686678 77.47321508720779 353.296999599003
  vertex -39.18147199744712 78.10812326798735 351.7896416405152
 endloop
endfacet
facet normal 0.6483589822445327 -0.3730048164266252 -0.6637002614624867
 outer loop
  vertex -6.465102465734644 112.34920731445963 364.506018706145
  vertex -39.18147199744712 78.10812326798735 351.7896416405152
  vertex -39.64053538746808 79.18211333477745 350.7375984508558
 endloop
endfacet
facet normal 0.6585024072553722 -0.7317167813103722 0.17596912111978236
 outer loop
  vertex -6.465102465734644 112.34920731445963 364.506018706145
  vertex -39.64053538746808 79.18211333477745 350.7375984508558
  vertex -38.880436142284516 79.39185690400423 348.7653530300529
 endloop
endfacet
facet normal 0.7397770712798799 -0.5290562903840097 -0.4157274665134286
 outer loop
  vertex -6.465102465734644 112.34920731445963 364.506018706145
  vertex -38.880436142284516 79.39185690400423 348.7653530300529
  vertex -38.857593208904355 80.80667804985576 347.0054949317619
 endloop
endfacet
facet normal 0.7404069283311586 -0.5335266557077828 -0.408836016183124
 outer loop
  vertex -6.465102465734644 112.34920731445963 364.506018706145
  vertex -38.857593208904355 80.80667804985576 347.0054949317619
  vertex -38.60292289886814 82.30157732495996 345.5158782522899
 endloop
endfacet
facet normal 0.7406333104776968 -0.5956033185036038 -0.3109967626814501
 outer loop
  vertex -6.465102465734644 112.34920731445963 364.506018706145
  vertex -38.60292289886814 82.30157732495996 345.5158782522899
  vertex -38.02338902563983 83.79223927263855 344.041196947613
 endloop
endfacet
facet normal 0.7432935431256565 -0.5184626984459366 -0.42274240273228525
 outer loop
  vertex -6.465102465734644 112.34920731445963 364.506018706145
  vertex -38.02338902563983 83.79223927263855 344.041196947613
  vertex -37.519653690784814 85.61669998658421 342.68932971256584
 endloop
endfacet
facet normal 0.6903153678247694 -0.7157646760006637 -0.10557282573947785
 outer loop
  vertex -6.465102465734644 112.34920731445963 364.506018706145
  vertex -37.519653690784814 85.61669998658421 342.68932971256584
  vertex -36.3117641022123 86.98507702946141 341.3100807998397
 endloop
endfacet
facet normal 0.684269236243446 -0.7237736386888786 -0.08903556744285888
 outer loop
  vertex -6.465102465734644 112.34920731445963 364.506018706145
  vertex -36.3117641022123 86.98507702946141 341.3100807998397
  vertex -35.166792649411555 88.22300233673887 340.04644014727745
 endloop
endfacet
facet normal 0.7166469973533367 -0.6751183444413081 -0.17502086213727097
 outer loop
  vertex -6.465102465734644 112.34920731445963 364.506018706145
  vertex -35.166792649411555 88.22300233673887 340.04644014727745
  vertex -33.96386965869094 89.7953702418235 338.90678590748905
 endloop
endfacet
facet normal 0.7308497448060611 -0.1307319205948135 -0.6699013475538819
 outer loop
  vertex -6.465102465734644 112.34920731445963 364.506018706145
  vertex -33.96386965869094 89.7953702418235 338.90678590748905
  vertex -33.683242634745746 92.19579013668695 338.74450034909984
 endloop
endfacet
facet normal 0.7686535643129024 -0.3987396565692892 -0.5001783525384478
 outer loop
  vertex -6.465102465734644 112.34920731445963 364.506018706145
  vertex -33.683242634745746 92.19579013668695 338.74450034909984
  vertex -32.82576282835648 94.05211000240462 338.5823913017569
 endloop
endfacet
facet normal 0.6373295656985231 -0.7627391870729251 -0.10972673871880698
 outer loop
  vertex -6.465102465734644 112.34920731445963 364.506018706145
  vertex -32.82576282835648 94.05211000240462 338.5823913017569
  vertex -31.452072634873353 95.32279760256112 337.72836197541153
 endloop
endfacet
facet normal 0.756648569379395 -0.5468995239849622 -0.3583069258626416
 outer loop
  vertex -6.465102465734644 112.34920731445963 364.506018706145
  vertex -31.452072634873353 95.32279760256112 337.72836197541153
  vertex -30.606354393352103 96.6059562007163 337.5557520577152
 endloop
endfacet
facet normal 0.7082431987385097 0.10819768128520364 -0.6976280048888155
 outer loop
  vertex -6.465102465734644 112.34920731445963 364.506018706145
  vertex -30.606354393352103 96.6059562007163 337.5557520577152
  vertex -30.445166433615327 97.93466086484165 337.92546634407677
 endloop
endfacet
facet normal 0.5292355545279632 -0.8482958912577857 -0.017430108968054005
 outer loop
  vertex -6.465102465734644 112.34920731445963 364.506018706145
  vertex -30.445166433615327 97.93466086484165 337.92546634407677
  vertex -28.99517720929651 98.84964760149187 337.42095784789177
 endloop
endfacet
facet normal 0.5664865815351371 -0.8217623234533729 -0.06164119315156784
 outer loop
  vertex -6.465102465734644 112.34920731445963 364.506018706145
  vertex -28.99517720929651 98.84964760149187 337.42095784789177
  vertex -27.502994281114187 99.91401659505145 336.94470601616666
 endloop
endfacet
facet normal 0.5041934903558223 -0.8635775190202457 0.004774193717324328
 outer loop
  vertex -6.465102465734644 112.34920731445963 364.506018706145
  vertex -27.502994281114187 99.91401659505145 336.94470601616666
  vertex -25.774035307457925 100.92113564883843 336.5248475225494
 endloop
endfacet
facet normal 0.7382225454532428 0.2681822810463888 -0.6189553598744345
 outer loop
  vertex -6.465102465734644 112.34920731445963 364.506018706145
  vertex -25.774035307457925 100.92113564883843 336.5248475225494
  vertex -25.521260037764932 102.35075103691848 337.44575709982547
 endloop
endfacet
facet normal 0.7509380148326545 -0.5808311121672821 -0.3142090339530518
 outer loop
  vertex -6.465102465734644 112.34920731445963 364.506018706145
  vertex -25.521260037764932 102.35075103691848 337.44575709982547
  vertex -24.33569362784609 103.67651684020429 337.8284350222523
 endloop
endfacet
facet normal 0.8433912638995973 -0.16247346752668076 -0.5121460224659531
 outer loop
  vertex -6.465102465734644 112.34920731445963 364.506018706145
  vertex -24.33569362784609 103.67651684020429 337.8284350222523
  vertex -23.519876143029684 104.92481005652941 338.77589686125657
 endloop
endfacet
facet normal 0.5970035429591021 -0.7841383730345732 -0.16945141377094483
 outer loop
  vertex -6.465102465734644 112.34920731445963 364.506018706145
  vertex -23.519876143029684 104.92481005652941 338.77589686125657
  vertex -22.13032706823528 105.91860007017779 339.0727184410136
 endloop
endfacet
facet normal 0.6304202246105405 -0.7504302618185799 -0.19855669857472308
 outer loop
  vertex -6.465102465734644 112.34920731445963 364.506018706145
  vertex -22.13032706823528 105.91860007017779 339.0727184410136
  vertex -20.68986852245377 106.96629900219368 339.6864938360963
 endloop
endfacet
facet normal 0.799860725551312 -0.4852728788682829 -0.35317566840797154
 outer loop
  vertex -6.465102465734644 112.34920731445963 364.506018706145
  vertex -20.68986852245377 106.96629900219368 339.6864938360963
  vertex -19.49075212731474 108.22172875814648 340.677219215128
 endloop
endfacet
facet normal 0.23305892510167797 -0.9716022757826303 0.04089688404345945
 outer loop
  vertex -6.465102465734644 112.34920731445963 364.506018706145
  vertex -19.49075212731474 108.22172875814648 340.677219215128
  vertex -17.614538047809347 108.66140209563005 340.4307255869223
 endloop
endfacet
facet normal 0.7424898287482875 -0.6220300393782539 -0.2485708838871249
 outer loop
  vertex -6.465102465734644 112.34920731445963 364.506018706145
  vertex -17.614538047809347 108.66140209563005 340.4307255869223
  vertex -16.312062095679277 109.63232418136374 341.89160643404745
 endloop
endfacet
facet normal 0.6364796822974705 -0.7482183733507642 -0.18725084726870372
 outer loop
  vertex -6.465102465734644 112.34920731445963 364.506018706145
  vertex -16.312062095679277 109.63232418136374 341.89160643404745
  vertex -14.80853492126391 110.52805858895924 343.4230257097135
 endloop
endfacet
facet normal 0.9071750029446801 -0.2515482561325294 -0.3372787999104051
 outer loop
  vertex -6.465102465734644 112.34920731445963 364.506018706145
  vertex -14.80853492126391 110.52805858895924 343.4230257097135
  vertex -14.021873092578758 111.08890994526057 345.12060873680815
 endloop
endfacet
facet normal 0.5671524441599954 0.7775296955751395 -0.2716351920907416
 outer loop
  vertex -6.465102465734644 112.34920731445963 364.506018706145
  vertex -14.021873092578758 111.08890994526057 345.12060873680815
  vertex -14.126240625405707 111.74211129923329 346.77242397148524
 endloop
endfacet
facet normal 0.7983167337711207 0.48176539604656704 -0.3613758372568705
 outer loop
  vertex -6.465102465734644 112.34920731445963 364.506018706145
  vertex -14.126240625405707 111.74211129923329 346.77242397148524
  vertex -13.956857370006826 112.60158069700566 348.29240412893785
 endloop
endfacet
facet normal 0.24688725020427912 -0.9604158421291916 -0.12902750045569825
 outer loop
  vertex -6.465102465734644 112.34920731445963 364.506018706145
  vertex -13.956857370006826 112.60158069700566 348.29240412893785
  vertex -12.642028939808187 112.77338687731127 349.52941947618734
 endloop
endfacet
facet normal 0.41741292204788527 -0.8870438300847131 -0.19728075429724237
 outer loop
  vertex -6.465102465734644 112.34920731445963 364.506018706145
  vertex -12.642028939808187 112.77338687731127 349.52941947618734
  vertex -11.088170870170252 113.18794495174473 350.95312274697915
 endloop
endfacet
facet normal 0.8197685442310447 0.5163674288220209 -0.24767763795112552
 outer loop
  vertex -6.465102465734644 112.34920731445963 364.506018706145
  vertex -11.088170870170252 113.18794495174473 350.95312274697915
  vertex -10.627172853637632 113.5558673985106 353.24600169013513
 endloop
endfacet
facet normal -0.2871862932555898 -0.9578683348295326 0.0035051529228982145
 outer loop
  vertex -6.465102465734644 112.34920731445963 364.506018706145
  vertex -10.627172853637632 113.5558673985106 353.24600169013513
  vertex -9.200412537961263 113.13397070582386 354.85064606744305
 endloop
endfacet
facet normal 0.34270053012315477 -0.9235374927700873 -0.17214774497869445
 outer loop
  vertex -6.465102465734644 112.34920731445963 364.506018706145
  vertex -9.200412537961263 113.13397070582386 354.85064606744305
  vertex -7.69883440977659 113.43038589200593 356.2496831719631
 endloop
endfacet
facet normal 0.5620820056071906 -0.8050987093846182 -0.18941986991817888
 outer loop
  vertex -6.465102465734644 112.34920731445963 364.506018706145
  vertex -7.69883440977659 113.43038589200593 356.2496831719631
  vertex -6.704685471217781 113.81673529654819 357.55759148377814
 endloop
endfacet
facet normal 0.2040317983002759 -0.9563883716365101 -0.20902705059589763
 outer loop
  vertex -6.465102465734644 112.34920731445963 364.506018706145
  vertex -6.704685471217781 113.81673529654819 357.55759148377814
  vertex -6.354947404827143 113.5087415882257 359.3081748975201
 endloop
endfacet
facet normal 0.20003623060362014 0.9553734703328072 0.2173638392882868
 outer loop
  vertex -6.465102465734644 112.34920731445963 364.506018706145
  vertex -6.354947404827143 113.5087415882257 359.3081748975201
  vertex -6.874595230147511 113.16451948335978 361.29934813280437
 endloop
endfacet
facet normal 0.3892394713268346 0.9033817674204067 0.17998337771469006
 outer loop
  vertex -6.465102465734644 112.34920731445963 364.506018706145
  vertex -6.874595230147511 113.16451948335978 361.29934813280437
  vertex -7.555477767293179 113.09067765904433 363.14248343099706
 endloop
endfacet
facet normal 0.6998747112831639 0.35116112811539224 0.6219817124377798
 outer loop
  vertex 27.984908168808776 102.01495212606801 428.02192957629114
  vertex 27.078333617412067 100.90780555463087 429.66711531241157
  vertex 26.63573871737131 99.52805652993143 430.9441226359837
 endloop
endfacet
facet normal 0.8086190653035447 -0.5765199938379577 -0.1173026169047521
 outer loop
  vertex 27.984908168808776 102.01495212606801 428.02192957629114
  vertex 26.63573871737131 99.52805652993143 430.9441226359837
  vertex 25.715977055475918 98.02305258992561 432.0006041548487
 endloop
endfacet
facet normal 0.9032086238376532 -0.09655442372307364 0.4182002212873612
 outer loop
  vertex 27.984908168808776 102.01495212606801 428.02192957629114
  vertex 25.715977055475918 98.02305258992561 432.0006041548487
  vertex 25.039735962139087 96.1963519732992 433.0393667853538
 endloop
endfacet
facet normal 0.9120874720600435 -0.12493858029800398 0.39049557547331887
 outer loop
  vertex 27.984908168808776 102.01495212606801 428.02192957629114
  vertex 25.039735962139087 96.1963519732992 433.0393667853538
  vertex 24.64788836072556 94.07838534875516 433.27697138536627
 endloop
endfacet
facet normal 0.9417150284116921 -0.23958710356157803 0.23615847448385083
 outer loop
  vertex 27.984908168808776 102.01495212606801 428.02192957629114
  vertex 24.64788836072556 94.07838534875516 433.27697138536627
  vertex 24.045498817214867 92.23721772612299 433.8111858296288
 endloop
endfacet
facet normal -0.7714709612504406 -0.0639905189806008 -0.6330385212828005
 outer loop
  vertex 27.984908168808776 102.01495212606801 428.02192957629114
  vertex 24.045498817214867 92.23721772612299 433.8111858296288
  vertex 22.67098170284937 92.1662552756397 435.4934546453579
 endloop
endfacet
facet normal 0.686740159418944 -0.6366571947308898 -0.35079277335577685
 outer loop
  vertex 27.984908168808776 102.01495212606801 428.02192957629114
  vertex 22.67098170284937 92.1662552756397 435.4934546453579
  vertex 21.565251396929746 90.862044631214 435.695812530264
 endloop
endfacet
facet normal 0.27296128153581284 -0.6469924566450591 -0.7119641141425024
 outer loop
  vertex 27.984908168808776 102.01495212606801 428.02192957629114
  vertex 21.565251396929746 90.862044631214 435.695812530264
  vertex 20.380826804758808 89.67616936239736 436.3193696591503
 endloop
endfacet
facet normal 0.49043886562750016 -0.6738603490794185 -0.5526137430616208
 outer loop
  vertex 27.984908168808776 102.01495212606801 428.02192957629114
  vertex 20.380826804758808 89.67616936239736 436.3193696591503
  vertex 19.15844890576497 88.45831484020634 436.71958092077335
 endloop
endfacet
facet normal 0.614939128857475 -0.6686154749332924 -0.41809474342514463
 outer loop
  vertex 27.984908168808776 102.01495212606801 428.02192957629114
  vertex 19.15844890576497 88.45831484020634 436.71958092077335
  vertex 18.077132973329082 87.29127100412678 436.99549946084255
 endloop
endfacet
facet normal 0.8669373069597921 -0.4339060477289043 0.24524528037372084
 outer loop
  vertex 27.984908168808776 102.01495212606801 428.02192957629114
  vertex 18.077132973329082 87.29127100412678 436.99549946084255
  vertex 17.547380341088584 85.76816755724845 436.17337772108647
 endloop
endfacet
facet normal 0.006393367357637616 -0.45171709084934586 -0.8921383271042862
 outer loop
  vertex 27.984908168808776 102.01495212606801 428.02192957629114
  vertex 17.547380341088584 85.76816755724845 436.17337772108647
  vertex 15.838620597146141 85.22691673931476 436.4351841125751
 endloop
endfacet
facet normal 0.833175601527711 -0.5373713177819939 0.13057750129398327
 outer loop
  vertex 27.984908168808776 102.01495212606801 428.02192957629114
  vertex 15.838620597146141 85.22691673931476 436.4351841125751
  vertex 14.764672782589484 83.4433263587975 435.9476330710224
 endloop
endfacet
facet normal 0.4254271223196299 -0.5941625039518145 -0.6826292423362396
 outer loop
  vertex 27.984908168808776 102.01495212606801 428.02192957629114
  vertex 14.764672782589484 83.4433263587975 435.9476330710224
  vertex 13.137588156987839 82.46765848202473 435.7828281456334
 endloop
endfacet
facet normal -0.05862249455715806 -0.3295960188087056 -0.9423003064402278
 outer loop
  vertex 27.984908168808776 102.01495212606801 428.02192957629114
  vertex 13.137588156987839 82.46765848202473 435.7828281456334
  vertex 11.600517574531573 82.52475098513237 435.85848284895746
 endloop
endfacet
facet normal 0.6379204344938689 -0.6809115781977575 -0.35974566283889053
 outer loop
  vertex 27.984908168808776 102.01495212606801 428.02192957629114
  vertex 11.600517574531573 82.52475098513237 435.85848284895746
  vertex 10.216298914815297 81.5156311245233 435.3139315389659
 endloop
endfacet
facet normal 0.4755624734651415 -0.6304455650567414 -0.6134971257732202
 outer loop
  vertex 27.984908168808776 102.01495212606801 428.02192957629114
  vertex 10.216298914815297 81.5156311245233 435.3139315389659
  vertex 8.518644851737053 80.92104742541211 434.60897646909353
 endloop
endfacet
facet normal 0.39411764828457485 -0.5850448328428103 -0.7087974484114374
 outer loop
  vertex 27.984908168808776 102.01495212606801 428.02192957629114
  vertex 8.518644851737053 80.92104742541211 434.60897646909353
  vertex 6.741489690648297 80.71434351721524 433.79142674370325
 endloop
endfacet
facet normal 0.3147281031276102 -0.5276025830577625 -0.7890384879411606
 outer loop
  vertex 27.984908168808776 102.01495212606801 428.02192957629114
  vertex 6.741489690648297 80.71434351721524 433.79142674370325
  vertex 4.720848632769729 80.91355607742642 432.85223607060124
 endloop
endfacet
facet normal 0.5162192189232796 -0.6863837585417707 -0.512245111274194
 outer loop
  vertex 27.984908168808776 102.01495212606801 428.02192957629114
  vertex 4.720848632769729 80.91355607742642 432.85223607060124
  vertex 3.148758333502803 80.49687896147252 431.82627640822324
 endloop
endfacet
facet normal 0.20034555090654738 -0.3901269646936532 -0.8987005127687806
 outer loop
  vertex 27.984908168808776 102.01495212606801 428.02192957629114
  vertex 3.148758333502803 80.49687896147252 431.82627640822324
  vertex 1.2515400649084822 80.84614056952196 431.25171836257016
 endloop
endfacet
facet normal 0.49548698883449205 -0.7034735947431542 -0.5095267857481806
 outer loop
  vertex 27.984908168808776 102.01495212606801 428.02192957629114
  vertex 1.2515400649084822 80.84614056952196 431.25171836257016
  vertex -0.4242673791703482 80.65982998543585 429.8793151296754
 endloop
endfacet
facet normal 0.5102501813242789 -0.7197417479264027 -0.4707616899774101
 outer loop
  vertex 27.984908168808776 102.01495212606801 428.02192957629114
  vertex -0.4242673791703482 80.65982998543585 429.8793151296754
  vertex -1.6835607834784576 80.51888132279876 428.7298841912735
 endloop
endfacet
facet normal 0.24031416200119837 -0.3613484290255806 -0.9009308610445125
 outer loop
  vertex 27.984908168808776 102.01495212606801 428.02192957629114
  vertex -1.6835607834784576 80.51888132279876 428.7298841912735
  vertex -3.006413757502929 81.27315004160398 428.07450191274626
 endloop
endfacet
facet normal 0.5556509814603169 -0.8303323381056766 -0.04242870606260732
 outer loop
  vertex 27.984908168808776 102.01495212606801 428.02192957629114
  vertex -3.006413757502929 81.27315004160398 428.07450191274626
  vertex -4.014528376071822 80.6956069979785 426.1746746744812
 endloop
endfacet
facet normal 0.16913150365688623 -0.16973658148831952 -0.9708676672829412
 outer loop
  vertex 27.984908168808776 102.01495212606801 428.02192957629114
  vertex -4.014528376071822 80.6956069979785 426.1746746744812
  vertex -4.914179750624346 82.3759848477918 425.7241694240539
 endloop
endfacet
facet normal 0.46249451726414 -0.7131296308600962 -0.5268253516014135
 outer loop
  vertex 27.984908168808776 102.01495212606801 428.02192957629114
  vertex -4.914179750624346 82.3759848477918 425.7241694240539
  vertex -5.522461539876932 83.06882913513765 424.25230634646596
 endloop
endfacet
facet normal 0.45354569974828046 -0.6898532340457209 -0.5642683880180625
 outer loop
  vertex 27.984908168808776 102.01495212606801 428.02192957629114
  vertex -5.522461539876932 83.06882913513765 424.25230634646596
  vertex -6.0405348418307625 84.0424590109242 422.6455680352611
 endloop
endfacet
facet normal 0.36312765095218424 -0.4421256308510227 -0.8201604938416224
 outer loop
  vertex 27.984908168808776 102.01495212606801 428.02192957629114
  vertex -6.0405348418307625 84.0424590109242 422.6455680352611
  vertex -6.096000813491648 85.54621800530654 421.81037586594834
 endloop
endfacet
facet normal 0.4376289946471022 -0.6867228499491879 -0.5804244915592656
 outer loop
  vertex 27.984908168808776 102.01495212606801 428.02192957629114
  vertex -6.096000813491648 85.54621800530654 421.81037586594834
  vertex -6.090105557508905 86.677584597422 420.47625684308343
 endloop
endfacet
facet normal 0.412246716896855 -0.5637893758456682 -0.7156774301955571
 outer loop
  vertex 27.984908168808776 102.01495212606801 428.02192957629114
  vertex -6.090105557508905 86.677584597422 420.47625684308343
  vertex -5.773700538999985 88.38216184434376 419.3156982212951
 endloop
endfacet
facet normal 0.22209412588554073 0.07105202801804404 -0.9724329326805322
 outer loop
  vertex 27.984908168808776 102.01495212606801 428.02192957629114
  vertex -5.773700538999985 88.38216184434376 419.3156982212951
  vertex -5.115281295160052 90.76363950503922 419.64008034914986
 endloop
endfacet
facet normal 0.3654594434102168 -0.4818484149185983 -0.7964053617742217
 outer loop
  vertex 27.984908168808776 102.01495212606801 428.02192957629114
  vertex -5.115281295160052 90.76363950503922 419.64008034914986
  vertex -4.112898416191549 92.33489775430968 419.14940308030725
 endloop
endfacet
facet normal 0.3070118704181723 -0.9486963309832505 -0.07562395785235167
 outer loop
  vertex 27.984908168808776 102.01495212606801 428.02192957629114
  vertex -4.112898416191549 92.33489775430968 419.14940308030725
  vertex -2.944792330094492 92.80620455926196 417.97907816212523
 endloop
endfacet
facet normal 0.36220562966640835 -0.8793072920264307 -0.30923416374505885
 outer loop
  vertex 27.984908168808776 102.01495212606801 428.02192957629114
  vertex -2.944792330094492 92.80620455926196 417.97907816212523
  vertex -2.0485689596322882 93.45970134271474 417.17060559959185
 endloop
endfacet
facet normal 0.41408317706238507 -0.6641443861052096 -0.6224526944907988
 outer loop
  vertex 27.984908168808776 102.01495212606801 428.02192957629114
  vertex -2.0485689596322882 93.45970134271474 417.17060559959185
  vertex -0.8744221489321973 94.42881860578453 416.9176717631308
 endloop
endfacet
facet normal 0.4025991048306314 -0.7371051858951714 -0.5427613708767595
 outer loop
  vertex 27.984908168808776 102.01495212606801 428.02192957629114
  vertex -0.8744221489321973 94.42881860578453 416.9176717631308
  vertex 0.17705853584258385 95.38653812344437 416.39697361505415
 endloop
endfacet
facet normal 0.3480015203817365 0.16008244897718604 -0.9237253657562221
 outer loop
  vertex 27.984908168808776 102.01495212606801 428.02192957629114
  vertex 0.17705853584258385 95.38653812344437 416.39697361505415
  vertex 0.9546256389899677 96.23879009968515 416.83760795582833
 endloop
endfacet
facet normal 0.39805236717288056 -0.6881759329032034 -0.6066038232329828
 outer loop
  vertex 27.984908168808776 102.01495212606801 428.02192957629114
  vertex 0.9546256389899677 96.23879009968515 416.83760795582833
  vertex 2.5398881022628217 97.77013100172849 416.14058881159184
 endloop
endfacet
facet normal 0.3420574692669661 -0.832949095939464 -0.43496263206430513
 outer loop
  vertex 27.984908168808776 102.01495212606801 428.02192957629114
  vertex 2.5398881022628217 97.77013100172849 416.14058881159184
  vertex 3.9495085824283933 98.96432045098986 414.96226274335476
 endloop
endfacet
facet normal 0.4632138967608876 0.11328841286599446 -0.8789758935021471
 outer loop
  vertex 27.984908168808776 102.01495212606801 428.02192957629114
  vertex 3.9495085824283933 98.96432045098986 414.96226274335476
  vertex 4.707178207094644 100.31381468675163 415.5354811480516
 endloop
endfacet
facet normal 0.4143175657313692 -0.591378053442417 -0.6918185836135732
 outer loop
  vertex 27.984908168808776 102.01495212606801 428.02192957629114
  vertex 4.707178207094644 100.31381468675163 415.5354811480516
  vertex 5.848946431007898 101.60042867317716 415.1194462937122
 endloop
endfacet
facet normal 0.4451498242496236 -0.4924387684015473 -0.7478941725576531
 outer loop
  vertex 27.984908168808776 102.01495212606801 428.02192957629114
  vertex 5.848946431007898 101.60042867317716 415.1194462937122
  vertex 7.094787815058727 103.12519568207614 414.85701837007
 endloop
endfacet
facet normal 0.5257296945247449 -0.11001569664771843 -0.8435074598283263
 outer loop
  vertex 27.984908168808776 102.01495212606801 428.02192957629114
  vertex 7.094787815058727 103.12519568207614 414.85701837007
  vertex 7.913489103922911 105.31610900125108 415.0815341359843
 endloop
endfacet
facet normal 0.2934047209782581 -0.7128863784561766 -0.6369510822027916
 outer loop
  vertex 27.984908168808776 102.01495212606801 428.02192957629114
  vertex 7.913489103922911 105.31610900125108 415.0815341359843
  vertex 9.389754034544351 106.5161897080642 414.4184092890723
 endloop
endfacet
facet normal -0.08173261340190043 -0.9741474104950131 -0.21061007224811415
 outer loop
  vertex 27.984908168808776 102.01495212606801 428.02192957629114
  vertex 9.389754034544351 106.5161897080642 414.4184092890723
  vertex 10.61032562203474 106.72076074184426 412.9985206516641
 endloop
endfacet
facet normal 0.5030656806769362 -0.4660948790970249 -0.7277915117700815
 outer loop
  vertex 27.984908168808776 102.01495212606801 428.02192957629114
  vertex 10.61032562203474 106.72076074184426 412.9985206516641
  vertex 11.657780182284442 108.34535296147683 412.68211730106526
 endloop
endfacet
facet normal 0.5212409928602075 -0.43491854058293494 -0.7342708563052976
 outer loop
  vertex 27.984908168808776 102.01495212606801 428.02192957629114
  vertex 11.657780182284442 108.34535296147683 412.68211730106526
  vertex 12.75707470313371 109.93222131576563 412.52255615241666
 endloop
endfacet
facet normal -0.10038270759417538 -0.9225387073781696 -0.3726199745116712
 outer loop
  vertex 27.984908168808776 102.01495212606801 428.02192957629114
  vertex 12.75707470313371 109.93222131576563 412.52255615241666
  vertex 13.94073908194912 110.29197293771995 411.3130014791497
 endloop
endfacet
facet normal 0.6096482716121072 -0.3751697468921429 -0.6982668873269416
 outer loop
  vertex 27.984908168808776 102.01495212606801 428.02192957629114
  vertex 13.94073908194912 110.29197293771995 411.3130014791497
  vertex 15.308728938475001 111.35785209994921 411.93469362005095
 endloop
endfacet
facet normal 0.5685436401167699 -0.4330117562400876 -0.6994704770329108
 outer loop
  vertex 27.984908168808776 102.01495212606801 428.02192957629114
  vertex 15.308728938475001 111.35785209994921 411.93469362005095
  vertex 16.7831541699705 112.33980970908468 412.52524877980784
 endloop
endfacet
facet normal 0.5787701594510941 -0.42064980550485953 -0.6986263977675614
 outer loop
  vertex 27.984908168808776 102.01495212606801 428.02192957629114
  vertex 16.7831541699705 112.33980970908468 412.52524877980784
  vertex 18.254882898021574 113.09458100473775 413.290032752462
 endloop
endfacet
facet normal 0.6797893424758015 -0.2955156111396505 -0.6712354083546818
 outer loop
  vertex 27.984908168808776 102.01495212606801 428.02192957629114
  vertex 18.254882898021574 113.09458100473775 413.290032752462
  vertex 19.570432620116097 113.73861479681693 414.3388073435426
 endloop
endfacet
facet normal -0.24166190790447845 -0.8053046873837091 -0.541372221993144
 outer loop
  vertex 27.984908168808776 102.01495212606801 428.02192957629114
  vertex 19.570432620116097 113.73861479681693 414.3388073435426
  vertex 21.188897089067122 112.98859967621645 414.73201089580874
 endloop
endfacet
facet normal 0.8729601086798529 -0.04733758248851116 -0.4854892397755103
 outer loop
  vertex 27.984908168808776 102.01495212606801 428.02192957629114
  vertex 21.188897089067122 112.98859967621645 414.73201089580874
  vertex 22.098720775363603 113.66442338801617 416.3020723120336
 endloop
endfacet
facet normal 0.14598839834617056 -0.6640047957129254 -0.7333382703899721
 outer loop
  vertex 27.984908168808776 102.01495212606801 428.02192957629114
  vertex 22.098720775363603 113.66442338801617 416.3020723120336
  vertex 22.998105091496345 112.34090378802067 417.6795035442667
 endloop
endfacet
facet normal -0.8999334294893211 -0.4360250387609342 -0.0014099862109341055
 outer loop
  vertex 27.984908168808776 102.01495212606801 428.02192957629114
  vertex 22.998105091496345 112.34090378802067 417.6795035442667
  vertex 23.764491953605663 110.75692629273385 418.3580148927213
 endloop
endfacet
facet normal 0.8991341856492336 -0.04695744774049103 -0.43514677328297907
 outer loop
  vertex 27.984908168808776 102.01495212606801 428.02192957629114
  vertex 23.764491953605663 110.75692629273385 418.3580148927213
  vertex 24.46924167149315 110.06095152565682 419.88932755167946
 endloop
endfacet
facet normal -0.004919444863474543 -0.711935522044145 -0.7022276066304756
 outer loop
  vertex 27.984908168808776 102.01495212606801 428.02192957629114
  vertex 24.46924167149315 110.06095152565682 419.88932755167946
  vertex 25.856629629176986 108.90220447118746 421.05437432975236
 endloop
endfacet
facet normal -0.10018141480643104 -0.7227455305899644 -0.6838147279341185
 outer loop
  vertex 27.984908168808776 102.01495212606801 428.02192957629114
  vertex 25.856629629176986 108.90220447118746 421.05437432975236
  vertex 27.2133672033292 107.69229699677211 422.13439688512005
 endloop
endfacet
facet normal 0.9917277559732808 0.0016741069842330066 -0.1283481803455204
 outer loop
  vertex 27.984908168808776 102.01495212606801 428.02192957629114
  vertex 27.2133672033292 107.69229699677211 422.13439688512005
  vertex 27.4574760064276 106.59722565478259 424.0063066253397
 endloop
endfacet
facet normal 0.317872832656606 -0.6039324234368171 -0.7309052539013511
 outer loop
  vertex 27.984908168808776 102.01495212606801 428.02192957629114
  vertex 27.4574760064276 106.59722565478259 424.0063066253397
  vertex 27.93141571127407 105.18065724015827 425.38290659739556
 endloop
endfacet
facet normal 0.10139784859559885 -0.6360066706906362 -0.7649928046309957
 outer loop
  vertex 27.984908168808776 102.01495212606801 428.02192957629114
  vertex 27.93141571127407 105.18065724015827 425.38290659739556
  vertex 28.110940298036137 103.70639022990727 426.6323916304313
 endloop
endfacet
endsolid
