solid
facet normal 0.08370567413247093 0.9949227736248311 -0.05587517016262059
 outer loop
  vertex 20.664238930923435 154.75824961672598 383.0784463488182
  vertex 20.103136611658563 154.6784272301669 380.8165372082065
  vertex 18.457987300692718 154.73009736447887 379.2720132536741
 endloop
endfacet
facet normal -0.39308991800686544 -0.8891174338789231 0.2344152408311259
 outer loop
  vertex 20.664238930923435 154.75824961672598 383.0784463488182
  vertex 18.457987300692718 154.73009736447887 379.2720132536741
  vertex 18.728390862152967 154.1177250555734 377.4027748009362
 endloop
endfacet
facet normal -0.5215277376207098 0.8492813504239508 0.08203661813053083
 outer loop
  vertex 20.664238930923435 154.75824961672598 383.0784463488182
  vertex 18.728390862152967 154.1177250555734 377.4027748009362
  vertex 17.217686192444518 153.31063689351282 376.15419256102575
 endloop
endfacet
facet normal -0.4565084429735475 0.8887543851819064 0.041420819810802
 outer loop
  vertex 20.664238930923435 154.75824961672598 383.0784463488182
  vertex 17.217686192444518 153.31063689351282 376.15419256102575
  vertex 15.723580219394671 152.61624789557652 374.5866059040477
 endloop
endfacet
facet normal -0.6915868799091176 -0.493969684407202 0.5269739447299278
 outer loop
  vertex 20.664238930923435 154.75824961672598 383.0784463488182
  vertex 15.723580219394671 152.61624789557652 374.5866059040477
  vertex 15.25946353707393 151.53013237412668 372.9594189089871
 endloop
endfacet
facet normal 0.17271721721633415 -0.9613468230783047 0.21443192074478148
 outer loop
  vertex 20.664238930923435 154.75824961672598 383.0784463488182
  vertex 15.25946353707393 151.53013237412668 372.9594189089871
  vertex 15.381895659516664 151.1522573248823 371.1667048752618
 endloop
endfacet
facet normal -0.8669305024378074 0.42840434103003094 0.25475718739528436
 outer loop
  vertex 20.664238930923435 154.75824961672598 383.0784463488182
  vertex 15.381895659516664 151.1522573248823 371.1667048752618
  vertex 14.43015630638814 150.0708291753524 369.7465158492875
 endloop
endfacet
facet normal -0.8419251589864465 0.4924671828793974 0.22054047350197903
 outer loop
  vertex 20.664238930923435 154.75824961672598 383.0784463488182
  vertex 14.43015630638814 150.0708291753524 369.7465158492875
  vertex 13.423274049164869 148.81991112479128 368.6959902362715
 endloop
endfacet
facet normal -0.8876857129337132 0.34565847470637506 0.30419450014263477
 outer loop
  vertex 20.664238930923435 154.75824961672598 383.0784463488182
  vertex 13.423274049164869 148.81991112479128 368.6959902362715
  vertex 12.652691750586701 147.74069806196368 367.67363198928985
 endloop
endfacet
facet normal -0.7475598139707681 0.658213061772207 0.08893756151619812
 outer loop
  vertex 20.664238930923435 154.75824961672598 383.0784463488182
  vertex 12.652691750586701 147.74069806196368 367.67363198928985
  vertex 11.329959695847318 146.2539075541242 367.5589853065898
 endloop
endfacet
facet normal -0.8807244018968761 0.14227002823755736 0.4517563137009537
 outer loop
  vertex 20.664238930923435 154.75824961672598 383.0784463488182
  vertex 11.329959695847318 146.2539075541242 367.5589853065898
  vertex 10.442327882373718 144.75324994719466 366.3010938711431
 endloop
endfacet
facet normal -0.8231517370060425 0.5383814890976657 0.180462156866516
 outer loop
  vertex 20.664238930923435 154.75824961672598 383.0784463488182
  vertex 10.442327882373718 144.75324994719466 366.3010938711431
  vertex 9.45954991023106 143.0481278277554 366.9052692439179
 endloop
endfacet
facet normal -0.8027677634629755 0.5806347187572874 0.13574697535598385
 outer loop
  vertex 20.664238930923435 154.75824961672598 383.0784463488182
  vertex 9.45954991023106 143.0481278277554 366.9052692439179
  vertex 8.407375051494748 141.4506401037881 367.5159994424129
 endloop
endfacet
facet normal -0.8553266685819529 0.3930001951183827 0.3375901903927468
 outer loop
  vertex 20.664238930923435 154.75824961672598 383.0784463488182
  vertex 8.407375051494748 141.4506401037881 367.5159994424129
  vertex 7.670730520209248 139.79621336514 367.5755933488615
 endloop
endfacet
facet normal -0.8437914634888705 0.23071133508667865 0.48454952895017106
 outer loop
  vertex 20.664238930923435 154.75824961672598 383.0784463488182
  vertex 7.670730520209248 139.79621336514 367.5755933488615
  vertex 6.855676179522168 137.71433390069248 367.1475200729087
 endloop
endfacet
facet normal -0.860106753499227 0.3497417278186088 0.37134498301104596
 outer loop
  vertex 20.664238930923435 154.75824961672598 383.0784463488182
  vertex 6.855676179522168 137.71433390069248 367.1475200729087
  vertex 6.106259281818312 136.28832352380797 366.7547769136499
 endloop
endfacet
facet normal -0.8342537755477495 0.5330922280561959 0.14083080050331995
 outer loop
  vertex 20.664238930923435 154.75824961672598 383.0784463488182
  vertex 6.106259281818312 136.28832352380797 366.7547769136499
  vertex 5.187204005922697 134.72579355886717 367.2251800238013
 endloop
endfacet
facet normal -0.8552703324531579 0.40963604263558234 0.31734991885822844
 outer loop
  vertex 20.664238930923435 154.75824961672598 383.0784463488182
  vertex 5.187204005922697 134.72579355886717 367.2251800238013
  vertex 3.9349856531225833 132.19095213656695 367.1223824617888
 endloop
endfacet
facet normal -0.8547530504227936 0.44639639586924057 0.26481593711081963
 outer loop
  vertex 20.664238930923435 154.75824961672598 383.0784463488182
  vertex 3.9349856531225833 132.19095213656695 367.1223824617888
  vertex 3.1854258354984033 130.06473460261319 368.2871435663036
 endloop
endfacet
facet normal 0.7464054743738423 -0.6392219601960213 0.18513279943844488
 outer loop
  vertex 20.664238930923435 154.75824961672598 383.0784463488182
  vertex 3.1854258354984033 130.06473460261319 368.2871435663036
  vertex 3.277582200233555 129.7170695557755 366.7151846873223
 endloop
endfacet
facet normal -0.8348022898921024 0.5484837596778726 0.04765188517286516
 outer loop
  vertex 20.664238930923435 154.75824961672598 383.0784463488182
  vertex 3.277582200233555 129.7170695557755 366.7151846873223
  vertex 2.802829864445964 128.73085716916773 369.7496321194829
 endloop
endfacet
facet normal -0.8500797300199073 0.42203825217785634 0.31503676977131007
 outer loop
  vertex 20.664238930923435 154.75824961672598 383.0784463488182
  vertex 2.802829864445964 128.73085716916773 369.7496321194829
  vertex 2.9831876027959 127.70530459119888 371.6101796215141
 endloop
endfacet
facet normal -0.785998173161658 0.28006088529026824 0.5511558512045097
 outer loop
  vertex 20.664238930923435 154.75824961672598 383.0784463488182
  vertex 2.9831876027959 127.70530459119888 371.6101796215141
  vertex 4.152860166710796 126.71042476027581 373.78377067025656
 endloop
endfacet
facet normal -0.8018997792821135 0.30104971186040425 0.5160676457365501
 outer loop
  vertex 20.664238930923435 154.75824961672598 383.0784463488182
  vertex 4.152860166710796 126.71042476027581 373.78377067025656
  vertex 5.313041527878378 126.40013098031926 375.76754748508546
 endloop
endfacet
facet normal -0.8801205544134887 0.41878974760901233 0.22361340969734575
 outer loop
  vertex 20.664238930923435 154.75824961672598 383.0784463488182
  vertex 5.313041527878378 126.40013098031926 375.76754748508546
  vertex 6.148902538006706 126.9200957260688 378.0836096197745
 endloop
endfacet
facet normal -0.8581421195495847 0.3868966084388724 0.3374953585361492
 outer loop
  vertex 20.664238930923435 154.75824961672598 383.0784463488182
  vertex 6.148902538006706 126.9200957260688 378.0836096197745
  vertex 7.122911739927357 127.36144828061138 380.054245652825
 endloop
endfacet
facet normal -0.8790466683696418 0.40709819906622763 0.24808871627961443
 outer loop
  vertex 20.664238930923435 154.75824961672598 383.0784463488182
  vertex 7.122911739927357 127.36144828061138 380.054245652825
  vertex 7.927533082066263 127.90878048160889 382.0071025342449
 endloop
endfacet
facet normal -0.8704959770805718 0.4015874031721443 0.284542284203937
 outer loop
  vertex 20.664238930923435 154.75824961672598 383.0784463488182
  vertex 7.927533082066263 127.90878048160889 382.0071025342449
  vertex 8.762743289922518 128.09744135794858 384.2959830651936
 endloop
endfacet
facet normal -0.8995728981044103 0.4086182984959179 0.1542714721856667
 outer loop
  vertex 20.664238930923435 154.75824961672598 383.0784463488182
  vertex 8.762743289922518 128.09744135794858 384.2959830651936
  vertex 9.521544913978625 128.8458475210977 386.73833301966323
 endloop
endfacet
facet normal -0.8365378210418285 0.41091273950400226 0.36242957175140333
 outer loop
  vertex 20.664238930923435 154.75824961672598 383.0784463488182
  vertex 9.521544913978625 128.8458475210977 386.73833301966323
  vertex 10.551374146869296 128.96884173675323 388.97587453293033
 endloop
endfacet
facet normal -0.8576624173066368 0.40791255505809443 0.3130854921035358
 outer loop
  vertex 20.664238930923435 154.75824961672598 383.0784463488182
  vertex 10.551374146869296 128.96884173675323 388.97587453293033
  vertex 11.47522010249353 129.22764712508024 391.16945425995664
 endloop
endfacet
facet normal -0.8198402674133485 0.4188182566971128 0.39045256278426543
 outer loop
  vertex 20.664238930923435 154.75824961672598 383.0784463488182
  vertex 11.47522010249353 129.22764712508024 391.16945425995664
  vertex 12.614279655259988 129.41195359445226 393.3634620749667
 endloop
endfacet
facet normal -0.8296295726966962 0.41502863303634346 0.3734514772592036
 outer loop
  vertex 20.664238930923435 154.75824961672598 383.0784463488182
  vertex 12.614279655259988 129.41195359445226 393.3634620749667
  vertex 13.753409914547868 129.59689692286216 395.68852818489955
 endloop
endfacet
facet normal -0.8448368713084561 0.40642503989853196 0.34795020882479133
 outer loop
  vertex 20.664238930923435 154.75824961672598 383.0784463488182
  vertex 13.753409914547868 129.59689692286216 395.68852818489955
  vertex 14.770439021681405 129.99514144924763 397.6927435113686
 endloop
endfacet
facet normal -0.8175711974608466 0.4243200695362399 0.38926830807451795
 outer loop
  vertex 20.664238930923435 154.75824961672598 383.0784463488182
  vertex 14.770439021681405 129.99514144924763 397.6927435113686
  vertex 15.76167860966673 130.62645736208472 399.08645811292183
 endloop
endfacet
facet normal -0.9857408810832278 0.15099207569547435 -0.07427185495484763
 outer loop
  vertex 20.664238930923435 154.75824961672598 383.0784463488182
  vertex 15.76167860966673 130.62645736208472 399.08645811292183
  vertex 16.030102913977466 132.5370438957604 399.4080687189127
 endloop
endfacet
facet normal -0.9581409384351884 0.2699307585533828 0.0954113603368695
 outer loop
  vertex 20.664238930923435 154.75824961672598 383.0784463488182
  vertex 16.030102913977466 132.5370438957604 399.4080687189127
  vertex 16.738214460386992 135.01049565124356 399.5213671034309
 endloop
endfacet
facet normal -0.8246497183146482 0.44966898901502317 0.34314813477823014
 outer loop
  vertex 20.664238930923435 154.75824961672598 383.0784463488182
  vertex 16.738214460386992 135.01049565124356 399.5213671034309
  vertex 18.3577151061726 137.77667588886442 399.7884683089567
 endloop
endfacet
facet normal -0.7927622047535554 0.4788194080065895 0.37717378120768313
 outer loop
  vertex 20.664238930923435 154.75824961672598 383.0784463488182
  vertex 18.3577151061726 137.77667588886442 399.7884683089567
  vertex 19.954106644195708 140.34808769184204 399.87945288900977
 endloop
endfacet
facet normal -0.6608462353650817 0.583258207095007 0.4723262824151511
 outer loop
  vertex 20.664238930923435 154.75824961672598 383.0784463488182
  vertex 19.954106644195708 140.34808769184204 399.87945288900977
  vertex 21.771108606323093 142.52326085454658 399.7356355847301
 endloop
endfacet
facet normal -0.7456706747604743 0.5124101699451843 0.4259237755033243
 outer loop
  vertex 20.664238930923435 154.75824961672598 383.0784463488182
  vertex 21.771108606323093 142.52326085454658 399.7356355847301
  vertex 23.166749641967748 145.04897044533828 399.14043357334293
 endloop
endfacet
facet normal -0.8003118979082782 0.4497254730273469 0.39654490915503954
 outer loop
  vertex 20.664238930923435 154.75824961672598 383.0784463488182
  vertex 23.166749641967748 145.04897044533828 399.14043357334293
  vertex 23.744981257339756 147.04371698000367 398.04516623459796
 endloop
endfacet
facet normal -0.8598026551100622 0.35972819375750437 0.36240173962282657
 outer loop
  vertex 20.664238930923435 154.75824961672598 383.0784463488182
  vertex 23.744981257339756 147.04371698000367 398.04516623459796
  vertex 23.712478758275576 148.36665572107836 396.65487462259824
 endloop
endfacet
facet normal -0.6939758347516041 -0.6988563665557725 -0.17319734323966407
 outer loop
  vertex 20.664238930923435 154.75824961672598 383.0784463488182
  vertex 23.712478758275576 148.36665572107836 396.65487462259824
  vertex 22.93899672221191 149.46356134088452 395.3280549960887
 endloop
endfacet
facet normal -0.968668735786798 -0.23580303577094155 0.07796030163111706
 outer loop
  vertex 20.664238930923435 154.75824961672598 383.0784463488182
  vertex 22.93899672221191 149.46356134088452 395.3280549960887
  vertex 22.53716396045728 150.71119677981198 394.1088882239821
 endloop
endfacet
facet normal -0.982917664110665 0.03668057005214094 0.18035354545969973
 outer loop
  vertex 20.664238930923435 154.75824961672598 383.0784463488182
  vertex 22.53716396045728 150.71119677981198 394.1088882239821
  vertex 22.31941530205609 152.05509386510542 392.64884532220424
 endloop
endfacet
facet normal -0.6273361190775361 0.7142812042469893 0.31024466951134927
 outer loop
  vertex 20.664238930923435 154.75824961672598 383.0784463488182
  vertex 22.31941530205609 152.05509386510542 392.64884532220424
  vertex 22.328443850371798 152.95552165088162 390.59403255232013
 endloop
endfacet
facet normal -0.20398301332445914 0.9407678120371606 0.2708262433921186
 outer loop
  vertex 20.664238930923435 154.75824961672598 383.0784463488182
  vertex 22.328443850371798 152.95552165088162 390.59403255232013
  vertex 22.4912038525871 153.76820289490854 387.8936144873419
 endloop
endfacet
facet normal -0.5769468165766948 0.7288025872550734 0.36875352154566443
 outer loop
  vertex 20.664238930923435 154.75824961672598 383.0784463488182
  vertex 22.4912038525871 153.76820289490854 387.8936144873419
  vertex 21.810482548666606 154.53903454689416 385.30509929817947
 endloop
endfacet
facet normal -0.351153405413311 0.2204481470325208 -0.9099966485304013
 outer loop
  vertex -2.3658587214606377 154.57716136965237 420.32973962303487
  vertex -0.8273713538826613 155.5605506893249 419.97428916560807
  vertex 0.6811988574561888 156.34501579365408 419.58219355851776
 endloop
endfacet
facet normal 0.42101715587337013 -0.854417356862835 -0.3044922572937206
 outer loop
  vertex -2.3658587214606377 154.57716136965237 420.32973962303487
  vertex 0.6811988574561888 156.34501579365408 419.58219355851776
  vertex 3.0287317030722285 157.5774420705163 419.36985712474774
 endloop
endfacet
facet normal -0.12481974318992248 0.4988240038781822 0.8576681437857775
 outer loop
  vertex -2.3658587214606377 154.57716136965237 420.32973962303487
  vertex 3.0287317030722285 157.5774420705163 419.36985712474774
  vertex 5.40862989885402 159.3389729602604 418.69169784603855
 endloop
endfacet
facet normal -0.5203328559167417 0.6654163124331968 -0.5352334539257927
 outer loop
  vertex -2.3658587214606377 154.57716136965237 420.32973962303487
  vertex 5.40862989885402 159.3389729602604 418.69169784603855
  vertex 7.699890795034077 160.3782887145266 417.7563290542896
 endloop
endfacet
facet normal 0.09691358155837594 -0.5392551629575866 -0.8365474445201031
 outer loop
  vertex -2.3658587214606377 154.57716136965237 420.32973962303487
  vertex 7.699890795034077 160.3782887145266 417.7563290542896
  vertex 9.682306246173665 160.774522902883 417.73057038340244
 endloop
endfacet
facet normal -0.47789850332332706 0.715147383014112 -0.510075720936991
 outer loop
  vertex -2.3658587214606377 154.57716136965237 420.32973962303487
  vertex 9.682306246173665 160.774522902883 417.73057038340244
  vertex 11.37585357789423 161.05973789797878 416.5437407560575
 endloop
endfacet
facet normal -0.1110211315096944 -0.3151237976959437 -0.9425345089088215
 outer loop
  vertex -2.3658587214606377 154.57716136965237 420.32973962303487
  vertex 11.37585357789423 161.05973789797878 416.5437407560575
  vertex 13.248495857006148 160.38557039623254 416.54856111929155
 endloop
endfacet
facet normal -0.3480930546004409 0.3770099497906245 -0.8583092234724065
 outer loop
  vertex -2.3658587214606377 154.57716136965237 420.32973962303487
  vertex 13.248495857006148 160.38557039623254 416.54856111929155
  vertex 14.56228355609805 159.7182260424037 415.72261655850093
 endloop
endfacet
facet normal -0.2714556624713299 0.031809073254584756 -0.9619251562210731
 outer loop
  vertex -2.3658587214606377 154.57716136965237 420.32973962303487
  vertex 14.56228355609805 159.7182260424037 415.72261655850093
  vertex 15.887975164174254 158.3655501061813 415.303775384588
 endloop
endfacet
facet normal -0.26457932513337606 -0.004544867661088432 -0.9643532158342764
 outer loop
  vertex -2.3658587214606377 154.57716136965237 420.32973962303487
  vertex 15.887975164174254 158.3655501061813 415.303775384588
  vertex 17.10617883818108 156.17423251704358 414.97987719835396
 endloop
endfacet
facet normal -0.2607977211403149 -0.049826023841250275 -0.9641067969868223
 outer loop
  vertex -2.3658587214606377 154.57716136965237 420.32973962303487
  vertex 17.10617883818108 156.17423251704358 414.97987719835396
  vertex 17.834040030034146 154.76621182755247 414.8557535348011
 endloop
endfacet
facet normal -0.260115054290772 -0.07679393013873961 -0.9625190132278713
 outer loop
  vertex -2.3658587214606377 154.57716136965237 420.32973962303487
  vertex 17.834040030034146 154.76621182755247 414.8557535348011
  vertex 18.41075428923788 153.3193877040009 414.81533381358906
 endloop
endfacet
facet normal -0.26185265930613455 -0.1369866081465303 -0.9553365134876896
 outer loop
  vertex -2.3658587214606377 154.57716136965237 420.32973962303487
  vertex 18.41075428923788 153.3193877040009 414.81533381358906
  vertex 18.687679106764172 152.03604511997588 414.92344990286256
 endloop
endfacet
facet normal -0.25975455299316175 -0.11130048686718387 -0.9592391640370249
 outer loop
  vertex -2.3658587214606377 154.57716136965237 420.32973962303487
  vertex 18.687679106764172 152.03604511997588 414.92344990286256
  vertex 18.981161203467074 150.65472953958457 415.0042512177797
 endloop
endfacet
facet normal -0.254611732180583 -0.07687066190128317 -0.9639832815847283
 outer loop
  vertex -2.3658587214606377 154.57716136965237 420.32973962303487
  vertex 18.981161203467074 150.65472953958457 415.0042512177797
  vertex 18.833315631065453 148.11681609582956 415.24568103093105
 endloop
endfacet
facet normal -0.1871971551699521 0.1497431631713455 -0.9708420109264518
 outer loop
  vertex -2.3658587214606377 154.57716136965237 420.32973962303487
  vertex 18.833315631065453 148.11681609582956 415.24568103093105
  vertex 18.14766478848575 146.04969071919274 415.0590533372802
 endloop
endfacet
facet normal -0.21502997494739293 0.08410974055529251 -0.9729787569201318
 outer loop
  vertex -2.3658587214606377 154.57716136965237 420.32973962303487
  vertex 18.14766478848575 146.04969071919274 415.0590533372802
  vertex 17.08628357822044 144.13899286515274 415.12844896774993
 endloop
endfacet
facet normal -0.2123564932356017 0.08916041876809294 -0.9731162004127648
 outer loop
  vertex -2.3658587214606377 154.57716136965237 420.32973962303487
  vertex 17.08628357822044 144.13899286515274 415.12844896774993
  vertex 15.514318815390869 142.2274672387886 415.29634720962747
 endloop
endfacet
facet normal -0.21914583981594948 0.07907245558565268 -0.972482723578685
 outer loop
  vertex -2.3658587214606377 154.57716136965237 420.32973962303487
  vertex 15.514318815390869 142.2274672387886 415.29634720962747
  vertex 13.847910651720547 140.4123741406585 415.52428189961586
 endloop
endfacet
facet normal -0.23605534482743934 0.05885952377483641 -0.9699553755917838
 outer loop
  vertex -2.3658587214606377 154.57716136965237 420.32973962303487
  vertex 13.847910651720547 140.4123741406585 415.52428189961586
  vertex 12.103735495526971 138.94260409137544 415.8595673271305
 endloop
endfacet
facet normal -0.5241485363020678 -0.252552515582882 -0.8133176124769205
 outer loop
  vertex -2.3658587214606377 154.57716136965237 420.32973962303487
  vertex 12.103735495526971 138.94260409137544 415.8595673271305
  vertex 10.833814407013072 138.29068956281404 416.88041074815067
 endloop
endfacet
facet normal -0.23443357119165012 0.015860442146452536 -0.972002750548191
 outer loop
  vertex -2.3658587214606377 154.57716136965237 420.32973962303487
  vertex 10.833814407013072 138.29068956281404 416.88041074815067
  vertex 9.095218921792997 137.57717201780306 417.28809317959565
 endloop
endfacet
facet normal -0.21066186113854346 0.032782635776188285 -0.9770091499332086
 outer loop
  vertex -2.3658587214606377 154.57716136965237 420.32973962303487
  vertex 9.095218921792997 137.57717201780306 417.28809317959565
  vertex 7.140581138221848 137.04189669717175 417.6915898075336
 endloop
endfacet
facet normal -0.5500972898802584 -0.17538844023554895 -0.8164752701081253
 outer loop
  vertex -2.3658587214606377 154.57716136965237 420.32973962303487
  vertex 7.140581138221848 137.04189669717175 417.6915898075336
  vertex 5.518835380714153 136.9121660957207 418.8121028560157
 endloop
endfacet
facet normal -0.4190160674423926 -0.1095899123946432 -0.9013409933684625
 outer loop
  vertex -2.3658587214606377 154.57716136965237 420.32973962303487
  vertex 5.518835380714153 136.9121660957207 418.8121028560157
  vertex 3.3770865727305326 136.94312355136088 419.8039966505917
 endloop
endfacet
facet normal -0.19259712496374698 -0.03348497061967738 -0.9807064312006413
 outer loop
  vertex -2.3658587214606377 154.57716136965237 420.32973962303487
  vertex 3.3770865727305326 136.94312355136088 419.8039966505917
  vertex 1.167440884903489 137.97854362896118 420.20258728215106
 endloop
endfacet
facet normal -0.23386425798134536 -0.04234108365781396 -0.9713468698016773
 outer loop
  vertex -2.3658587214606377 154.57716136965237 420.32973962303487
  vertex 1.167440884903489 137.97854362896118 420.20258728215106
  vertex -1.407438933159951 139.42199101669144 420.75960275032617
 endloop
endfacet
facet normal -0.05301182233726491 -0.031662490697711584 -0.998091796066524
 outer loop
  vertex -2.3658587214606377 154.57716136965237 420.32973962303487
  vertex -1.407438933159951 139.42199101669144 420.75960275032617
  vertex -3.42935637893783 140.34347791152894 420.8377608500999
 endloop
endfacet
facet normal -0.46455954467376026 0.0031043740112112715 -0.8855364432447187
 outer loop
  vertex -2.3658587214606377 154.57716136965237 420.32973962303487
  vertex -3.42935637893783 140.34347791152894 420.8377608500999
  vertex -5.00039540514657 142.34320033558944 421.6689508780407
 endloop
endfacet
facet normal -0.6505454493491926 0.05719216187299643 -0.7573108179283788
 outer loop
  vertex -2.3658587214606377 154.57716136965237 420.32973962303487
  vertex -5.00039540514657 142.34320033558944 421.6689508780407
  vertex -6.1713325058216855 144.43279240595973 422.83261587448976
 endloop
endfacet
facet normal 0.18050898029560927 -0.2989098075864837 -0.937053592363452
 outer loop
  vertex -2.3658587214606377 154.57716136965237 420.32973962303487
  vertex -6.1713325058216855 144.43279240595973 422.83261587448976
  vertex -6.29935198389397 146.7088048747353 422.0819319005062
 endloop
endfacet
facet normal -0.6761324016079262 0.17884184423025717 -0.7147451085864236
 outer loop
  vertex -2.3658587214606377 154.57716136965237 420.32973962303487
  vertex -6.29935198389397 146.7088048747353 422.0819319005062
  vertex -6.827426818103682 147.0493498098304 422.6666888790397
 endloop
endfacet
facet normal 0.47421432805385355 -0.5049506698404627 -0.7212111979830181
 outer loop
  vertex -2.3658587214606377 154.57716136965237 420.32973962303487
  vertex -6.827426818103682 147.0493498098304 422.6666888790397
  vertex -6.614543367273938 147.7960497699592 422.2838686133256
 endloop
endfacet
facet normal 0.6782347930289735 -0.5615384530975426 -0.4739959189885124
 outer loop
  vertex -2.3658587214606377 154.57716136965237 420.32973962303487
  vertex -6.614543367273938 147.7960497699592 422.2838686133256
  vertex -6.97050285145994 147.67933992972806 421.9127957055371
 endloop
endfacet
facet normal -0.053119708931302634 -0.1895501661836857 -0.9804330833987555
 outer loop
  vertex -2.3658587214606377 154.57716136965237 420.32973962303487
  vertex -6.97050285145994 147.67933992972806 421.9127957055371
  vertex -7.513141063805655 148.89019271810446 421.7080978360301
 endloop
endfacet
facet normal -0.48321951171719235 0.2328063167191752 -0.8439787452249312
 outer loop
  vertex -2.3658587214606377 154.57716136965237 420.32973962303487
  vertex -7.513141063805655 148.89019271810446 421.7080978360301
  vertex -6.28807891283828 150.99416086173193 421.5870558536588
 endloop
endfacet
facet normal -0.5160985705809172 0.2810332612500597 -0.8091122119431209
 outer loop
  vertex -2.3658587214606377 154.57716136965237 420.32973962303487
  vertex -6.28807891283828 150.99416086173193 421.5870558536588
  vertex -5.5938111469447485 151.90148170978875 421.4593563045439
 endloop
endfacet
facet normal -0.5499416584571526 0.7844708956040648 0.28665237875090627
 outer loop
  vertex -2.3658587214606377 154.57716136965237 420.32973962303487
  vertex -5.5938111469447485 151.90148170978875 421.4593563045439
  vertex -4.597462333032675 152.67684445572013 421.24894190345987
 endloop
endfacet
facet normal 0.004545378990249791 -0.43975966084194235 -0.8981039918773409
 outer loop
  vertex -2.3658587214606377 154.57716136965237 420.32973962303487
  vertex -4.597462333032675 152.67684445572013 421.24894190345987
  vertex -4.502624704136994 154.29432115082915 420.4574189436197
 endloop
endfacet
facet normal 0.2272200992371996 -0.6402963300579585 -0.7337517538084302
 outer loop
  vertex -18.968786456476792 170.4915103759288 421.0797484076943
  vertex -17.46725065727902 171.5063586235093 420.65913681312196
  vertex -15.4955071596073 172.47833878270055 420.4215420479944
 endloop
endfacet
facet normal -0.5159282961392633 0.8038088249831147 -0.29615767105057605
 outer loop
  vertex -18.968786456476792 170.4915103759288 421.0797484076943
  vertex -15.4955071596073 172.47833878270055 420.4215420479944
  vertex -13.828349966318246 173.1150042818996 419.2452219409526
 endloop
endfacet
facet normal -0.06126652551501203 -0.4885759205696229 -0.8703677284291187
 outer loop
  vertex -18.968786456476792 170.4915103759288 421.0797484076943
  vertex -13.828349966318246 173.1150042818996 419.2452219409526
  vertex -10.946763604877479 173.5460969259616 418.80039125948986
 endloop
endfacet
facet normal -0.2418317481154229 -0.08609928864229867 -0.9664907232346976
 outer loop
  vertex -18.968786456476792 170.4915103759288 421.0797484076943
  vertex -10.946763604877479 173.5460969259616 418.80039125948986
  vertex -8.013103370643588 173.31749973863987 418.0867060569057
 endloop
endfacet
facet normal -0.333145639456792 0.37554123573799436 -0.8648599673769768
 outer loop
  vertex -18.968786456476792 170.4915103759288 421.0797484076943
  vertex -8.013103370643588 173.31749973863987 418.0867060569057
  vertex -6.354074840798105 172.58502288203204 417.1295876613775
 endloop
endfacet
facet normal -0.2630459412196316 -0.19702873030192672 -0.9444503757442678
 outer loop
  vertex -18.968786456476792 170.4915103759288 421.0797484076943
  vertex -6.354074840798105 172.58502288203204 417.1295876613775
  vertex -5.024884272823774 170.1638028401164 417.26449334821865
 endloop
endfacet
facet normal -0.2595964316669806 0.11597366673289783 -0.9587282207645175
 outer loop
  vertex -18.968786456476792 170.4915103759288 421.0797484076943
  vertex -5.024884272823774 170.1638028401164 417.26449334821865
  vertex -5.939005691676147 167.30008111569387 417.1655981155698
 endloop
endfacet
facet normal -0.357151339758981 -0.4637796074111012 -0.8107720988403398
 outer loop
  vertex -18.968786456476792 170.4915103759288 421.0797484076943
  vertex -5.939005691676147 167.30008111569387 417.1655981155698
  vertex -6.841021262133065 165.57137776801233 418.55179952900977
 endloop
endfacet
facet normal -0.2544676813361501 -0.13524358947580514 -0.9575778666307526
 outer loop
  vertex -18.968786456476792 170.4915103759288 421.0797484076943
  vertex -6.841021262133065 165.57137776801233 418.55179952900977
  vertex -8.227834344809892 164.1106170320786 419.12664326137923
 endloop
endfacet
facet normal -0.26108279212758256 -0.14747878355481997 -0.953984163419947
 outer loop
  vertex -18.968786456476792 170.4915103759288 421.0797484076943
  vertex -8.227834344809892 164.1106170320786 419.12664326137923
  vertex -10.07552738054328 163.13880027478515 419.78254849960103
 endloop
endfacet
facet normal -0.22811823571549458 -0.10514541892222327 -0.9679393118443531
 outer loop
  vertex -18.968786456476792 170.4915103759288 421.0797484076943
  vertex -10.07552738054328 163.13880027478515 419.78254849960103
  vertex -12.264213060442158 162.23918111198861 420.3960889791642
 endloop
endfacet
facet normal -0.1920235303532348 -0.07494347939493817 -0.9785246234443266
 outer loop
  vertex -18.968786456476792 170.4915103759288 421.0797484076943
  vertex -12.264213060442158 162.23918111198861 420.3960889791642
  vertex -14.782926346066786 161.72701491319822 420.92958166960005
 endloop
endfacet
facet normal 0.1549185793308016 0.0908429688274088 -0.9837417287036004
 outer loop
  vertex -18.968786456476792 170.4915103759288 421.0797484076943
  vertex -14.782926346066786 161.72701491319822 420.92958166960005
  vertex -16.5959125510265 161.65167349692047 420.6371172180532
 endloop
endfacet
facet normal -0.2985550706625279 -0.03237988342316678 -0.9538429707929891
 outer loop
  vertex -18.968786456476792 170.4915103759288 421.0797484076943
  vertex -16.5959125510265 161.65167349692047 420.6371172180532
  vertex -17.73986744816092 161.8214403070679 420.9894147302398
 endloop
endfacet
facet normal -0.298555070662572 -0.03237988342317317 -0.9538429707929751
 outer loop
  vertex -18.968786456476792 170.4915103759288 421.0797484076943
  vertex -17.73986744816092 161.8214403070679 420.9894147302398
  vertex -18.883822345295336 161.9912071172153 421.3417122424264
 endloop
endfacet
facet normal 0.2178242571286996 -0.027888642020068136 -0.975589471372363
 outer loop
  vertex -18.968786456476792 170.4915103759288 421.0797484076943
  vertex -18.883822345295336 161.9912071172153 421.3417122424264
  vertex -20.52126840698345 162.07075054671887 420.97383841769033
 endloop
endfacet
facet normal -0.9084586242348719 0.17227640666311497 -0.3808198626129276
 outer loop
  vertex -18.968786456476792 170.4915103759288 421.0797484076943
  vertex -20.52126840698345 162.07075054671887 420.97383841769033
  vertex -20.75062557624187 163.24569103189617 422.0525007029341
 endloop
endfacet
facet normal -0.6083382769254811 0.04320473968964579 -0.7925010355171068
 outer loop
  vertex -18.968786456476792 170.4915103759288 421.0797484076943
  vertex -20.75062557624187 163.24569103189617 422.0525007029341
  vertex -21.75430043432171 164.78416173380708 422.9068125960563
 endloop
endfacet
facet normal -0.37507485039705274 -0.1115398999867392 -0.9202595869158748
 outer loop
  vertex -18.968786456476792 170.4915103759288 421.0797484076943
  vertex -21.75430043432171 164.78416173380708 422.9068125960563
  vertex -21.23358120373997 167.36511547436814 422.381756387491
 endloop
endfacet
facet normal 0.43176302912744874 -0.5950674284659456 -0.6778461789061119
 outer loop
  vertex -18.968786456476792 170.4915103759288 421.0797484076943
  vertex -21.23358120373997 167.36511547436814 422.381756387491
  vertex -20.465061391403033 168.95581544548196 421.47483189889306
 endloop
endfacet
facet normal 0.569057033112496 -0.67519649743206 -0.46934399210033756
 outer loop
  vertex -18.968786456476792 170.4915103759288 421.0797484076943
  vertex -20.465061391403033 168.95581544548196 421.47483189889306
  vertex -20.23737668479241 169.7997155670395 420.53685712977085
 endloop
endfacet
facet normal -0.05807484277802489 -0.6420842856912651 -0.7644312151558473
 outer loop
  vertex -10.089420913083579 176.92975136152722 412.8074436117317
  vertex -11.50700892557795 178.12562079988197 411.9106686507345
  vertex -11.565416953529288 178.91711213244523 411.2502925438319
 endloop
endfacet
facet normal -0.3236593664264693 0.4228293076615492 0.8464395968448496
 outer loop
  vertex -10.089420913083579 176.92975136152722 412.8074436117317
  vertex -11.565416953529288 178.91711213244523 411.2502925438319
  vertex -13.110231171354794 179.54932443445517 410.34377602002775
 endloop
endfacet
facet normal -0.7260580461722048 -0.22672250690933368 0.6491814988501656
 outer loop
  vertex -10.089420913083579 176.92975136152722 412.8074436117317
  vertex -13.110231171354794 179.54932443445517 410.34377602002775
  vertex -14.355609325206066 179.96870318951295 409.0973846366123
 endloop
endfacet
facet normal -0.29904070259762316 -0.8775064741910227 -0.3749093836419142
 outer loop
  vertex -10.089420913083579 176.92975136152722 412.8074436117317
  vertex -14.355609325206066 179.96870318951295 409.0973846366123
  vertex -14.578165401885245 180.72186825322208 407.5120578351646
 endloop
endfacet
facet normal -0.7697786463214337 -0.02029085561118601 0.6379883359796691
 outer loop
  vertex -10.089420913083579 176.92975136152722 412.8074436117317
  vertex -14.578165401885245 180.72186825322208 407.5120578351646
  vertex -15.450076083863488 180.73394185132608 406.4604191091677
 endloop
endfacet
facet normal -0.6006825598615979 -0.7989812505456338 0.02845037002663893
 outer loop
  vertex -10.089420913083579 176.92975136152722 412.8074436117317
  vertex -15.450076083863488 180.73394185132608 406.4604191091677
  vertex -15.7778817758541 180.93046271651554 405.0583046362314
 endloop
endfacet
facet normal -0.40866080144458594 -0.8979072353995162 -0.1635816187102528
 outer loop
  vertex -10.089420913083579 176.92975136152722 412.8074436117317
  vertex -15.7778817758541 180.93046271651554 405.0583046362314
  vertex -15.811057445405163 181.28158705026578 403.21384627672336
 endloop
endfacet
facet normal -0.46958286001962307 -0.875113948719069 -0.11690814485359756
 outer loop
  vertex -10.089420913083579 176.92975136152722 412.8074436117317
  vertex -15.811057445405163 181.28158705026578 403.21384627672336
  vertex -15.798720274472872 181.55369315883866 401.12744609083234
 endloop
endfacet
facet normal -0.8234077020988722 -0.5343592768898598 0.19094480701501484
 outer loop
  vertex -10.089420913083579 176.92975136152722 412.8074436117317
  vertex -15.798720274472872 181.55369315883866 401.12744609083234
  vertex -16.017529213267554 181.14850788975525 399.04996894397146
 endloop
endfacet
facet normal -0.29583622236840973 -0.9415309796931421 -0.16124622108086992
 outer loop
  vertex -10.089420913083579 176.92975136152722 412.8074436117317
  vertex -16.017529213267554 181.14850788975525 399.04996894397146
  vertex -14.85139844217073 181.13198213106972 397.0069802392733
 endloop
endfacet
facet normal -0.5980075645679531 -0.8008208902453816 -0.03275445719439717
 outer loop
  vertex -10.089420913083579 176.92975136152722 412.8074436117317
  vertex -14.85139844217073 181.13198213106972 397.0069802392733
  vertex -13.673949668424951 180.35564746104245 394.49073484639456
 endloop
endfacet
facet normal -0.8504620220372875 -0.5215056972064663 0.06889235700312227
 outer loop
  vertex -10.089420913083579 176.92975136152722 412.8074436117317
  vertex -13.673949668424951 180.35564746104245 394.49073484639456
  vertex -13.366948653062243 179.66397382948713 393.0447248751259
 endloop
endfacet
facet normal -0.4541933820998748 -0.8896222291478508 -0.04775626726081004
 outer loop
  vertex -10.089420913083579 176.92975136152722 412.8074436117317
  vertex -13.366948653062243 179.66397382948713 393.0447248751259
  vertex -12.122456921099964 179.09125268904302 391.8776644181412
 endloop
endfacet
facet normal -0.28456652240216274 -0.9560167933110705 -0.07108997985059128
 outer loop
  vertex -10.089420913083579 176.92975136152722 412.8074436117317
  vertex -12.122456921099964 179.09125268904302 391.8776644181412
  vertex -9.912074241269014 178.45952510711854 391.525171207248
 endloop
endfacet
facet normal -0.6750114347751445 -0.7354850653178666 -0.05849172263811787
 outer loop
  vertex -10.089420913083579 176.92975136152722 412.8074436117317
  vertex -9.912074241269014 178.45952510711854 391.525171207248
  vertex -8.647060032748694 177.334314981104 391.07512782181067
 endloop
endfacet
facet normal -0.5277368617270896 -0.8478868939939436 -0.05080964246819313
 outer loop
  vertex -10.089420913083579 176.92975136152722 412.8074436117317
  vertex -8.647060032748694 177.334314981104 391.07512782181067
  vertex -7.270792847411727 176.42707336452872 391.9200727772731
 endloop
endfacet
facet normal -0.2839549650332069 -0.9587164093054428 -0.015245470195074764
 outer loop
  vertex -10.089420913083579 176.92975136152722 412.8074436117317
  vertex -7.270792847411727 176.42707336452872 391.9200727772731
  vertex -6.224630120451025 176.09195885350968 393.508523631677
 endloop
endfacet
facet normal -0.5934940232346474 -0.8004318861670571 -0.08410493440814854
 outer loop
  vertex -10.089420913083579 176.92975136152722 412.8074436117317
  vertex -6.224630120451025 176.09195885350968 393.508523631677
  vertex -4.882326614705329 174.90823788305016 395.30198440915564
 endloop
endfacet
facet normal -0.3644766681345561 -0.9312121046297743 -0.000880100289114464
 outer loop
  vertex -10.089420913083579 176.92975136152722 412.8074436117317
  vertex -4.882326614705329 174.90823788305016 395.30198440915564
  vertex -4.242641244120014 174.65575195998622 397.53758790201584
 endloop
endfacet
facet normal -0.5929812265135421 -0.797910125029434 -0.10822521599889874
 outer loop
  vertex -10.089420913083579 176.92975136152722 412.8074436117317
  vertex -4.242641244120014 174.65575195998622 397.53758790201584
  vertex -3.8202494600356856 174.0827710584675 399.44764982858953
 endloop
endfacet
facet normal 0.06881743748689634 -0.9686487569183343 0.23871268508041835
 outer loop
  vertex -10.089420913083579 176.92975136152722 412.8074436117317
  vertex -3.8202494600356856 174.0827710584675 399.44764982858953
  vertex -3.880359631143219 174.55734580178873 401.3907089624986
 endloop
endfacet
facet normal -0.5414873220540621 -0.831864052318404 -0.12162926668825996
 outer loop
  vertex -10.089420913083579 176.92975136152722 412.8074436117317
  vertex -3.880359631143219 174.55734580178873 401.3907089624986
  vertex -3.7705666709439587 174.1341350297205 403.79639913728795
 endloop
endfacet
facet normal -0.15578745400678262 -0.9690690878453582 0.1914036889839119
 outer loop
  vertex -10.089420913083579 176.92975136152722 412.8074436117317
  vertex -3.7705666709439587 174.1341350297205 403.79639913728795
  vertex -3.684485100119582 174.5340295982092 405.8911126488388
 endloop
endfacet
facet normal -0.6425670126232579 -0.6758947254593726 -0.3609348339861661
 outer loop
  vertex -10.089420913083579 176.92975136152722 412.8074436117317
  vertex -3.684485100119582 174.5340295982092 405.8911126488388
  vertex -4.095542131130399 173.8261115098895 407.94857488429443
 endloop
endfacet
facet normal -0.23960803696953512 -0.9249002030682236 0.29520772853020755
 outer loop
  vertex -10.089420913083579 176.92975136152722 412.8074436117317
  vertex -4.095542131130399 173.8261115098895 407.94857488429443
  vertex -4.655711489022457 174.53090949170561 409.70207476340016
 endloop
endfacet
facet normal -0.2729799984902118 -0.9311726911082164 0.241659553418784
 outer loop
  vertex -10.089420913083579 176.92975136152722 412.8074436117317
  vertex -4.655711489022457 174.53090949170561 409.70207476340016
  vertex -5.89994951556948 175.3578393991377 411.4829373304485
 endloop
endfacet
facet normal 0.3370536071156477 0.1104967539735434 0.9349787876158693
 outer loop
  vertex -10.089420913083579 176.92975136152722 412.8074436117317
  vertex -5.89994951556948 175.3578393991377 411.4829373304485
  vertex -8.027014064059898 176.68668847333336 412.0926851418089
 endloop
endfacet
facet normal 0.33893625073589045 -0.8952789993100814 -0.2891327226922559
 outer loop
  vertex -38.23264358852486 168.57620630516084 399.5569144925663
  vertex -37.95688000553419 167.90329401674626 401.96380399515755
  vertex -39.401387411342576 166.88379213477359 403.427293483522
 endloop
endfacet
facet normal 0.9599630491132777 -0.024829594810860424 0.2790240770232329
 outer loop
  vertex -38.23264358852486 168.57620630516084 399.5569144925663
  vertex -39.401387411342576 166.88379213477359 403.427293483522
  vertex -40.076659174110475 165.38558173953166 405.6171976302549
 endloop
endfacet
facet normal -0.1345501086046005 -0.8593489445480036 -0.49337172575931265
 outer loop
  vertex -38.23264358852486 168.57620630516084 399.5569144925663
  vertex -40.076659174110475 165.38558173953166 405.6171976302549
  vertex -41.366915291873674 165.1960527366445 406.29918979112966
 endloop
endfacet
facet normal 0.7658487881240947 0.356844417885469 0.5349184004620108
 outer loop
  vertex -38.23264358852486 168.57620630516084 399.5569144925663
  vertex -41.366915291873674 165.1960527366445 406.29918979112966
  vertex -41.42211226315466 163.5168908972668 407.49838589677466
 endloop
endfacet
facet normal 0.9073760071926841 -0.40695140895644055 0.10516336015661497
 outer loop
  vertex -38.23264358852486 168.57620630516084 399.5569144925663
  vertex -41.42211226315466 163.5168908972668 407.49838589677466
  vertex -42.276709317233255 161.88395072056935 408.55306460687564
 endloop
endfacet
facet normal 0.5939728521300183 -0.7500330982766543 -0.2909408916293033
 outer loop
  vertex -38.23264358852486 168.57620630516084 399.5569144925663
  vertex -42.276709317233255 161.88395072056935 408.55306460687564
  vertex -43.97212217056525 160.37857995947064 408.9725611145235
 endloop
endfacet
facet normal 0.895591779164148 -0.3974349832707503 0.1999019738926414
 outer loop
  vertex -38.23264358852486 168.57620630516084 399.5569144925663
  vertex -43.97212217056525 160.37857995947064 408.9725611145235
  vertex -44.59244570908994 159.10156134562473 409.2128028147892
 endloop
endfacet
facet normal 0.7832138170555711 -0.6154832827992922 -0.08807068392972014
 outer loop
  vertex -38.23264358852486 168.57620630516084 399.5569144925663
  vertex -44.59244570908994 159.10156134562473 409.2128028147892
  vertex -45.309965007563335 158.26391019269388 408.6858312386523
 endloop
endfacet
facet normal 0.8234979141229664 -0.5673141081953819 -0.0024265361324950817
 outer loop
  vertex -38.23264358852486 168.57620630516084 399.5569144925663
  vertex -45.309965007563335 158.26391019269388 408.6858312386523
  vertex -46.43913837691368 156.62828411854997 407.8788509827551
 endloop
endfacet
facet normal 0.8708342819846225 -0.41838570487028237 0.2580718025676649
 outer loop
  vertex -38.23264358852486 168.57620630516084 399.5569144925663
  vertex -46.43913837691368 156.62828411854997 407.8788509827551
  vertex -46.34552008410452 155.64352061209235 405.96644913308194
 endloop
endfacet
facet normal 0.8562123618561782 -0.3477743464568285 0.3820384736531007
 outer loop
  vertex -38.23264358852486 168.57620630516084 399.5569144925663
  vertex -46.34552008410452 155.64352061209235 405.96644913308194
  vertex -46.123444364832665 154.05457444142618 404.0223028143486
 endloop
endfacet
facet normal 0.8873140781854835 -0.44547501383536386 0.11927170117940011
 outer loop
  vertex -38.23264358852486 168.57620630516084 399.5569144925663
  vertex -46.123444364832665 154.05457444142618 404.0223028143486
  vertex -46.44368402611864 152.99379411763084 402.4427330781608
 endloop
endfacet
facet normal 0.849081592397667 -0.48583279337442126 -0.20742937673687606
 outer loop
  vertex -38.23264358852486 168.57620630516084 399.5569144925663
  vertex -46.44368402611864 152.99379411763084 402.4427330781608
  vertex -47.08082778197551 152.83700398829322 400.201906558737
 endloop
endfacet
facet normal 0.8710470735824808 -0.49064070722289316 -0.023424175955953343
 outer loop
  vertex -38.23264358852486 168.57620630516084 399.5569144925663
  vertex -47.08082778197551 152.83700398829322 400.201906558737
  vertex -47.19616644559558 152.7412966963989 397.91762077910573
 endloop
endfacet
facet normal 0.8567573640547095 -0.4610551687624303 -0.23107347423595148
 outer loop
  vertex -38.23264358852486 168.57620630516084 399.5569144925663
  vertex -47.19616644559558 152.7412966963989 397.91762077910573
  vertex -47.33946306963315 153.3001198092656 396.271310125071
 endloop
endfacet
facet normal 0.861273674983594 -0.5073500085782638 -0.028348290528532282
 outer loop
  vertex -38.23264358852486 168.57620630516084 399.5569144925663
  vertex -47.33946306963315 153.3001198092656 396.271310125071
  vertex -46.99211644929728 154.02423308610767 393.8648730611149
 endloop
endfacet
facet normal 0.7736033687500719 -0.5721784414090273 0.27230435003002956
 outer loop
  vertex -38.23264358852486 168.57620630516084 399.5569144925663
  vertex -46.99211644929728 154.02423308610767 393.8648730611149
  vertex -46.053012209369356 154.24245115362194 391.6554536016323
 endloop
endfacet
facet normal 0.858131858717242 -0.5082580239187025 0.07268764803422409
 outer loop
  vertex -38.23264358852486 168.57620630516084 399.5569144925663
  vertex -46.053012209369356 154.24245115362194 391.6554536016323
  vertex -45.387867628622516 155.13958541475012 390.07600961429677
 endloop
endfacet
facet normal 0.8381632366918904 -0.5318003773281551 0.1211228604839152
 outer loop
  vertex -38.23264358852486 168.57620630516084 399.5569144925663
  vertex -45.387867628622516 155.13958541475012 390.07600961429677
  vertex -44.59929935115361 156.01384214415154 388.4576620914973
 endloop
endfacet
facet normal 0.8826550321236696 -0.033084102472234846 -0.46885556030655146
 outer loop
  vertex -38.23264358852486 168.57620630516084 399.5569144925663
  vertex -44.59929935115361 156.01384214415154 388.4576620914973
  vertex -44.54973495472565 157.36220701430665 388.4558253262208
 endloop
endfacet
facet normal 0.727890835394714 -0.643762611983299 0.2361030096394917
 outer loop
  vertex -38.23264358852486 168.57620630516084 399.5569144925663
  vertex -44.54973495472565 157.36220701430665 388.4558253262208
  vertex -43.59610610508375 157.9362770511625 387.0811165746032
 endloop
endfacet
facet normal 0.9133671819905845 -0.40431561959297935 -0.047846322907030295
 outer loop
  vertex -38.23264358852486 168.57620630516084 399.5569144925663
  vertex -43.59610610508375 157.9362770511625 387.0811165746032
  vertex -42.61252470991456 160.22788164740012 386.4925537903616
 endloop
endfacet
facet normal 0.6908460323528729 -0.6917094642704076 0.2104038417449617
 outer loop
  vertex -38.23264358852486 168.57620630516084 399.5569144925663
  vertex -42.61252470991456 160.22788164740012 386.4925537903616
  vertex -41.454122487726835 161.18676422159368 385.8413801889805
 endloop
endfacet
facet normal 0.7372989677865049 -0.6517104527033114 0.1779430187959039
 outer loop
  vertex -38.23264358852486 168.57620630516084 399.5569144925663
  vertex -41.454122487726835 161.18676422159368 385.8413801889805
  vertex -40.24071045912123 162.4359661597359 385.3888225325406
 endloop
endfacet
facet normal 0.9682749039778948 -0.2481154679718255 -0.02970563717075367
 outer loop
  vertex -38.23264358852486 168.57620630516084 399.5569144925663
  vertex -40.24071045912123 162.4359661597359 385.3888225325406
  vertex -39.824226823898684 163.97701797495475 386.09279193341274
 endloop
endfacet
facet normal 0.8907396535963291 -0.4518587923841016 0.04905610315009592
 outer loop
  vertex -38.23264358852486 168.57620630516084 399.5569144925663
  vertex -39.824226823898684 163.97701797495475 386.09279193341274
  vertex -39.06426455822571 165.56704155371483 386.9395287555745
 endloop
endfacet
facet normal 0.6600569185794304 -0.7393784457963313 0.13283214267348337
 outer loop
  vertex -38.23264358852486 168.57620630516084 399.5569144925663
  vertex -39.06426455822571 165.56704155371483 386.9395287555745
  vertex -37.98270916975049 166.62814624406104 387.4715522429857
 endloop
endfacet
facet normal 0.8485012432839737 -0.5194126395606998 0.10127265183719276
 outer loop
  vertex -38.23264358852486 168.57620630516084 399.5569144925663
  vertex -37.98270916975049 166.62814624406104 387.4715522429857
  vertex -37.56447999847757 167.63390075046036 389.12583529055087
 endloop
endfacet
facet normal 0.6174716363130943 -0.7788760548928804 0.10991300861741754
 outer loop
  vertex -38.23264358852486 168.57620630516084 399.5569144925663
  vertex -37.56447999847757 167.63390075046036 389.12583529055087
  vertex -36.90974091218414 168.46264843192594 391.32037907298326
 endloop
endfacet
facet normal 0.817143757823611 -0.5594343951858085 0.13895767892778096
 outer loop
  vertex -38.23264358852486 168.57620630516084 399.5569144925663
  vertex -36.90974091218414 168.46264843192594 391.32037907298326
  vertex -37.058196694198536 168.87521242478292 393.85433190036366
 endloop
endfacet
facet normal 0.3122418138927582 -0.9498919924422864 0.01450008106817734
 outer loop
  vertex -38.23264358852486 168.57620630516084 399.5569144925663
  vertex -37.058196694198536 168.87521242478292 393.85433190036366
  vertex -37.0202710569444 168.9191983340898 395.9191405811468
 endloop
endfacet
facet normal 0.10292530922621865 -0.9929189050197277 -0.05931634492374117
 outer loop
  vertex -38.23264358852486 168.57620630516084 399.5569144925663
  vertex -37.0202710569444 168.9191983340898 395.9191405811468
  vertex -37.229889017369864 168.78758276908792 397.758576059333
 endloop
endfacet
facet normal -0.41547489571001317 0.904275886496413 -0.0983144553760036
 outer loop
  vertex -47.31542529324631 149.95411815272135 408.852025850357
  vertex -46.30912801046277 150.6826924246344 411.3007083566496
  vertex -45.27520804340841 151.29198512203655 412.53553087720775
 endloop
endfacet
facet normal 0.7437172184767503 0.38003666674287007 -0.5499607539381101
 outer loop
  vertex -47.31542529324631 149.95411815272135 408.852025850357
  vertex -45.27520804340841 151.29198512203655 412.53553087720775
  vertex -44.34230867552148 151.44307627397777 413.9015074407758
 endloop
endfacet
facet normal 0.8407873129326252 0.11509195036127808 -0.5289901108466702
 outer loop
  vertex -47.31542529324631 149.95411815272135 408.852025850357
  vertex -44.34230867552148 151.44307627397777 413.9015074407758
  vertex -42.88268025724685 150.5902674057669 416.0359246947133
 endloop
endfacet
facet normal 0.613341067683614 0.6580876465317343 -0.43673033347255313
 outer loop
  vertex -47.31542529324631 149.95411815272135 408.852025850357
  vertex -42.88268025724685 150.5902674057669 416.0359246947133
  vertex -40.6750024825733 149.21249994556888 417.06028152038374
 endloop
endfacet
facet normal 0.7651909708428701 0.24014913850010164 -0.5973367303441207
 outer loop
  vertex -47.31542529324631 149.95411815272135 408.852025850357
  vertex -40.6750024825733 149.21249994556888 417.06028152038374
  vertex -39.68381891058261 146.26819131349077 417.14628249044546
 endloop
endfacet
facet normal 0.7651771009926326 0.2831110456413435 -0.5782319084522884
 outer loop
  vertex -47.31542529324631 149.95411815272135 408.852025850357
  vertex -39.68381891058261 146.26819131349077 417.14628249044546
  vertex -39.3035863005184 143.79293468712837 416.437523254821
 endloop
endfacet
facet normal 0.7549633004647707 0.22207485206886415 -0.6170195904749965
 outer loop
  vertex -47.31542529324631 149.95411815272135 408.852025850357
  vertex -39.3035863005184 143.79293468712837 416.437523254821
  vertex -39.796213523417876 141.3803096364569 414.96642113855637
 endloop
endfacet
facet normal 0.7927685429549808 0.32962025605503104 -0.5127070548561357
 outer loop
  vertex -47.31542529324631 149.95411815272135 408.852025850357
  vertex -39.796213523417876 141.3803096364569 414.96642113855637
  vertex -39.99329536977513 139.61611237841632 413.52747967457856
 endloop
endfacet
facet normal 0.7764629532504781 0.2990989188750913 -0.5546576592433367
 outer loop
  vertex -47.31542529324631 149.95411815272135 408.852025850357
  vertex -39.99329536977513 139.61611237841632 413.52747967457856
  vertex -40.54602975973882 138.5033594339922 412.15365752185437
 endloop
endfacet
facet normal 0.8095004876945319 0.34068492895048713 -0.47816601678529674
 outer loop
  vertex -47.31542529324631 149.95411815272135 408.852025850357
  vertex -40.54602975973882 138.5033594339922 412.15365752185437
  vertex -41.21333405883085 137.77453346960127 410.5046838395496
 endloop
endfacet
facet normal 0.4965333461923744 0.1323634811093035 -0.8578662745367899
 outer loop
  vertex -47.31542529324631 149.95411815272135 408.852025850357
  vertex -41.21333405883085 137.77453346960127 410.5046838395496
  vertex -42.88168499636111 137.8604299719379 409.55229494419194
 endloop
endfacet
facet normal 0.9083665530434718 0.31724633576258043 -0.2724425953428314
 outer loop
  vertex -47.31542529324631 149.95411815272135 408.852025850357
  vertex -42.88168499636111 137.8604299719379 409.55229494419194
  vertex -43.25357279670324 137.6306197310172 408.0447594002302
 endloop
endfacet
facet normal 0.8672627664117493 0.3113021080264274 -0.3885180710522257
 outer loop
  vertex -47.31542529324631 149.95411815272135 408.852025850357
  vertex -43.25357279670324 137.6306197310172 408.0447594002302
  vertex -44.01653312739067 137.5086897095435 406.2439572962868
 endloop
endfacet
facet normal 0.7842183728208187 0.31935570140037434 -0.5319901124206561
 outer loop
  vertex -47.31542529324631 149.95411815272135 408.852025850357
  vertex -44.01653312739067 137.5086897095435 406.2439572962868
  vertex -45.12361745237029 137.7318172774047 404.7459241780609
 endloop
endfacet
facet normal 0.9420933820086361 0.24564156997927553 -0.22829866112977207
 outer loop
  vertex -47.31542529324631 149.95411815272135 408.852025850357
  vertex -45.12361745237029 137.7318172774047 404.7459241780609
  vertex -45.598141737890856 137.972501053477 403.0467278426612
 endloop
endfacet
facet normal 0.7438311730488799 0.3747529318876042 -0.55342156268289
 outer loop
  vertex -47.31542529324631 149.95411815272135 408.852025850357
  vertex -45.598141737890856 137.972501053477 403.0467278426612
  vertex -46.929544169031296 138.8687112591364 401.86411900677837
 endloop
endfacet
facet normal 0.1501440037170495 0.5309516355932422 -0.8339946875182574
 outer loop
  vertex -47.31542529324631 149.95411815272135 408.852025850357
  vertex -46.929544169031296 138.8687112591364 401.86411900677837
  vertex -48.74762741530045 139.86571501413846 402.17153880280625
 endloop
endfacet
facet normal 0.10376066045769315 0.5388540717204535 -0.8359844584271119
 outer loop
  vertex -47.31542529324631 149.95411815272135 408.852025850357
  vertex -48.74762741530045 139.86571501413846 402.17153880280625
  vertex -49.54835206648468 140.6968982573134 402.6079138485402
 endloop
endfacet
facet normal 0.43360241008685074 0.4296710159406328 -0.7920680324488666
 outer loop
  vertex -47.31542529324631 149.95411815272135 408.852025850357
  vertex -49.54835206648468 140.6968982573134 402.6079138485402
  vertex -50.43503964073466 142.6053818682207 403.1578037632602
 endloop
endfacet
facet normal 0.35363788836226767 0.47449044347836594 -0.8061011493369676
 outer loop
  vertex -47.31542529324631 149.95411815272135 408.852025850357
  vertex -50.43503964073466 142.6053818682207 403.1578037632602
  vertex -50.47340680755083 144.39724319625617 404.19570451929326
 endloop
endfacet
facet normal 0.6770704331078982 0.20698152059258765 -0.7062112139751557
 outer loop
  vertex -47.31542529324631 149.95411815272135 408.852025850357
  vertex -50.47340680755083 144.39724319625617 404.19570451929326
  vertex -49.80070840442208 146.3571903577234 405.41508057262973
 endloop
endfacet
facet normal 0.8944921611770323 -0.333082815359432 -0.2982274496170273
 outer loop
  vertex -47.31542529324631 149.95411815272135 408.852025850357
  vertex -49.80070840442208 146.3571903577234 405.41508057262973
  vertex -48.62346176276727 148.241262443166 406.8417965195329
 endloop
endfacet
endsolid
