solid
facet normal 0.08370567413247093 0.9949227736248311 -0.05587517016262059
 outer loop
  vertex 20.664238930923435 154.75824961672598 383.0784463488182
  vertex 20.103136611658563 154.6784272301669 380.8165372082065
  vertex 18.457987300692718 154.73009736447887 379.2720132536741
 endloop
endfacet
facet normal -0.39308991800686544 -0.8891174338789231 0.2344152408311259
 outer loop
  vertex 20.664238930923435 154.75824961672598 383.0784463488182
  vertex 18.457987300692718 154.73009736447887 379.2720132536741
  vertex 18.728390862152967 154.1177250555734 377.4027748009362
 endloop
endfacet
facet normal -0.5215277376207098 0.8492813504239508 0.08203661813053083
 outer loop
  vertex 20.664238930923435 154.75824961672598 383.0784463488182
  vertex 18.728390862152967 154.1177250555734 377.4027748009362
  vertex 17.217686192444518 153.31063689351282 376.15419256102575
 endloop
endfacet
facet normal -0.4565084429735475 0.8887543851819064 0.041420819810802
 outer loop
  vertex 20.664238930923435 154.75824961672598 383.0784463488182
  vertex 17.217686192444518 153.31063689351282 376.15419256102575
  vertex 15.723580219394671 152.61624789557652 374.5866059040477
 endloop
endfacet
facet normal -0.6915868799091176 -0.493969684407202 0.5269739447299278
 outer loop
  vertex 20.664238930923435 154.75824961672598 383.0784463488182
  vertex 15.723580219394671 152.61624789557652 374.5866059040477
  vertex 15.25946353707393 151.53013237412668 372.9594189089871
 endloop
endfacet
facet normal 0.17271721721633415 -0.9613468230783047 0.21443192074478148
 outer loop
  vertex 20.664238930923435 154.75824961672598 383.0784463488182
  vertex 15.25946353707393 151.53013237412668 372.9594189089871
  vertex 15.381895659516664 151.1522573248823 371.1667048752618
 endloop
endfacet
facet normal -0.8669305024378074 0.42840434103003094 0.25475718739528436
 outer loop
  vertex 20.664238930923435 154.75824961672598 383.0784463488182
  vertex 15.381895659516664 151.1522573248823 371.1667048752618
  vertex 14.43015630638814 150.0708291753524 369.7465158492875
 endloop
endfacet
facet normal -0.8419251589864465 0.4924671828793974 0.22054047350197903
 outer loop
  vertex 20.664238930923435 154.75824961672598 383.0784463488182
  vertex 14.43015630638814 150.0708291753524 369.7465158492875
  vertex 13.423274049164869 148.81991112479128 368.6959902362715
 endloop
endfacet
facet normal -0.8876857129337132 0.34565847470637506 0.30419450014263477
 outer loop
  vertex 20.664238930923435 154.75824961672598 383.0784463488182
  vertex 13.423274049164869 148.81991112479128 368.6959902362715
  vertex 12.652691750586701 147.74069806196368 367.67363198928985
 endloop
endfacet
facet normal -0.7475598139707681 0.658213061772207 0.08893756151619812
 outer loop
  vertex 20.664238930923435 154.75824961672598 383.0784463488182
  vertex 12.652691750586701 147.74069806196368 367.67363198928985
  vertex 11.329959695847318 146.2539075541242 367.5589853065898
 endloop
endfacet
facet normal -0.8807244018968761 0.14227002823755736 0.4517563137009537
 outer loop
  vertex 20.664238930923435 154.75824961672598 383.0784463488182
  vertex 11.329959695847318 146.2539075541242 367.5589853065898
  vertex 10.442327882373718 144.75324994719466 366.3010938711431
 endloop
endfacet
facet normal -0.8231517370060425 0.5383814890976657 0.180462156866516
 outer loop
  vertex 20.664238930923435 154.75824961672598 383.0784463488182
  vertex 10.442327882373718 144.75324994719466 366.3010938711431
  vertex 9.45954991023106 143.0481278277554 366.9052692439179
 endloop
endfacet
facet normal -0.8027677634629755 0.5806347187572874 0.13574697535598385
 outer loop
  vertex 20.664238930923435 154.75824961672598 383.0784463488182
  vertex 9.45954991023106 143.0481278277554 366.9052692439179
  vertex 8.407375051494748 141.4506401037881 367.5159994424129
 endloop
endfacet
facet normal -0.8553266685819529 0.3930001951183827 0.3375901903927468
 outer loop
  vertex 20.664238930923435 154.75824961672598 383.0784463488182
  vertex 8.407375051494748 141.4506401037881 367.5159994424129
  vertex 7.670730520209248 139.79621336514 367.5755933488615
 endloop
endfacet
facet normal -0.8437914634888705 0.23071133508667865 0.48454952895017106
 outer loop
  vertex 20.664238930923435 154.75824961672598 383.0784463488182
  vertex 7.670730520209248 139.79621336514 367.5755933488615
  vertex 6.855676179522168 137.71433390069248 367.1475200729087
 endloop
endfacet
facet normal -0.860106753499227 0.3497417278186088 0.37134498301104596
 outer loop
  vertex 20.664238930923435 154.75824961672598 383.0784463488182
  vertex 6.855676179522168 137.71433390069248 367.1475200729087
  vertex 6.106259281818312 136.28832352380797 366.7547769136499
 endloop
endfacet
facet normal -0.8342537755477495 0.5330922280561959 0.14083080050331995
 outer loop
  vertex 20.664238930923435 154.75824961672598 383.0784463488182
  vertex 6.106259281818312 136.28832352380797 366.7547769136499
  vertex 5.187204005922697 134.72579355886717 367.2251800238013
 endloop
endfacet
facet normal -0.8552703324531579 0.40963604263558234 0.31734991885822844
 outer loop
  vertex 20.664238930923435 154.75824961672598 383.0784463488182
  vertex 5.187204005922697 134.72579355886717 367.2251800238013
  vertex 3.9349856531225833 132.19095213656695 367.1223824617888
 endloop
endfacet
facet normal -0.8547530504227936 0.44639639586924057 0.26481593711081963
 outer loop
  vertex 20.664238930923435 154.75824961672598 383.0784463488182
  vertex 3.9349856531225833 132.19095213656695 367.1223824617888
  vertex 3.1854258354984033 130.06473460261319 368.2871435663036
 endloop
endfacet
facet normal 0.7464054743738423 -0.6392219601960213 0.18513279943844488
 outer loop
  vertex 20.664238930923435 154.75824961672598 383.0784463488182
  vertex 3.1854258354984033 130.06473460261319 368.2871435663036
  vertex 3.277582200233555 129.7170695557755 366.7151846873223
 endloop
endfacet
facet normal -0.8348022898921024 0.5484837596778726 0.04765188517286516
 outer loop
  vertex 20.664238930923435 154.75824961672598 383.0784463488182
  vertex 3.277582200233555 129.7170695557755 366.7151846873223
  vertex 2.802829864445964 128.73085716916773 369.7496321194829
 endloop
endfacet
facet normal -0.8500797300199073 0.42203825217785634 0.31503676977131007
 outer loop
  vertex 20.664238930923435 154.75824961672598 383.0784463488182
  vertex 2.802829864445964 128.73085716916773 369.7496321194829
  vertex 2.9831876027959 127.70530459119888 371.6101796215141
 endloop
endfacet
facet normal -0.785998173161658 0.28006088529026824 0.5511558512045097
 outer loop
  vertex 20.664238930923435 154.75824961672598 383.0784463488182
  vertex 2.9831876027959 127.70530459119888 371.6101796215141
  vertex 4.152860166710796 126.71042476027581 373.78377067025656
 endloop
endfacet
facet normal -0.8134327576401537 0.3173112344425234 0.4874840810677793
 outer loop
  vertex 20.664238930923435 154.75824961672598 383.0784463488182
  vertex 4.152860166710796 126.71042476027581 373.78377067025656
  vertex 5.399259328914597 126.58257752503756 375.94677314072845
 endloop
endfacet
facet normal -0.8807280734865934 0.4234725449671148 0.2121062569366324
 outer loop
  vertex 20.664238930923435 154.75824961672598 383.0784463488182
  vertex 5.399259328914597 126.58257752503756 375.94677314072845
  vertex 6.068037117760852 127.00225519934286 377.88584559760614
 endloop
endfacet
facet normal -0.8541143485963761 0.3834187768784339 0.3513953913454666
 outer loop
  vertex 20.664238930923435 154.75824961672598 383.0784463488182
  vertex 6.068037117760852 127.00225519934286 377.88584559760614
  vertex 7.169142007718817 127.3737047698965 380.15693043669114
 endloop
endfacet
facet normal -0.8801689752822411 0.40784021827801553 0.24283519371283482
 outer loop
  vertex 20.664238930923435 154.75824961672598 383.0784463488182
  vertex 7.169142007718817 127.3737047698965 380.15693043669114
  vertex 7.927533082066263 127.90878048160889 382.0071025342449
 endloop
endfacet
facet normal -0.8704959770805718 0.4015874031721443 0.284542284203937
 outer loop
  vertex 20.664238930923435 154.75824961672598 383.0784463488182
  vertex 7.927533082066263 127.90878048160889 382.0071025342449
  vertex 8.762743289922518 128.09744135794858 384.2959830651936
 endloop
endfacet
facet normal -0.8995728981044103 0.4086182984959179 0.1542714721856667
 outer loop
  vertex 20.664238930923435 154.75824961672598 383.0784463488182
  vertex 8.762743289922518 128.09744135794858 384.2959830651936
  vertex 9.521544913978625 128.8458475210977 386.73833301966323
 endloop
endfacet
facet normal -0.8365378210418285 0.41091273950400226 0.36242957175140333
 outer loop
  vertex 20.664238930923435 154.75824961672598 383.0784463488182
  vertex 9.521544913978625 128.8458475210977 386.73833301966323
  vertex 10.551374146869296 128.96884173675323 388.97587453293033
 endloop
endfacet
facet normal -0.8576624173066368 0.40791255505809443 0.3130854921035358
 outer loop
  vertex 20.664238930923435 154.75824961672598 383.0784463488182
  vertex 10.551374146869296 128.96884173675323 388.97587453293033
  vertex 11.47522010249353 129.22764712508024 391.16945425995664
 endloop
endfacet
facet normal -0.8198402674133485 0.4188182566971128 0.39045256278426543
 outer loop
  vertex 20.664238930923435 154.75824961672598 383.0784463488182
  vertex 11.47522010249353 129.22764712508024 391.16945425995664
  vertex 12.614279655259988 129.41195359445226 393.3634620749667
 endloop
endfacet
facet normal -0.8296295726966962 0.41502863303634346 0.3734514772592036
 outer loop
  vertex 20.664238930923435 154.75824961672598 383.0784463488182
  vertex 12.614279655259988 129.41195359445226 393.3634620749667
  vertex 13.753409914547868 129.59689692286216 395.68852818489955
 endloop
endfacet
facet normal -0.8448368713084561 0.40642503989853196 0.34795020882479133
 outer loop
  vertex 20.664238930923435 154.75824961672598 383.0784463488182
  vertex 13.753409914547868 129.59689692286216 395.68852818489955
  vertex 14.770439021681405 129.99514144924763 397.6927435113686
 endloop
endfacet
facet normal -0.8175711974608473 0.42432006953623985 0.38926830807451684
 outer loop
  vertex 20.664238930923435 154.75824961672598 383.0784463488182
  vertex 14.770439021681405 129.99514144924763 397.6927435113686
  vertex 15.732920598082423 130.6081415174042 399.0460234277635
 endloop
endfacet
facet normal -0.9849650164459268 0.16266849473388487 -0.05816250681226807
 outer loop
  vertex 20.664238930923435 154.75824961672598 383.0784463488182
  vertex 15.732920598082423 130.6081415174042 399.0460234277635
  vertex 16.030102913977466 132.5370438957604 399.4080687189127
 endloop
endfacet
facet normal -0.9581409384351884 0.2699307585533828 0.0954113603368695
 outer loop
  vertex 20.664238930923435 154.75824961672598 383.0784463488182
  vertex 16.030102913977466 132.5370438957604 399.4080687189127
  vertex 16.738214460386992 135.01049565124356 399.5213671034309
 endloop
endfacet
facet normal -0.8246497183146482 0.44966898901502317 0.34314813477823014
 outer loop
  vertex 20.664238930923435 154.75824961672598 383.0784463488182
  vertex 16.738214460386992 135.01049565124356 399.5213671034309
  vertex 18.3577151061726 137.77667588886442 399.7884683089567
 endloop
endfacet
facet normal -0.7927622047535554 0.4788194080065895 0.37717378120768313
 outer loop
  vertex 20.664238930923435 154.75824961672598 383.0784463488182
  vertex 18.3577151061726 137.77667588886442 399.7884683089567
  vertex 19.954106644195708 140.34808769184204 399.87945288900977
 endloop
endfacet
facet normal -0.6608462353650817 0.583258207095007 0.4723262824151511
 outer loop
  vertex 20.664238930923435 154.75824961672598 383.0784463488182
  vertex 19.954106644195708 140.34808769184204 399.87945288900977
  vertex 21.771108606323093 142.52326085454658 399.7356355847301
 endloop
endfacet
facet normal -0.7456706747604743 0.5124101699451843 0.4259237755033243
 outer loop
  vertex 20.664238930923435 154.75824961672598 383.0784463488182
  vertex 21.771108606323093 142.52326085454658 399.7356355847301
  vertex 23.166749641967748 145.04897044533828 399.14043357334293
 endloop
endfacet
facet normal -0.8003118979082782 0.4497254730273469 0.39654490915503954
 outer loop
  vertex 20.664238930923435 154.75824961672598 383.0784463488182
  vertex 23.166749641967748 145.04897044533828 399.14043357334293
  vertex 23.744981257339756 147.04371698000367 398.04516623459796
 endloop
endfacet
facet normal -0.8598026551100622 0.35972819375750437 0.36240173962282657
 outer loop
  vertex 20.664238930923435 154.75824961672598 383.0784463488182
  vertex 23.744981257339756 147.04371698000367 398.04516623459796
  vertex 23.712478758275576 148.36665572107836 396.65487462259824
 endloop
endfacet
facet normal -0.6939758347516041 -0.6988563665557725 -0.17319734323966407
 outer loop
  vertex 20.664238930923435 154.75824961672598 383.0784463488182
  vertex 23.712478758275576 148.36665572107836 396.65487462259824
  vertex 22.93899672221191 149.46356134088452 395.3280549960887
 endloop
endfacet
facet normal -0.9686687357867978 -0.23580303577094205 0.07796030163111674
 outer loop
  vertex 20.664238930923435 154.75824961672598 383.0784463488182
  vertex 22.93899672221191 149.46356134088452 395.3280549960887
  vertex 22.54189513576965 150.6965071314077 394.12324268256
 endloop
endfacet
facet normal -0.9831477894685963 0.033965327349040945 0.17962956494153468
 outer loop
  vertex 20.664238930923435 154.75824961672598 383.0784463488182
  vertex 22.54189513576965 150.6965071314077 394.12324268256
  vertex 22.316841620396367 152.0709780652946 392.63158833579473
 endloop
endfacet
facet normal -0.6179213545362324 0.7224909085821635 0.3101291450738343
 outer loop
  vertex 20.664238930923435 154.75824961672598 383.0784463488182
  vertex 22.316841620396367 152.0709780652946 392.63158833579473
  vertex 22.328443850371798 152.95552165088162 390.59403255232013
 endloop
endfacet
facet normal -0.20398301332445914 0.9407678120371606 0.2708262433921186
 outer loop
  vertex 20.664238930923435 154.75824961672598 383.0784463488182
  vertex 22.328443850371798 152.95552165088162 390.59403255232013
  vertex 22.4912038525871 153.76820289490854 387.8936144873419
 endloop
endfacet
facet normal -0.5769468165766948 0.7288025872550734 0.36875352154566443
 outer loop
  vertex 20.664238930923435 154.75824961672598 383.0784463488182
  vertex 22.4912038525871 153.76820289490854 387.8936144873419
  vertex 21.810482548666606 154.53903454689416 385.30509929817947
 endloop
endfacet
facet normal 0.013466399161202455 0.32209332695440884 0.9466121406495226
 outer loop
  vertex -4.502624704136994 154.29432115082915 420.4574189436197
  vertex -2.4131774962823282 154.56510753888296 420.3355571865221
  vertex -0.8273713538826613 155.5605506893249 419.97428916560807
 endloop
endfacet
facet normal -0.0969784902690798 0.5879033615396455 0.8030970115219674
 outer loop
  vertex -4.502624704136994 154.29432115082915 420.4574189436197
  vertex -0.8273713538826613 155.5605506893249 419.97428916560807
  vertex 0.6811988574561888 156.34501579365408 419.58219355851776
 endloop
endfacet
facet normal 0.3298293442482991 -0.489147172122226 0.8074327511796672
 outer loop
  vertex -4.502624704136994 154.29432115082915 420.4574189436197
  vertex 0.6811988574561888 156.34501579365408 419.58219355851776
  vertex 3.0287317030722285 157.5774420705163 419.36985712474774
 endloop
endfacet
facet normal -0.05165492289466868 0.4188139998526753 0.9066016779535262
 outer loop
  vertex -4.502624704136994 154.29432115082915 420.4574189436197
  vertex 3.0287317030722285 157.5774420705163 419.36985712474774
  vertex 5.40862989885402 159.3389729602604 418.69169784603855
 endloop
endfacet
facet normal -0.4730214159724117 0.8552154570787373 -0.2117953304609456
 outer loop
  vertex -4.502624704136994 154.29432115082915 420.4574189436197
  vertex 5.40862989885402 159.3389729602604 418.69169784603855
  vertex 7.705939862790286 160.37848247069033 417.7583807113386
 endloop
endfacet
facet normal 0.07321384778636097 -0.5234898790519633 -0.8488804857119031
 outer loop
  vertex -4.502624704136994 154.29432115082915 420.4574189436197
  vertex 7.705939862790286 160.37848247069033 417.7583807113386
  vertex 9.882251398981872 160.7761961529064 417.70081907966414
 endloop
endfacet
facet normal -0.4397081227500532 0.819878966107354 -0.366681398113349
 outer loop
  vertex -4.502624704136994 154.29432115082915 420.4574189436197
  vertex 9.882251398981872 160.7761961529064 417.70081907966414
  vertex 11.37585357789423 161.05973789797878 416.5437407560575
 endloop
endfacet
facet normal -0.10568401289051654 -0.30033761918140955 -0.947960022323621
 outer loop
  vertex -4.502624704136994 154.29432115082915 420.4574189436197
  vertex 11.37585357789423 161.05973789797878 416.5437407560575
  vertex 13.248495857006148 160.38557039623254 416.54856111929155
 endloop
endfacet
facet normal -0.32782190241608883 0.40877097368746457 -0.851727122596726
 outer loop
  vertex -4.502624704136994 154.29432115082915 420.4574189436197
  vertex 13.248495857006148 160.38557039623254 416.54856111929155
  vertex 14.56228355609805 159.7182260424037 415.72261655850093
 endloop
endfacet
facet normal -0.254111743112876 0.050031557613861646 -0.9658799434996392
 outer loop
  vertex -4.502624704136994 154.29432115082915 420.4574189436197
  vertex 14.56228355609805 159.7182260424037 415.72261655850093
  vertex 15.887975164174254 158.3655501061813 415.303775384588
 endloop
endfacet
facet normal -0.24623093178678082 0.006370386181489394 -0.9691902529489823
 outer loop
  vertex -4.502624704136994 154.29432115082915 420.4574189436197
  vertex 15.887975164174254 158.3655501061813 415.303775384588
  vertex 17.10617883818108 156.17423251704358 414.97987719835396
 endloop
endfacet
facet normal -0.24226743160305433 -0.03978093203242204 -0.9693936089283296
 outer loop
  vertex -4.502624704136994 154.29432115082915 420.4574189436197
  vertex 17.10617883818108 156.17423251704358 414.97987719835396
  vertex 17.834040030034146 154.76621182755247 414.8557535348011
 endloop
endfacet
facet normal -0.24126244115133025 -0.07000093441993104 -0.9679319726458248
 outer loop
  vertex -4.502624704136994 154.29432115082915 420.4574189436197
  vertex 17.834040030034146 154.76621182755247 414.8557535348011
  vertex 18.397289724416265 153.3772050193028 414.8158135154157
 endloop
endfacet
facet normal -0.24207988592482546 -0.12958683170097507 -0.9615636130180503
 outer loop
  vertex -4.502624704136994 154.29432115082915 420.4574189436197
  vertex 18.397289724416265 153.3772050193028 414.8158135154157
  vertex 18.687679106764172 152.03604511997588 414.92344990286256
 endloop
endfacet
facet normal -0.2405869728237624 -0.10637075913895534 -0.9647814105317849
 outer loop
  vertex -4.502624704136994 154.29432115082915 420.4574189436197
  vertex 18.687679106764172 152.03604511997588 414.92344990286256
  vertex 18.981402367336187 150.64892422964985 415.00313957263984
 endloop
endfacet
facet normal -0.23712978380830577 -0.07887891448472772 -0.9682704077274784
 outer loop
  vertex -4.502624704136994 154.29432115082915 420.4574189436197
  vertex 18.981402367336187 150.64892422964985 415.00313957263984
  vertex 18.833315631065453 148.11681609582956 415.24568103093105
 endloop
endfacet
facet normal -0.17837240834575963 0.1470036601769987 -0.972919939067701
 outer loop
  vertex -4.502624704136994 154.29432115082915 420.4574189436197
  vertex 18.833315631065453 148.11681609582956 415.24568103093105
  vertex 18.14766478848575 146.04969071919274 415.0590533372802
 endloop
endfacet
facet normal -0.20418697612428838 0.07798329709171127 -0.9758208258465922
 outer loop
  vertex -4.502624704136994 154.29432115082915 420.4574189436197
  vertex 18.14766478848575 146.04969071919274 415.0590533372802
  vertex 17.08628357822044 144.13899286515274 415.12844896774993
 endloop
endfacet
facet normal -0.20276518251570944 0.08103110733914355 -0.9758689668202197
 outer loop
  vertex -4.502624704136994 154.29432115082915 420.4574189436197
  vertex 17.08628357822044 144.13899286515274 415.12844896774993
  vertex 15.514318815390869 142.2274672387886 415.29634720962747
 endloop
endfacet
facet normal -0.20941154359769412 0.06977739972378051 -0.9753347732424077
 outer loop
  vertex -4.502624704136994 154.29432115082915 420.4574189436197
  vertex 15.514318815390869 142.2274672387886 415.29634720962747
  vertex 13.847910651720547 140.4123741406585 415.52428189961586
 endloop
endfacet
facet normal -0.22630031704381304 0.046601892352146 -0.9729421514843873
 outer loop
  vertex -4.502624704136994 154.29432115082915 420.4574189436197
  vertex 13.847910651720547 140.4123741406585 415.52428189961586
  vertex 12.103735495526971 138.94260409137544 415.8595673271305
 endloop
endfacet
facet normal -0.5004862486692438 -0.2979358781063682 -0.8128639046174797
 outer loop
  vertex -4.502624704136994 154.29432115082915 420.4574189436197
  vertex 12.103735495526971 138.94260409137544 415.8595673271305
  vertex 10.833814407013072 138.29068956281404 416.88041074815067
 endloop
endfacet
facet normal -0.22797033382591142 -0.0008395433486909552 -0.9736677164527271
 outer loop
  vertex -4.502624704136994 154.29432115082915 420.4574189436197
  vertex 10.833814407013072 138.29068956281404 416.88041074815067
  vertex 9.095218921792997 137.57717201780306 417.28809317959565
 endloop
endfacet
facet normal -0.2066895702281887 0.01733966102208048 -0.978252910915437
 outer loop
  vertex -4.502624704136994 154.29432115082915 420.4574189436197
  vertex 9.095218921792997 137.57717201780306 417.28809317959565
  vertex 7.140581138221848 137.04189669717175 417.6915898075336
 endloop
endfacet
facet normal -0.5397903169392507 -0.23468754622651802 -0.8084232612838396
 outer loop
  vertex -4.502624704136994 154.29432115082915 420.4574189436197
  vertex 7.140581138221848 137.04189669717175 417.6915898075336
  vertex 5.518835380714153 136.9121660957207 418.8121028560157
 endloop
endfacet
facet normal -0.06434784243640324 0.05720504681986292 -0.9962865741302134
 outer loop
  vertex -4.502624704136994 154.29432115082915 420.4574189436197
  vertex 5.518835380714153 136.9121660957207 418.8121028560157
  vertex 3.206434343685079 136.9559545733545 418.9639697419324
 endloop
endfacet
facet normal -0.06649424808483723 0.05624327883636958 -0.9962003857444378
 outer loop
  vertex -4.502624704136994 154.29432115082915 420.4574189436197
  vertex 3.206434343685079 136.9559545733545 418.9639697419324
  vertex 1.3391025152232607 137.33941518809476 419.1102594946985
 endloop
endfacet
facet normal -0.21031782976241664 0.005213211191766754 -0.9776191655819239
 outer loop
  vertex -4.502624704136994 154.29432115082915 420.4574189436197
  vertex 1.3391025152232607 137.33941518809476 419.1102594946985
  vertex -0.40601908157815403 138.03809120567607 419.4894179089307
 endloop
endfacet
facet normal -0.3292655890631166 -0.02677225924453548 -0.9438577318610375
 outer loop
  vertex -4.502624704136994 154.29432115082915 420.4574189436197
  vertex -0.40601908157815403 138.03809120567607 419.4894179089307
  vertex -2.297275982971385 139.18715580555462 420.1165916262907
 endloop
endfacet
facet normal -0.6074067269343405 -0.07081881372183756 -0.791228009930098
 outer loop
  vertex -4.502624704136994 154.29432115082915 420.4574189436197
  vertex -2.297275982971385 139.18715580555462 420.1165916262907
  vertex -3.3844965386925816 140.35318876670894 420.8468590092514
 endloop
endfacet
facet normal -0.5150861550706116 -0.0651862152478276 -0.854656077142284
 outer loop
  vertex -4.502624704136994 154.29432115082915 420.4574189436197
  vertex -3.3844965386925816 140.35318876670894 420.8468590092514
  vertex -5.00039540514657 142.34320033558944 421.6689508780407
 endloop
endfacet
facet normal 0.07358840648218593 -0.10361690058465846 -0.9918912663919577
 outer loop
  vertex -4.502624704136994 154.29432115082915 420.4574189436197
  vertex -5.00039540514657 142.34320033558944 421.6689508780407
  vertex -6.792713151424815 143.47946421697924 421.41728019905355
 endloop
endfacet
facet normal -0.6726991504300931 0.07713402114809749 -0.7358846348390184
 outer loop
  vertex -4.502624704136994 154.29432115082915 420.4574189436197
  vertex -6.792713151424815 143.47946421697924 421.41728019905355
  vertex -6.973700275823484 145.79980651990147 421.82594101740585
 endloop
endfacet
facet normal -0.06327617141792678 -0.14076904125189502 -0.9880183212652038
 outer loop
  vertex -4.502624704136994 154.29432115082915 420.4574189436197
  vertex -6.973700275823484 145.79980651990147 421.82594101740585
  vertex -8.119586134769873 147.38247502478038 421.67383507485323
 endloop
endfacet
facet normal -0.7630575257959394 0.29840859027717453 -0.5733197411348826
 outer loop
  vertex -4.502624704136994 154.29432115082915 420.4574189436197
  vertex -8.119586134769873 147.38247502478038 421.67383507485323
  vertex -7.531928151808447 148.9330402446611 421.6987515985305
 endloop
endfacet
facet normal -0.8758720921798212 0.4652785718568 -0.1279215725022148
 outer loop
  vertex -4.502624704136994 154.29432115082915 420.4574189436197
  vertex -7.531928151808447 148.9330402446611 421.6987515985305
  vertex -6.278258820240299 151.2452280611598 421.52487525553386
 endloop
endfacet
facet normal -0.10808606406048625 -0.2718316113695442 -0.9562557073378173
 outer loop
  vertex -4.502624704136994 154.29432115082915 420.4574189436197
  vertex -6.278258820240299 151.2452280611598 421.52487525553386
  vertex -6.45623466949506 152.77008617143164 421.11152564083534
 endloop
endfacet
facet normal 0.2272200992371996 -0.6402963300579585 -0.7337517538084302
 outer loop
  vertex -18.968786456476792 170.4915103759288 421.0797484076943
  vertex -17.46725065727902 171.5063586235093 420.65913681312196
  vertex -15.4955071596073 172.47833878270055 420.4215420479944
 endloop
endfacet
facet normal -0.5156204977611691 0.7981913461923261 -0.31149009157950197
 outer loop
  vertex -18.968786456476792 170.4915103759288 421.0797484076943
  vertex -15.4955071596073 172.47833878270055 420.4215420479944
  vertex -13.786565816129887 173.12447509038557 419.24839148304187
 endloop
endfacet
facet normal -0.06747327433309984 -0.47679334194888867 -0.8764219681888288
 outer loop
  vertex -18.968786456476792 170.4915103759288 421.0797484076943
  vertex -13.786565816129887 173.12447509038557 419.24839148304187
  vertex -10.946763604877479 173.5460969259616 418.80039125948986
 endloop
endfacet
facet normal -0.2418317481154229 -0.08609928864229867 -0.9664907232346976
 outer loop
  vertex -18.968786456476792 170.4915103759288 421.0797484076943
  vertex -10.946763604877479 173.5460969259616 418.80039125948986
  vertex -8.013103370643588 173.31749973863987 418.0867060569057
 endloop
endfacet
facet normal -0.2145176621665661 -0.18425074314822013 -0.9591839428743163
 outer loop
  vertex -18.968786456476792 170.4915103759288 421.0797484076943
  vertex -8.013103370643588 173.31749973863987 418.0867060569057
  vertex -6.37753802395039 172.43766229754826 417.8899273748555
 endloop
endfacet
facet normal -0.2608024086797049 0.11661399221876749 -0.9583231607582409
 outer loop
  vertex -18.968786456476792 170.4915103759288 421.0797484076943
  vertex -6.37753802395039 172.43766229754826 417.8899273748555
  vertex -5.0819538148307 170.30023704946285 417.2772476466836
 endloop
endfacet
facet normal -0.26109327695536133 0.109836167144056 -0.9590444813019957
 outer loop
  vertex -18.968786456476792 170.4915103759288 421.0797484076943
  vertex -5.0819538148307 170.30023704946285 417.2772476466836
  vertex -5.905624591269393 167.41065259243518 417.1705518872676
 endloop
endfacet
facet normal -0.23822068786390171 0.19671351577056853 -0.9510808044466211
 outer loop
  vertex -18.968786456476792 170.4915103759288 421.0797484076943
  vertex -5.905624591269393 167.41065259243518 417.1705518872676
  vertex -7.27833683892401 164.89837943309539 416.9947627964852
 endloop
endfacet
facet normal -0.4887414475219897 -0.4987391798179761 -0.7158149397634856
 outer loop
  vertex -18.968786456476792 170.4915103759288 421.0797484076943
  vertex -7.27833683892401 164.89837943309539 416.9947627964852
  vertex -8.315745877614502 164.4662566996061 418.00415962908255
 endloop
endfacet
facet normal -0.28009069542916387 -0.00520760345428077 -0.9599594174756922
 outer loop
  vertex -18.968786456476792 170.4915103759288 421.0797484076943
  vertex -8.315745877614502 164.4662566996061 418.00415962908255
  vertex -9.807824501396023 163.4144519788499 418.44521444198324
 endloop
endfacet
facet normal -0.2795083713447557 -0.004389107229067567 -0.9601332230924695
 outer loop
  vertex -18.968786456476792 170.4915103759288 421.0797484076943
  vertex -9.807824501396023 163.4144519788499 418.44521444198324
  vertex -11.862217400273433 162.40388934225075 419.0478969313751
 endloop
endfacet
facet normal -0.24587630299633928 0.027369469829022188 -0.968914730895413
 outer loop
  vertex -18.968786456476792 170.4915103759288 421.0797484076943
  vertex -11.862217400273433 162.40388934225075 419.0478969313751
  vertex -14.261093287533702 161.72310187091873 419.6374162400785
 endloop
endfacet
facet normal -0.18991059991424997 0.059242514019930956 -0.9800123920506354
 outer loop
  vertex -18.968786456476792 170.4915103759288 421.0797484076943
  vertex -14.261093287533702 161.72310187091873 419.6374162400785
  vertex -16.66628488993731 160.890492632259 420.05317171310287
 endloop
endfacet
facet normal -0.6984258108135123 -0.09160136560560067 -0.7097961514467916
 outer loop
  vertex -18.968786456476792 170.4915103759288 421.0797484076943
  vertex -16.66628488993731 160.890492632259 420.05317171310287
  vertex -17.73986744816092 161.8214403070679 420.9894147302398
 endloop
endfacet
facet normal -0.298555070662572 -0.03237988342317317 -0.9538429707929751
 outer loop
  vertex -18.968786456476792 170.4915103759288 421.0797484076943
  vertex -17.73986744816092 161.8214403070679 420.9894147302398
  vertex -18.883822345295336 161.9912071172153 421.3417122424264
 endloop
endfacet
facet normal -0.37453055478888586 -0.0323013069685389 -0.9266517625827155
 outer loop
  vertex -18.968786456476792 170.4915103759288 421.0797484076943
  vertex -18.883822345295336 161.9912071172153 421.3417122424264
  vertex -20.75062557624187 163.24569103189617 422.0525007029341
 endloop
endfacet
facet normal -0.6083382769254811 0.04320473968964579 -0.7925010355171068
 outer loop
  vertex -18.968786456476792 170.4915103759288 421.0797484076943
  vertex -20.75062557624187 163.24569103189617 422.0525007029341
  vertex -21.75430043432171 164.78416173380708 422.9068125960563
 endloop
endfacet
facet normal -0.37507485039705274 -0.1115398999867392 -0.9202595869158748
 outer loop
  vertex -18.968786456476792 170.4915103759288 421.0797484076943
  vertex -21.75430043432171 164.78416173380708 422.9068125960563
  vertex -21.23358120373997 167.36511547436814 422.381756387491
 endloop
endfacet
facet normal 0.43176302912744874 -0.5950674284659456 -0.6778461789061119
 outer loop
  vertex -18.968786456476792 170.4915103759288 421.0797484076943
  vertex -21.23358120373997 167.36511547436814 422.381756387491
  vertex -20.465061391403033 168.95581544548196 421.47483189889306
 endloop
endfacet
facet normal 0.569057033112496 -0.67519649743206 -0.46934399210033756
 outer loop
  vertex -18.968786456476792 170.4915103759288 421.0797484076943
  vertex -20.465061391403033 168.95581544548196 421.47483189889306
  vertex -20.23737668479241 169.7997155670395 420.53685712977085
 endloop
endfacet
facet normal -0.05807484277802489 -0.6420842856912651 -0.7644312151558473
 outer loop
  vertex -10.089420913083579 176.92975136152722 412.8074436117317
  vertex -11.50700892557795 178.12562079988197 411.9106686507345
  vertex -11.565416953529288 178.91711213244523 411.2502925438319
 endloop
endfacet
facet normal -0.3236593664264693 0.4228293076615492 0.8464395968448496
 outer loop
  vertex -10.089420913083579 176.92975136152722 412.8074436117317
  vertex -11.565416953529288 178.91711213244523 411.2502925438319
  vertex -13.110231171354794 179.54932443445517 410.34377602002775
 endloop
endfacet
facet normal -0.7260580461722048 -0.22672250690933368 0.6491814988501656
 outer loop
  vertex -10.089420913083579 176.92975136152722 412.8074436117317
  vertex -13.110231171354794 179.54932443445517 410.34377602002775
  vertex -14.355609325206066 179.96870318951295 409.0973846366123
 endloop
endfacet
facet normal -0.29904070259762316 -0.8775064741910227 -0.3749093836419142
 outer loop
  vertex -10.089420913083579 176.92975136152722 412.8074436117317
  vertex -14.355609325206066 179.96870318951295 409.0973846366123
  vertex -14.578165401885245 180.72186825322208 407.5120578351646
 endloop
endfacet
facet normal -0.7697786463214337 -0.02029085561118601 0.6379883359796691
 outer loop
  vertex -10.089420913083579 176.92975136152722 412.8074436117317
  vertex -14.578165401885245 180.72186825322208 407.5120578351646
  vertex -15.450076083863488 180.73394185132608 406.4604191091677
 endloop
endfacet
facet normal -0.6006825598615979 -0.7989812505456338 0.02845037002663893
 outer loop
  vertex -10.089420913083579 176.92975136152722 412.8074436117317
  vertex -15.450076083863488 180.73394185132608 406.4604191091677
  vertex -15.7778817758541 180.93046271651554 405.0583046362314
 endloop
endfacet
facet normal -0.40866080144458594 -0.8979072353995162 -0.1635816187102528
 outer loop
  vertex -10.089420913083579 176.92975136152722 412.8074436117317
  vertex -15.7778817758541 180.93046271651554 405.0583046362314
  vertex -15.811057445405163 181.28158705026578 403.21384627672336
 endloop
endfacet
facet normal -0.46958286001962307 -0.875113948719069 -0.11690814485359756
 outer loop
  vertex -10.089420913083579 176.92975136152722 412.8074436117317
  vertex -15.811057445405163 181.28158705026578 403.21384627672336
  vertex -15.798720274472872 181.55369315883866 401.12744609083234
 endloop
endfacet
facet normal -0.8253124033813228 -0.5305266604475557 0.19339312133400346
 outer loop
  vertex -10.089420913083579 176.92975136152722 412.8074436117317
  vertex -15.798720274472872 181.55369315883866 401.12744609083234
  vertex -16.026590445479453 181.14880342536256 399.0442857702171
 endloop
endfacet
facet normal -0.2941156896726826 -0.9419612965972382 -0.16187920435068914
 outer loop
  vertex -10.089420913083579 176.92975136152722 412.8074436117317
  vertex -16.026590445479453 181.14880342536256 399.0442857702171
  vertex -14.85139844217073 181.13198213106972 397.0069802392733
 endloop
endfacet
facet normal -0.6009681804478914 -0.7986603371755587 -0.03128756800669372
 outer loop
  vertex -10.089420913083579 176.92975136152722 412.8074436117317
  vertex -14.85139844217073 181.13198213106972 397.0069802392733
  vertex -13.68488066860711 180.35305032150976 394.4839934043158
 endloop
endfacet
facet normal -0.8505991250647917 -0.5211969979827766 0.0695328536215239
 outer loop
  vertex -10.089420913083579 176.92975136152722 412.8074436117317
  vertex -13.68488066860711 180.35305032150976 394.4839934043158
  vertex -13.380830917872036 179.6652224405193 393.0477029380384
 endloop
endfacet
facet normal -0.4512556113988495 -0.8910924547689044 -0.04819346672505176
 outer loop
  vertex -10.089420913083579 176.92975136152722 412.8074436117317
  vertex -13.380830917872036 179.6652224405193 393.0477029380384
  vertex -12.122456921099964 179.09125268904302 391.8776644181412
 endloop
endfacet
facet normal -0.28456652240216274 -0.9560167933110705 -0.07108997985059128
 outer loop
  vertex -10.089420913083579 176.92975136152722 412.8074436117317
  vertex -12.122456921099964 179.09125268904302 391.8776644181412
  vertex -9.912074241269014 178.45952510711854 391.525171207248
 endloop
endfacet
facet normal -0.6722379321618044 -0.7380083615529908 -0.05864998585414494
 outer loop
  vertex -10.089420913083579 176.92975136152722 412.8074436117317
  vertex -9.912074241269014 178.45952510711854 391.525171207248
  vertex -8.621654600309208 177.31929068443984 391.08243464705606
 endloop
endfacet
facet normal -0.5282464436163282 -0.8475649201757545 -0.050886156213338245
 outer loop
  vertex -10.089420913083579 176.92975136152722 412.8074436117317
  vertex -8.621654600309208 177.31929068443984 391.08243464705606
  vertex -7.270792847411727 176.42707336452872 391.9200727772731
 endloop
endfacet
facet normal -0.2839549650332069 -0.9587164093054428 -0.015245470195074764
 outer loop
  vertex -10.089420913083579 176.92975136152722 412.8074436117317
  vertex -7.270792847411727 176.42707336452872 391.9200727772731
  vertex -6.224630120451025 176.09195885350968 393.508523631677
 endloop
endfacet
facet normal -0.5934940232346474 -0.8004318861670571 -0.08410493440814854
 outer loop
  vertex -10.089420913083579 176.92975136152722 412.8074436117317
  vertex -6.224630120451025 176.09195885350968 393.508523631677
  vertex -4.882326614705329 174.90823788305016 395.30198440915564
 endloop
endfacet
facet normal -0.3644766681345561 -0.9312121046297743 -0.000880100289114464
 outer loop
  vertex -10.089420913083579 176.92975136152722 412.8074436117317
  vertex -4.882326614705329 174.90823788305016 395.30198440915564
  vertex -4.242641244120014 174.65575195998622 397.53758790201584
 endloop
endfacet
facet normal -0.5929812265135421 -0.797910125029434 -0.10822521599889874
 outer loop
  vertex -10.089420913083579 176.92975136152722 412.8074436117317
  vertex -4.242641244120014 174.65575195998622 397.53758790201584
  vertex -3.8202494600356856 174.0827710584675 399.44764982858953
 endloop
endfacet
facet normal 0.06881743748689634 -0.9686487569183343 0.23871268508041835
 outer loop
  vertex -10.089420913083579 176.92975136152722 412.8074436117317
  vertex -3.8202494600356856 174.0827710584675 399.44764982858953
  vertex -3.880359631143219 174.55734580178873 401.3907089624986
 endloop
endfacet
facet normal -0.5414873220540621 -0.831864052318404 -0.12162926668825996
 outer loop
  vertex -10.089420913083579 176.92975136152722 412.8074436117317
  vertex -3.880359631143219 174.55734580178873 401.3907089624986
  vertex -3.7705666709439587 174.1341350297205 403.79639913728795
 endloop
endfacet
facet normal -0.15578745400678262 -0.9690690878453582 0.1914036889839119
 outer loop
  vertex -10.089420913083579 176.92975136152722 412.8074436117317
  vertex -3.7705666709439587 174.1341350297205 403.79639913728795
  vertex -3.684485100119582 174.5340295982092 405.8911126488388
 endloop
endfacet
facet normal -0.6425670126232579 -0.6758947254593726 -0.3609348339861661
 outer loop
  vertex -10.089420913083579 176.92975136152722 412.8074436117317
  vertex -3.684485100119582 174.5340295982092 405.8911126488388
  vertex -4.095542131130399 173.8261115098895 407.94857488429443
 endloop
endfacet
facet normal -0.23960803696953512 -0.9249002030682236 0.29520772853020755
 outer loop
  vertex -10.089420913083579 176.92975136152722 412.8074436117317
  vertex -4.095542131130399 173.8261115098895 407.94857488429443
  vertex -4.655711489022457 174.53090949170561 409.70207476340016
 endloop
endfacet
facet normal -0.2729799984902118 -0.9311726911082164 0.241659553418784
 outer loop
  vertex -10.089420913083579 176.92975136152722 412.8074436117317
  vertex -4.655711489022457 174.53090949170561 409.70207476340016
  vertex -5.89994951556948 175.3578393991377 411.4829373304485
 endloop
endfacet
facet normal 0.3370536071156477 0.1104967539735434 0.9349787876158693
 outer loop
  vertex -10.089420913083579 176.92975136152722 412.8074436117317
  vertex -5.89994951556948 175.3578393991377 411.4829373304485
  vertex -8.027014064059898 176.68668847333336 412.0926851418089
 endloop
endfacet
facet normal 0.33893625073589045 -0.8952789993100814 -0.2891327226922559
 outer loop
  vertex -38.23264358852486 168.57620630516084 399.5569144925663
  vertex -37.95688000553419 167.90329401674626 401.96380399515755
  vertex -39.401387411342576 166.88379213477359 403.427293483522
 endloop
endfacet
facet normal 0.9599630491132777 -0.024829594810860424 0.2790240770232329
 outer loop
  vertex -38.23264358852486 168.57620630516084 399.5569144925663
  vertex -39.401387411342576 166.88379213477359 403.427293483522
  vertex -40.076659174110475 165.38558173953166 405.6171976302549
 endloop
endfacet
facet normal -0.1345501086046005 -0.8593489445480036 -0.49337172575931265
 outer loop
  vertex -38.23264358852486 168.57620630516084 399.5569144925663
  vertex -40.076659174110475 165.38558173953166 405.6171976302549
  vertex -41.366915291873674 165.1960527366445 406.29918979112966
 endloop
endfacet
facet normal 0.7545324043433902 0.374840067507386 0.5386796585976131
 outer loop
  vertex -38.23264358852486 168.57620630516084 399.5569144925663
  vertex -41.366915291873674 165.1960527366445 406.29918979112966
  vertex -41.379248818480235 163.50935145170317 407.4901559966606
 endloop
endfacet
facet normal 0.8914137006252283 -0.44816068752367166 0.06733210598181122
 outer loop
  vertex -38.23264358852486 168.57620630516084 399.5569144925663
  vertex -41.379248818480235 163.50935145170317 407.4901559966606
  vertex -42.276709317233255 161.88395072056935 408.55306460687564
 endloop
endfacet
facet normal 0.5939728521300183 -0.7500330982766543 -0.2909408916293033
 outer loop
  vertex -38.23264358852486 168.57620630516084 399.5569144925663
  vertex -42.276709317233255 161.88395072056935 408.55306460687564
  vertex -43.97212217056525 160.37857995947064 408.9725611145235
 endloop
endfacet
facet normal 0.8880173512491831 -0.42762671107388567 0.16899875696737068
 outer loop
  vertex -38.23264358852486 168.57620630516084 399.5569144925663
  vertex -43.97212217056525 160.37857995947064 408.9725611145235
  vertex -44.67760403029007 159.06910092395916 409.36612566165235
 endloop
endfacet
facet normal 0.8041481199038021 -0.5926433052435216 -0.04604035192322639
 outer loop
  vertex -38.23264358852486 168.57620630516084 399.5569144925663
  vertex -44.67760403029007 159.06910092395916 409.36612566165235
  vertex -45.309965007563335 158.26391019269388 408.6858312386523
 endloop
endfacet
facet normal 0.8234979141229664 -0.5673141081953819 -0.0024265361324950817
 outer loop
  vertex -38.23264358852486 168.57620630516084 399.5569144925663
  vertex -45.309965007563335 158.26391019269388 408.6858312386523
  vertex -46.43913837691368 156.62828411854997 407.8788509827551
 endloop
endfacet
facet normal 0.8708342819846225 -0.41838570487028237 0.2580718025676649
 outer loop
  vertex -38.23264358852486 168.57620630516084 399.5569144925663
  vertex -46.43913837691368 156.62828411854997 407.8788509827551
  vertex -46.34552008410452 155.64352061209235 405.96644913308194
 endloop
endfacet
facet normal 0.8562123618561782 -0.3477743464568285 0.3820384736531007
 outer loop
  vertex -38.23264358852486 168.57620630516084 399.5569144925663
  vertex -46.34552008410452 155.64352061209235 405.96644913308194
  vertex -46.123444364832665 154.05457444142618 404.0223028143486
 endloop
endfacet
facet normal 0.8871021004302794 -0.4485190984434748 0.10899762265131682
 outer loop
  vertex -38.23264358852486 168.57620630516084 399.5569144925663
  vertex -46.123444364832665 154.05457444142618 404.0223028143486
  vertex -46.440080049707234 153.02953323820367 402.38132780165915
 endloop
endfacet
facet normal 0.8416782649121867 -0.4867949559514962 -0.23368433673353406
 outer loop
  vertex -38.23264358852486 168.57620630516084 399.5569144925663
  vertex -46.440080049707234 153.02953323820367 402.38132780165915
  vertex -47.140958572330604 152.96910964421156 399.98279169994703
 endloop
endfacet
facet normal 0.8684242287458449 -0.49482853552790723 0.03137003912160624
 outer loop
  vertex -38.23264358852486 168.57620630516084 399.5569144925663
  vertex -47.140958572330604 152.96910964421156 399.98279169994703
  vertex -47.19616644559558 152.7412966963989 397.91762077910573
 endloop
endfacet
facet normal 0.8523099619265287 -0.45592378620867013 -0.2563225116331965
 outer loop
  vertex -38.23264358852486 168.57620630516084 399.5569144925663
  vertex -47.19616644559558 152.7412966963989 397.91762077910573
  vertex -47.36175087474497 153.34450168679692 396.29410063280784
 endloop
endfacet
facet normal 0.8588585875513853 -0.5120578793991739 -0.012595822103402326
 outer loop
  vertex -38.23264358852486 168.57620630516084 399.5569144925663
  vertex -47.36175087474497 153.34450168679692 396.29410063280784
  vertex -46.99211644929728 154.02423308610767 393.8648730611149
 endloop
endfacet
facet normal 0.7736033687500719 -0.5721784414090273 0.27230435003002956
 outer loop
  vertex -38.23264358852486 168.57620630516084 399.5569144925663
  vertex -46.99211644929728 154.02423308610767 393.8648730611149
  vertex -46.053012209369356 154.24245115362194 391.6554536016323
 endloop
endfacet
facet normal 0.858131858717242 -0.5082580239187025 0.07268764803422409
 outer loop
  vertex -38.23264358852486 168.57620630516084 399.5569144925663
  vertex -46.053012209369356 154.24245115362194 391.6554536016323
  vertex -45.387867628622516 155.13958541475012 390.07600961429677
 endloop
endfacet
facet normal 0.8381632366918904 -0.5318003773281551 0.1211228604839152
 outer loop
  vertex -38.23264358852486 168.57620630516084 399.5569144925663
  vertex -45.387867628622516 155.13958541475012 390.07600961429677
  vertex -44.59929935115361 156.01384214415154 388.4576620914973
 endloop
endfacet
facet normal 0.8826550321236696 -0.033084102472234846 -0.46885556030655146
 outer loop
  vertex -38.23264358852486 168.57620630516084 399.5569144925663
  vertex -44.59929935115361 156.01384214415154 388.4576620914973
  vertex -44.54973495472565 157.36220701430665 388.4558253262208
 endloop
endfacet
facet normal 0.727890835394714 -0.643762611983299 0.2361030096394917
 outer loop
  vertex -38.23264358852486 168.57620630516084 399.5569144925663
  vertex -44.54973495472565 157.36220701430665 388.4558253262208
  vertex -43.59610610508375 157.9362770511625 387.0811165746032
 endloop
endfacet
facet normal 0.9133671819905845 -0.40431561959297935 -0.047846322907030295
 outer loop
  vertex -38.23264358852486 168.57620630516084 399.5569144925663
  vertex -43.59610610508375 157.9362770511625 387.0811165746032
  vertex -42.61252470991456 160.22788164740012 386.4925537903616
 endloop
endfacet
facet normal 0.6901736323771062 -0.6922137141516573 0.2109514899491319
 outer loop
  vertex -38.23264358852486 168.57620630516084 399.5569144925663
  vertex -42.61252470991456 160.22788164740012 386.4925537903616
  vertex -41.47013131883039 161.17028320577174 385.84735088888766
 endloop
endfacet
facet normal 0.7372989677865082 -0.6517104527033083 0.17794301879590205
 outer loop
  vertex -38.23264358852486 168.57620630516084 399.5569144925663
  vertex -41.47013131883039 161.17028320577174 385.84735088888766
  vertex -40.24071045912123 162.4359661597359 385.3888225325406
 endloop
endfacet
facet normal 0.9682749039778948 -0.2481154679718255 -0.02970563717075367
 outer loop
  vertex -38.23264358852486 168.57620630516084 399.5569144925663
  vertex -40.24071045912123 162.4359661597359 385.3888225325406
  vertex -39.824226823898684 163.97701797495475 386.09279193341274
 endloop
endfacet
facet normal 0.8907396535963291 -0.4518587923841016 0.04905610315009592
 outer loop
  vertex -38.23264358852486 168.57620630516084 399.5569144925663
  vertex -39.824226823898684 163.97701797495475 386.09279193341274
  vertex -39.06426455822571 165.56704155371483 386.9395287555745
 endloop
endfacet
facet normal 0.6600569185794304 -0.7393784457963313 0.13283214267348337
 outer loop
  vertex -38.23264358852486 168.57620630516084 399.5569144925663
  vertex -39.06426455822571 165.56704155371483 386.9395287555745
  vertex -37.98270916975049 166.62814624406104 387.4715522429857
 endloop
endfacet
facet normal 0.8485012432839737 -0.5194126395606998 0.10127265183719276
 outer loop
  vertex -38.23264358852486 168.57620630516084 399.5569144925663
  vertex -37.98270916975049 166.62814624406104 387.4715522429857
  vertex -37.56447999847757 167.63390075046036 389.12583529055087
 endloop
endfacet
facet normal 0.6174716363130943 -0.7788760548928804 0.10991300861741754
 outer loop
  vertex -38.23264358852486 168.57620630516084 399.5569144925663
  vertex -37.56447999847757 167.63390075046036 389.12583529055087
  vertex -36.90974091218414 168.46264843192594 391.32037907298326
 endloop
endfacet
facet normal 0.817143757823611 -0.5594343951858085 0.13895767892778096
 outer loop
  vertex -38.23264358852486 168.57620630516084 399.5569144925663
  vertex -36.90974091218414 168.46264843192594 391.32037907298326
  vertex -37.058196694198536 168.87521242478292 393.85433190036366
 endloop
endfacet
facet normal 0.3122418138927582 -0.9498919924422864 0.01450008106817734
 outer loop
  vertex -38.23264358852486 168.57620630516084 399.5569144925663
  vertex -37.058196694198536 168.87521242478292 393.85433190036366
  vertex -37.0202710569444 168.9191983340898 395.9191405811468
 endloop
endfacet
facet normal 0.10292530922621865 -0.9929189050197277 -0.05931634492374117
 outer loop
  vertex -38.23264358852486 168.57620630516084 399.5569144925663
  vertex -37.0202710569444 168.9191983340898 395.9191405811468
  vertex -37.229889017369864 168.78758276908792 397.758576059333
 endloop
endfacet
facet normal 0.8873047649732501 -0.38807464362158267 -0.24917528977357956
 outer loop
  vertex -48.63234544401026 148.23961568864277 406.83274619953875
  vertex -47.31542529324631 149.95411815272135 408.852025850357
  vertex -46.30912801046277 150.6826924246344 411.3007083566496
 endloop
endfacet
facet normal 0.8548038513039157 -0.4875027490539076 -0.17790853116384264
 outer loop
  vertex -48.63234544401026 148.23961568864277 406.83274619953875
  vertex -46.30912801046277 150.6826924246344 411.3007083566496
  vertex -45.87442072815847 150.70756840064578 413.3211980434628
 endloop
endfacet
facet normal -0.3648862858149266 0.9111514112814827 -0.19147089633662392
 outer loop
  vertex -48.63234544401026 148.23961568864277 406.83274619953875
  vertex -45.87442072815847 150.70756840064578 413.3211980434628
  vertex -44.34230867552148 151.44307627397777 413.9015074407758
 endloop
endfacet
facet normal 0.6242099342677486 0.49599782229324607 -0.6036125563983992
 outer loop
  vertex -48.63234544401026 148.23961568864277 406.83274619953875
  vertex -44.34230867552148 151.44307627397777 413.9015074407758
  vertex -42.24665708053234 151.09055274880697 415.7789959581227
 endloop
endfacet
facet normal 0.7355019716992709 0.2835305481895631 -0.615343219569218
 outer loop
  vertex -48.63234544401026 148.23961568864277 406.83274619953875
  vertex -42.24665708053234 151.09055274880697 415.7789959581227
  vertex -40.50677611961853 149.33890502615975 417.05152194579045
 endloop
endfacet
facet normal 0.7595489339409722 0.18431073923909966 -0.623790804958096
 outer loop
  vertex -48.63234544401026 148.23961568864277 406.83274619953875
  vertex -40.50677611961853 149.33890502615975 417.05152194579045
  vertex -39.68381891058261 146.26819131349077 417.14628249044546
 endloop
endfacet
facet normal 0.7511513435205645 0.27852019645625414 -0.5984965825242619
 outer loop
  vertex -48.63234544401026 148.23961568864277 406.83274619953875
  vertex -39.68381891058261 146.26819131349077 417.14628249044546
  vertex -39.33152932309912 143.75765556630503 416.42010940063926
 endloop
endfacet
facet normal 0.32148753716711576 -0.6990845341766804 -0.6386913006462481
 outer loop
  vertex -48.63234544401026 148.23961568864277 406.83274619953875
  vertex -39.33152932309912 143.75765556630503 416.42010940063926
  vertex -40.7459572650973 143.33360791036006 416.1722967290275
 endloop
endfacet
facet normal 0.8007373246674281 0.2583383363257753 -0.5404452246702532
 outer loop
  vertex -48.63234544401026 148.23961568864277 406.83274619953875
  vertex -40.7459572650973 143.33360791036006 416.1722967290275
  vertex -40.914806328281934 141.37800679411595 414.98732837926525
 endloop
endfacet
facet normal 0.8086428538125393 0.42024902575367806 -0.41168858537855607
 outer loop
  vertex -48.63234544401026 148.23961568864277 406.83274619953875
  vertex -40.914806328281934 141.37800679411595 414.98732837926525
  vertex -40.86107091666765 139.7522654891729 413.4333298822144
 endloop
endfacet
facet normal 0.8080296804203377 0.5085631180923709 -0.2974081210659386
 outer loop
  vertex -48.63234544401026 148.23961568864277 406.83274619953875
  vertex -40.86107091666765 139.7522654891729 413.4333298822144
  vertex -40.54602975973882 138.5033594339922 412.15365752185437
 endloop
endfacet
facet normal 0.7839074487908226 0.3847580035507778 -0.4872888162413371
 outer loop
  vertex -48.63234544401026 148.23961568864277 406.83274619953875
  vertex -40.54602975973882 138.5033594339922 412.15365752185437
  vertex -41.21333405883085 137.77453346960127 410.5046838395496
 endloop
endfacet
facet normal 0.4970615417837979 0.04839602619117098 -0.8663646162721659
 outer loop
  vertex -48.63234544401026 148.23961568864277 406.83274619953875
  vertex -41.21333405883085 137.77453346960127 410.5046838395496
  vertex -42.88168499636111 137.8604299719379 409.55229494419194
 endloop
endfacet
facet normal 0.8694396186275609 0.40917795915617505 -0.2768540180339613
 outer loop
  vertex -48.63234544401026 148.23961568864277 406.83274619953875
  vertex -42.88168499636111 137.8604299719379 409.55229494419194
  vertex -43.25357279670324 137.6306197310172 408.0447594002302
 endloop
endfacet
facet normal 0.8410615849023038 0.38274886997665253 -0.3822547748991769
 outer loop
  vertex -48.63234544401026 148.23961568864277 406.83274619953875
  vertex -43.25357279670324 137.6306197310172 408.0447594002302
  vertex -44.01653312739067 137.5086897095435 406.2439572962868
 endloop
endfacet
facet normal 0.7747090727592756 0.3616920805329409 -0.5186566219226513
 outer loop
  vertex -48.63234544401026 148.23961568864277 406.83274619953875
  vertex -44.01653312739067 137.5086897095435 406.2439572962868
  vertex -45.12361745237029 137.7318172774047 404.7459241780609
 endloop
endfacet
facet normal 0.9150329786829765 0.3465449466339756 -0.20644914115833546
 outer loop
  vertex -48.63234544401026 148.23961568864277 406.83274619953875
  vertex -45.12361745237029 137.7318172774047 404.7459241780609
  vertex -45.5806850835229 137.96364685229264 403.10923735805477
 endloop
endfacet
facet normal 0.7517972358134807 0.41030359737672784 -0.5161897656898341
 outer loop
  vertex -48.63234544401026 148.23961568864277 406.83274619953875
  vertex -45.5806850835229 137.96364685229264 403.10923735805477
  vertex -46.929544169031296 138.8687112591364 401.86411900677837
 endloop
endfacet
facet normal 0.12410271191721181 0.4823316087349277 -0.8671532368099483
 outer loop
  vertex -48.63234544401026 148.23961568864277 406.83274619953875
  vertex -46.929544169031296 138.8687112591364 401.86411900677837
  vertex -48.74032480435202 139.90359525206128 402.18059648962856
 endloop
endfacet
facet normal 0.016441112694347514 0.4870969279832359 -0.8731931473406477
 outer loop
  vertex -48.63234544401026 148.23961568864277 406.83274619953875
  vertex -48.74032480435202 139.90359525206128 402.18059648962856
  vertex -49.54835206648468 140.6968982573134 402.6079138485402
 endloop
endfacet
facet normal 0.3829017904226247 0.41560927370821854 -0.82501827282726
 outer loop
  vertex -48.63234544401026 148.23961568864277 406.83274619953875
  vertex -49.54835206648468 140.6968982573134 402.6079138485402
  vertex -50.43503964073466 142.6053818682207 403.1578037632602
 endloop
endfacet
facet normal 0.18165972258628252 0.49578981723206433 -0.8492303588066498
 outer loop
  vertex -48.63234544401026 148.23961568864277 406.83274619953875
  vertex -50.43503964073466 142.6053818682207 403.1578037632602
  vertex -50.47340680755083 144.39724319625617 404.19570451929326
 endloop
endfacet
facet normal 0.3940945363345255 0.384181973974337 -0.8349213779179793
 outer loop
  vertex -48.63234544401026 148.23961568864277 406.83274619953875
  vertex -50.47340680755083 144.39724319625617 404.19570451929326
  vertex -49.80070840442208 146.3571903577234 405.41508057262973
 endloop
endfacet
endsolid
