solid
facet normal 0.13649723085726587 0.9005067811860917 -0.4128632255434751
 outer loop
  vertex -6.689391902365625 125.95973916069296 381.2463092713326
  vertex -6.6522071902834226 126.82258424443182 383.14057693883893
  vertex -4.834529975890552 127.1859666989595 384.53410446860585
 endloop
endfacet
facet normal 0.8508823564080081 -0.41153917522643146 -0.32654972486208556
 outer loop
  vertex -6.689391902365625 125.95973916069296 381.2463092713326
  vertex -4.834529975890552 127.1859666989595 384.53410446860585
  vertex -3.976221414355317 127.29529451914578 386.6327953516098
 endloop
endfacet
facet normal 0.8412487321713609 0.2416306074310725 -0.4836478265975861
 outer loop
  vertex -6.689391902365625 125.95973916069296 381.2463092713326
  vertex -3.976221414355317 127.29529451914578 386.6327953516098
  vertex -2.968950965867686 127.56741512887142 388.5207758319318
 endloop
endfacet
facet normal -0.844982281274904 0.41186557297051474 0.34113295667983884
 outer loop
  vertex -6.689391902365625 125.95973916069296 381.2463092713326
  vertex -2.968950965867686 127.56741512887142 388.5207758319318
  vertex -2.0182553999631314 128.1924338997476 390.1210234280738
 endloop
endfacet
facet normal -0.301501001398924 0.9500761784123184 -0.0803268408994805
 outer loop
  vertex -6.689391902365625 125.95973916069296 381.2463092713326
  vertex -2.0182553999631314 128.1924338997476 390.1210234280738
  vertex -0.8260149722638153 128.71200514523534 391.791331621
 endloop
endfacet
facet normal 0.7160654801348341 -0.6605169848900644 -0.22575991856617977
 outer loop
  vertex -6.689391902365625 125.95973916069296 381.2463092713326
  vertex -0.8260149722638153 128.71200514523534 391.791331621
  vertex 0.10927711586052835 129.0552693035592 393.753586808217
 endloop
endfacet
facet normal 0.3487732527064631 0.8478320427667654 -0.3994221394145388
 outer loop
  vertex -6.689391902365625 125.95973916069296 381.2463092713326
  vertex 0.10927711586052835 129.0552693035592 393.753586808217
  vertex 1.846714423411066 129.13228770452068 395.43419051819086
 endloop
endfacet
facet normal 0.4813955356339719 0.7480031195304582 -0.4568913125070167
 outer loop
  vertex -6.689391902365625 125.95973916069296 381.2463092713326
  vertex 1.846714423411066 129.13228770452068 395.43419051819086
  vertex 3.8714752073404695 128.69943573820734 396.85889736464264
 endloop
endfacet
facet normal 0.6828269032693536 0.4844141681137618 -0.546891519318262
 outer loop
  vertex -6.689391902365625 125.95973916069296 381.2463092713326
  vertex 3.8714752073404695 128.69943573820734 396.85889736464264
  vertex 5.409461397844721 128.20666837792174 398.34269228221285
 endloop
endfacet
facet normal 0.762373510680397 0.2913984391482304 -0.5778179469995904
 outer loop
  vertex -6.689391902365625 125.95973916069296 381.2463092713326
  vertex 5.409461397844721 128.20666837792174 398.34269228221285
  vertex 6.702844945408961 127.58809713102576 399.7372330093563
 endloop
endfacet
facet normal 0.5506056693256981 0.6965090018564748 -0.46011803620299135
 outer loop
  vertex -6.689391902365625 125.95973916069296 381.2463092713326
  vertex 6.702844945408961 127.58809713102576 399.7372330093563
  vertex 8.473481495027794 127.02232230641353 400.999637910852
 endloop
endfacet
facet normal 0.7512131571988961 -0.35314772838954933 -0.5576427838541154
 outer loop
  vertex -6.689391902365625 125.95973916069296 381.2463092713326
  vertex 8.473481495027794 127.02232230641353 400.999637910852
  vertex 9.91000729217931 126.4967812925437 403.2676322816541
 endloop
endfacet
facet normal 0.5432164242053155 0.7228438158835122 -0.4270980382916243
 outer loop
  vertex -6.689391902365625 125.95973916069296 381.2463092713326
  vertex 9.91000729217931 126.4967812925437 403.2676322816541
  vertex 11.551262740729088 125.77453850783631 404.132745563266
 endloop
endfacet
facet normal 0.4317257152349179 0.8365577287319478 -0.33731894892481734
 outer loop
  vertex -6.689391902365625 125.95973916069296 381.2463092713326
  vertex 11.551262740729088 125.77453850783631 404.132745563266
  vertex 13.366159987526238 125.2442711460657 405.14051151668014
 endloop
endfacet
facet normal 0.7644178463464748 -0.04686173259438318 -0.6430158117848035
 outer loop
  vertex -6.689391902365625 125.95973916069296 381.2463092713326
  vertex 13.366159987526238 125.2442711460657 405.14051151668014
  vertex 13.528703521470407 123.1308236847361 405.48776734437195
 endloop
endfacet
facet normal 0.7680642630741219 0.0018710740787329502 -0.6403700390166595
 outer loop
  vertex -6.689391902365625 125.95973916069296 381.2463092713326
  vertex 13.528703521470407 123.1308236847361 405.48776734437195
  vertex 13.421714286899764 121.25641693444983 405.3539669535504
 endloop
endfacet
facet normal 0.729273111634707 0.442241672826064 -0.5220948491056359
 outer loop
  vertex -6.689391902365625 125.95973916069296 381.2463092713326
  vertex 13.421714286899764 121.25641693444983 405.3539669535504
  vertex 14.163830157961721 119.34997534172635 404.7757142296526
 endloop
endfacet
facet normal 0.7204561123516257 0.475320789629069 -0.5049882544392295
 outer loop
  vertex -6.689391902365625 125.95973916069296 381.2463092713326
  vertex 14.163830157961721 119.34997534172635 404.7757142296526
  vertex 14.626463845202794 117.3234069990949 403.52823413171683
 endloop
endfacet
facet normal 0.7080814943369347 0.5226753406577941 -0.474795835750307
 outer loop
  vertex -6.689391902365625 125.95973916069296 381.2463092713326
  vertex 14.626463845202794 117.3234069990949 403.52823413171683
  vertex 15.015782621594191 115.66803884289374 402.2865410720795
 endloop
endfacet
facet normal 0.7020643700698685 0.5459636788245958 -0.4571972021816322
 outer loop
  vertex -6.689391902365625 125.95973916069296 381.2463092713326
  vertex 15.015782621594191 115.66803884289374 402.2865410720795
  vertex 15.147532156020018 114.28178632383694 400.8334550338878
 endloop
endfacet
facet normal 0.7034519679538968 0.5396863024862848 -0.4624867821792013
 outer loop
  vertex -6.689391902365625 125.95973916069296 381.2463092713326
  vertex 15.147532156020018 114.28178632383694 400.8334550338878
  vertex 15.166100370713197 112.94708808503863 399.3042080639913
 endloop
endfacet
facet normal 0.6988212676954926 0.565035953452866 -0.4386151013383778
 outer loop
  vertex -6.689391902365625 125.95973916069296 381.2463092713326
  vertex 15.166100370713197 112.94708808503863 399.3042080639913
  vertex 15.214390836897046 111.67151614700195 397.7379199920262
 endloop
endfacet
facet normal 0.4580304368873249 -0.2739306320566997 -0.8456773189023241
 outer loop
  vertex -6.689391902365625 125.95973916069296 381.2463092713326
  vertex 15.214390836897046 111.67151614700195 397.7379199920262
  vertex 13.686195578019412 110.38156636929283 397.32806723093586
 endloop
endfacet
facet normal 0.49508975593248244 -0.2201118761984128 -0.8404980044754001
 outer loop
  vertex -6.689391902365625 125.95973916069296 381.2463092713326
  vertex 13.686195578019412 110.38156636929283 397.32806723093586
  vertex 12.240608091477807 108.97339720395553 396.8453286679133
 endloop
endfacet
facet normal 0.5944659038219747 -0.07291625901286877 -0.8008080346529316
 outer loop
  vertex -6.689391902365625 125.95973916069296 381.2463092713326
  vertex 12.240608091477807 108.97339720395553 396.8453286679133
  vertex 11.073030021810535 107.51205090603695 396.1116578980445
 endloop
endfacet
facet normal 0.6599062397943645 0.03044594773765803 -0.750730843210014
 outer loop
  vertex -6.689391902365625 125.95973916069296 381.2463092713326
  vertex 11.073030021810535 107.51205090603695 396.1116578980445
  vertex 10.212536791737238 105.94202118334569 395.29159582083264
 endloop
endfacet
facet normal 0.8171265604886572 0.396036209129954 -0.4188788669794077
 outer loop
  vertex -6.689391902365625 125.95973916069296 381.2463092713326
  vertex 10.212536791737238 105.94202118334569 395.29159582083264
  vertex 9.330871300844775 105.80521057509797 393.4423398525869
 endloop
endfacet
facet normal 0.7057791370316284 0.14087451557375988 -0.6942839336991377
 outer loop
  vertex -6.689391902365625 125.95973916069296 381.2463092713326
  vertex 9.330871300844775 105.80521057509797 393.4423398525869
  vertex 8.334970540745571 104.99580378737161 392.2657163870221
 endloop
endfacet
facet normal 0.8294310433153581 0.3784733575535783 -0.410855281098975
 outer loop
  vertex -6.689391902365625 125.95973916069296 381.2463092713326
  vertex 8.334970540745571 104.99580378737161 392.2657163870221
  vertex 7.53974260450992 105.26840104956784 390.9114294608475
 endloop
endfacet
facet normal 0.8051858365310482 0.32071196075283437 -0.4988182102528621
 outer loop
  vertex -6.689391902365625 125.95973916069296 381.2463092713326
  vertex 7.53974260450992 105.26840104956784 390.9114294608475
  vertex 6.591855694445619 105.45405943152102 389.50073066026874
 endloop
endfacet
facet normal 0.7691712846528557 0.26389839598765663 -0.5820078792083638
 outer loop
  vertex -6.689391902365625 125.95973916069296 381.2463092713326
  vertex 6.591855694445619 105.45405943152102 389.50073066026874
  vertex 5.459402968495992 105.61876493328494 388.0787832436339
 endloop
endfacet
facet normal 0.7211588058806386 0.20884356521150757 -0.6605409464753553
 outer loop
  vertex -6.689391902365625 125.95973916069296 381.2463092713326
  vertex 5.459402968495992 105.61876493328494 388.0787832436339
  vertex 4.116516076451175 105.88903884476608 386.69811222678203
 endloop
endfacet
facet normal 0.5918009415015099 0.10140383496743338 -0.799680503633685
 outer loop
  vertex -6.689391902365625 125.95973916069296 381.2463092713326
  vertex 4.116516076451175 105.88903884476608 386.69811222678203
  vertex 2.488302981854729 105.9812334359809 385.5048492262476
 endloop
endfacet
facet normal 0.6225351658622399 0.12117689583172472 -0.7731533658863945
 outer loop
  vertex -6.689391902365625 125.95973916069296 381.2463092713326
  vertex 2.488302981854729 105.9812334359809 385.5048492262476
  vertex 0.8368169122149387 105.92689304655583 384.1665727604846
 endloop
endfacet
facet normal 0.7428868270429466 0.18532850814878446 -0.6432515108986601
 outer loop
  vertex -6.689391902365625 125.95973916069296 381.2463092713326
  vertex 0.8368169122149387 105.92689304655583 384.1665727604846
  vertex -0.280573038790343 106.75478170811995 383.1146313452741
 endloop
endfacet
facet normal 0.9220656441091842 0.3277285383497444 0.2058857768391381
 outer loop
  vertex -6.689391902365625 125.95973916069296 381.2463092713326
  vertex -0.280573038790343 106.75478170811995 383.1146313452741
  vertex -0.585783307814219 108.06214683924199 382.400463701092
 endloop
endfacet
facet normal 0.5006780525189235 0.11542274835117372 -0.8579038855774693
 outer loop
  vertex -6.689391902365625 125.95973916069296 381.2463092713326
  vertex -0.585783307814219 108.06214683924199 382.400463701092
  vertex -2.119294143336091 108.34616891732666 381.54370967286417
 endloop
endfacet
facet normal 0.37450469614402415 0.08157546895989926 -0.9236296202645542
 outer loop
  vertex -6.689391902365625 125.95973916069296 381.2463092713326
  vertex -2.119294143336091 108.34616891732666 381.54370967286417
  vertex -3.9551458537656288 108.92324847584918 380.8502936787097
 endloop
endfacet
facet normal 0.4585437415967277 0.09413437124008338 -0.8836720869155638
 outer loop
  vertex -6.689391902365625 125.95973916069296 381.2463092713326
  vertex -3.9551458537656288 108.92324847584918 380.8502936787097
  vertex -5.393259033190899 110.48959540264008 380.270903741405
 endloop
endfacet
facet normal 0.37836348416945376 0.08978861155084897 -0.9212920704548163
 outer loop
  vertex -6.689391902365625 125.95973916069296 381.2463092713326
  vertex -5.393259033190899 110.48959540264008 380.270903741405
  vertex -6.364964747724709 111.93618645148227 380.0128199419172
 endloop
endfacet
facet normal 0.7796950219824298 -0.036942236263246594 0.6250687513191561
 outer loop
  vertex -6.689391902365625 125.95973916069296 381.2463092713326
  vertex -6.364964747724709 111.93618645148227 380.0128199419172
  vertex -6.144561124807415 113.84810473745944 379.85089044157775
 endloop
endfacet
facet normal 0.1640197948668661 0.12018438241089695 -0.9791083806792497
 outer loop
  vertex -6.689391902365625 125.95973916069296 381.2463092713326
  vertex -6.144561124807415 113.84810473745944 379.85089044157775
  vertex -7.070708122642027 115.71091604353114 379.92440057302707
 endloop
endfacet
facet normal 0.17365016954446802 0.1196206221301259 -0.9775154860043799
 outer loop
  vertex -6.689391902365625 125.95973916069296 381.2463092713326
  vertex -7.070708122642027 115.71091604353114 379.92440057302707
  vertex -8.155526613743865 117.35956170434726 379.93343685413015
 endloop
endfacet
facet normal 0.2393264328802359 0.1065256190329657 -0.9650777953172818
 outer loop
  vertex -6.689391902365625 125.95973916069296 381.2463092713326
  vertex -8.155526613743865 117.35956170434726 379.93343685413015
  vertex -9.298636717344671 118.99423169324432 379.83039621690403
 endloop
endfacet
facet normal 0.9108387261374535 -0.2794443904042428 -0.30378223720274056
 outer loop
  vertex -6.689391902365625 125.95973916069296 381.2463092713326
  vertex -9.298636717344671 118.99423169324432 379.83039621690403
  vertex -8.65988701196152 120.96137614573328 379.9360326948775
 endloop
endfacet
facet normal 0.055184177012655565 0.23277441467378318 -0.9709638399449866
 outer loop
  vertex -6.689391902365625 125.95973916069296 381.2463092713326
  vertex -8.65988701196152 120.96137614573328 379.9360326948775
  vertex -8.936198567055996 122.7786674172191 380.3559977537905
 endloop
endfacet
facet normal 0.033535728488164905 0.24733324972679577 -0.9683499462974894
 outer loop
  vertex -6.689391902365625 125.95973916069296 381.2463092713326
  vertex -8.936198567055996 122.7786674172191 380.3559977537905
  vertex -8.375225093195887 124.51087011580972 380.8178596854676
 endloop
endfacet
facet normal 0.28100938227543143 0.9374941717840046 0.20527641107590455
 outer loop
  vertex 22.62922787883207 154.7309778232292 383.3076909247628
  vertex 21.810482548666606 154.53903454689416 385.30509929817947
  vertex 22.4912038525871 153.76820289490854 387.8936144873419
 endloop
endfacet
facet normal 0.948516522737059 -0.314502326524231 -0.03747923032352961
 outer loop
  vertex 22.62922787883207 154.7309778232292 383.3076909247628
  vertex 22.4912038525871 153.76820289490854 387.8936144873419
  vertex 22.328443850371798 152.95552165088162 390.59403255232013
 endloop
endfacet
facet normal 0.9794275998719676 0.18300911032628503 0.08502495014181735
 outer loop
  vertex 22.62922787883207 154.7309778232292 383.3076909247628
  vertex 22.328443850371798 152.95552165088162 390.59403255232013
  vertex 22.316841620396367 152.0709780652946 392.63158833579473
 endloop
endfacet
facet normal 0.9545460562090722 0.27666048846246233 0.11090897483710908
 outer loop
  vertex 22.62922787883207 154.7309778232292 383.3076909247628
  vertex 22.316841620396367 152.0709780652946 392.63158833579473
  vertex 22.54189513576965 150.6965071314077 394.12324268256
 endloop
endfacet
facet normal 0.8736003239009223 0.45360246140165494 0.17625913051687211
 outer loop
  vertex 22.62922787883207 154.7309778232292 383.3076909247628
  vertex 22.54189513576965 150.6965071314077 394.12324268256
  vertex 22.93899672221191 149.46356134088452 395.3280549960887
 endloop
endfacet
facet normal 0.5407318744046925 0.7755005846756193 0.32589550958943936
 outer loop
  vertex 22.62922787883207 154.7309778232292 383.3076909247628
  vertex 22.93899672221191 149.46356134088452 395.3280549960887
  vertex 23.712478758275576 148.36665572107836 396.65487462259824
 endloop
endfacet
facet normal 0.9833310862090374 -0.11968623276856595 -0.13687651581123556
 outer loop
  vertex 22.62922787883207 154.7309778232292 383.3076909247628
  vertex 23.712478758275576 148.36665572107836 396.65487462259824
  vertex 23.744981257339756 147.04371698000367 398.04516623459796
 endloop
endfacet
facet normal 0.8714281734737305 -0.40475668525493286 -0.2771010000300922
 outer loop
  vertex 22.62922787883207 154.7309778232292 383.3076909247628
  vertex 23.744981257339756 147.04371698000367 398.04516623459796
  vertex 23.166749641967748 145.04897044533828 399.14043357334293
 endloop
endfacet
facet normal 0.947794561762216 0.28535824337192767 0.142324072572622
 outer loop
  vertex 22.62922787883207 154.7309778232292 383.3076909247628
  vertex 23.166749641967748 145.04897044533828 399.14043357334293
  vertex 23.551634088414094 143.22067065045715 400.2430512102557
 endloop
endfacet
facet normal 0.43592062109542595 -0.7331233886999637 -0.5220184949260516
 outer loop
  vertex 22.62922787883207 154.7309778232292 383.3076909247628
  vertex 23.551634088414094 143.22067065045715 400.2430512102557
  vertex 21.771108606323093 142.52326085454658 399.7356355847301
 endloop
endfacet
facet normal 0.6863401934643311 -0.6004566662952894 -0.41035220328017274
 outer loop
  vertex 22.62922787883207 154.7309778232292 383.3076909247628
  vertex 21.771108606323093 142.52326085454658 399.7356355847301
  vertex 19.954106644195708 140.34808769184204 399.87945288900977
 endloop
endfacet
facet normal 0.8155268383046759 -0.495732187254528 -0.2986060523911408
 outer loop
  vertex 22.62922787883207 154.7309778232292 383.3076909247628
  vertex 19.954106644195708 140.34808769184204 399.87945288900977
  vertex 18.3577151061726 137.77667588886442 399.7884683089567
 endloop
endfacet
facet normal 0.8434098419068605 -0.46836922555495153 -0.2632301409939589
 outer loop
  vertex 22.62922787883207 154.7309778232292 383.3076909247628
  vertex 18.3577151061726 137.77667588886442 399.7884683089567
  vertex 16.738214460386992 135.01049565124356 399.5213671034309
 endloop
endfacet
facet normal 0.7938744983394463 -0.5097427928274223 -0.33155024663961913
 outer loop
  vertex 22.62922787883207 154.7309778232292 383.3076909247628
  vertex 16.738214460386992 135.01049565124356 399.5213671034309
  vertex 15.049333900372398 133.0760327549188 398.4516025909987
 endloop
endfacet
facet normal 0.8846817551037972 -0.43208301274498934 -0.17504988512900657
 outer loop
  vertex 22.62922787883207 154.7309778232292 383.3076909247628
  vertex 15.049333900372398 133.0760327549188 398.4516025909987
  vertex 13.852491548671308 131.23874652789033 396.9379516460645
 endloop
endfacet
facet normal 0.9486292438925814 -0.22585609726237477 0.22156619995206386
 outer loop
  vertex 22.62922787883207 154.7309778232292 383.3076909247628
  vertex 13.852491548671308 131.23874652789033 396.9379516460645
  vertex 13.753409914547868 129.59689692286216 395.68852818489955
 endloop
endfacet
facet normal 0.8098364939877952 -0.4632764346250397 -0.3599163765747082
 outer loop
  vertex 22.62922787883207 154.7309778232292 383.3076909247628
  vertex 13.753409914547868 129.59689692286216 395.68852818489955
  vertex 12.614279655259988 129.41195359445226 393.3634620749667
 endloop
endfacet
facet normal 0.8005820690286461 -0.4661921886662795 -0.37647469234512454
 outer loop
  vertex 22.62922787883207 154.7309778232292 383.3076909247628
  vertex 12.614279655259988 129.41195359445226 393.3634620749667
  vertex 11.47522010249353 129.22764712508024 391.16945425995664
 endloop
endfacet
facet normal 0.8372173920495005 -0.45819123258324534 -0.29854284924224744
 outer loop
  vertex 22.62922787883207 154.7309778232292 383.3076909247628
  vertex 11.47522010249353 129.22764712508024 391.16945425995664
  vertex 10.551374146869296 128.96884173675323 388.97587453293033
 endloop
endfacet
facet normal 0.8160708029553173 -0.4596713298411375 -0.3503294350835282
 outer loop
  vertex 22.62922787883207 154.7309778232292 383.3076909247628
  vertex 10.551374146869296 128.96884173675323 388.97587453293033
  vertex 9.521544913978625 128.8458475210977 386.73833301966323
 endloop
endfacet
facet normal 0.8773261408462536 -0.46163632310501473 -0.1311134919750905
 outer loop
  vertex 22.62922787883207 154.7309778232292 383.3076909247628
  vertex 9.521544913978625 128.8458475210977 386.73833301966323
  vertex 8.762743289922518 128.09744135794858 384.2959830651936
 endloop
endfacet
facet normal 0.8698322642355834 -0.4449629928394045 0.2130722109947668
 outer loop
  vertex 22.62922787883207 154.7309778232292 383.3076909247628
  vertex 8.762743289922518 128.09744135794858 384.2959830651936
  vertex 8.572892164799395 126.88079838713048 382.53027902653804
 endloop
endfacet
facet normal 0.8296633221351312 -0.4081082478262156 -0.38092837904245685
 outer loop
  vertex 22.62922787883207 154.7309778232292 383.3076909247628
  vertex 8.572892164799395 126.88079838713048 382.53027902653804
  vertex 7.752570796086652 126.74567682451539 380.88837896806916
 endloop
endfacet
facet normal 0.6264310856098745 -0.26978287485496527 -0.7313010976448924
 outer loop
  vertex 22.62922787883207 154.7309778232292 383.3076909247628
  vertex 7.752570796086652 126.74567682451539 380.88837896806916
  vertex 7.169142007718817 127.3737047698965 380.15693043669114
 endloop
endfacet
facet normal 0.8364254421376316 -0.4341519036725553 -0.3345214556382946
 outer loop
  vertex 22.62922787883207 154.7309778232292 383.3076909247628
  vertex 7.169142007718817 127.3737047698965 380.15693043669114
  vertex 6.068037117760852 127.00225519934286 377.88584559760614
 endloop
endfacet
facet normal 0.8585155530524122 -0.47495825893486077 -0.1933020885471143
 outer loop
  vertex 22.62922787883207 154.7309778232292 383.3076909247628
  vertex 6.068037117760852 127.00225519934286 377.88584559760614
  vertex 5.399259328914597 126.58257752503756 375.94677314072845
 endloop
endfacet
facet normal 0.798035624417291 -0.3626277521280468 -0.4812901988898842
 outer loop
  vertex 22.62922787883207 154.7309778232292 383.3076909247628
  vertex 5.399259328914597 126.58257752503756 375.94677314072845
  vertex 4.152860166710796 126.71042476027581 373.78377067025656
 endloop
endfacet
facet normal 0.767338914692115 -0.3163996607789414 -0.5577474739145825
 outer loop
  vertex 22.62922787883207 154.7309778232292 383.3076909247628
  vertex 4.152860166710796 126.71042476027581 373.78377067025656
  vertex 2.9831876027959 127.70530459119888 371.6101796215141
 endloop
endfacet
facet normal 0.8255510035588574 -0.45656136831740946 -0.3316884946498723
 outer loop
  vertex 22.62922787883207 154.7309778232292 383.3076909247628
  vertex 2.9831876027959 127.70530459119888 371.6101796215141
  vertex 2.802829864445964 128.73085716916773 369.7496321194829
 endloop
endfacet
facet normal 0.8282846130349879 -0.5046076578661414 -0.243548170661016
 outer loop
  vertex 22.62922787883207 154.7309778232292 383.3076909247628
  vertex 2.802829864445964 128.73085716916773 369.7496321194829
  vertex 3.1854258354984033 130.06473460261319 368.2871435663036
 endloop
endfacet
facet normal 0.7108115911751395 -0.6768494310075346 0.19136804747878652
 outer loop
  vertex 22.62922787883207 154.7309778232292 383.3076909247628
  vertex 3.1854258354984033 130.06473460261319 368.2871435663036
  vertex 3.277582200233555 129.7170695557755 366.7151846873223
 endloop
endfacet
facet normal 0.8402153427986042 -0.4376507430652736 -0.32015621939958944
 outer loop
  vertex 22.62922787883207 154.7309778232292 383.3076909247628
  vertex 3.277582200233555 129.7170695557755 366.7151846873223
  vertex 3.7310544009657614 131.64199052952054 365.273923309427
 endloop
endfacet
facet normal 0.8359434427950883 -0.48783410345878514 -0.25142881288837654
 outer loop
  vertex 22.62922787883207 154.7309778232292 383.3076909247628
  vertex 3.7310544009657614 131.64199052952054 365.273923309427
  vertex 4.267588293233057 133.45927333468097 363.5317978390944
 endloop
endfacet
facet normal 0.39354957354439263 0.4203642411965996 -0.8175650664541836
 outer loop
  vertex 22.62922787883207 154.7309778232292 383.3076909247628
  vertex 4.267588293233057 133.45927333468097 363.5317978390944
  vertex 5.466539321487001 135.36010704412786 365.08627862347333
 endloop
endfacet
facet normal 0.8395195407966419 -0.36661069513825556 -0.40100316561199406
 outer loop
  vertex 22.62922787883207 154.7309778232292 383.3076909247628
  vertex 5.466539321487001 135.36010704412786 365.08627862347333
  vertex 6.471461306477771 137.1702923874209 365.5351986115922
 endloop
endfacet
facet normal 0.8382071819962835 -0.33851833959436106 -0.4275676014481526
 outer loop
  vertex 22.62922787883207 154.7309778232292 383.3076909247628
  vertex 6.471461306477771 137.1702923874209 365.5351986115922
  vertex 7.305093051007831 138.73830045340605 365.92801749653216
 endloop
endfacet
facet normal 0.8379285405360135 -0.33286832322939336 -0.4325210287900909
 outer loop
  vertex 22.62922787883207 154.7309778232292 383.3076909247628
  vertex 7.305093051007831 138.73830045340605 365.92801749653216
  vertex 7.979587133530969 140.32360682051777 366.0146712484856
 endloop
endfacet
facet normal 0.7883215043758987 -0.5892964926819161 -0.17685827504335866
 outer loop
  vertex 22.62922787883207 154.7309778232292 383.3076909247628
  vertex 7.979587133530969 140.32360682051777 366.0146712484856
  vertex 8.86771441754556 141.62763273265955 365.6283276648276
 endloop
endfacet
facet normal 0.5199160740375421 0.441017879857977 -0.731567157274685
 outer loop
  vertex 22.62922787883207 154.7309778232292 383.3076909247628
  vertex 8.86771441754556 141.62763273265955 365.6283276648276
  vertex 9.45954991023106 143.0481278277554 366.9052692439179
 endloop
endfacet
facet normal 0.7979189453120498 -0.5484765816789317 -0.249997592112205
 outer loop
  vertex 22.62922787883207 154.7309778232292 383.3076909247628
  vertex 9.45954991023106 143.0481278277554 366.9052692439179
  vertex 10.442327882373718 144.75324994719466 366.3010938711431
 endloop
endfacet
facet normal 0.7103538065155461 -0.6966602156506401 -0.10030958826791064
 outer loop
  vertex 22.62922787883207 154.7309778232292 383.3076909247628
  vertex 10.442327882373718 144.75324994719466 366.3010938711431
  vertex 11.59880947815206 146.0339482202435 365.59627160459706
 endloop
endfacet
facet normal 0.7202676600388704 -0.6845223509896493 -0.11244398115387756
 outer loop
  vertex 22.62922787883207 154.7309778232292 383.3076909247628
  vertex 11.59880947815206 146.0339482202435 365.59627160459706
  vertex 12.785974329411982 147.21287588135462 366.0238099643522
 endloop
endfacet
facet normal 0.7147529537604556 -0.6912388340806543 -0.10638180929802692
 outer loop
  vertex 22.62922787883207 154.7309778232292 383.3076909247628
  vertex 12.785974329411982 147.21287588135462 366.0238099643522
  vertex 14.260200608695316 148.61562726875675 366.81408938008065
 endloop
endfacet
facet normal 0.8349330853424366 0.21906090114631982 -0.5048752960776768
 outer loop
  vertex 22.62922787883207 154.7309778232292 383.3076909247628
  vertex 14.260200608695316 148.61562726875675 366.81408938008065
  vertex 14.83089825029675 149.7408439978848 368.246097123348
 endloop
endfacet
facet normal -0.13614668565559881 0.9593149044736555 -0.24734387811243064
 outer loop
  vertex 22.62922787883207 154.7309778232292 383.3076909247628
  vertex 14.83089825029675 149.7408439978848 368.246097123348
  vertex 14.43015630638814 150.0708291753524 369.7465158492875
 endloop
endfacet
facet normal 0.8678054015570729 -0.1361452469967617 -0.4778893771036959
 outer loop
  vertex 22.62922787883207 154.7309778232292 383.3076909247628
  vertex 14.43015630638814 150.0708291753524 369.7465158492875
  vertex 15.381895659516664 151.1522573248823 371.1667048752618
 endloop
endfacet
facet normal -0.12238260008506915 0.9694238223104112 -0.21269685454536047
 outer loop
  vertex 22.62922787883207 154.7309778232292 383.3076909247628
  vertex 15.381895659516664 151.1522573248823 371.1667048752618
  vertex 15.25946353707393 151.53013237412668 372.9594189089871
 endloop
endfacet
facet normal 0.5278357442143478 0.6291954052429136 -0.5705283245824797
 outer loop
  vertex 22.62922787883207 154.7309778232292 383.3076909247628
  vertex 15.25946353707393 151.53013237412668 372.9594189089871
  vertex 15.723580219394671 152.61624789557652 374.5866059040477
 endloop
endfacet
facet normal 0.7065136645966196 -0.5684026220378067 -0.42161226381451683
 outer loop
  vertex 22.62922787883207 154.7309778232292 383.3076909247628
  vertex 15.723580219394671 152.61624789557652 374.5866059040477
  vertex 17.217686192444518 153.31063689351282 376.15419256102575
 endloop
endfacet
facet normal 0.6546056483257591 -0.6627842935327876 -0.36360476540641834
 outer loop
  vertex 22.62922787883207 154.7309778232292 383.3076909247628
  vertex 17.217686192444518 153.31063689351282 376.15419256102575
  vertex 18.728390862152967 154.1177250555734 377.4027748009362
 endloop
endfacet
facet normal 0.4155831709413624 -0.8911630627903712 -0.181986327916158
 outer loop
  vertex 22.62922787883207 154.7309778232292 383.3076909247628
  vertex 18.728390862152967 154.1177250555734 377.4027748009362
  vertex 20.347091675188633 154.62276498285487 378.6261188334709
 endloop
endfacet
facet normal 0.21092250314575894 -0.9741989074325248 -0.08030060039627498
 outer loop
  vertex 22.62922787883207 154.7309778232292 383.3076909247628
  vertex 20.347091675188633 154.62276498285487 378.6261188334709
  vertex 21.92587798207316 154.8649433247028 379.8349726062848
 endloop
endfacet
facet normal -0.016618768001804424 0.9989834510862327 0.04190323383633842
 outer loop
  vertex 22.62922787883207 154.7309778232292 383.3076909247628
  vertex 21.92587798207316 154.8649433247028 379.8349726062848
  vertex 21.732376331823495 154.7856392554375 381.64885871500934
 endloop
endfacet
endsolid
