solid
facet normal -0.5355366022784335 -0.8336650477241062 -0.13491899726589487
 outer loop
  vertex -8.661560423160948 113.16760740917222 367.0575296013282
  vertex -8.189222461005919 113.19668906646365 365.0029736513823
  vertex -7.555477767293179 113.09067765904433 363.14248343099706
 endloop
endfacet
facet normal 0.5577627797608637 -0.811657881069287 0.17352857289665446
 outer loop
  vertex -8.661560423160948 113.16760740917222 367.0575296013282
  vertex -7.555477767293179 113.09067765904433 363.14248343099706
  vertex -6.874595230147511 113.16451948335978 361.29934813280437
 endloop
endfacet
facet normal 0.9216561161136968 0.2623390847536174 0.2858814583719103
 outer loop
  vertex -8.661560423160948 113.16760740917222 367.0575296013282
  vertex -6.874595230147511 113.16451948335978 361.29934813280437
  vertex -6.354947404827143 113.5087415882257 359.3081748975201
 endloop
endfacet
facet normal 0.25454157688858053 0.9598335327242384 0.11801768974684763
 outer loop
  vertex -8.661560423160948 113.16760740917222 367.0575296013282
  vertex -6.354947404827143 113.5087415882257 359.3081748975201
  vertex -6.704685471217781 113.81673529654819 357.55759148377814
 endloop
endfacet
facet normal -0.35233235379847133 0.9358351451236127 -0.008630968560696091
 outer loop
  vertex -8.661560423160948 113.16760740917222 367.0575296013282
  vertex -6.704685471217781 113.81673529654819 357.55759148377814
  vertex -7.69883440977659 113.43038589200593 356.2496831719631
 endloop
endfacet
facet normal -0.1991193919476922 0.9799563184912886 0.006089466264094181
 outer loop
  vertex -8.661560423160948 113.16760740917222 367.0575296013282
  vertex -7.69883440977659 113.43038589200593 356.2496831719631
  vertex -9.200412537961263 113.13397070582386 354.85064606744305
 endloop
endfacet
facet normal 0.2998978143125664 0.9538393704281035 -0.01586683307608767
 outer loop
  vertex -8.661560423160948 113.16760740917222 367.0575296013282
  vertex -9.200412537961263 113.13397070582386 354.85064606744305
  vertex -10.627172853637632 113.5558673985106 353.24600169013513
 endloop
endfacet
facet normal -0.9449740157215554 0.29435285189239563 0.14276031729402608
 outer loop
  vertex -8.661560423160948 113.16760740917222 367.0575296013282
  vertex -10.627172853637632 113.5558673985106 353.24600169013513
  vertex -11.088170870170252 113.18794495174473 350.95312274697915
 endloop
endfacet
facet normal -0.29654200592107216 0.9539167514825704 0.04588757964032086
 outer loop
  vertex -8.661560423160948 113.16760740917222 367.0575296013282
  vertex -11.088170870170252 113.18794495174473 350.95312274697915
  vertex -12.642028939808187 112.77338687731127 349.52941947618734
 endloop
endfacet
facet normal -0.1379251233650844 0.9904013424356836 0.009046615185921762
 outer loop
  vertex -8.661560423160948 113.16760740917222 367.0575296013282
  vertex -12.642028939808187 112.77338687731127 349.52941947618734
  vertex -13.956857370006826 112.60158069700566 348.29240412893785
 endloop
endfacet
facet normal -0.9178917798157827 -0.2927985438668396 0.26785013208149294
 outer loop
  vertex -8.661560423160948 113.16760740917222 367.0575296013282
  vertex -13.956857370006826 112.60158069700566 348.29240412893785
  vertex -14.126240625405707 111.74211129923329 346.77242397148524
 endloop
endfacet
facet normal -0.1698483040292859 0.9851905492502735 -0.023476270707241228
 outer loop
  vertex -8.661560423160948 113.16760740917222 367.0575296013282
  vertex -14.126240625405707 111.74211129923329 346.77242397148524
  vertex -15.843555529483913 111.41474279642952 345.45887074460626
 endloop
endfacet
facet normal -0.8767483592722844 0.40549177236528405 0.258628569685211
 outer loop
  vertex -8.661560423160948 113.16760740917222 367.0575296013282
  vertex -15.843555529483913 111.41474279642952 345.45887074460626
  vertex -16.880806527536127 110.34510420321621 343.6196367329794
 endloop
endfacet
facet normal -0.6334304281454308 0.7627538900724132 0.13027814812506847
 outer loop
  vertex -8.661560423160948 113.16760740917222 367.0575296013282
  vertex -16.880806527536127 110.34510420321621 343.6196367329794
  vertex -18.370267776556 109.3595218850089 342.14806738514505
 endloop
endfacet
facet normal -0.830984535282758 0.4980867590802 0.2477383348411818
 outer loop
  vertex -8.661560423160948 113.16760740917222 367.0575296013282
  vertex -18.370267776556 109.3595218850089 342.14806738514505
  vertex -19.49075212731474 108.22172875814648 340.677219215128
 endloop
endfacet
facet normal -0.7850548673011255 0.5815673822734114 0.21323281924334275
 outer loop
  vertex -8.661560423160948 113.16760740917222 367.0575296013282
  vertex -19.49075212731474 108.22172875814648 340.677219215128
  vertex -20.68986852245377 106.96629900219368 339.6864938360963
 endloop
endfacet
facet normal -0.6106352788884147 0.7867706465713614 0.09009165261304625
 outer loop
  vertex -8.661560423160948 113.16760740917222 367.0575296013282
  vertex -20.68986852245377 106.96629900219368 339.6864938360963
  vertex -22.13032706823528 105.91860007017779 339.0727184410136
 endloop
endfacet
facet normal -0.5907565084304622 0.8032380537596042 0.07625861747718914
 outer loop
  vertex -8.661560423160948 113.16760740917222 367.0575296013282
  vertex -22.13032706823528 105.91860007017779 339.0727184410136
  vertex -23.519876143029684 104.92481005652941 338.77589686125657
 endloop
endfacet
facet normal -0.8797865114863206 0.28783143737572764 0.3783236152620569
 outer loop
  vertex -8.661560423160948 113.16760740917222 367.0575296013282
  vertex -23.519876143029684 104.92481005652941 338.77589686125657
  vertex -24.33569362784609 103.67651684020429 337.8284350222523
 endloop
endfacet
facet normal -0.7582369028744224 0.6186751727658921 0.2057129789840624
 outer loop
  vertex -8.661560423160948 113.16760740917222 367.0575296013282
  vertex -24.33569362784609 103.67651684020429 337.8284350222523
  vertex -25.521260037764932 102.35075103691848 337.44575709982547
 endloop
endfacet
facet normal -0.8171979899135287 -0.20298959947620973 0.5394280932485592
 outer loop
  vertex -8.661560423160948 113.16760740917222 367.0575296013282
  vertex -25.521260037764932 102.35075103691848 337.44575709982547
  vertex -25.774035307457925 100.92113564883843 336.5248475225494
 endloop
endfacet
facet normal -0.51270427561162 0.8567191720667027 -0.056272426488534526
 outer loop
  vertex -8.661560423160948 113.16760740917222 367.0575296013282
  vertex -25.774035307457925 100.92113564883843 336.5248475225494
  vertex -27.502994281114187 99.91401659505145 336.94470601616666
 endloop
endfacet
facet normal -0.57981234743735 0.8147392571338888 0.004193404834821565
 outer loop
  vertex -8.661560423160948 113.16760740917222 367.0575296013282
  vertex -27.502994281114187 99.91401659505145 336.94470601616666
  vertex -28.99517720929651 98.84964760149187 337.42095784789177
 endloop
endfacet
facet normal -0.5417897629822607 0.8398255390332036 -0.03401347843451307
 outer loop
  vertex -8.661560423160948 113.16760740917222 367.0575296013282
  vertex -28.99517720929651 98.84964760149187 337.42095784789177
  vertex -30.445166433615327 97.93466086484165 337.92546634407677
 endloop
endfacet
facet normal -0.7781099463052706 -0.07899583540481898 0.6231408905291832
 outer loop
  vertex -8.661560423160948 113.16760740917222 367.0575296013282
  vertex -30.445166433615327 97.93466086484165 337.92546634407677
  vertex -30.606354393352103 96.6059562007163 337.5557520577152
 endloop
endfacet
facet normal -0.7859051257601024 0.5547308879765687 0.27317901681630885
 outer loop
  vertex -8.661560423160948 113.16760740917222 367.0575296013282
  vertex -30.606354393352103 96.6059562007163 337.5557520577152
  vertex -31.452072634873353 95.32279760256112 337.72836197541153
 endloop
endfacet
facet normal -0.6590717853546006 0.7500064147843265 0.055810030745916464
 outer loop
  vertex -8.661560423160948 113.16760740917222 367.0575296013282
  vertex -31.452072634873353 95.32279760256112 337.72836197541153
  vertex -32.82576282835648 94.05211000240462 338.5823913017569
 endloop
endfacet
facet normal -0.8124023707932541 0.41135820034429843 0.4132636191815101
 outer loop
  vertex -8.661560423160948 113.16760740917222 367.0575296013282
  vertex -32.82576282835648 94.05211000240462 338.5823913017569
  vertex -33.683242634745746 92.19579013668695 338.74450034909984
 endloop
endfacet
facet normal -0.5784335612017265 0.8108168216122661 -0.08939069899084238
 outer loop
  vertex -8.661560423160948 113.16760740917222 367.0575296013282
  vertex -33.683242634745746 92.19579013668695 338.74450034909984
  vertex -35.200627879683694 91.22763436708378 339.78162801513014
 endloop
endfacet
facet normal -0.7901641551771955 0.27460184847320473 0.5479365224989186
 outer loop
  vertex -8.661560423160948 113.16760740917222 367.0575296013282
  vertex -35.200627879683694 91.22763436708378 339.78162801513014
  vertex -35.5074187299011 89.74903073869893 340.0802249325055
 endloop
endfacet
facet normal -0.6284551880829036 -0.15714367691538358 0.7618070237121707
 outer loop
  vertex -8.661560423160948 113.16760740917222 367.0575296013282
  vertex -35.5074187299011 89.74903073869893 340.0802249325055
  vertex -35.166792649411555 88.22300233673887 340.04644014727745
 endloop
endfacet
facet normal -0.7092797384799895 0.7033975699082792 0.04641240382575768
 outer loop
  vertex -8.661560423160948 113.16760740917222 367.0575296013282
  vertex -35.166792649411555 88.22300233673887 340.04644014727745
  vertex -36.3117641022123 86.98507702946141 341.3100807998397
 endloop
endfacet
facet normal -0.7162323335262487 0.6950714088484308 0.06234565753123403
 outer loop
  vertex -8.661560423160948 113.16760740917222 367.0575296013282
  vertex -36.3117641022123 86.98507702946141 341.3100807998397
  vertex -37.519653690784814 85.61669998658421 342.68932971256584
 endloop
endfacet
facet normal -0.7858617175113501 0.49330307919551136 0.3729255059745016
 outer loop
  vertex -8.661560423160948 113.16760740917222 367.0575296013282
  vertex -37.519653690784814 85.61669998658421 342.68932971256584
  vertex -38.02338902563983 83.79223927263855 344.041196947613
 endloop
endfacet
facet normal -0.778260833645708 0.5678196568152689 0.26812480703448155
 outer loop
  vertex -8.661560423160948 113.16760740917222 367.0575296013282
  vertex -38.02338902563983 83.79223927263855 344.041196947613
  vertex -38.60292289886814 82.30157732495996 345.5158782522899
 endloop
endfacet
facet normal -0.7824953918250912 0.5013098444419409 0.3693093576367839
 outer loop
  vertex -8.661560423160948 113.16760740917222 367.0575296013282
  vertex -38.60292289886814 82.30157732495996 345.5158782522899
  vertex -38.857593208904355 80.80667804985576 347.0054949317619
 endloop
endfacet
facet normal -0.7816409246040555 0.49102980634128546 0.38461304484969966
 outer loop
  vertex -8.661560423160948 113.16760740917222 367.0575296013282
  vertex -38.857593208904355 80.80667804985576 347.0054949317619
  vertex -38.880436142284516 79.39185690400423 348.7653530300529
 endloop
endfacet
facet normal -0.6798093580339484 0.7092610859515198 -0.1865688845556562
 outer loop
  vertex -8.661560423160948 113.16760740917222 367.0575296013282
  vertex -38.880436142284516 79.39185690400423 348.7653530300529
  vertex -39.64053538746808 79.18211333477745 350.7375984508558
 endloop
endfacet
facet normal -0.6846691334811115 0.7077376074889725 -0.17417134266006296
 outer loop
  vertex -8.661560423160948 113.16760740917222 367.0575296013282
  vertex -39.64053538746808 79.18211333477745 350.7375984508558
  vertex -40.29934439191614 79.0282412038893 352.7021299932164
 endloop
endfacet
facet normal -0.7602659726043197 0.5935164856763623 0.264071642041299
 outer loop
  vertex -8.661560423160948 113.16760740917222 367.0575296013282
  vertex -40.29934439191614 79.0282412038893 352.7021299932164
  vertex -40.305011947476075 78.17558810430604 354.6022008135704
 endloop
endfacet
facet normal -0.7603941350317844 0.5947942090759116 0.2608076077475986
 outer loop
  vertex -8.661560423160948 113.16760740917222 367.0575296013282
  vertex -40.305011947476075 78.17558810430604 354.6022008135704
  vertex -40.1727434967023 77.52523464461342 356.4710213978513
 endloop
endfacet
facet normal -0.7627394117243866 0.6142035568130526 0.20244154860238475
 outer loop
  vertex -8.661560423160948 113.16760740917222 367.0575296013282
  vertex -40.1727434967023 77.52523464461342 356.4710213978513
  vertex -40.043767504315376 77.06026818744536 358.3676633026477
 endloop
endfacet
facet normal -0.7585956882179059 0.5959125007460214 0.26347841139612294
 outer loop
  vertex -8.661560423160948 113.16760740917222 367.0575296013282
  vertex -40.043767504315376 77.06026818744536 358.3676633026477
  vertex -39.84498872329716 76.56806569594715 360.0531992880005
 endloop
endfacet
facet normal -0.4571807216759358 0.2248488277744993 0.860481721116901
 outer loop
  vertex -8.661560423160948 113.16760740917222 367.0575296013282
  vertex -39.84498872329716 76.56806569594715 360.0531992880005
  vertex -38.605190614168045 75.24779546386384 361.05690800963674
 endloop
endfacet
facet normal -0.6863815194608519 0.4518295801348032 0.569851243973214
 outer loop
  vertex -8.661560423160948 113.16760740917222 367.0575296013282
  vertex -38.605190614168045 75.24779546386384 361.05690800963674
  vertex -37.72762474994836 74.27676451902502 362.8838505782897
 endloop
endfacet
facet normal -0.6443798432729156 0.4124902035238602 0.6439149397089782
 outer loop
  vertex -8.661560423160948 113.16760740917222 367.0575296013282
  vertex -37.72762474994836 74.27676451902502 362.8838505782897
  vertex -36.65394379625847 73.42699593688614 364.50266622578744
 endloop
endfacet
facet normal -0.593806319172708 0.3724108804771182 0.7132350183584775
 outer loop
  vertex -8.661560423160948 113.16760740917222 367.0575296013282
  vertex -36.65394379625847 73.42699593688614 364.50266622578744
  vertex -35.2960274968053 72.3713208408745 366.18441787938264
 endloop
endfacet
facet normal -0.8344259757266834 0.5463207114088398 -0.07257390246026127
 outer loop
  vertex -8.661560423160948 113.16760740917222 367.0575296013282
  vertex -35.2960274968053 72.3713208408745 366.18441787938264
  vertex -35.137357461896706 72.91496161639911 368.4525033888865
 endloop
endfacet
facet normal -0.8327655319228707 0.544222509326823 -0.10160427738650642
 outer loop
  vertex -8.661560423160948 113.16760740917222 367.0575296013282
  vertex -35.137357461896706 72.91496161639911 368.4525033888865
  vertex -35.09144885061073 73.35914558144056 370.4554092526431
 endloop
endfacet
facet normal -0.8323639510074282 0.5432652498089502 -0.1096955852043397
 outer loop
  vertex -8.661560423160948 113.16760740917222 367.0575296013282
  vertex -35.09144885061073 73.35914558144056 370.4554092526431
  vertex -35.10135072855937 73.76108646557789 372.5211485497981
 endloop
endfacet
facet normal -0.8323119368053683 0.5429856861687451 -0.11146023715726366
 outer loop
  vertex -8.661560423160948 113.16760740917222 367.0575296013282
  vertex -35.10135072855937 73.76108646557789 372.5211485497981
  vertex -35.1022943948435 74.22438728327394 374.78519484601964
 endloop
endfacet
facet normal -0.7242404152780206 0.569014469848218 0.3894847288165114
 outer loop
  vertex -8.661560423160948 113.16760740917222 367.0575296013282
  vertex -35.1022943948435 74.22438728327394 374.78519484601964
  vertex -34.1013412956948 74.28172768949258 376.5626795999393
 endloop
endfacet
facet normal -0.8437826680953454 0.5156421574843292 -0.14880851604261974
 outer loop
  vertex -8.661560423160948 113.16760740917222 367.0575296013282
  vertex -34.1013412956948 74.28172768949258 376.5626795999393
  vertex -34.02338775239607 74.94493997213883 378.41878549284814
 endloop
endfacet
facet normal -0.7976928006421813 0.5792092489275973 0.16793701724266116
 outer loop
  vertex -8.661560423160948 113.16760740917222 367.0575296013282
  vertex -34.02338775239607 74.94493997213883 378.41878549284814
  vertex -33.23348244476393 75.42866959290613 380.50243037653047
 endloop
endfacet
facet normal -0.8188770270763863 0.5663594875347032 0.09315226999900521
 outer loop
  vertex -8.661560423160948 113.16760740917222 367.0575296013282
  vertex -33.23348244476393 75.42866959290613 380.50243037653047
  vertex -32.52217253391354 76.15677649926154 382.3285274837188
 endloop
endfacet
facet normal -0.8004090439091968 0.5794231200974777 0.15366915866519612
 outer loop
  vertex -8.661560423160948 113.16760740917222 367.0575296013282
  vertex -32.52217253391354 76.15677649926154 382.3285274837188
  vertex -31.773732442661004 76.81177873643466 383.75714712240233
 endloop
endfacet
facet normal -0.8638408340605853 0.4247304239649788 -0.27089311613262146
 outer loop
  vertex -8.661560423160948 113.16760740917222 367.0575296013282
  vertex -31.773732442661004 76.81177873643466 383.75714712240233
  vertex -31.7223555239149 77.80079835690309 385.14398650663463
 endloop
endfacet
facet normal -0.5302337648276525 0.6337588336769215 0.5632067962774968
 outer loop
  vertex -8.661560423160948 113.16760740917222 367.0575296013282
  vertex -31.7223555239149 77.80079835690309 385.14398650663463
  vertex -30.032859588467065 77.97950166380052 386.5334814423002
 endloop
endfacet
facet normal -0.8287095254231428 0.5525605604800422 0.08897948906872309
 outer loop
  vertex -8.661560423160948 113.16760740917222 367.0575296013282
  vertex -30.032859588467065 77.97950166380052 386.5334814423002
  vertex -29.14021977323655 79.09767538476909 387.9032400344955
 endloop
endfacet
facet normal -0.5786535850152023 0.649566250424446 0.49317716376428056
 outer loop
  vertex -8.661560423160948 113.16760740917222 367.0575296013282
  vertex -29.14021977323655 79.09767538476909 387.9032400344955
  vertex -27.56897832989364 79.78256746597899 388.8447307341741
 endloop
endfacet
facet normal -0.8442659563257977 0.5300010092671039 0.07946021120748042
 outer loop
  vertex -8.661560423160948 113.16760740917222 367.0575296013282
  vertex -27.56897832989364 79.78256746597899 388.8447307341741
  vertex -26.502392159868077 81.31754606249491 389.9388907692719
 endloop
endfacet
facet normal -0.861058638268669 0.5073143362831034 0.03478772289960607
 outer loop
  vertex -8.661560423160948 113.16760740917222 367.0575296013282
  vertex -26.502392159868077 81.31754606249491 389.9388907692719
  vertex -25.681888245523425 82.6611360083335 390.6540724338427
 endloop
endfacet
facet normal -0.5255490891829206 0.6842603634170297 0.5055550513202266
 outer loop
  vertex -8.661560423160948 113.16760740917222 367.0575296013282
  vertex -25.681888245523425 82.6611360083335 390.6540724338427
  vertex -24.385124496641588 83.49999892591384 390.8667344614279
 endloop
endfacet
facet normal -0.6112759388670432 0.6664799956536407 0.4267858267981
 outer loop
  vertex -8.661560423160948 113.16760740917222 367.0575296013282
  vertex -24.385124496641588 83.49999892591384 390.8667344614279
  vertex -23.001291189813273 84.77391232791236 390.8593916806621
 endloop
endfacet
facet normal -0.5551579503311065 0.6808540869038989 0.47774194135581477
 outer loop
  vertex -8.661560423160948 113.16760740917222 367.0575296013282
  vertex -23.001291189813273 84.77391232791236 390.8593916806621
  vertex -21.57002236943396 85.83563506166297 391.0094768962457
 endloop
endfacet
facet normal -0.6709333190725366 0.6420169667417188 0.37102923843556085
 outer loop
  vertex -8.661560423160948 113.16760740917222 367.0575296013282
  vertex -21.57002236943396 85.83563506166297 391.0094768962457
  vertex -20.300426580526388 87.13856438275447 391.0507442259872
 endloop
endfacet
facet normal -0.6666277479622019 0.6440211828925728 0.37529210174541927
 outer loop
  vertex -8.661560423160948 113.16760740917222 367.0575296013282
  vertex -20.300426580526388 87.13856438275447 391.0507442259872
  vertex -18.75235098004714 88.74348617037771 391.0464449697946
 endloop
endfacet
facet normal -0.9202188461458293 -0.004220481541152033 -0.3913814798040393
 outer loop
  vertex -8.661560423160948 113.16760740917222 367.0575296013282
  vertex -18.75235098004714 88.74348617037771 391.0464449697946
  vertex -18.414846449112993 90.78121035561914 390.23092807948393
 endloop
endfacet
facet normal -0.9533568547935227 0.136868983394657 -0.2690308324388027
 outer loop
  vertex -8.661560423160948 113.16760740917222 367.0575296013282
  vertex -18.414846449112993 90.78121035561914 390.23092807948393
  vertex -17.899637014512876 92.56241235815247 389.3113786859053
 endloop
endfacet
facet normal -0.5001908190453588 0.7289784943830477 0.46733232208970726
 outer loop
  vertex -8.661560423160948 113.16760740917222 367.0575296013282
  vertex -17.899637014512876 92.56241235815247 389.3113786859053
  vertex -16.69886877115324 93.96530728923041 388.4082376799124
 endloop
endfacet
facet normal -0.8769887567704548 -0.1429942116524955 -0.4587410772234086
 outer loop
  vertex -8.661560423160948 113.16760740917222 367.0575296013282
  vertex -16.69886877115324 93.96530728923041 388.4082376799124
  vertex -16.213898935007233 95.56246866509595 386.98325535774245
 endloop
endfacet
facet normal -0.8658243527317182 -0.16370603782467238 -0.47280918285969054
 outer loop
  vertex -8.661560423160948 113.16760740917222 367.0575296013282
  vertex -16.213898935007233 95.56246866509595 386.98325535774245
  vertex -15.920710406221096 97.54621503066052 385.75950369069415
 endloop
endfacet
facet normal 0.9089224568518961 0.06978171433258562 0.4110845165840216
 outer loop
  vertex -8.661560423160948 113.16760740917222 367.0575296013282
  vertex -15.920710406221096 97.54621503066052 385.75950369069415
  vertex -15.21522101721292 98.79050055562114 383.9884237876095
 endloop
endfacet
facet normal -0.9590154193810394 0.1718099196552414 -0.22532371579012406
 outer loop
  vertex -8.661560423160948 113.16760740917222 367.0575296013282
  vertex -15.21522101721292 98.79050055562114 383.9884237876095
  vertex -14.871963835726161 100.60543188345994 383.91135367458384
 endloop
endfacet
facet normal -0.8968935461167074 0.44224566299190965 -0.0008605225412649015
 outer loop
  vertex -8.661560423160948 113.16760740917222 367.0575296013282
  vertex -14.871963835726161 100.60543188345994 383.91135367458384
  vertex -14.056949138893597 102.25672269938055 383.09182848341686
 endloop
endfacet
facet normal 0.1687265478657771 0.7875611049783999 0.5926878250567489
 outer loop
  vertex -8.661560423160948 113.16760740917222 367.0575296013282
  vertex -14.056949138893597 102.25672269938055 383.09182848341686
  vertex -13.243759685510891 103.37345924099144 381.37641461640584
 endloop
endfacet
facet normal -0.6048389116263586 -0.5537390140270285 -0.5723137210717703
 outer loop
  vertex -8.661560423160948 113.16760740917222 367.0575296013282
  vertex -13.243759685510891 103.37345924099144 381.37641461640584
  vertex -12.93564756728994 104.60507952929204 379.8591446814535
 endloop
endfacet
facet normal -0.9384375720631818 -0.04385981293492815 -0.34265323601196795
 outer loop
  vertex -8.661560423160948 113.16760740917222 367.0575296013282
  vertex -12.93564756728994 104.60507952929204 379.8591446814535
  vertex -12.605720157808554 106.14858253557728 378.7579905390837
 endloop
endfacet
facet normal -0.9507559605635941 0.01851594244680589 -0.30938691525031237
 outer loop
  vertex -8.661560423160948 113.16760740917222 367.0575296013282
  vertex -12.605720157808554 106.14858253557728 378.7579905390837
  vertex -12.321544628743426 107.78859701026244 377.9828602647935
 endloop
endfacet
facet normal 0.9377273395341991 -0.3066754666089595 0.1631489959217947
 outer loop
  vertex -8.661560423160948 113.16760740917222 367.0575296013282
  vertex -12.321544628743426 107.78859701026244 377.9828602647935
  vertex -11.80126411902035 108.49760489248081 376.32519799382857
 endloop
endfacet
facet normal -0.9115105191877091 0.39657955683145374 -0.10896434514794597
 outer loop
  vertex -8.661560423160948 113.16760740917222 367.0575296013282
  vertex -11.80126411902035 108.49760489248081 376.32519799382857
  vertex -11.022710763172775 109.86048297852734 374.7726719267501
 endloop
endfacet
facet normal -0.8310100742671892 0.5560277885242229 -0.01597982651040552
 outer loop
  vertex -8.661560423160948 113.16760740917222 367.0575296013282
  vertex -11.022710763172775 109.86048297852734 374.7726719267501
  vertex -10.16589053714214 111.09458644150897 373.15623257937847
 endloop
endfacet
facet normal 0.6849430212206203 0.6215228239116696 0.3802136728709694
 outer loop
  vertex -8.661560423160948 113.16760740917222 367.0575296013282
  vertex -10.16589053714214 111.09458644150897 373.15623257937847
  vertex -9.563961915123603 111.69312368896192 371.09346781014835
 endloop
endfacet
facet normal 0.7169351599620347 0.5876862972932435 0.37500505647786836
 outer loop
  vertex -8.661560423160948 113.16760740917222 367.0575296013282
  vertex -9.563961915123603 111.69312368896192 371.09346781014835
  vertex -9.057698040357815 112.36223978290224 369.07699171553884
 endloop
endfacet
facet normal -0.502110170550036 0.24363072895243854 0.8297767437933635
 outer loop
  vertex -48.4750439964606 115.80787872640599 419.160594170626
  vertex -49.79482963853259 117.37843390464883 417.9008417075877
  vertex -52.29856252950683 116.98376254274592 416.50167538244557
 endloop
endfacet
facet normal 0.5279329025030046 -0.1665091709932353 -0.8328034260435643
 outer loop
  vertex -48.4750439964606 115.80787872640599 419.160594170626
  vertex -52.29856252950683 116.98376254274592 416.50167538244557
  vertex -53.00283880748233 118.78904793838554 415.69427333149076
 endloop
endfacet
facet normal 0.1607007365108458 -0.6347510692311071 -0.7558216412585961
 outer loop
  vertex -48.4750439964606 115.80787872640599 419.160594170626
  vertex -53.00283880748233 118.78904793838554 415.69427333149076
  vertex -54.1189543789645 119.83047502681566 414.5823608029262
 endloop
endfacet
facet normal 0.3049419561510505 -0.49686558320547114 -0.8124869202668175
 outer loop
  vertex -48.4750439964606 115.80787872640599 419.160594170626
  vertex -54.1189543789645 119.83047502681566 414.5823608029262
  vertex -53.87026259073667 120.91584394781272 414.0119566647387
 endloop
endfacet
facet normal 0.2227581687773753 -0.5652867876141487 -0.7942478492207748
 outer loop
  vertex -48.4750439964606 115.80787872640599 419.160594170626
  vertex -53.87026259073667 120.91584394781272 414.0119566647387
  vertex -53.57980945325553 121.77607563235466 413.4811692072073
 endloop
endfacet
facet normal -0.19296245583374802 -0.7579803518947833 -0.623082078686323
 outer loop
  vertex -48.4750439964606 115.80787872640599 419.160594170626
  vertex -53.57980945325553 121.77607563235466 413.4811692072073
  vertex -53.8627394748239 122.49733216069062 412.69138015341025
 endloop
endfacet
facet normal 0.0053146531975785125 -0.6929494744364386 -0.7209665597929302
 outer loop
  vertex -48.4750439964606 115.80787872640599 419.160594170626
  vertex -53.8627394748239 122.49733216069062 412.69138015341025
  vertex -54.01524413573411 123.62441520231322 411.6069718683063
 endloop
endfacet
facet normal 0.08180401501183869 -0.6619923655529824 -0.7450330268367364
 outer loop
  vertex -48.4750439964606 115.80787872640599 419.160594170626
  vertex -54.01524413573411 123.62441520231322 411.6069718683063
  vertex -52.8946808447521 124.42701247157585 411.01686824504145
 endloop
endfacet
facet normal -0.1407680942832752 -0.7171189283568928 -0.6825868342006873
 outer loop
  vertex -48.4750439964606 115.80787872640599 419.160594170626
  vertex -52.8946808447521 124.42701247157585 411.01686824504145
  vertex -52.13004074573476 125.12832472940723 410.1223868490652
 endloop
endfacet
facet normal -0.1616188207248187 -0.718934420991525 -0.6760271112175157
 outer loop
  vertex -48.4750439964606 115.80787872640599 419.160594170626
  vertex -52.13004074573476 125.12832472940723 410.1223868490652
  vertex -51.37663822101863 126.22397357943362 408.7770803013122
 endloop
endfacet
facet normal 0.02038684240265158 -0.7029973849546868 -0.7109001711940441
 outer loop
  vertex -48.4750439964606 115.80787872640599 419.160594170626
  vertex -51.37663822101863 126.22397357943362 408.7770803013122
  vertex -50.33442364373243 127.41633070564598 407.6278662338148
 endloop
endfacet
facet normal 0.42369945719239654 -0.6033425763968663 -0.6756156492279175
 outer loop
  vertex -48.4750439964606 115.80787872640599 419.160594170626
  vertex -50.33442364373243 127.41633070564598 407.6278662338148
  vertex -48.51875541025828 128.22665006339264 408.04289136870887
 endloop
endfacet
facet normal 0.05470191876991931 -0.6658948692595078 -0.7440374474290606
 outer loop
  vertex -48.4750439964606 115.80787872640599 419.160594170626
  vertex -48.51875541025828 128.22665006339264 408.04289136870887
  vertex -47.404889943682306 129.77885776705406 406.7355961902458
 endloop
endfacet
facet normal -0.9387056309981419 -0.18613649250065714 -0.29014641905757377
 outer loop
  vertex -48.4750439964606 115.80787872640599 419.160594170626
  vertex -47.404889943682306 129.77885776705406 406.7355961902458
  vertex -46.94191993295746 130.4454849089342 404.81009872637696
 endloop
endfacet
facet normal -0.4106458590091178 -0.6160258805885912 -0.6722217587401603
 outer loop
  vertex -48.4750439964606 115.80787872640599 419.160594170626
  vertex -46.94191993295746 130.4454849089342 404.81009872637696
  vertex -45.9847513914877 131.4780525950369 403.27913710151694
 endloop
endfacet
facet normal -0.07058500694429554 -0.7044947574759196 -0.7061904088017756
 outer loop
  vertex -48.4750439964606 115.80787872640599 419.160594170626
  vertex -45.9847513914877 131.4780525950369 403.27913710151694
  vertex -43.82364255618259 131.6342200914295 402.9073378511
 endloop
endfacet
facet normal -0.2601693632899902 -0.6535096566646246 -0.7108002750782851
 outer loop
  vertex -48.4750439964606 115.80787872640599 419.160594170626
  vertex -43.82364255618259 131.6342200914295 402.9073378511
  vertex -41.76167143433387 131.72078454982088 402.07302131498005
 endloop
endfacet
facet normal 0.06680089337276332 -0.7431323456555817 -0.6658017403739898
 outer loop
  vertex -48.4750439964606 115.80787872640599 419.160594170626
  vertex -41.76167143433387 131.72078454982088 402.07302131498005
  vertex -39.825659944441995 131.7015631495712 402.28871816984014
 endloop
endfacet
facet normal -0.4973001855024131 -0.4896453272540861 -0.7161982819006929
 outer loop
  vertex -48.4750439964606 115.80787872640599 419.160594170626
  vertex -39.825659944441995 131.7015631495712 402.28871816984014
  vertex -38.23920421679106 131.03027039673327 401.64608975305015
 endloop
endfacet
facet normal -0.5027507179121613 -0.4851338942680726 -0.7154626616889949
 outer loop
  vertex -48.4750439964606 115.80787872640599 419.160594170626
  vertex -38.23920421679106 131.03027039673327 401.64608975305015
  vertex -36.43767110952729 130.32818951635446 400.85622487023994
 endloop
endfacet
facet normal -0.5123122727871259 -0.47621230948233373 -0.7146733319840552
 outer loop
  vertex -48.4750439964606 115.80787872640599 419.160594170626
  vertex -36.43767110952729 130.32818951635446 400.85622487023994
  vertex -34.64104901364896 129.64770519718243 400.02175055394787
 endloop
endfacet
facet normal -0.10269490195532718 -0.7693245961623055 -0.6305500954342098
 outer loop
  vertex -48.4750439964606 115.80787872640599 419.160594170626
  vertex -34.64104901364896 129.64770519718243 400.02175055394787
  vertex -33.378975787024515 128.58840797988526 401.10863472478036
 endloop
endfacet
facet normal -0.33120233405777066 -0.6170487596018756 -0.7138318024496189
 outer loop
  vertex -48.4750439964606 115.80787872640599 419.160594170626
  vertex -33.378975787024515 128.58840797988526 401.10863472478036
  vertex -32.10062787832539 127.03604148627831 401.85740216046264
 endloop
endfacet
facet normal -0.4101958989836557 -0.5373596442389076 -0.7368744378796331
 outer loop
  vertex -48.4750439964606 115.80787872640599 419.160594170626
  vertex -32.10062787832539 127.03604148627831 401.85740216046264
  vertex -31.874290642732834 125.50390484300425 402.84870509916914
 endloop
endfacet
facet normal 0.02763955706498979 -0.8713789381118706 -0.4898314006883184
 outer loop
  vertex -48.4750439964606 115.80787872640599 419.160594170626
  vertex -31.874290642732834 125.50390484300425 402.84870509916914
  vertex -32.572506114612835 124.89363390642222 403.89494034170474
 endloop
endfacet
facet normal -0.5047553127855697 -0.40099548953709263 -0.7644767436525777
 outer loop
  vertex -48.4750439964606 115.80787872640599 419.160594170626
  vertex -32.572506114612835 124.89363390642222 403.89494034170474
  vertex -32.65738682918689 123.44211012100928 404.71236021448595
 endloop
endfacet
facet normal -0.528192813742258 -0.36056082101614323 -0.7687706067867066
 outer loop
  vertex -48.4750439964606 115.80787872640599 419.160594170626
  vertex -32.65738682918689 123.44211012100928 404.71236021448595
  vertex -33.20964902207554 122.07717927094272 405.7319641153061
 endloop
endfacet
facet normal -0.2814875613905705 -0.7061771386453318 -0.6496757665459607
 outer loop
  vertex -48.4750439964606 115.80787872640599 419.160594170626
  vertex -33.20964902207554 122.07717927094272 405.7319641153061
  vertex -34.19853024624133 121.5752786222875 406.70597078267986
 endloop
endfacet
facet normal -0.5532285578673536 -0.304757743878053 -0.7752811620995103
 outer loop
  vertex -48.4750439964606 115.80787872640599 419.160594170626
  vertex -34.19853024624133 121.5752786222875 406.70597078267986
  vertex -34.31269527299691 120.05850667545151 407.3836698875869
 endloop
endfacet
facet normal -0.5910862607939759 -0.19743625174090448 -0.782071581633739
 outer loop
  vertex -48.4750439964606 115.80787872640599 419.160594170626
  vertex -34.31269527299691 120.05850667545151 407.3836698875869
  vertex -34.84734154907911 118.75566375929974 408.116659684955
 endloop
endfacet
facet normal -0.5701473098151858 -0.2704958017806832 -0.7757345334130304
 outer loop
  vertex -48.4750439964606 115.80787872640599 419.160594170626
  vertex -34.84734154907911 118.75566375929974 408.116659684955
  vertex -35.53982255918914 117.76409493199277 408.9713739736928
 endloop
endfacet
facet normal -0.5144906948317007 -0.43794513069696533 -0.7372268222402192
 outer loop
  vertex -48.4750439964606 115.80787872640599 419.160594170626
  vertex -35.53982255918914 117.76409493199277 408.9713739736928
  vertex -36.252605849629276 117.19604179950576 409.80625471208276
 endloop
endfacet
facet normal -0.5514807301896998 -0.32408179857722286 -0.7686611685654401
 outer loop
  vertex -48.4750439964606 115.80787872640599 419.160594170626
  vertex -36.252605849629276 117.19604179950576 409.80625471208276
  vertex -36.63781004169532 116.27058717228465 410.4728106799878
 endloop
endfacet
facet normal -0.5517511024661177 -0.32289540970995073 -0.7689663681304056
 outer loop
  vertex -48.4750439964606 115.80787872640599 419.160594170626
  vertex -36.63781004169532 116.27058717228465 410.4728106799878
  vertex -37.63041914401379 115.36480063273542 411.5653779457868
 endloop
endfacet
facet normal -0.5268589420707642 -0.4411073605527433 -0.7265286997953124
 outer loop
  vertex -48.4750439964606 115.80787872640599 419.160594170626
  vertex -37.63041914401379 115.36480063273542 411.5653779457868
  vertex -38.642827386815206 114.87080617214738 412.59947464230464
 endloop
endfacet
facet normal -0.4988253816754931 -0.5512711712110897 -0.6687849687215255
 outer loop
  vertex -48.4750439964606 115.80787872640599 419.160594170626
  vertex -38.642827386815206 114.87080617214738 412.59947464230464
  vertex -40.08347342567064 114.76544550371672 413.76085407755346
 endloop
endfacet
facet normal 0.5070226098533177 -0.22642641545094078 0.8316604784908133
 outer loop
  vertex -48.4750439964606 115.80787872640599 419.160594170626
  vertex -40.08347342567064 114.76544550371672 413.76085407755346
  vertex -40.55432562108201 116.74689399226583 414.5873752426362
 endloop
endfacet
facet normal -0.4451305164638907 -0.3194461629471866 -0.836548248632982
 outer loop
  vertex -48.4750439964606 115.80787872640599 419.160594170626
  vertex -40.55432562108201 116.74689399226583 414.5873752426362
  vertex -41.24113892300716 115.96867230948037 415.250004673986
 endloop
endfacet
facet normal -0.35020662805406655 -0.6498829422754846 -0.6745424219471745
 outer loop
  vertex -48.4750439964606 115.80787872640599 419.160594170626
  vertex -41.24113892300716 115.96867230948037 415.250004673986
  vertex -42.27961057302226 115.21629011785537 416.5140319309066
 endloop
endfacet
facet normal -0.34549191804409984 0.32318201073840835 -0.8810157334016732
 outer loop
  vertex -48.4750439964606 115.80787872640599 419.160594170626
  vertex -42.27961057302226 115.21629011785537 416.5140319309066
  vertex -44.25474445120285 114.76730120835914 417.12388216743045
 endloop
endfacet
facet normal -0.4253549571004393 -0.7583565614995019 -0.4939316613669706
 outer loop
  vertex -48.4750439964606 115.80787872640599 419.160594170626
  vertex -44.25474445120285 114.76730120835914 417.12388216743045
  vertex -46.06996025632405 114.87306909593923 418.52468580787377
 endloop
endfacet
facet normal 0.23567052884031556 0.9524685023783787 0.19303666442729026
 outer loop
  vertex -27.528720721929457 135.77806279671364 335.8003120475489
  vertex -28.6798122372985 136.1827522889659 335.20884073932933
  vertex -30.06036122454804 136.32216139070135 336.2064332544016
 endloop
endfacet
facet normal 0.16253832190981285 0.01994075757701839 0.9865007146971545
 outer loop
  vertex -27.528720721929457 135.77806279671364 335.8003120475489
  vertex -30.06036122454804 136.32216139070135 336.2064332544016
  vertex -31.68910910534077 136.24682083178695 336.4763127296141
 endloop
endfacet
facet normal 0.15858787266213842 -0.016147757793481557 0.9872128121953951
 outer loop
  vertex -27.528720721929457 135.77806279671364 335.8003120475489
  vertex -31.68910910534077 136.24682083178695 336.4763127296141
  vertex -33.32982625375278 135.95364747748968 336.73508545494184
 endloop
endfacet
facet normal 0.13966040477518246 -0.33894181002493534 0.9303834804826732
 outer loop
  vertex -27.528720721929457 135.77806279671364 335.8003120475489
  vertex -33.32982625375278 135.95364747748968 336.73508545494184
  vertex -34.59506976094438 135.59728211930437 336.7951868023895
 endloop
endfacet
facet normal 0.0797603371213447 -0.9127482437537574 0.4006606196604814
 outer loop
  vertex -27.528720721929457 135.77806279671364 335.8003120475489
  vertex -34.59506976094438 135.59728211930437 336.7951868023895
  vertex -35.29930083925513 135.14108180060268 335.89610585007944
 endloop
endfacet
facet normal 0.07055403207856376 -0.764296852320853 0.6409933307686541
 outer loop
  vertex -27.528720721929457 135.77806279671364 335.8003120475489
  vertex -35.29930083925513 135.14108180060268 335.89610585007944
  vertex -36.334667756029894 134.470517338577 335.2105121381788
 endloop
endfacet
facet normal -0.10432001615741177 0.27091794584460616 0.9569330179528013
 outer loop
  vertex -27.528720721929457 135.77806279671364 335.8003120475489
  vertex -36.334667756029894 134.470517338577 335.2105121381788
  vertex -38.2580596350846 133.33288375374744 335.32290985046166
 endloop
endfacet
facet normal -0.13594641926878281 0.42147424816347856 0.8965924543643154
 outer loop
  vertex -27.528720721929457 135.77806279671364 335.8003120475489
  vertex -38.2580596350846 133.33288375374744 335.32290985046166
  vertex -39.66857362413737 132.31474455164297 335.58765123595634
 endloop
endfacet
facet normal -0.07224059480516601 0.1931384121070183 0.9785084824522348
 outer loop
  vertex -27.528720721929457 135.77806279671364 335.8003120475489
  vertex -39.66857362413737 132.31474455164297 335.58765123595634
  vertex -41.012906938226386 130.9121597546331 335.76524557001693
 endloop
endfacet
facet normal 0.30208516279031944 -0.8403688750969768 0.450027452707263
 outer loop
  vertex -27.528720721929457 135.77806279671364 335.8003120475489
  vertex -41.012906938226386 130.9121597546331 335.76524557001693
  vertex -41.2932560514597 130.0615613998244 334.3650486013875
 endloop
endfacet
facet normal -0.12645367052325754 0.05581910379130818 0.9904007758797095
 outer loop
  vertex -27.528720721929457 135.77806279671364 335.8003120475489
  vertex -41.2932560514597 130.0615613998244 334.3650486013875
  vertex -41.77933606619247 128.4710420852406 334.392628103885
 endloop
endfacet
facet normal 0.18200604326219552 -0.5161893476268404 0.8369123954229719
 outer loop
  vertex -27.528720721929457 135.77806279671364 335.8003120475489
  vertex -41.77933606619247 128.4710420852406 334.392628103885
  vertex -41.64599525160358 127.05858871881712 333.49245955583115
 endloop
endfacet
facet normal 0.10400241023437205 -0.4084096093055363 0.9068545030446399
 outer loop
  vertex -27.528720721929457 135.77806279671364 335.8003120475489
  vertex -41.64599525160358 127.05858871881712 333.49245955583115
  vertex -41.40301777073756 125.80356336011849 332.89938243237674
 endloop
endfacet
facet normal -0.28181796500758943 0.11496622864953945 0.9525551957073579
 outer loop
  vertex -27.528720721929457 135.77806279671364 335.8003120475489
  vertex -41.40301777073756 125.80356336011849 332.89938243237674
  vertex -41.02720247557377 124.81399336529687 333.130002802704
 endloop
endfacet
facet normal -0.04013349174936897 -0.18952627832125135 0.981055091554852
 outer loop
  vertex -27.528720721929457 135.77806279671364 335.8003120475489
  vertex -41.02720247557377 124.81399336529687 333.130002802704
  vertex -40.1331316993602 123.47528490553579 332.9079579329608
 endloop
endfacet
facet normal 0.4338664675709497 -0.6020818764020364 0.6702665905635676
 outer loop
  vertex -27.528720721929457 135.77806279671364 335.8003120475489
  vertex -40.1331316993602 123.47528490553579 332.9079579329608
  vertex -39.40427366819197 122.73182753833267 331.7683378522822
 endloop
endfacet
facet normal 0.12282395244420984 -0.39338986991655384 0.9111304445319668
 outer loop
  vertex -27.528720721929457 135.77806279671364 335.8003120475489
  vertex -39.40427366819197 122.73182753833267 331.7683378522822
  vertex -38.206394357366996 121.97913844902202 331.28187783209717
 endloop
endfacet
facet normal -0.3482900516932413 -0.037195466503980285 0.9366485665195193
 outer loop
  vertex -27.528720721929457 135.77806279671364 335.8003120475489
  vertex -38.206394357366996 121.97913844902202 331.28187783209717
  vertex -37.191801635563436 121.19955542925646 331.6281929912941
 endloop
endfacet
facet normal -0.0056687535439972165 -0.27165840022265575 0.9623770460800304
 outer loop
  vertex -27.528720721929457 135.77806279671364 335.8003120475489
  vertex -37.191801635563436 121.19955542925646 331.6281929912941
  vertex -35.57750837996308 120.43824795841805 331.4228009988345
 endloop
endfacet
facet normal -0.15470881650565088 -0.19520007019111604 0.9684844421532048
 outer loop
  vertex -27.528720721929457 135.77806279671364 335.8003120475489
  vertex -35.57750837996308 120.43824795841805 331.4228009988345
  vertex -33.857844858966104 119.72277115092739 331.5532997240366
 endloop
endfacet
facet normal -0.6536185624085178 0.05805323495013933 0.7545943259704823
 outer loop
  vertex -27.528720721929457 135.77806279671364 335.8003120475489
  vertex -33.857844858966104 119.72277115092739 331.5532997240366
  vertex -32.96524084277587 118.98620317181637 332.38312667377556
 endloop
endfacet
facet normal -0.01764600483254704 -0.19389512427046335 0.9808635477463679
 outer loop
  vertex -27.528720721929457 135.77806279671364 335.8003120475489
  vertex -32.96524084277587 118.98620317181637 332.38312667377556
  vertex -31.79523199365127 118.70879981544583 332.3493389195799
 endloop
endfacet
facet normal -6.68007588092668e-05 -0.19814925433898156 0.9801718566366636
 outer loop
  vertex -27.528720721929457 135.77806279671364 335.8003120475489
  vertex -31.79523199365127 118.70879981544583 332.3493389195799
  vertex -30.727935470554137 118.60083521591417 332.3275857866673
 endloop
endfacet
facet normal 0.24992311591243038 -0.2363792932687401 0.9389692571359262
 outer loop
  vertex -27.528720721929457 135.77806279671364 335.8003120475489
  vertex -30.727935470554137 118.60083521591417 332.3275857866673
  vertex -29.469894243196517 118.80771106439695 332.0448157016928
 endloop
endfacet
facet normal 0.5592868572909229 -0.2395951752465679 0.793594583688806
 outer loop
  vertex -27.528720721929457 135.77806279671364 335.8003120475489
  vertex -29.469894243196517 118.80771106439695 332.0448157016928
  vertex -28.399851316105018 119.30777364406673 331.44167604539086
 endloop
endfacet
facet normal 0.25868437918773574 -0.25988516025485314 0.9303451485570099
 outer loop
  vertex -27.528720721929457 135.77806279671364 335.8003120475489
  vertex -28.399851316105018 119.30777364406673 331.44167604539086
  vertex -27.1279623224876 119.76106193049993 331.21464748929435
 endloop
endfacet
facet normal -0.007722284897678202 -0.27541189490929785 0.9612953003413827
 outer loop
  vertex -27.528720721929457 135.77806279671364 335.8003120475489
  vertex -27.1279623224876 119.76106193049993 331.21464748929435
  vertex -25.611489825354962 120.2697696854875 331.37257481856
 endloop
endfacet
facet normal 0.40334574530230305 -0.20476396017480764 0.8918429964741884
 outer loop
  vertex -27.528720721929457 135.77806279671364 335.8003120475489
  vertex -25.611489825354962 120.2697696854875 331.37257481856
  vertex -24.564109226371187 120.84203119288547 331.03027468612777
 endloop
endfacet
facet normal -0.7152494693354694 -0.33742394982271695 0.6120157471024469
 outer loop
  vertex -27.528720721929457 135.77806279671364 335.8003120475489
  vertex -24.564109226371187 120.84203119288547 331.03027468612777
  vertex -23.836635853426856 121.06927628945877 332.00574449200155
 endloop
endfacet
facet normal -0.5987752577689623 -0.33766022492655684 0.7262601208838741
 outer loop
  vertex -27.528720721929457 135.77806279671364 335.8003120475489
  vertex -23.836635853426856 121.06927628945877 332.00574449200155
  vertex -23.075926953999776 121.53630555609408 332.85005751006275
 endloop
endfacet
facet normal 0.0035115898941208324 -0.2017943868137469 0.9794216120685101
 outer loop
  vertex -27.528720721929457 135.77806279671364 335.8003120475489
  vertex -23.075926953999776 121.53630555609408 332.85005751006275
  vertex -22.063304892432946 122.47243816628433 333.0393022544791
 endloop
endfacet
facet normal 0.2406732717555796 -0.10144553430656461 0.96529020498072
 outer loop
  vertex -27.528720721929457 135.77806279671364 335.8003120475489
  vertex -22.063304892432946 122.47243816628433 333.0393022544791
  vertex -21.691431331494762 123.32210610809008 333.03587840511886
 endloop
endfacet
facet normal 0.2462091327591979 -0.09860654088589688 0.9641876441027865
 outer loop
  vertex -27.528720721929457 135.77806279671364 335.8003120475489
  vertex -21.691431331494762 123.32210610809008 333.03587840511886
  vertex -21.084578837915565 124.70987918243854 333.02284243246595
 endloop
endfacet
facet normal 0.13837500862159505 -0.16451003623547225 0.976621116383819
 outer loop
  vertex -27.528720721929457 135.77806279671364 335.8003120475489
  vertex -21.084578837915565 124.70987918243854 333.02284243246595
  vertex -20.775619805717607 125.58301283184859 333.1261445604522
 endloop
endfacet
facet normal -0.17088236447645572 -0.3543420429504719 0.919369857080719
 outer loop
  vertex -27.528720721929457 135.77806279671364 335.8003120475489
  vertex -20.775619805717607 125.58301283184859 333.1261445604522
  vertex -20.588349242013926 126.48270924029858 333.5077118887979
 endloop
endfacet
facet normal -0.17643839536666192 -0.3578916986271761 0.9169422144792941
 outer loop
  vertex -27.528720721929457 135.77806279671364 335.8003120475489
  vertex -20.588349242013926 126.48270924029858 333.5077118887979
  vertex -20.282406362159566 127.9831482849317 334.152217878198
 endloop
endfacet
facet normal 0.21759449536244424 -0.004083741496389607 0.9760307160347741
 outer loop
  vertex -27.528720721929457 135.77806279671364 335.8003120475489
  vertex -20.282406362159566 127.9831482849317 334.152217878198
  vertex -20.501863160480692 129.77344744524055 334.2086338386302
 endloop
endfacet
facet normal -0.22621914549223657 -0.4881692506561162 0.8429209221075298
 outer loop
  vertex -27.528720721929457 135.77806279671364 335.8003120475489
  vertex -20.501863160480692 129.77344744524055 334.2086338386302
  vertex -20.29243870921199 131.02420913629084 334.98920435316376
 endloop
endfacet
facet normal -0.03168159236898503 -0.21477711691492993 0.9761491006781065
 outer loop
  vertex -27.528720721929457 135.77806279671364 335.8003120475489
  vertex -20.29243870921199 131.02420913629084 334.98920435316376
  vertex -21.05129626600739 132.68007860944158 335.32890763765164
 endloop
endfacet
facet normal -0.15614425229990178 -0.4595175836473961 0.8743354978453998
 outer loop
  vertex -27.528720721929457 135.77806279671364 335.8003120475489
  vertex -21.05129626600739 132.68007860944158 335.32890763765164
  vertex -22.34464364024927 133.93161083359237 335.75569152747784
 endloop
endfacet
facet normal 0.22300626219146313 0.6076903068215929 0.7622208984398621
 outer loop
  vertex -27.528720721929457 135.77806279671364 335.8003120475489
  vertex -22.34464364024927 133.93161083359237 335.75569152747784
  vertex -23.413754149797327 134.4320755958658 335.66948391171985
 endloop
endfacet
facet normal -0.24333237507450559 -0.7975692516007916 0.551971597223583
 outer loop
  vertex -27.528720721929457 135.77806279671364 335.8003120475489
  vertex -23.413754149797327 134.4320755958658 335.66948391171985
  vertex -24.673481096363084 135.14126182934004 336.13887904894733
 endloop
endfacet
facet normal -0.24445959695347702 -0.8826691313291054 0.40141588166895686
 outer loop
  vertex -27.528720721929457 135.77806279671364 335.8003120475489
  vertex -24.673481096363084 135.14126182934004 336.13887904894733
  vertex -26.5267802485381 135.9285537096628 336.74139999387467
 endloop
endfacet
endsolid
