solid
facet normal 0.13649723085726587 0.9005067811860917 -0.4128632255434751
 outer loop
  vertex -6.689391902365625 125.95973916069296 381.2463092713326
  vertex -6.6522071902834226 126.82258424443182 383.14057693883893
  vertex -4.834529975890552 127.1859666989595 384.53410446860585
 endloop
endfacet
facet normal 0.8508823564080081 -0.41153917522643146 -0.32654972486208556
 outer loop
  vertex -6.689391902365625 125.95973916069296 381.2463092713326
  vertex -4.834529975890552 127.1859666989595 384.53410446860585
  vertex -3.976221414355317 127.29529451914578 386.6327953516098
 endloop
endfacet
facet normal 0.8412487321713609 0.2416306074310725 -0.4836478265975861
 outer loop
  vertex -6.689391902365625 125.95973916069296 381.2463092713326
  vertex -3.976221414355317 127.29529451914578 386.6327953516098
  vertex -2.968950965867686 127.56741512887142 388.5207758319318
 endloop
endfacet
facet normal -0.844982281274904 0.41186557297051474 0.34113295667983884
 outer loop
  vertex -6.689391902365625 125.95973916069296 381.2463092713326
  vertex -2.968950965867686 127.56741512887142 388.5207758319318
  vertex -2.0182553999631314 128.1924338997476 390.1210234280738
 endloop
endfacet
facet normal -0.301501001398924 0.9500761784123184 -0.0803268408994805
 outer loop
  vertex -6.689391902365625 125.95973916069296 381.2463092713326
  vertex -2.0182553999631314 128.1924338997476 390.1210234280738
  vertex -0.8260149722638153 128.71200514523534 391.791331621
 endloop
endfacet
facet normal 0.7160654801348341 -0.6605169848900644 -0.22575991856617977
 outer loop
  vertex -6.689391902365625 125.95973916069296 381.2463092713326
  vertex -0.8260149722638153 128.71200514523534 391.791331621
  vertex 0.10927711586052835 129.0552693035592 393.753586808217
 endloop
endfacet
facet normal 0.3487732527064631 0.8478320427667654 -0.3994221394145388
 outer loop
  vertex -6.689391902365625 125.95973916069296 381.2463092713326
  vertex 0.10927711586052835 129.0552693035592 393.753586808217
  vertex 1.846714423411066 129.13228770452068 395.43419051819086
 endloop
endfacet
facet normal 0.4813955356339719 0.7480031195304582 -0.4568913125070167
 outer loop
  vertex -6.689391902365625 125.95973916069296 381.2463092713326
  vertex 1.846714423411066 129.13228770452068 395.43419051819086
  vertex 3.8714752073404695 128.69943573820734 396.85889736464264
 endloop
endfacet
facet normal 0.6828269032693536 0.4844141681137618 -0.546891519318262
 outer loop
  vertex -6.689391902365625 125.95973916069296 381.2463092713326
  vertex 3.8714752073404695 128.69943573820734 396.85889736464264
  vertex 5.409461397844721 128.20666837792174 398.34269228221285
 endloop
endfacet
facet normal 0.762373510680397 0.2913984391482304 -0.5778179469995904
 outer loop
  vertex -6.689391902365625 125.95973916069296 381.2463092713326
  vertex 5.409461397844721 128.20666837792174 398.34269228221285
  vertex 6.702844945408961 127.58809713102576 399.7372330093563
 endloop
endfacet
facet normal 0.5506056693256981 0.6965090018564748 -0.46011803620299135
 outer loop
  vertex -6.689391902365625 125.95973916069296 381.2463092713326
  vertex 6.702844945408961 127.58809713102576 399.7372330093563
  vertex 8.473481495027794 127.02232230641353 400.999637910852
 endloop
endfacet
facet normal 0.7512131571988961 -0.35314772838954933 -0.5576427838541154
 outer loop
  vertex -6.689391902365625 125.95973916069296 381.2463092713326
  vertex 8.473481495027794 127.02232230641353 400.999637910852
  vertex 9.91000729217931 126.4967812925437 403.2676322816541
 endloop
endfacet
facet normal 0.5432164242053155 0.7228438158835122 -0.4270980382916243
 outer loop
  vertex -6.689391902365625 125.95973916069296 381.2463092713326
  vertex 9.91000729217931 126.4967812925437 403.2676322816541
  vertex 11.551262740729088 125.77453850783631 404.132745563266
 endloop
endfacet
facet normal 0.4317257152349179 0.8365577287319478 -0.33731894892481734
 outer loop
  vertex -6.689391902365625 125.95973916069296 381.2463092713326
  vertex 11.551262740729088 125.77453850783631 404.132745563266
  vertex 13.366159987526238 125.2442711460657 405.14051151668014
 endloop
endfacet
facet normal 0.7644178463464748 -0.04686173259438318 -0.6430158117848035
 outer loop
  vertex -6.689391902365625 125.95973916069296 381.2463092713326
  vertex 13.366159987526238 125.2442711460657 405.14051151668014
  vertex 13.528703521470407 123.1308236847361 405.48776734437195
 endloop
endfacet
facet normal 0.7680642630741219 0.0018710740787329502 -0.6403700390166595
 outer loop
  vertex -6.689391902365625 125.95973916069296 381.2463092713326
  vertex 13.528703521470407 123.1308236847361 405.48776734437195
  vertex 13.421714286899764 121.25641693444983 405.3539669535504
 endloop
endfacet
facet normal 0.729273111634707 0.442241672826064 -0.5220948491056359
 outer loop
  vertex -6.689391902365625 125.95973916069296 381.2463092713326
  vertex 13.421714286899764 121.25641693444983 405.3539669535504
  vertex 14.163830157961721 119.34997534172635 404.7757142296526
 endloop
endfacet
facet normal 0.7204561123516257 0.475320789629069 -0.5049882544392295
 outer loop
  vertex -6.689391902365625 125.95973916069296 381.2463092713326
  vertex 14.163830157961721 119.34997534172635 404.7757142296526
  vertex 14.626463845202794 117.3234069990949 403.52823413171683
 endloop
endfacet
facet normal 0.7080814943369347 0.5226753406577941 -0.474795835750307
 outer loop
  vertex -6.689391902365625 125.95973916069296 381.2463092713326
  vertex 14.626463845202794 117.3234069990949 403.52823413171683
  vertex 15.015782621594191 115.66803884289374 402.2865410720795
 endloop
endfacet
facet normal 0.7020643700698685 0.5459636788245958 -0.4571972021816322
 outer loop
  vertex -6.689391902365625 125.95973916069296 381.2463092713326
  vertex 15.015782621594191 115.66803884289374 402.2865410720795
  vertex 15.147532156020018 114.28178632383694 400.8334550338878
 endloop
endfacet
facet normal 0.7034519679538968 0.5396863024862848 -0.4624867821792013
 outer loop
  vertex -6.689391902365625 125.95973916069296 381.2463092713326
  vertex 15.147532156020018 114.28178632383694 400.8334550338878
  vertex 15.166100370713197 112.94708808503863 399.3042080639913
 endloop
endfacet
facet normal 0.6988212676954926 0.565035953452866 -0.4386151013383778
 outer loop
  vertex -6.689391902365625 125.95973916069296 381.2463092713326
  vertex 15.166100370713197 112.94708808503863 399.3042080639913
  vertex 15.214390836897046 111.67151614700195 397.7379199920262
 endloop
endfacet
facet normal 0.4580304368873249 -0.2739306320566997 -0.8456773189023241
 outer loop
  vertex -6.689391902365625 125.95973916069296 381.2463092713326
  vertex 15.214390836897046 111.67151614700195 397.7379199920262
  vertex 13.686195578019412 110.38156636929283 397.32806723093586
 endloop
endfacet
facet normal 0.49508975593248244 -0.2201118761984128 -0.8404980044754001
 outer loop
  vertex -6.689391902365625 125.95973916069296 381.2463092713326
  vertex 13.686195578019412 110.38156636929283 397.32806723093586
  vertex 12.240608091477807 108.97339720395553 396.8453286679133
 endloop
endfacet
facet normal 0.5944659038219747 -0.07291625901286877 -0.8008080346529316
 outer loop
  vertex -6.689391902365625 125.95973916069296 381.2463092713326
  vertex 12.240608091477807 108.97339720395553 396.8453286679133
  vertex 11.073030021810535 107.51205090603695 396.1116578980445
 endloop
endfacet
facet normal 0.6599062397943645 0.03044594773765803 -0.750730843210014
 outer loop
  vertex -6.689391902365625 125.95973916069296 381.2463092713326
  vertex 11.073030021810535 107.51205090603695 396.1116578980445
  vertex 10.212536791737238 105.94202118334569 395.29159582083264
 endloop
endfacet
facet normal 0.8171265604886572 0.396036209129954 -0.4188788669794077
 outer loop
  vertex -6.689391902365625 125.95973916069296 381.2463092713326
  vertex 10.212536791737238 105.94202118334569 395.29159582083264
  vertex 9.330871300844775 105.80521057509797 393.4423398525869
 endloop
endfacet
facet normal 0.7057791370316284 0.14087451557375988 -0.6942839336991377
 outer loop
  vertex -6.689391902365625 125.95973916069296 381.2463092713326
  vertex 9.330871300844775 105.80521057509797 393.4423398525869
  vertex 8.334970540745571 104.99580378737161 392.2657163870221
 endloop
endfacet
facet normal 0.833776260452105 0.39454832396190104 -0.3861978347497025
 outer loop
  vertex -6.689391902365625 125.95973916069296 381.2463092713326
  vertex 8.334970540745571 104.99580378737161 392.2657163870221
  vertex 7.569284469761127 105.31074305290467 390.9343984372127
 endloop
endfacet
facet normal 0.7994759061371948 0.31091171968459286 -0.5139768263928645
 outer loop
  vertex -6.689391902365625 125.95973916069296 381.2463092713326
  vertex 7.569284469761127 105.31074305290467 390.9343984372127
  vertex 6.591855694445619 105.45405943152102 389.50073066026874
 endloop
endfacet
facet normal 0.7691712846528557 0.26389839598765663 -0.5820078792083638
 outer loop
  vertex -6.689391902365625 125.95973916069296 381.2463092713326
  vertex 6.591855694445619 105.45405943152102 389.50073066026874
  vertex 5.459402968495992 105.61876493328494 388.0787832436339
 endloop
endfacet
facet normal 0.7211588058806386 0.20884356521150757 -0.6605409464753553
 outer loop
  vertex -6.689391902365625 125.95973916069296 381.2463092713326
  vertex 5.459402968495992 105.61876493328494 388.0787832436339
  vertex 4.116516076451175 105.88903884476608 386.69811222678203
 endloop
endfacet
facet normal 0.5918009415015099 0.10140383496743338 -0.799680503633685
 outer loop
  vertex -6.689391902365625 125.95973916069296 381.2463092713326
  vertex 4.116516076451175 105.88903884476608 386.69811222678203
  vertex 2.488302981854729 105.9812334359809 385.5048492262476
 endloop
endfacet
facet normal 0.6225351658622399 0.12117689583172472 -0.7731533658863945
 outer loop
  vertex -6.689391902365625 125.95973916069296 381.2463092713326
  vertex 2.488302981854729 105.9812334359809 385.5048492262476
  vertex 0.8368169122149387 105.92689304655583 384.1665727604846
 endloop
endfacet
facet normal 0.7428868270429466 0.18532850814878446 -0.6432515108986601
 outer loop
  vertex -6.689391902365625 125.95973916069296 381.2463092713326
  vertex 0.8368169122149387 105.92689304655583 384.1665727604846
  vertex -0.280573038790343 106.75478170811995 383.1146313452741
 endloop
endfacet
facet normal 0.9220656441091842 0.3277285383497444 0.2058857768391381
 outer loop
  vertex -6.689391902365625 125.95973916069296 381.2463092713326
  vertex -0.280573038790343 106.75478170811995 383.1146313452741
  vertex -0.585783307814219 108.06214683924199 382.400463701092
 endloop
endfacet
facet normal 0.5006780525189235 0.11542274835117372 -0.8579038855774693
 outer loop
  vertex -6.689391902365625 125.95973916069296 381.2463092713326
  vertex -0.585783307814219 108.06214683924199 382.400463701092
  vertex -2.119294143336091 108.34616891732666 381.54370967286417
 endloop
endfacet
facet normal 0.37450469614402415 0.08157546895989926 -0.9236296202645542
 outer loop
  vertex -6.689391902365625 125.95973916069296 381.2463092713326
  vertex -2.119294143336091 108.34616891732666 381.54370967286417
  vertex -3.9551458537656288 108.92324847584918 380.8502936787097
 endloop
endfacet
facet normal 0.4585437415967277 0.09413437124008338 -0.8836720869155638
 outer loop
  vertex -6.689391902365625 125.95973916069296 381.2463092713326
  vertex -3.9551458537656288 108.92324847584918 380.8502936787097
  vertex -5.393259033190899 110.48959540264008 380.270903741405
 endloop
endfacet
facet normal 0.37836348416945376 0.08978861155084897 -0.9212920704548163
 outer loop
  vertex -6.689391902365625 125.95973916069296 381.2463092713326
  vertex -5.393259033190899 110.48959540264008 380.270903741405
  vertex -6.364964747724709 111.93618645148227 380.0128199419172
 endloop
endfacet
facet normal 0.7796950219824298 -0.036942236263246594 0.6250687513191561
 outer loop
  vertex -6.689391902365625 125.95973916069296 381.2463092713326
  vertex -6.364964747724709 111.93618645148227 380.0128199419172
  vertex -6.144561124807415 113.84810473745944 379.85089044157775
 endloop
endfacet
facet normal 0.1640197948668661 0.12018438241089695 -0.9791083806792497
 outer loop
  vertex -6.689391902365625 125.95973916069296 381.2463092713326
  vertex -6.144561124807415 113.84810473745944 379.85089044157775
  vertex -7.070708122642027 115.71091604353114 379.92440057302707
 endloop
endfacet
facet normal 0.17365016954446802 0.1196206221301259 -0.9775154860043799
 outer loop
  vertex -6.689391902365625 125.95973916069296 381.2463092713326
  vertex -7.070708122642027 115.71091604353114 379.92440057302707
  vertex -8.155526613743865 117.35956170434726 379.93343685413015
 endloop
endfacet
facet normal 0.2393264328802359 0.1065256190329657 -0.9650777953172818
 outer loop
  vertex -6.689391902365625 125.95973916069296 381.2463092713326
  vertex -8.155526613743865 117.35956170434726 379.93343685413015
  vertex -9.298636717344671 118.99423169324432 379.83039621690403
 endloop
endfacet
facet normal 0.9108387261374535 -0.2794443904042428 -0.30378223720274056
 outer loop
  vertex -6.689391902365625 125.95973916069296 381.2463092713326
  vertex -9.298636717344671 118.99423169324432 379.83039621690403
  vertex -8.65988701196152 120.96137614573328 379.9360326948775
 endloop
endfacet
facet normal 0.055184177012655565 0.23277441467378318 -0.9709638399449866
 outer loop
  vertex -6.689391902365625 125.95973916069296 381.2463092713326
  vertex -8.65988701196152 120.96137614573328 379.9360326948775
  vertex -8.936198567055996 122.7786674172191 380.3559977537905
 endloop
endfacet
facet normal 0.033535728488164905 0.24733324972679577 -0.9683499462974894
 outer loop
  vertex -6.689391902365625 125.95973916069296 381.2463092713326
  vertex -8.936198567055996 122.7786674172191 380.3559977537905
  vertex -8.375225093195887 124.51087011580972 380.8178596854676
 endloop
endfacet
facet normal -0.016618768001804424 0.9989834510862327 0.04190323383633843
 outer loop
  vertex 21.92587798207316 154.8649433247028 379.8349726062848
  vertex 21.732376331823495 154.7856392554375 381.64885871500934
  vertex 22.62922787883207 154.7309778232292 383.3076909247628
 endloop
endfacet
facet normal 0.09335394558703775 -0.9939855346499887 -0.05725205454748848
 outer loop
  vertex 21.92587798207316 154.8649433247028 379.8349726062848
  vertex 22.62922787883207 154.7309778232292 383.3076909247628
  vertex 21.810482548666606 154.53903454689416 385.30509929817947
 endloop
endfacet
facet normal 0.6414169580963809 0.7649123887016089 0.05910434397896882
 outer loop
  vertex 21.92587798207316 154.8649433247028 379.8349726062848
  vertex 21.810482548666606 154.53903454689416 385.30509929817947
  vertex 22.4912038525871 153.76820289490854 387.8936144873419
 endloop
endfacet
facet normal 0.7767232075156417 -0.6145110911468661 -0.13812015697971544
 outer loop
  vertex 21.92587798207316 154.8649433247028 379.8349726062848
  vertex 22.4912038525871 153.76820289490854 387.8936144873419
  vertex 22.328443850371798 152.95552165088162 390.59403255232013
 endloop
endfacet
facet normal 0.9853035535164791 -0.15799997042225658 -0.06490698555906757
 outer loop
  vertex 21.92587798207316 154.8649433247028 379.8349726062848
  vertex 22.328443850371798 152.95552165088162 390.59403255232013
  vertex 22.31941530205609 152.05509386510542 392.64884532220424
 endloop
endfacet
facet normal 0.986015469948285 0.16653709030745004 0.006236230799988828
 outer loop
  vertex 21.92587798207316 154.8649433247028 379.8349726062848
  vertex 22.31941530205609 152.05509386510542 392.64884532220424
  vertex 22.53716396045728 150.71119677981198 394.1088882239821
 endloop
endfacet
facet normal 0.9291211595087436 0.36382257105075216 0.06608333940675465
 outer loop
  vertex 21.92587798207316 154.8649433247028 379.8349726062848
  vertex 22.53716396045728 150.71119677981198 394.1088882239821
  vertex 22.93899672221191 149.46356134088452 395.3280549960887
 endloop
endfacet
facet normal 0.663818538562023 0.7186384776128727 0.20713205052727268
 outer loop
  vertex 21.92587798207316 154.8649433247028 379.8349726062848
  vertex 22.93899672221191 149.46356134088452 395.3280549960887
  vertex 23.712478758275576 148.36665572107836 396.65487462259824
 endloop
endfacet
facet normal 0.9768306098827356 -0.14317143005831842 -0.1590720000854296
 outer loop
  vertex 21.92587798207316 154.8649433247028 379.8349726062848
  vertex 23.712478758275576 148.36665572107836 396.65487462259824
  vertex 23.744981257339756 147.04371698000367 398.04516623459796
 endloop
endfacet
facet normal 0.8805434257615438 -0.39722283870001995 -0.258567770155568
 outer loop
  vertex 21.92587798207316 154.8649433247028 379.8349726062848
  vertex 23.744981257339756 147.04371698000367 398.04516623459796
  vertex 23.166749641967748 145.04897044533828 399.14043357334293
 endloop
endfacet
facet normal 0.7981174107587509 -0.5147908370097952 -0.3130479081139204
 outer loop
  vertex 21.92587798207316 154.8649433247028 379.8349726062848
  vertex 23.166749641967748 145.04897044533828 399.14043357334293
  vertex 21.771108606323093 142.52326085454658 399.7356355847301
 endloop
endfacet
facet normal 0.699982917256219 -0.6093470287476631 -0.372451492285731
 outer loop
  vertex 21.92587798207316 154.8649433247028 379.8349726062848
  vertex 21.771108606323093 142.52326085454658 399.7356355847301
  vertex 19.954106644195708 140.34808769184204 399.87945288900977
 endloop
endfacet
facet normal 0.8198345128673875 -0.4990375141359181 -0.2807720267343896
 outer loop
  vertex 21.92587798207316 154.8649433247028 379.8349726062848
  vertex 19.954106644195708 140.34808769184204 399.87945288900977
  vertex 18.3577151061726 137.77667588886442 399.7884683089567
 endloop
endfacet
facet normal 0.8455544609075993 -0.4707170336018124 -0.25191889154322916
 outer loop
  vertex 21.92587798207316 154.8649433247028 379.8349726062848
  vertex 18.3577151061726 137.77667588886442 399.7884683089567
  vertex 16.738214460386992 135.01049565124356 399.5213671034309
 endloop
endfacet
facet normal 0.9614011741009174 -0.27417319143259633 -0.02316988426907491
 outer loop
  vertex 21.92587798207316 154.8649433247028 379.8349726062848
  vertex 16.738214460386992 135.01049565124356 399.5213671034309
  vertex 16.030102913977466 132.5370438957604 399.4080687189127
 endloop
endfacet
facet normal 0.9807176923604896 -0.15730470675103533 0.11596567218399906
 outer loop
  vertex 21.92587798207316 154.8649433247028 379.8349726062848
  vertex 16.030102913977466 132.5370438957604 399.4080687189127
  vertex 15.76167860966673 130.62645736208472 399.08645811292183
 endloop
endfacet
facet normal 0.9591382831947862 -0.2793913878804965 -0.044656534665916146
 outer loop
  vertex 21.92587798207316 154.8649433247028 379.8349726062848
  vertex 15.76167860966673 130.62645736208472 399.08645811292183
  vertex 15.368552854512236 129.3291729732268 398.75925233869117
 endloop
endfacet
facet normal 0.4784509669394746 -0.5988282598673867 -0.6422533669969193
 outer loop
  vertex 21.92587798207316 154.8649433247028 379.8349726062848
  vertex 15.368552854512236 129.3291729732268 398.75925233869117
  vertex 14.770439021681405 129.99514144924763 397.6927435113686
 endloop
endfacet
facet normal 0.8217352596826656 -0.4689356201627341 -0.3238063420269191
 outer loop
  vertex 21.92587798207316 154.8649433247028 379.8349726062848
  vertex 14.770439021681405 129.99514144924763 397.6927435113686
  vertex 13.753409914547868 129.59689692286216 395.68852818489955
 endloop
endfacet
facet normal 0.8015416513077183 -0.4815963107775695 -0.3543952238170414
 outer loop
  vertex 21.92587798207316 154.8649433247028 379.8349726062848
  vertex 13.753409914547868 129.59689692286216 395.68852818489955
  vertex 12.614279655259988 129.41195359445226 393.3634620749667
 endloop
endfacet
facet normal 0.7915505936689449 -0.48628726730080396 -0.37009775914406373
 outer loop
  vertex 21.92587798207316 154.8649433247028 379.8349726062848
  vertex 12.614279655259988 129.41195359445226 393.3634620749667
  vertex 11.47522010249353 129.22764712508024 391.16945425995664
 endloop
endfacet
facet normal 0.832103382981467 -0.4696338432064769 -0.29503900309266257
 outer loop
  vertex 21.92587798207316 154.8649433247028 379.8349726062848
  vertex 11.47522010249353 129.22764712508024 391.16945425995664
  vertex 10.551374146869296 128.96884173675323 388.97587453293033
 endloop
endfacet
facet normal 0.8080808376371096 -0.4769652838119555 -0.3457014288108863
 outer loop
  vertex 21.92587798207316 154.8649433247028 379.8349726062848
  vertex 10.551374146869296 128.96884173675323 388.97587453293033
  vertex 9.521544913978625 128.8458475210977 386.73833301966323
 endloop
endfacet
facet normal 0.8802489107624134 -0.45520056670605863 -0.13399365347682687
 outer loop
  vertex 21.92587798207316 154.8649433247028 379.8349726062848
  vertex 9.521544913978625 128.8458475210977 386.73833301966323
  vertex 8.762743289922518 128.09744135794858 384.2959830651936
 endloop
endfacet
facet normal 0.8453060432139338 -0.46076246500494583 -0.270473000775621
 outer loop
  vertex 21.92587798207316 154.8649433247028 379.8349726062848
  vertex 8.762743289922518 128.09744135794858 384.2959830651936
  vertex 7.927533082066263 127.90878048160889 382.0071025342449
 endloop
endfacet
facet normal 0.8575462360332929 -0.4633312527655345 -0.22346946833035639
 outer loop
  vertex 21.92587798207316 154.8649433247028 379.8349726062848
  vertex 7.927533082066263 127.90878048160889 382.0071025342449
  vertex 7.122911739927357 127.36144828061138 380.054245652825
 endloop
endfacet
facet normal 0.8356400736794933 -0.4522446142050603 -0.3117378324545274
 outer loop
  vertex 21.92587798207316 154.8649433247028 379.8349726062848
  vertex 7.122911739927357 127.36144828061138 380.054245652825
  vertex 6.148902538006706 126.9200957260688 378.0836096197745
 endloop
endfacet
facet normal 0.8579465993824051 -0.47160594223431823 -0.20375344870074602
 outer loop
  vertex 21.92587798207316 154.8649433247028 379.8349726062848
  vertex 6.148902538006706 126.9200957260688 378.0836096197745
  vertex 5.313041527878378 126.40013098031926 375.76754748508546
 endloop
endfacet
facet normal 0.7722947426554067 -0.37774941831462994 -0.5107506313552417
 outer loop
  vertex 21.92587798207316 154.8649433247028 379.8349726062848
  vertex 5.313041527878378 126.40013098031926 375.76754748508546
  vertex 4.152860166710796 126.71042476027581 373.78377067025656
 endloop
endfacet
facet normal 0.8470167002662966 -0.5313367725224358 -0.015618695061880027
 outer loop
  vertex 21.92587798207316 154.8649433247028 379.8349726062848
  vertex 4.152860166710796 126.71042476027581 373.78377067025656
  vertex 3.7031161325393986 126.05391665755019 371.7276570689592
 endloop
endfacet
facet normal 0.7812334878124544 -0.3483629085306332 -0.5179937465650192
 outer loop
  vertex 21.92587798207316 154.8649433247028 379.8349726062848
  vertex 3.7031161325393986 126.05391665755019 371.7276570689592
  vertex 3.154642688567919 127.14814800826082 370.1645582035491
 endloop
endfacet
facet normal 0.8423415586351769 -0.5145921088035208 -0.16017384353634634
 outer loop
  vertex 21.92587798207316 154.8649433247028 379.8349726062848
  vertex 3.154642688567919 127.14814800826082 370.1645582035491
  vertex 3.0470639168549867 127.5575293261228 368.28358650896826
 endloop
endfacet
facet normal 0.8090155594659748 -0.5847113809161142 0.060053522537204314
 outer loop
  vertex 21.92587798207316 154.8649433247028 379.8349726062848
  vertex 3.0470639168549867 127.5575293261228 368.28358650896826
  vertex 3.2999876992794435 127.70629592890144 366.32477136165363
 endloop
endfacet
facet normal 0.8390621774356191 -0.38347372431411414 -0.3859048654236694
 outer loop
  vertex 21.92587798207316 154.8649433247028 379.8349726062848
  vertex 3.2999876992794435 127.70629592890144 366.32477136165363
  vertex 3.358519462949104 129.0841508368562 365.0828607070214
 endloop
endfacet
facet normal 0.6541112546683497 -0.0388415761145638 -0.7554004226111697
 outer loop
  vertex 21.92587798207316 154.8649433247028 379.8349726062848
  vertex 3.358519462949104 129.0841508368562 365.0828607070214
  vertex 3.7310544009657614 131.64199052952054 365.273923309427
 endloop
endfacet
facet normal 0.7175526525278717 -0.13358268979703053 -0.6835743235646039
 outer loop
  vertex 21.92587798207316 154.8649433247028 379.8349726062848
  vertex 3.7310544009657614 131.64199052952054 365.273923309427
  vertex 4.495229804320056 133.60461512631568 365.6925514016577
 endloop
endfacet
facet normal 0.8206568609307393 -0.5288292396048581 -0.21647621565948716
 outer loop
  vertex 21.92587798207316 154.8649433247028 379.8349726062848
  vertex 4.495229804320056 133.60461512631568 365.6925514016577
  vertex 5.466539321487001 135.36010704412786 365.08627862347333
 endloop
endfacet
facet normal 0.8180257609821638 -0.338866584728052 -0.4647615432932221
 outer loop
  vertex 21.92587798207316 154.8649433247028 379.8349726062848
  vertex 5.466539321487001 135.36010704412786 365.08627862347333
  vertex 6.471461306477771 137.1702923874209 365.5351986115922
 endloop
endfacet
facet normal 0.8114883810142547 -0.3068360622317138 -0.4973311154482492
 outer loop
  vertex 21.92587798207316 154.8649433247028 379.8349726062848
  vertex 6.471461306477771 137.1702923874209 365.5351986115922
  vertex 7.305093051007831 138.73830045340605 365.92801749653216
 endloop
endfacet
facet normal 0.8139911087883153 -0.3198203901353493 -0.4849055504603366
 outer loop
  vertex 21.92587798207316 154.8649433247028 379.8349726062848
  vertex 7.305093051007831 138.73830045340605 365.92801749653216
  vertex 7.979587133530969 140.32360682051777 366.0146712484856
 endloop
endfacet
facet normal 0.7886151100949058 -0.5892015463233374 -0.17586286117366465
 outer loop
  vertex 21.92587798207316 154.8649433247028 379.8349726062848
  vertex 7.979587133530969 140.32360682051777 366.0146712484856
  vertex 8.86771441754556 141.62763273265955 365.6283276648276
 endloop
endfacet
facet normal 0.23536117969742196 0.5936831665918384 -0.7695098523066001
 outer loop
  vertex 21.92587798207316 154.8649433247028 379.8349726062848
  vertex 8.86771441754556 141.62763273265955 365.6283276648276
  vertex 9.45954991023106 143.0481278277554 366.9052692439179
 endloop
endfacet
facet normal 0.7930443017365932 -0.5499294759283653 -0.26202730199021756
 outer loop
  vertex 21.92587798207316 154.8649433247028 379.8349726062848
  vertex 9.45954991023106 143.0481278277554 366.9052692439179
  vertex 10.442327882373718 144.75324994719466 366.3010938711431
 endloop
endfacet
facet normal 0.714718558031034 -0.6938489736911094 -0.08803967579355063
 outer loop
  vertex 21.92587798207316 154.8649433247028 379.8349726062848
  vertex 10.442327882373718 144.75324994719466 366.3010938711431
  vertex 11.59880947815206 146.0339482202435 365.59627160459706
 endloop
endfacet
facet normal 0.7182895120330369 -0.6894525131197771 -0.09335635519966085
 outer loop
  vertex 21.92587798207316 154.8649433247028 379.8349726062848
  vertex 11.59880947815206 146.0339482202435 365.59627160459706
  vertex 12.785974329411982 147.21287588135462 366.0238099643522
 endloop
endfacet
facet normal 0.7097298421429895 -0.6996825296640318 -0.0820238310165318
 outer loop
  vertex 21.92587798207316 154.8649433247028 379.8349726062848
  vertex 12.785974329411982 147.21287588135462 366.0238099643522
  vertex 14.260200608695316 148.61562726875675 366.81408938008065
 endloop
endfacet
facet normal 0.6782321916892128 0.4218038773620701 -0.6017329833063588
 outer loop
  vertex 21.92587798207316 154.8649433247028 379.8349726062848
  vertex 14.260200608695316 148.61562726875675 366.81408938008065
  vertex 14.83089825029675 149.7408439978848 368.246097123348
 endloop
endfacet
facet normal -0.23603258596008767 0.9339318959294319 -0.2684396247401835
 outer loop
  vertex 21.92587798207316 154.8649433247028 379.8349726062848
  vertex 14.83089825029675 149.7408439978848 368.246097123348
  vertex 14.43015630638814 150.0708291753524 369.7465158492875
 endloop
endfacet
facet normal 0.7430584006370671 0.1891003706180589 -0.6419542531012601
 outer loop
  vertex 21.92587798207316 154.8649433247028 379.8349726062848
  vertex 14.43015630638814 150.0708291753524 369.7465158492875
  vertex 15.381895659516664 151.1522573248823 371.1667048752618
 endloop
endfacet
facet normal -0.24943330868016872 0.9439922422572464 -0.21601312709879453
 outer loop
  vertex 21.92587798207316 154.8649433247028 379.8349726062848
  vertex 15.381895659516664 151.1522573248823 371.1667048752618
  vertex 15.25946353707393 151.53013237412668 372.9594189089871
 endloop
endfacet
facet normal 0.209216293515416 0.7847278092526775 -0.5834644872767877
 outer loop
  vertex 21.92587798207316 154.8649433247028 379.8349726062848
  vertex 15.25946353707393 151.53013237412668 372.9594189089871
  vertex 15.723580219394671 152.61624789557652 374.5866059040477
 endloop
endfacet
facet normal 0.05659721175633629 0.8917562624015742 -0.4489627201550066
 outer loop
  vertex 21.92587798207316 154.8649433247028 379.8349726062848
  vertex 15.723580219394671 152.61624789557652 374.5866059040477
  vertex 17.217686192444518 153.31063689351282 376.15419256102575
 endloop
endfacet
facet normal 0.569619576486854 0.1758533800913829 -0.8028755363027152
 outer loop
  vertex 21.92587798207316 154.8649433247028 379.8349726062848
  vertex 17.217686192444518 153.31063689351282 376.15419256102575
  vertex 18.728390862152967 154.1177250555734 377.4027748009362
 endloop
endfacet
facet normal 0.6119653804909576 -0.04941217214906014 -0.7893394772365494
 outer loop
  vertex 21.92587798207316 154.8649433247028 379.8349726062848
  vertex 18.728390862152967 154.1177250555734 377.4027748009362
  vertex 20.347091675188633 154.62276498285487 378.6261188334709
 endloop
endfacet
endsolid
