solid
facet normal 0.5337740096484216 -0.359553520930873 -0.7653800181674847
 outer loop
  vertex -8.74220676628946 126.3818132091092 382.4044874882532
  vertex -7.252280143118808 126.92482175017194 383.1884685965316
  vertex -5.7154060454190105 127.1125396666466 384.1720960675574
 endloop
endfacet
facet normal 0.2310633421589311 0.6935283539523377 -0.6823695143941483
 outer loop
  vertex -8.74220676628946 126.3818132091092 382.4044874882532
  vertex -5.7154060454190105 127.1125396666466 384.1720960675574
  vertex -4.042078385330924 127.24864346123329 384.877046262644
 endloop
endfacet
facet normal 0.16308215761219744 -0.9859680063998761 0.03565529728391149
 outer loop
  vertex -8.74220676628946 126.3818132091092 382.4044874882532
  vertex -4.042078385330924 127.24864346123329 384.877046262644
  vertex -3.699221276963862 127.37313184419239 386.75131715285204
 endloop
endfacet
facet normal 0.015707488023604933 -0.9786438671900556 0.2049620843748451
 outer loop
  vertex -8.74220676628946 126.3818132091092 382.4044874882532
  vertex -3.699221276963862 127.37313184419239 386.75131715285204
  vertex -3.166156833667516 127.75335750072178 388.5259497863039
 endloop
endfacet
facet normal -0.10032146199577952 -0.9474806926887793 0.30367077772650475
 outer loop
  vertex -8.74220676628946 126.3818132091092 382.4044874882532
  vertex -3.166156833667516 127.75335750072178 388.5259497863039
  vertex -2.6025911104906383 128.2530210441292 390.2711269201278
 endloop
endfacet
facet normal -0.42905264325867354 -0.744234412552105 0.5118876522108817
 outer loop
  vertex -8.74220676628946 126.3818132091092 382.4044874882532
  vertex -2.6025911104906383 128.2530210441292 390.2711269201278
  vertex -2.0868806836647744 129.00786523801006 391.8008531082961
 endloop
endfacet
facet normal 0.33949985219068357 0.8156711430234855 -0.4684233521092482
 outer loop
  vertex -8.74220676628946 126.3818132091092 382.4044874882532
  vertex -2.0868806836647744 129.00786523801006 391.8008531082961
  vertex -0.37904293922524945 128.81219320279598 392.6979190365637
 endloop
endfacet
facet normal 0.17948440722562525 0.914806306046771 -0.3618214614695038
 outer loop
  vertex -8.74220676628946 126.3818132091092 382.4044874882532
  vertex -0.37904293922524945 128.81219320279598 392.6979190365637
  vertex 1.3475152487415667 128.82268887544177 393.58092851624673
 endloop
endfacet
facet normal 0.43343421757724204 0.7157286025774381 -0.5476014485789382
 outer loop
  vertex -8.74220676628946 126.3818132091092 382.4044874882532
  vertex 1.3475152487415667 128.82268887544177 393.58092851624673
  vertex 2.9495427732149966 128.66743095793922 394.6460298153535
 endloop
endfacet
facet normal 0.5878836919992806 0.4800496394757863 -0.6511106728663433
 outer loop
  vertex -8.74220676628946 126.3818132091092 382.4044874882532
  vertex 2.9495427732149966 128.66743095793922 394.6460298153535
  vertex 4.456579243876817 128.41360060118032 395.81957991204644
 endloop
endfacet
facet normal 0.6761940317741402 0.22953184445275054 -0.7000548291206564
 outer loop
  vertex -8.74220676628946 126.3818132091092 382.4044874882532
  vertex 4.456579243876817 128.41360060118032 395.81957991204644
  vertex 5.872223599337539 127.92021183692398 397.02520238056854
 endloop
endfacet
facet normal 0.6389887262151317 0.36497425265564754 -0.6771168308854943
 outer loop
  vertex -8.74220676628946 126.3818132091092 382.4044874882532
  vertex 5.872223599337539 127.92021183692398 397.02520238056854
  vertex 7.351861456566627 127.4981054907733 398.19400209920497
 endloop
endfacet
facet normal 0.32622605005672023 0.8595925820980838 -0.3932901690435947
 outer loop
  vertex -8.74220676628946 126.3818132091092 382.4044874882532
  vertex 7.351861456566627 127.4981054907733 398.19400209920497
  vertex 8.89600921522703 127.3659111677707 399.1859108609009
 endloop
endfacet
facet normal 0.2665516339648453 -0.9371408809345374 -0.22520478616563683
 outer loop
  vertex -8.74220676628946 126.3818132091092 382.4044874882532
  vertex 8.89600921522703 127.3659111677707 399.1859108609009
  vertex 9.115359321312875 127.01886055512627 400.88970878004375
 endloop
endfacet
facet normal 0.6728775444606155 -0.3759978672681088 -0.6370725343086814
 outer loop
  vertex -8.74220676628946 126.3818132091092 382.4044874882532
  vertex 9.115359321312875 127.01886055512627 400.88970878004375
  vertex 10.24312785322459 126.62577675999334 402.3128572290413
 endloop
endfacet
facet normal 0.710528267721766 -0.19827940773636374 -0.6751554319088481
 outer loop
  vertex -8.74220676628946 126.3818132091092 382.4044874882532
  vertex 10.24312785322459 126.62577675999334 402.3128572290413
  vertex 11.482979335325584 125.7909823612626 403.8628293026019
 endloop
endfacet
facet normal 0.6288953913461409 -0.4868883578800779 -0.6061603036362786
 outer loop
  vertex -8.74220676628946 126.3818132091092 382.4044874882532
  vertex 11.482979335325584 125.7909823612626 403.8628293026019
  vertex 11.577163469025185 124.36795381543621 405.1035703986516
 endloop
endfacet
facet normal 0.5238621272123904 -0.6682393094187438 -0.5282278836071319
 outer loop
  vertex -8.74220676628946 126.3818132091092 382.4044874882532
  vertex 11.577163469025185 124.36795381543621 405.1035703986516
  vertex 11.503882499868489 123.32907457633829 406.34513836821645
 endloop
endfacet
facet normal 0.6828966048815245 0.5221085104159228 -0.5109353485447579
 outer loop
  vertex -8.74220676628946 126.3818132091092 382.4044874882532
  vertex 11.503882499868489 123.32907457633829 406.34513836821645
  vertex 12.486682201760845 121.87152661518017 406.16928908431964
 endloop
endfacet
facet normal 0.6926404687286191 0.49477937163988894 -0.524826213597449
 outer loop
  vertex -8.74220676628946 126.3818132091092 382.4044874882532
  vertex 12.486682201760845 121.87152661518017 406.16928908431964
  vertex 13.315879690946005 120.0083390507669 405.5071060115503
 endloop
endfacet
facet normal 0.732286306897377 0.08537914785718433 -0.675623538549229
 outer loop
  vertex -8.74220676628946 126.3818132091092 382.4044874882532
  vertex 13.315879690946005 120.0083390507669 405.5071060115503
  vertex 13.2571686269605 117.916827992528 405.1791648912897
 endloop
endfacet
facet normal 0.7410972715439891 0.21260112408110743 -0.6368481735464934
 outer loop
  vertex -8.74220676628946 126.3818132091092 382.4044874882532
  vertex 13.2571686269605 117.916827992528 405.1791648912897
  vertex 13.26713129147109 115.83704640233091 404.49645805708184
 endloop
endfacet
facet normal 0.694595515009435 0.5912947676069827 -0.4097652600323532
 outer loop
  vertex -8.74220676628946 126.3818132091092 382.4044874882532
  vertex 13.26713129147109 115.83704640233091 404.49645805708184
  vertex 13.476977265636044 114.35709309217954 402.7165839505268
 endloop
endfacet
facet normal 0.7073146544919388 0.543561854279892 -0.45193637839053713
 outer loop
  vertex -8.74220676628946 126.3818132091092 382.4044874882532
  vertex 13.476977265636044 114.35709309217954 402.7165839505268
  vertex 13.546090513106833 112.90951686485144 401.083693922487
 endloop
endfacet
facet normal 0.7129846050061025 0.5047780805332908 -0.48667447276122733
 outer loop
  vertex -8.74220676628946 126.3818132091092 382.4044874882532
  vertex 13.546090513106833 112.90951686485144 401.083693922487
  vertex 13.417217950404712 111.3620605968691 399.28987442560134
 endloop
endfacet
facet normal 0.662169454809751 0.15201697281227605 -0.7337727530332185
 outer loop
  vertex -8.74220676628946 126.3818132091092 382.4044874882532
  vertex 13.417217950404712 111.3620605968691 399.28987442560134
  vertex 12.718439802688339 109.66635965434864 398.30798341615065
 endloop
endfacet
facet normal 0.7303671261795932 0.5411402277208094 -0.4168106463832621
 outer loop
  vertex -8.74220676628946 126.3818132091092 382.4044874882532
  vertex 12.718439802688339 109.66635965434864 398.30798341615065
  vertex 12.423180036416376 108.80478953022948 396.67204084594863
 endloop
endfacet
facet normal 0.7302835289342882 0.5155564420437293 -0.4482047773445676
 outer loop
  vertex -8.74220676628946 126.3818132091092 382.4044874882532
  vertex 12.423180036416376 108.80478953022948 396.67204084594863
  vertex 11.778887538824986 108.08763705103195 394.7973424450012
 endloop
endfacet
facet normal 0.7305382053670852 0.5181885712149197 -0.44474097535675605
 outer loop
  vertex -8.74220676628946 126.3818132091092 382.4044874882532
  vertex 11.778887538824986 108.08763705103195 394.7973424450012
  vertex 10.8895274115589 107.58817715754846 392.7545219939452
 endloop
endfacet
facet normal 0.5670718970013373 0.14592519193023035 -0.8106388233926561
 outer loop
  vertex -8.74220676628946 126.3818132091092 382.4044874882532
  vertex 10.8895274115589 107.58817715754846 392.7545219939452
  vertex 9.327558133019187 107.15928890335715 391.58466131705353
 endloop
endfacet
facet normal 0.762302845161821 0.5954008416659762 -0.25375620189788434
 outer loop
  vertex -8.74220676628946 126.3818132091092 382.4044874882532
  vertex 9.327558133019187 107.15928890335715 391.58466131705353
  vertex 8.796984040977183 107.13545470064595 389.93485318958193
 endloop
endfacet
facet normal 0.2875992965388056 -0.11015554736585005 -0.951394975819672
 outer loop
  vertex -8.74220676628946 126.3818132091092 382.4044874882532
  vertex 8.796984040977183 107.13545470064595 389.93485318958193
  vertex 7.134179986279197 106.38757513050724 389.5187923493829
 endloop
endfacet
facet normal 0.5161544856371916 0.10750538688134882 -0.8497218007960592
 outer loop
  vertex -8.74220676628946 126.3818132091092 382.4044874882532
  vertex 7.134179986279197 106.38757513050724 389.5187923493829
  vertex 5.732190176492056 105.41136896773307 388.5436605479298
 endloop
endfacet
facet normal 0.5788972156438288 0.16584980859993856 -0.7983557194053201
 outer loop
  vertex -8.74220676628946 126.3818132091092 382.4044874882532
  vertex 5.732190176492056 105.41136896773307 388.5436605479298
  vertex 4.3002011982155475 104.54518868221732 387.32536869721537
 endloop
endfacet
facet normal 0.7019902414691253 0.27084708815304004 -0.6586740891526999
 outer loop
  vertex -8.74220676628946 126.3818132091092 382.4044874882532
  vertex 4.3002011982155475 104.54518868221732 387.32536869721537
  vertex 2.816948118647866 104.9000156919849 385.89047799685744
 endloop
endfacet
facet normal 0.6802216728412298 0.25446911173957026 -0.6874183202152478
 outer loop
  vertex -8.74220676628946 126.3818132091092 382.4044874882532
  vertex 2.816948118647866 104.9000156919849 385.89047799685744
  vertex 1.4528915851368709 105.42027318180055 384.73329127027074
 endloop
endfacet
facet normal 0.679668882413046 0.254125414487038 -0.6880919153653763
 outer loop
  vertex -8.74220676628946 126.3818132091092 382.4044874882532
  vertex 1.4528915851368709 105.42027318180055 384.73329127027074
  vertex 0.5416084007367893 105.76821037717373 383.9616630507597
 endloop
endfacet
facet normal 0.815431712828141 0.33139660969434237 -0.47460236914417087
 outer loop
  vertex -8.74220676628946 126.3818132091092 382.4044874882532
  vertex 0.5416084007367893 105.76821037717373 383.9616630507597
  vertex -0.5349712315856727 106.89194466752203 382.89661265821024
 endloop
endfacet
facet normal 0.8095318437349155 0.3286119972119196 -0.48648982442343225
 outer loop
  vertex -8.74220676628946 126.3818132091092 382.4044874882532
  vertex -0.5349712315856727 106.89194466752203 382.89661265821024
  vertex -1.685484317188949 108.04038110830331 381.75786944274824
 endloop
endfacet
facet normal 0.7772964719399155 0.3181926619759216 -0.5427371597508662
 outer loop
  vertex -8.74220676628946 126.3818132091092 382.4044874882532
  vertex -1.685484317188949 108.04038110830331 381.75786944274824
  vertex -2.6853049706920964 109.12944764593098 380.9644391825802
 endloop
endfacet
facet normal 0.28624221089829077 0.1790609775034455 -0.941277091528084
 outer loop
  vertex -8.74220676628946 126.3818132091092 382.4044874882532
  vertex -2.6853049706920964 109.12944764593098 380.9644391825802
  vertex -4.149368830957544 109.38259263484485 380.56737386519643
 endloop
endfacet
facet normal 0.9646772750878919 0.2627245801108701 -0.019327439938250427
 outer loop
  vertex -8.74220676628946 126.3818132091092 382.4044874882532
  vertex -4.149368830957544 109.38259263484485 380.56737386519643
  vertex -4.651308583714419 111.1820146836608 379.97456536251894
 endloop
endfacet
facet normal 0.9564986213392955 0.2736149579130653 -0.10121878374224028
 outer loop
  vertex -8.74220676628946 126.3818132091092 382.4044874882532
  vertex -4.651308583714419 111.1820146836608 379.97456536251894
  vertex -5.179530382641893 112.9601879413171 379.78973186928744
 endloop
endfacet
facet normal 0.6561152583429394 0.30834920017910983 -0.6887913606590033
 outer loop
  vertex -8.74220676628946 126.3818132091092 382.4044874882532
  vertex -5.179530382641893 112.9601879413171 379.78973186928744
  vertex -5.979319684813304 114.78368246300585 379.844202808998
 endloop
endfacet
facet normal 0.3216216734957633 0.27652497680989213 -0.9055901039311733
 outer loop
  vertex -8.74220676628946 126.3818132091092 382.4044874882532
  vertex -5.979319684813304 114.78368246300585 379.844202808998
  vertex -7.056310213552794 116.49971656038383 379.9857047890151
 endloop
endfacet
facet normal 0.3451508198155408 0.2782760664983337 -0.8963444329022606
 outer loop
  vertex -8.74220676628946 126.3818132091092 382.4044874882532
  vertex -7.056310213552794 116.49971656038383 379.9857047890151
  vertex -8.396082601150495 118.03760167884023 379.94725203001974
 endloop
endfacet
facet normal 0.8153060721601482 -0.13219239188080892 0.5637385743654785
 outer loop
  vertex -8.74220676628946 126.3818132091092 382.4044874882532
  vertex -8.396082601150495 118.03760167884023 379.94725203001974
  vertex -8.110180671148287 120.02735559084736 380.00034889205904
 endloop
endfacet
facet normal 0.9259860085661673 -0.04951100707303774 0.37429743803332594
 outer loop
  vertex -8.74220676628946 126.3818132091092 382.4044874882532
  vertex -8.110180671148287 120.02735559084736 380.00034889205904
  vertex -7.985534790792839 122.03473751666736 379.95751440034775
 endloop
endfacet
facet normal 0.7711116683426239 -0.20507607057369673 0.6027691102104579
 outer loop
  vertex -8.74220676628946 126.3818132091092 382.4044874882532
  vertex -7.985534790792839 122.03473751666736 379.95751440034775
  vertex -7.720774824701374 123.9253613837932 380.2620459553503
 endloop
endfacet
facet normal 0.02972465196732781 0.6639964939572549 -0.747144631967529
 outer loop
  vertex -8.74220676628946 126.3818132091092 382.4044874882532
  vertex -7.720774824701374 123.9253613837932 380.2620459553503
  vertex -8.907067278678758 124.98330539913741 381.15505777410436
 endloop
endfacet
facet normal 0.16879675148680073 -0.9773903888411373 -0.12734082019711315
 outer loop
  vertex 21.153502607012065 155.3256248909623 381.65839248606966
  vertex 21.99998703657347 155.23087502883507 383.50769286058255
  vertex 22.365562956575484 155.09023504199646 385.07174905900064
 endloop
endfacet
facet normal 0.3410002116018752 0.9383712783793895 -0.05637552305838611
 outer loop
  vertex 21.153502607012065 155.3256248909623 381.65839248606966
  vertex 22.365562956575484 155.09023504199646 385.07174905900064
  vertex 23.716030266187477 154.67290695834433 386.29392753719355
 endloop
endfacet
facet normal 0.1539528331146748 -0.9631105387837622 -0.22071840716083618
 outer loop
  vertex 21.153502607012065 155.3256248909623 381.65839248606966
  vertex 23.716030266187477 154.67290695834433 386.29392753719355
  vertex 23.963077747769816 154.2479784935015 388.3204315708913
 endloop
endfacet
facet normal 0.45131546009715756 -0.8311628005731306 -0.3247810869196684
 outer loop
  vertex 21.153502607012065 155.3256248909623 381.65839248606966
  vertex 23.963077747769816 154.2479784935015 388.3204315708913
  vertex 24.063013991296152 153.5757878949978 390.17953795490337
 endloop
endfacet
facet normal 0.5358851596979871 -0.7721279267311669 -0.34153412769047337
 outer loop
  vertex 21.153502607012065 155.3256248909623 381.65839248606966
  vertex 24.063013991296152 153.5757878949978 390.17953795490337
  vertex 24.20525917197177 152.80726708874232 392.1401720580736
 endloop
endfacet
facet normal 0.7704759596021021 0.6333730201369795 -0.07214854841077016
 outer loop
  vertex 21.153502607012065 155.3256248909623 381.65839248606966
  vertex 24.20525917197177 152.80726708874232 392.1401720580736
  vertex 25.11098263697737 151.86360554838993 393.528258142135
 endloop
endfacet
facet normal 0.6065543573132276 -0.6857771737494123 -0.40224554638753396
 outer loop
  vertex 21.153502607012065 155.3256248909623 381.65839248606966
  vertex 25.11098263697737 151.86360554838993 393.528258142135
  vertex 24.871506806349533 150.72439220498205 395.1093605411871
 endloop
endfacet
facet normal 0.9453691195758199 0.28106483896812356 -0.1651659288360093
 outer loop
  vertex 21.153502607012065 155.3256248909623 381.65839248606966
  vertex 24.871506806349533 150.72439220498205 395.1093605411871
  vertex 25.559178476716184 149.2569313569937 396.5482282078706
 endloop
endfacet
facet normal 0.40072794578765036 -0.8008777312375988 -0.44498536276211
 outer loop
  vertex 21.153502607012065 155.3256248909623 381.65839248606966
  vertex 25.559178476716184 149.2569313569937 396.5482282078706
  vertex 24.523960653125595 148.2724086809485 397.3878998162434
 endloop
endfacet
facet normal 0.8822741319354366 -0.3290707254441186 -0.3366078040884574
 outer loop
  vertex 21.153502607012065 155.3256248909623 381.65839248606966
  vertex 24.523960653125595 148.2724086809485 397.3878998162434
  vertex 24.453152203365352 147.01244071906913 398.4340612641626
 endloop
endfacet
facet normal 0.9537038775709329 -0.14883066266427622 -0.26133952582240483
 outer loop
  vertex 21.153502607012065 155.3256248909623 381.65839248606966
  vertex 24.453152203365352 147.01244071906913 398.4340612641626
  vertex 24.55032710471738 145.5934541978462 399.5967816124569
 endloop
endfacet
facet normal 0.9176538891784992 -0.2496198485892233 -0.3091945518049562
 outer loop
  vertex 21.153502607012065 155.3256248909623 381.65839248606966
  vertex 24.55032710471738 145.5934541978462 399.5967816124569
  vertex 24.40305678500473 143.91929948199558 400.5112837063329
 endloop
endfacet
facet normal 0.6668020344360868 -0.5811394385491896 -0.46653188512107985
 outer loop
  vertex 21.153502607012065 155.3256248909623 381.65839248606966
  vertex 24.40305678500473 143.91929948199558 400.5112837063329
  vertex 23.988430856363664 142.6003606392283 401.56161698782233
 endloop
endfacet
facet normal 0.5784931226415292 -0.6473417889092052 -0.4962804805634439
 outer loop
  vertex 21.153502607012065 155.3256248909623 381.65839248606966
  vertex 23.988430856363664 142.6003606392283 401.56161698782233
  vertex 22.766383107385078 141.28724417669855 401.8499397149504
 endloop
endfacet
facet normal 0.622047621068635 -0.618707777958521 -0.4798514797481417
 outer loop
  vertex 21.153502607012065 155.3256248909623 381.65839248606966
  vertex 22.766383107385078 141.28724417669855 401.8499397149504
  vertex 21.34108710675172 140.2229831498961 401.37451050178726
 endloop
endfacet
facet normal 0.7892141561621874 -0.4838759551064096 -0.3781601192392796
 outer loop
  vertex 21.153502607012065 155.3256248909623 381.65839248606966
  vertex 21.34108710675172 140.2229831498961 401.37451050178726
  vertex 20.4960063115284 138.5221726187271 401.7871177165493
 endloop
endfacet
facet normal 0.9224745231925481 -0.31065546588237664 -0.2292028262872966
 outer loop
  vertex 21.153502607012065 155.3256248909623 381.65839248606966
  vertex 20.4960063115284 138.5221726187271 401.7871177165493
  vertex 20.06859509031773 136.68179466478276 402.5613119577946
 endloop
endfacet
facet normal 0.833201138344412 -0.4334506863500175 -0.34336040185827293
 outer loop
  vertex 21.153502607012065 155.3256248909623 381.65839248606966
  vertex 20.06859509031773 136.68179466478276 402.5613119577946
  vertex 18.918422425834642 135.37154047323688 401.424329962758
 endloop
endfacet
facet normal 0.5259071243896388 -0.6275761832315897 -0.5740817282902246
 outer loop
  vertex 21.153502607012065 155.3256248909623 381.65839248606966
  vertex 18.918422425834642 135.37154047323688 401.424329962758
  vertex 17.174882885022722 134.53098215941765 400.74598493171584
 endloop
endfacet
facet normal 0.2924517305757818 -0.6764244204954754 -0.6759600495891681
 outer loop
  vertex 21.153502607012065 155.3256248909623 381.65839248606966
  vertex 17.174882885022722 134.53098215941765 400.74598493171584
  vertex 15.02051328146117 133.5790651407848 400.7664754900491
 endloop
endfacet
facet normal 0.5448390739807564 -0.6349328748411349 -0.547732259329103
 outer loop
  vertex 21.153502607012065 155.3256248909623 381.65839248606966
  vertex 15.02051328146117 133.5790651407848 400.7664754900491
  vertex 13.299663015260874 132.57379836254262 400.22002321358264
 endloop
endfacet
facet normal 0.7019638375397471 -0.5797795329300577 -0.413645335984676
 outer loop
  vertex 21.153502607012065 155.3256248909623 381.65839248606966
  vertex 13.299663015260874 132.57379836254262 400.22002321358264
  vertex 11.76351765278721 131.78577355202486 398.7176786129786
 endloop
endfacet
facet normal 0.8257957476874871 -0.5075671107658188 -0.24583940117504177
 outer loop
  vertex 21.153502607012065 155.3256248909623 381.65839248606966
  vertex 11.76351765278721 131.78577355202486 398.7176786129786
  vertex 10.860224622377265 131.218583411762 396.8544765367823
 endloop
endfacet
facet normal 0.8276559629556757 -0.5061911755877624 -0.2423965774118774
 outer loop
  vertex 21.153502607012065 155.3256248909623 381.65839248606966
  vertex 10.860224622377265 131.218583411762 396.8544765367823
  vertex 10.166862030486312 130.83539394744696 395.28721613108377
 endloop
endfacet
facet normal 0.5825086231068103 -0.5788664911914276 -0.5706113295246886
 outer loop
  vertex 21.153502607012065 155.3256248909623 381.65839248606966
  vertex 10.166862030486312 130.83539394744696 395.28721613108377
  vertex 8.833144720307988 130.81740260151733 393.9439423350411
 endloop
endfacet
facet normal 0.8184662952474222 -0.5266173859315381 -0.22975433048931443
 outer loop
  vertex 21.153502607012065 155.3256248909623 381.65839248606966
  vertex 8.833144720307988 130.81740260151733 393.9439423350411
  vertex 7.9868680948647945 130.37184156373144 391.95047085437824
 endloop
endfacet
facet normal 0.8608228606115083 -0.49780468755506524 -0.10570948726024339
 outer loop
  vertex 21.153502607012065 155.3256248909623 381.65839248606966
  vertex 7.9868680948647945 130.37184156373144 391.95047085437824
  vertex 7.437060880082002 129.8093714086055 390.12200356546964
 endloop
endfacet
facet normal 0.8891706424736777 -0.4493764863204459 0.08623422815354197
 outer loop
  vertex 21.153502607012065 155.3256248909623 381.65839248606966
  vertex 7.437060880082002 129.8093714086055 390.12200356546964
  vertex 7.225887616593791 129.03610423804065 388.26985017874335
 endloop
endfacet
facet normal 0.8847386155445166 -0.4157103237633869 0.21076647950020927
 outer loop
  vertex 21.153502607012065 155.3256248909623 381.65839248606966
  vertex 7.225887616593791 129.03610423804065 388.26985017874335
  vertex 7.301831574624374 128.22166891020174 386.3446876620596
 endloop
endfacet
facet normal 0.8699822208859126 -0.47025230987194727 -0.14830273228269664
 outer loop
  vertex 21.153502607012065 155.3256248909623 381.65839248606966
  vertex 7.301831574624374 128.22166891020174 386.3446876620596
  vertex 6.721715760819321 127.76554658878067 384.38789385006453
 endloop
endfacet
facet normal 0.8843161829697265 -0.45117549188802103 0.12010646967359988
 outer loop
  vertex 21.153502607012065 155.3256248909623 381.65839248606966
  vertex 6.721715760819321 127.76554658878067 384.38789385006453
  vertex 6.711130396856933 127.32484918142977 382.8103679982461
 endloop
endfacet
facet normal 0.8628555133419791 -0.45417377518072977 -0.22182548328231771
 outer loop
  vertex 21.153502607012065 155.3256248909623 381.65839248606966
  vertex 6.711130396856933 127.32484918142977 382.8103679982461
  vertex 6.065284082594967 126.97998626919028 381.00424384906074
 endloop
endfacet
facet normal 0.8821403855483771 -0.47019005423404536 0.02737979335104524
 outer loop
  vertex 21.153502607012065 155.3256248909623 381.65839248606966
  vertex 6.065284082594967 126.97998626919028 381.00424384906074
  vertex 5.790712456087779 126.33580507514297 378.78812522026027
 endloop
endfacet
facet normal 0.8614799669979848 -0.42974876182787364 -0.2704963367008151
 outer loop
  vertex 21.153502607012065 155.3256248909623 381.65839248606966
  vertex 5.790712456087779 126.33580507514297 378.78812522026027
  vertex 5.1199219601893144 126.04621736436201 377.11186364995297
 endloop
endfacet
facet normal 0.7578586625710666 -0.32737759305597364 -0.5643351478783433
 outer loop
  vertex 21.153502607012065 155.3256248909623 381.65839248606966
  vertex 5.1199219601893144 126.04621736436201 377.11186364995297
  vertex 3.889663221752658 126.02282631128537 375.47329029695663
 endloop
endfacet
facet normal 0.8628878068357319 -0.4682122546541096 -0.19026801466861443
 outer loop
  vertex 21.153502607012065 155.3256248909623 381.65839248606966
  vertex 3.889663221752658 126.02282631128537 375.47329029695663
  vertex 3.408335325280011 125.76253388710106 373.9309403088594
 endloop
endfacet
facet normal 0.8036029577304309 -0.5449210899298789 0.23933928235151028
 outer loop
  vertex 21.153502607012065 155.3256248909623 381.65839248606966
  vertex 3.408335325280011 125.76253388710106 373.9309403088594
  vertex 3.470748427560481 125.22054357421656 372.48739413362375
 endloop
endfacet
facet normal 0.7908828118090823 -0.3024779484882859 -0.5319882222975219
 outer loop
  vertex 21.153502607012065 155.3256248909623 381.65839248606966
  vertex 3.470748427560481 125.22054357421656 372.48739413362375
  vertex 2.5690159669608206 125.40086089857031 371.044304444588
 endloop
endfacet
facet normal 0.8622774267592492 -0.46166819220587163 -0.20818289941013343
 outer loop
  vertex 21.153502607012065 155.3256248909623 381.65839248606966
  vertex 2.5690159669608206 125.40086089857031 371.044304444588
  vertex 2.254757325915428 125.61391300726376 369.27020332845353
 endloop
endfacet
facet normal 0.8473978989775874 -0.3877852659941179 -0.3626835925241744
 outer loop
  vertex 21.153502607012065 155.3256248909623 381.65839248606966
  vertex 2.254757325915428 125.61391300726376 369.27020332845353
  vertex 2.0192356900819664 126.58220665260508 367.6846048617961
 endloop
endfacet
facet normal 0.826491467227339 -0.5623895717707165 0.025096297813633553
 outer loop
  vertex 21.153502607012065 155.3256248909623 381.65839248606966
  vertex 2.0192356900819664 126.58220665260508 367.6846048617961
  vertex 2.5682140877271853 127.33113021135503 366.38803267042505
 endloop
endfacet
facet normal 0.8459380158366043 -0.3354965816369569 -0.4145249293737898
 outer loop
  vertex 21.153502607012065 155.3256248909623 381.65839248606966
  vertex 2.5682140877271853 127.33113021135503 366.38803267042505
  vertex 2.705059906328136 128.68605725363847 365.5706866273232
 endloop
endfacet
facet normal 0.8340908063515984 -0.2968404693632194 -0.4649497419162246
 outer loop
  vertex 21.153502607012065 155.3256248909623 381.65839248606966
  vertex 2.705059906328136 128.68605725363847 365.5706866273232
  vertex 3.1045408036564055 130.52621384753715 365.1125089275526
 endloop
endfacet
facet normal 0.7876962513077589 -0.18023708287668258 -0.5891088266456443
 outer loop
  vertex 21.153502607012065 155.3256248909623 381.65839248606966
  vertex 3.1045408036564055 130.52621384753715 365.1125089275526
  vertex 3.7097414871075296 132.63840165553077 365.275500443381
 endloop
endfacet
facet normal 0.7297975262371721 -0.6675803641236676 0.14741786911570584
 outer loop
  vertex 21.153502607012065 155.3256248909623 381.65839248606966
  vertex 3.7097414871075296 132.63840165553077 365.275500443381
  vertex 5.257960573666284 134.28518827068837 365.0684424290035
 endloop
endfacet
facet normal 0.01885878872208842 0.6102288446921517 -0.7920006964603108
 outer loop
  vertex 21.153502607012065 155.3256248909623 381.65839248606966
  vertex 5.257960573666284 134.28518827068837 365.0684424290035
  vertex 5.5559023942270285 135.85409823867607 366.2843667878337
 endloop
endfacet
facet normal 0.7910908979538049 -0.6110239968719725 -0.02872048783085969
 outer loop
  vertex 21.153502607012065 155.3256248909623 381.65839248606966
  vertex 5.5559023942270285 135.85409823867607 366.2843667878337
  vertex 6.808151841453367 137.48878350192015 365.99924685690155
 endloop
endfacet
facet normal 0.8074695540070671 -0.5853836069615923 -0.07293114596840095
 outer loop
  vertex 21.153502607012065 155.3256248909623 381.65839248606966
  vertex 6.808151841453367 137.48878350192015 365.99924685690155
  vertex 8.002265220592097 139.20101069448066 365.47684272179754
 endloop
endfacet
facet normal 0.8563289081375014 -0.23901391747657474 -0.4577915992463556
 outer loop
  vertex 21.153502607012065 155.3256248909623 381.65839248606966
  vertex 8.002265220592097 139.20101069448066 365.47684272179754
  vertex 8.678299320322395 141.05746588415656 365.7721493967216
 endloop
endfacet
facet normal 0.80596026103931 -0.04772565638252332 -0.590042641974548
 outer loop
  vertex 21.153502607012065 155.3256248909623 381.65839248606966
  vertex 8.678299320322395 141.05746588415656 365.7721493967216
  vertex 9.216915832407215 142.9261858835359 366.3567132766476
 endloop
endfacet
facet normal 0.8095527006908642 -0.058484671771900934 -0.5841266711697567
 outer loop
  vertex 21.153502607012065 155.3256248909623 381.65839248606966
  vertex 9.216915832407215 142.9261858835359 366.3567132766476
  vertex 9.838186473727148 144.96239173128893 367.01387295419823
 endloop
endfacet
facet normal 0.8192738600808573 -0.5013817346134429 -0.2782205930268764
 outer loop
  vertex 21.153502607012065 155.3256248909623 381.65839248606966
  vertex 9.838186473727148 144.96239173128893 367.01387295419823
  vertex 11.043754701027478 146.75242667713312 367.3380750846869
 endloop
endfacet
facet normal 0.7931477959131111 -0.5679304749676883 -0.21993533013399616
 outer loop
  vertex 21.153502607012065 155.3256248909623 381.65839248606966
  vertex 11.043754701027478 146.75242667713312 367.3380750846869
  vertex 12.25122591832007 148.19221653192525 367.9746376526613
 endloop
endfacet
facet normal 0.7570789558068126 -0.6327448645690011 -0.16268187064335937
 outer loop
  vertex 21.153502607012065 155.3256248909623 381.65839248606966
  vertex 12.25122591832007 148.19221653192525 367.9746376526613
  vertex 13.481236758515418 149.4582164430342 368.77472914234244
 endloop
endfacet
facet normal 0.7772556022678995 -0.5999239877743872 -0.1896442396595317
 outer loop
  vertex 21.153502607012065 155.3256248909623 381.65839248606966
  vertex 13.481236758515418 149.4582164430342 368.77472914234244
  vertex 14.675766552736624 150.70571263011036 369.72414942356755
 endloop
endfacet
facet normal 0.66358310493986 -0.7446370963261524 -0.07192397106202601
 outer loop
  vertex 21.153502607012065 155.3256248909623 381.65839248606966
  vertex 14.675766552736624 150.70571263011036 369.72414942356755
  vertex 15.959641105215045 151.73037462075166 370.9609572797866
 endloop
endfacet
facet normal 0.32185144418871486 -0.9335977799979839 0.1575018509620583
 outer loop
  vertex 21.153502607012065 155.3256248909623 381.65839248606966
  vertex 15.959641105215045 151.73037462075166 370.9609572797866
  vertex 17.557133148363974 152.3919320340209 371.6179235984036
 endloop
endfacet
facet normal 0.6879816644348844 -0.7249018651079178 -0.03461958065124768
 outer loop
  vertex 21.153502607012065 155.3256248909623 381.65839248606966
  vertex 17.557133148363974 152.3919320340209 371.6179235984036
  vertex 18.358256991859598 153.09018965265835 372.9174848393011
 endloop
endfacet
facet normal 0.4436780603041791 -0.8920264629596376 0.08624713435494308
 outer loop
  vertex 21.153502607012065 155.3256248909623 381.65839248606966
  vertex 18.358256991859598 153.09018965265835 372.9174848393011
  vertex 19.39357135544843 153.7615441920039 374.5351588353781
 endloop
endfacet
facet normal 0.2863545464447668 0.91857231100599 -0.27244445889672
 outer loop
  vertex 21.153502607012065 155.3256248909623 381.65839248606966
  vertex 19.39357135544843 153.7615441920039 374.5351588353781
  vertex 19.595835463548116 154.2788514794739 376.4919004026221
 endloop
endfacet
facet normal 0.40772747879094695 0.863171858689637 -0.29781310482424245
 outer loop
  vertex 21.153502607012065 155.3256248909623 381.65839248606966
  vertex 19.595835463548116 154.2788514794739 376.4919004026221
  vertex 19.674795155378064 154.78510948225025 378.06732367886036
 endloop
endfacet
facet normal 0.06794662768358978 -0.9903145248239651 0.1210801292909455
 outer loop
  vertex 21.153502607012065 155.3256248909623 381.65839248606966
  vertex 19.674795155378064 154.78510948225025 378.06732367886036
  vertex 20.734763679098922 155.03902351652252 379.5492635364544
 endloop
endfacet
endsolid
