solid
facet normal 0.6762939784440141 0.47400129252080225 0.563869869215386
 outer loop
  vertex -6.451478850537425 115.06834364661717 363.13577763066166
  vertex -6.786724189808136 113.93019742530949 364.4946145291359
  vertex -6.720699845597868 112.38214300515338 365.71675454272685
 endloop
endfacet
facet normal -0.07203507358161952 0.6947871243733562 0.7155989099901516
 outer loop
  vertex -6.451478850537425 115.06834364661717 363.13577763066166
  vertex -6.720699845597868 112.38214300515338 365.71675454272685
  vertex -5.884202039924213 110.88409568512158 367.2554393496361
 endloop
endfacet
facet normal -0.8833362628241176 -0.38417554593669506 -0.26856320798680466
 outer loop
  vertex -6.451478850537425 115.06834364661717 363.13577763066166
  vertex -5.884202039924213 110.88409568512158 367.2554393496361
  vertex -5.89526511054257 109.88736305545797 368.7176378263113
 endloop
endfacet
facet normal -0.5459763997532739 -0.6404851959785398 -0.5400819240122601
 outer loop
  vertex -6.451478850537425 115.06834364661717 363.13577763066166
  vertex -5.89526511054257 109.88736305545797 368.7176378263113
  vertex -6.938029636837133 109.53729586796297 370.1869291278049
 endloop
endfacet
facet normal -0.6450610975920004 -0.5789816873718664 -0.49867462945434693
 outer loop
  vertex -6.451478850537425 115.06834364661717 363.13577763066166
  vertex -6.938029636837133 109.53729586796297 370.1869291278049
  vertex -8.092733346627426 109.22081707354123 372.0480421943712
 endloop
endfacet
facet normal 0.9586072516014056 -0.28455017643637137 -0.010165346390045949
 outer loop
  vertex -6.451478850537425 115.06834364661717 363.13577763066166
  vertex -8.092733346627426 109.22081707354123 372.0480421943712
  vertex -8.517919445105848 107.7349070364307 373.5462189767938
 endloop
endfacet
facet normal 0.9648300436479877 -0.2627967042632308 0.006393676767395999
 outer loop
  vertex -6.451478850537425 115.06834364661717 363.13577763066166
  vertex -8.517919445105848 107.7349070364307 373.5462189767938
  vertex -8.989963916508497 106.02739582298159 374.59637662544327
 endloop
endfacet
facet normal 0.5515540696910256 -0.709954432644914 -0.4378958914800477
 outer loop
  vertex -6.451478850537425 115.06834364661717 363.13577763066166
  vertex -8.989963916508497 106.02739582298159 374.59637662544327
  vertex -9.798414513691286 104.4768862215276 376.0919077782408
 endloop
endfacet
facet normal 0.40388132504287994 0.65437447689313 0.6392760900209313
 outer loop
  vertex -6.451478850537425 115.06834364661717 363.13577763066166
  vertex -9.798414513691286 104.4768862215276 376.0919077782408
  vertex -9.547929160222427 102.83166325460503 377.6177360973599
 endloop
endfacet
facet normal 0.0915939897925491 0.7508842519776178 0.6540515126241173
 outer loop
  vertex -6.451478850537425 115.06834364661717 363.13577763066166
  vertex -9.547929160222427 102.83166325460503 377.6177360973599
  vertex -9.20783158658212 101.47971374090721 379.1222150055549
 endloop
endfacet
facet normal -0.6425874200427055 -0.5255770130040754 -0.5575394255158765
 outer loop
  vertex -6.451478850537425 115.06834364661717 363.13577763066166
  vertex -9.20783158658212 101.47971374090721 379.1222150055549
  vertex -10.311796801646679 101.22565737928902 380.63407283024463
 endloop
endfacet
facet normal 0.32380488081120284 0.7059528272912703 0.6299055522872494
 outer loop
  vertex -6.451478850537425 115.06834364661717 363.13577763066166
  vertex -10.311796801646679 101.22565737928902 380.63407283024463
  vertex -10.085268814309622 99.73686164075608 382.1861605827441
 endloop
endfacet
facet normal 0.3528120401085607 -0.7606748755702359 -0.5448829213974702
 outer loop
  vertex -6.451478850537425 115.06834364661717 363.13577763066166
  vertex -10.085268814309622 99.73686164075608 382.1861605827441
  vertex -10.842987670291485 98.6645906690923 383.19246346178085
 endloop
endfacet
facet normal -0.14757841442959058 -0.7495196519030406 -0.6453223248932216
 outer loop
  vertex -6.451478850537425 115.06834364661717 363.13577763066166
  vertex -10.842987670291485 98.6645906690923 383.19246346178085
  vertex -12.369000328499197 98.18859281504083 384.09430158503085
 endloop
endfacet
facet normal 0.4003277170035778 -0.7656027946469289 -0.50357728287475
 outer loop
  vertex -6.451478850537425 115.06834364661717 363.13577763066166
  vertex -12.369000328499197 98.18859281504083 384.09430158503085
  vertex -13.32833184422306 97.13793002978119 384.92901630188106
 endloop
endfacet
facet normal 0.8153327089578943 0.29373662143870094 0.4989502689939737
 outer loop
  vertex -6.451478850537425 115.06834364661717 363.13577763066166
  vertex -13.32833184422306 97.13793002978119 384.92901630188106
  vertex -13.417909359576202 95.72633139968443 385.9064156961534
 endloop
endfacet
facet normal 0.4539709160480625 0.6057537556861504 0.6534315533050165
 outer loop
  vertex -6.451478850537425 115.06834364661717 363.13577763066166
  vertex -13.417909359576202 95.72633139968443 385.9064156961534
  vertex -13.578049662559613 94.56574169396201 387.0935799969436
 endloop
endfacet
facet normal -0.44766152173592105 -0.6092423661816796 -0.6545402212289383
 outer loop
  vertex -6.451478850537425 115.06834364661717 363.13577763066166
  vertex -13.578049662559613 94.56574169396201 387.0935799969436
  vertex -14.601948342580304 93.85599226087871 388.4544886719472
 endloop
endfacet
facet normal 0.9494754921368339 0.009601199625293608 0.3136942887546287
 outer loop
  vertex -6.451478850537425 115.06834364661717 363.13577763066166
  vertex -14.601948342580304 93.85599226087871 388.4544886719472
  vertex -15.063142754335766 92.16645973684221 389.90212207296264
 endloop
endfacet
facet normal 0.8664966573022012 -0.4811631529619955 -0.13291186220869414
 outer loop
  vertex -6.451478850537425 115.06834364661717 363.13577763066166
  vertex -15.063142754335766 92.16645973684221 389.90212207296264
  vertex -15.773700118983257 90.57575497900845 391.02837922514504
 endloop
endfacet
facet normal 0.6709652792357594 -0.6537753348990192 -0.3498333968301979
 outer loop
  vertex -6.451478850537425 115.06834364661717 363.13577763066166
  vertex -15.773700118983257 90.57575497900845 391.02837922514504
  vertex -17.00620926435814 88.94192882806257 391.71780567299044
 endloop
endfacet
facet normal 0.9624477622655607 -0.22853836822376739 0.14650774436743128
 outer loop
  vertex -6.451478850537425 115.06834364661717 363.13577763066166
  vertex -17.00620926435814 88.94192882806257 391.71780567299044
  vertex -17.558379485788738 87.00909520358286 392.3301170003285
 endloop
endfacet
facet normal 0.5033034636852031 -0.7106717132530357 -0.4915601076414485
 outer loop
  vertex -6.451478850537425 115.06834364661717 363.13577763066166
  vertex -17.558379485788738 87.00909520358286 392.3301170003285
  vertex -18.828655071445517 86.4051131022814 391.9027000799486
 endloop
endfacet
facet normal 0.8106179021320299 -0.5504677821634085 -0.19970938271189229
 outer loop
  vertex -6.451478850537425 115.06834364661717 363.13577763066166
  vertex -18.828655071445517 86.4051131022814 391.9027000799486
  vertex -19.738857089887613 85.0722872633696 391.881928060659
 endloop
endfacet
facet normal 0.8140224688042315 -0.5472142833437015 -0.1947407209252938
 outer loop
  vertex -6.451478850537425 115.06834364661717 363.13577763066166
  vertex -19.738857089887613 85.0722872633696 391.881928060659
  vertex -20.810922774900884 83.52269763258272 391.7549490896999
 endloop
endfacet
facet normal 0.8208194767614743 -0.540691720335001 -0.1841408431885682
 outer loop
  vertex -6.451478850537425 115.06834364661717 363.13577763066166
  vertex -20.810922774900884 83.52269763258272 391.7549490896999
  vertex -22.03673936609298 81.7884245368076 391.38313027907157
 endloop
endfacet
facet normal 0.4835836496078688 -0.6869177225480255 -0.5424858489226864
 outer loop
  vertex -6.451478850537425 115.06834364661717 363.13577763066166
  vertex -22.03673936609298 81.7884245368076 391.38313027907157
  vertex -23.76853439757121 81.09427366072337 390.71833280369646
 endloop
endfacet
facet normal 0.5393774968464639 -0.6791242418419842 -0.49785759011809105
 outer loop
  vertex -6.451478850537425 115.06834364661717 363.13577763066166
  vertex -23.76853439757121 81.09427366072337 390.71833280369646
  vertex -25.48117773010983 80.19921301792533 390.08380618499467
 endloop
endfacet
facet normal 0.8631171487668864 -0.5032782726207908 -0.04171052399998413
 outer loop
  vertex -6.451478850537425 115.06834364661717 363.13577763066166
  vertex -25.48117773010983 80.19921301792533 390.08380618499467
  vertex -26.33026055774035 78.82882678508719 389.04875965416466
 endloop
endfacet
facet normal 0.34081634735421296 -0.6633264074808085 -0.6662149011503248
 outer loop
  vertex -6.451478850537425 115.06834364661717 363.13577763066166
  vertex -26.33026055774035 78.82882678508719 389.04875965416466
  vertex -28.097239248297544 78.5238619936859 388.4484668312489
 endloop
endfacet
facet normal 0.8745746193023489 -0.48211138817933763 0.051844427472425285
 outer loop
  vertex -6.451478850537425 115.06834364661717 363.13577763066166
  vertex -28.097239248297544 78.5238619936859 388.4484668312489
  vertex -28.689385557632754 77.28114531560517 386.88124478470974
 endloop
endfacet
facet normal 0.6295134863704525 -0.643816409564896 -0.4349864380100651
 outer loop
  vertex -6.451478850537425 115.06834364661717 363.13577763066166
  vertex -28.689385557632754 77.28114531560517 386.88124478470974
  vertex -30.088922578535005 76.74679028407863 385.64672148793994
 endloop
endfacet
facet normal 0.8801922480420596 -0.4432584736982437 0.1696571011816744
 outer loop
  vertex -6.451478850537425 115.06834364661717 363.13577763066166
  vertex -30.088922578535005 76.74679028407863 385.64672148793994
  vertex -30.276130342788836 75.75740091241921 384.03301715137735
 endloop
endfacet
facet normal 0.8387001114311644 -0.541089124754531 -0.06168210565251601
 outer loop
  vertex -6.451478850537425 115.06834364661717 363.13577763066166
  vertex -30.276130342788836 75.75740091241921 384.03301715137735
  vertex -31.000617447183046 74.87866679609796 381.8905166660967
 endloop
endfacet
facet normal 0.6281877010187257 -0.6094382342706919 -0.4836995461004996
 outer loop
  vertex -6.451478850537425 115.06834364661717 363.13577763066166
  vertex -31.000617447183046 74.87866679609796 381.8905166660967
  vertex -32.478417060854305 74.64458793607498 380.2662047537122
 endloop
endfacet
facet normal 0.5167605584506887 -0.5939928157803859 -0.6165476948550054
 outer loop
  vertex -6.451478850537425 115.06834364661717 363.13577763066166
  vertex -32.478417060854305 74.64458793607498 380.2662047537122
  vertex -33.910366881192516 74.74653382520711 378.9677969885799
 endloop
endfacet
facet normal 0.4824609024182133 -0.5846491925658731 -0.6522398326305102
 outer loop
  vertex -6.451478850537425 115.06834364661717 363.13577763066166
  vertex -33.910366881192516 74.74653382520711 378.9677969885799
  vertex -35.395315064075284 74.67632251708693 377.932318285857
 endloop
endfacet
facet normal 0.8267300979897899 -0.5512796369584663 0.11228582703411011
 outer loop
  vertex -6.451478850537425 115.06834364661717 363.13577763066166
  vertex -35.395315064075284 74.67632251708693 377.932318285857
  vertex -35.3188461515208 74.42032094733884 376.1124305101826
 endloop
endfacet
facet normal 0.8063270219681448 -0.5891921349980496 -0.05185905610810295
 outer loop
  vertex -6.451478850537425 115.06834364661717 363.13577763066166
  vertex -35.3188461515208 74.42032094733884 376.1124305101826
  vertex -35.623726362539344 74.16371495339695 374.2874277761106
 endloop
endfacet
facet normal 0.7903892440970594 -0.5988632724783397 -0.12902567067143197
 outer loop
  vertex -6.451478850537425 115.06834364661717 363.13577763066166
  vertex -35.623726362539344 74.16371495339695 374.2874277761106
  vertex -35.99166023501019 74.08271546583586 372.4094808846965
 endloop
endfacet
facet normal 0.7883802235748278 -0.5994778130683591 -0.13814114055878488
 outer loop
  vertex -6.451478850537425 115.06834364661717 363.13577763066166
  vertex -35.99166023501019 74.08271546583586 372.4094808846965
  vertex -36.33811337110879 74.06380758498346 370.5143036422511
 endloop
endfacet
facet normal 0.8061137317094648 -0.5913773462858137 -0.02129520719292761
 outer loop
  vertex -6.451478850537425 115.06834364661717 363.13577763066166
  vertex -36.33811337110879 74.06380758498346 370.5143036422511
  vertex -36.457545974056906 73.95875494453566 368.9106324869274
 endloop
endfacet
facet normal 0.6888680559652582 -0.5663628787754925 -0.4524310897979743
 outer loop
  vertex -6.451478850537425 115.06834364661717 363.13577763066166
  vertex -36.457545974056906 73.95875494453566 368.9106324869274
  vertex -37.266854402032884 74.17002136220168 367.4139179701235
 endloop
endfacet
facet normal 0.7499904397516539 -0.5952591315883989 -0.2884110028097853
 outer loop
  vertex -6.451478850537425 115.06834364661717 363.13577763066166
  vertex -37.266854402032884 74.17002136220168 367.4139179701235
  vertex -37.87096475291846 74.32575800431471 365.5215468721323
 endloop
endfacet
facet normal 0.7883008344066588 -0.6117654036224036 -0.0657638609304778
 outer loop
  vertex -6.451478850537425 115.06834364661717 363.13577763066166
  vertex -37.87096475291846 74.32575800431471 365.5215468721323
  vertex -38.02015712332571 74.36229768311337 363.39329315576975
 endloop
endfacet
facet normal 0.6774862268764443 -0.5286448721261423 -0.5114166711864736
 outer loop
  vertex -6.451478850537425 115.06834364661717 363.13577763066166
  vertex -38.02015712332571 74.36229768311337 363.39329315576975
  vertex -38.746342343547944 75.00391694720419 361.7680641292062
 endloop
endfacet
facet normal 0.7708479928973392 -0.625480299823269 0.12069700236185317
 outer loop
  vertex -6.451478850537425 115.06834364661717 363.13577763066166
  vertex -38.746342343547944 75.00391694720419 361.7680641292062
  vertex -38.39384931239059 75.11135897058192 360.07360881896676
 endloop
endfacet
facet normal 0.7669350739295342 -0.624439848893445 0.14793737692223582
 outer loop
  vertex -6.451478850537425 115.06834364661717 363.13577763066166
  vertex -38.39384931239059 75.11135897058192 360.07360881896676
  vertex -38.04502905940051 75.09442345384136 358.19377490670496
 endloop
endfacet
facet normal 0.7749096244753809 -0.6245069180351471 0.09749965754640426
 outer loop
  vertex -6.451478850537425 115.06834364661717 363.13577763066166
  vertex -38.04502905940051 75.09442345384136 358.19377490670496
  vertex -37.72746612451879 75.18086731186328 356.2235342710522
 endloop
endfacet
facet normal 0.7884171792408655 -0.6148337321972382 -0.019437932767953775
 outer loop
  vertex -6.451478850537425 115.06834364661717 363.13577763066166
  vertex -37.72746612451879 75.18086731186328 356.2235342710522
  vertex -37.53174652129888 75.49997866429612 354.0683809010874
 endloop
endfacet
facet normal 0.7564886853586205 -0.4967163245918063 -0.42543831727806747
 outer loop
  vertex -6.451478850537425 115.06834364661717 363.13577763066166
  vertex -37.53174652129888 75.49997866429612 354.0683809010874
  vertex -37.85891346925398 76.63170664991587 352.1652945383306
 endloop
endfacet
facet normal 0.7648960592784616 -0.5143222591198824 -0.3878229393345636
 outer loop
  vertex -6.451478850537425 115.06834364661717 363.13577763066166
  vertex -37.85891346925398 76.63170664991587 352.1652945383306
  vertex -38.06208401659556 77.64727921078092 350.41775498847784
 endloop
endfacet
facet normal 0.7650564523864246 -0.5147654878194032 -0.38691745529498955
 outer loop
  vertex -6.451478850537425 115.06834364661717 363.13577763066166
  vertex -38.06208401659556 77.64727921078092 350.41775498847784
  vertex -38.16982618155294 78.72107403807202 348.77610934057367
 endloop
endfacet
facet normal 0.7624836736746418 -0.5061618138073908 -0.4030122400409631
 outer loop
  vertex -6.451478850537425 115.06834364661717 363.13577763066166
  vertex -38.16982618155294 78.72107403807202 348.77610934057367
  vertex -38.293943463786185 79.83739441363157 347.13924553876944
 endloop
endfacet
facet normal 0.7547215926155122 -0.4782105444478131 -0.44912135644926837
 outer loop
  vertex -6.451478850537425 115.06834364661717 363.13577763066166
  vertex -38.293943463786185 79.83739441363157 347.13924553876944
  vertex -38.28967879545704 81.20528345138429 345.68992607340107
 endloop
endfacet
facet normal 0.6706174963236444 -0.2757309911915795 -0.688654190520261
 outer loop
  vertex -6.451478850537425 115.06834364661717 363.13577763066166
  vertex -38.28967879545704 81.20528345138429 345.68992607340107
  vertex -38.78541336384411 82.73758120026703 344.59365705683916
 endloop
endfacet
facet normal 0.7487342369994264 -0.6292192054454393 -0.20851914502869273
 outer loop
  vertex -6.451478850537425 115.06834364661717 363.13577763066166
  vertex -38.78541336384411 82.73758120026703 344.59365705683916
  vertex -38.07338468302287 84.0822136496661 343.0928437366638
 endloop
endfacet
facet normal 0.7570233242939197 -0.5871872048344798 -0.2865778654286713
 outer loop
  vertex -6.451478850537425 115.06834364661717 363.13577763066166
  vertex -38.07338468302287 84.0822136496661 343.0928437366638
  vertex -37.337876341613416 85.55081028598912 342.0266616580336
 endloop
endfacet
facet normal 0.7603356604796705 -0.5587601744586995 -0.3311748040564481
 outer loop
  vertex -6.451478850537425 115.06834364661717 363.13577763066166
  vertex -37.337876341613416 85.55081028598912 342.0266616580336
  vertex -36.66754190885236 87.06416844110375 341.01231790669726
 endloop
endfacet
facet normal 0.7604768289162311 -0.5575167040080495 -0.3329416126492968
 outer loop
  vertex -6.451478850537425 115.06834364661717 363.13577763066166
  vertex -36.66754190885236 87.06416844110375 341.01231790669726
  vertex -35.97614003059389 88.64388024053807 339.9463033433799
 endloop
endfacet
facet normal 0.7398397173040206 -0.6372187444347632 -0.21584592755132234
 outer loop
  vertex -6.451478850537425 115.06834364661717 363.13577763066166
  vertex -35.97614003059389 88.64388024053807 339.9463033433799
  vertex -35.07721274535052 90.07071569672395 338.81519935599334
 endloop
endfacet
facet normal 0.7711403086502915 -0.5016619109848313 -0.3920177948024558
 outer loop
  vertex -6.451478850537425 115.06834364661717 363.13577763066166
  vertex -35.07721274535052 90.07071569672395 338.81519935599334
  vertex -34.380816764819706 91.73870231529959 338.0505750272598
 endloop
endfacet
facet normal 0.7713523261236389 -0.35678576562924763 -0.526990992738968
 outer loop
  vertex -6.451478850537425 115.06834364661717 363.13577763066166
  vertex -34.380816764819706 91.73870231529959 338.0505750272598
  vertex -33.95677361922994 93.65400524183208 337.37453661439105
 endloop
endfacet
facet normal 0.6889738399560201 -0.7100573036143796 -0.1453742530165948
 outer loop
  vertex -6.451478850537425 115.06834364661717 363.13577763066166
  vertex -33.95677361922994 93.65400524183208 337.37453661439105
  vertex -32.67063412274514 94.93971795616321 337.19009380562636
 endloop
endfacet
facet normal 0.7811639693228184 -0.40421104305698935 -0.4758111870296869
 outer loop
  vertex -6.451478850537425 115.06834364661717 363.13577763066166
  vertex -32.67063412274514 94.93971795616321 337.19009380562636
  vertex -32.18490880109266 96.47183398661355 336.685971361622
 endloop
endfacet
facet normal 0.757158913269761 -0.5528466143048474 -0.3479525845683894
 outer loop
  vertex -6.451478850537425 115.06834364661717 363.13577763066166
  vertex -32.18490880109266 96.47183398661355 336.685971361622
  vertex -31.44599593138544 97.93379835185068 335.97102456955923
 endloop
endfacet
facet normal 0.2866391690384617 -0.9070457487134295 0.30839260126312146
 outer loop
  vertex -6.451478850537425 115.06834364661717 363.13577763066166
  vertex -31.44599593138544 97.93379835185068 335.97102456955923
  vertex -29.878621658884136 98.56273539372768 336.36404246462047
 endloop
endfacet
facet normal 0.7742095463665898 -0.5246640458612725 -0.3540158432829241
 outer loop
  vertex -6.451478850537425 115.06834364661717 363.13577763066166
  vertex -29.878621658884136 98.56273539372768 336.36404246462047
  vertex -29.093368698744236 100.03177779444978 335.9041664603661
 endloop
endfacet
facet normal 0.6919595038127341 -0.6962428230919312 -0.1908873394864432
 outer loop
  vertex -6.451478850537425 115.06834364661717 363.13577763066166
  vertex -29.093368698744236 100.03177779444978 335.9041664603661
  vertex -28.065828261659707 101.02252592329219 336.0153058206365
 endloop
endfacet
facet normal 0.632557168078368 -0.767108816043169 -0.1068433126663663
 outer loop
  vertex -6.451478850537425 115.06834364661717 363.13577763066166
  vertex -28.065828261659707 101.02252592329219 336.0153058206365
  vertex -26.98007223805369 101.87848266967532 336.2978765165527
 endloop
endfacet
facet normal 0.6440935985029064 -0.755235361555234 -0.12150302475293345
 outer loop
  vertex -6.451478850537425 115.06834364661717 363.13577763066166
  vertex -26.98007223805369 101.87848266967532 336.2978765165527
  vertex -25.536430582138088 103.02745616270006 336.80893323972253
 endloop
endfacet
facet normal 0.1864005652560378 -0.9375550783266102 0.2936755086421297
 outer loop
  vertex -6.451478850537425 115.06834364661717 363.13577763066166
  vertex -25.536430582138088 103.02745616270006 336.80893323972253
  vertex -23.12582428408083 103.51049479952137 336.82097697611886
 endloop
endfacet
facet normal 0.7545882585204954 -0.6236015460091092 -0.2042490438608089
 outer loop
  vertex -6.451478850537425 115.06834364661717 363.13577763066166
  vertex -23.12582428408083 103.51049479952137 336.82097697611886
  vertex -21.86531981874947 104.84466475842058 337.40443831376143
 endloop
endfacet
facet normal 0.49057716458068507 -0.869859994046399 0.0517458824407709
 outer loop
  vertex -6.451478850537425 115.06834364661717 363.13577763066166
  vertex -21.86531981874947 104.84466475842058 337.40443831376143
  vertex -20.317856572331394 105.73350386280386 337.6752897451287
 endloop
endfacet
facet normal 0.8887173863365889 -0.21330927995193927 -0.40580852419515206
 outer loop
  vertex -6.451478850537425 115.06834364661717 363.13577763066166
  vertex -20.317856572331394 105.73350386280386 337.6752897451287
  vertex -19.556835783977984 106.96252843983497 338.69589437443
 endloop
endfacet
facet normal 0.5124486424644811 -0.8586596869169787 0.00999654440027234
 outer loop
  vertex -6.451478850537425 115.06834364661717 363.13577763066166
  vertex -19.556835783977984 106.96252843983497 338.69589437443
  vertex -18.336223866779306 107.69386073663826 338.94244367809625
 endloop
endfacet
facet normal 0.7098763841626192 -0.6906337476390937 -0.13820472434105202
 outer loop
  vertex -6.451478850537425 115.06834364661717 363.13577763066166
  vertex -18.336223866779306 107.69386073663826 338.94244367809625
  vertex -17.308630829651616 108.60248052969916 339.6800489749645
 endloop
endfacet
facet normal 0.8398778214486656 0.27889515692160255 -0.4656422838234494
 outer loop
  vertex -6.451478850537425 115.06834364661717 363.13577763066166
  vertex -17.308630829651616 108.60248052969916 339.6800489749645
  vertex -16.70336224239172 109.46464551351548 341.28816174076485
 endloop
endfacet
facet normal 0.8003547310863383 0.3712172847370225 -0.4707759891287867
 outer loop
  vertex -6.451478850537425 115.06834364661717 363.13577763066166
  vertex -16.70336224239172 109.46464551351548 341.28816174076485
  vertex -16.86709404808724 111.29266895789418 342.4512422435608
 endloop
endfacet
facet normal 0.44426991228044965 -0.8938443742739925 -0.06055146258395903
 outer loop
  vertex -6.451478850537425 115.06834364661717 363.13577763066166
  vertex -16.86709404808724 111.29266895789418 342.4512422435608
  vertex -15.696169139011575 111.77119609645098 343.97850371602124
 endloop
endfacet
facet normal 0.7216618282850465 -0.6506796795560679 -0.2362629048519827
 outer loop
  vertex -6.451478850537425 115.06834364661717 363.13577763066166
  vertex -15.696169139011575 111.77119609645098 343.97850371602124
  vertex -14.489904650227485 112.63885880426955 345.27343634150805
 endloop
endfacet
facet normal 0.6454530280735732 -0.7398314139623887 -0.18984169053468639
 outer loop
  vertex -6.451478850537425 115.06834364661717 363.13577763066166
  vertex -14.489904650227485 112.63885880426955 345.27343634150805
  vertex -13.399217875030946 113.19893638742839 346.7990448136916
 endloop
endfacet
facet normal 0.6005726465266269 -0.7821676750070601 -0.16591029027174156
 outer loop
  vertex -6.451478850537425 115.06834364661717 363.13577763066166
  vertex -13.399217875030946 113.19893638742839 346.7990448136916
  vertex -12.574414054917854 113.54110240575328 348.17161437353025
 endloop
endfacet
facet normal 0.7677248268037145 -0.5882463518872554 -0.25409608379615345
 outer loop
  vertex -6.451478850537425 115.06834364661717 363.13577763066166
  vertex -12.574414054917854 113.54110240575328 348.17161437353025
  vertex -11.863346128108168 114.14811487903425 348.9147648588779
 endloop
endfacet
facet normal 0.7954781725290758 -0.5437256260451556 -0.26753863386734533
 outer loop
  vertex -6.451478850537425 115.06834364661717 363.13577763066166
  vertex -11.863346128108168 114.14811487903425 348.9147648588779
  vertex -11.264495022580629 114.59258942189427 349.7920242683759
 endloop
endfacet
facet normal 0.8370361215972437 -0.46689714550023204 -0.28526757030055017
 outer loop
  vertex -6.451478850537425 115.06834364661717 363.13577763066166
  vertex -11.264495022580629 114.59258942189427 349.7920242683759
  vertex -10.347001080001982 115.36174800236913 351.22526683847775
 endloop
endfacet
facet normal 0.827697254808313 -0.4847927171525032 -0.28265398595929175
 outer loop
  vertex -6.451478850537425 115.06834364661717 363.13577763066166
  vertex -10.347001080001982 115.36174800236913 351.22526683847775
  vertex -9.472482447852906 115.79532620195849 353.04247495563294
 endloop
endfacet
facet normal 0.6449044037163707 -0.7238739637079967 -0.24516279230932705
 outer loop
  vertex -6.451478850537425 115.06834364661717 363.13577763066166
  vertex -9.472482447852906 115.79532620195849 353.04247495563294
  vertex -8.36100469584877 116.12682748028354 354.98743466217434
 endloop
endfacet
facet normal -0.8087528687956138 0.5284549654692519 0.25817464376998095
 outer loop
  vertex -6.451478850537425 115.06834364661717 363.13577763066166
  vertex -8.36100469584877 116.12682748028354 354.98743466217434
  vertex -8.054535934146715 115.65249147054712 356.9183861397835
 endloop
endfacet
facet normal -0.6652884616498731 0.7076287045683263 0.23801865319024512
 outer loop
  vertex -6.451478850537425 115.06834364661717 363.13577763066166
  vertex -8.054535934146715 115.65249147054712 356.9183861397835
  vertex -7.883017187266036 115.29075809976457 358.47323217752887
 endloop
endfacet
facet normal 0.7168303590456776 -0.6504573998507128 -0.25111632230879555
 outer loop
  vertex -6.451478850537425 115.06834364661717 363.13577763066166
  vertex -7.883017187266036 115.29075809976457 358.47323217752887
  vertex -7.086716962495552 115.68407069754562 359.72754764158645
 endloop
endfacet
facet normal -0.7765702476766168 0.5786204981448843 0.24927288169803863
 outer loop
  vertex -6.451478850537425 115.06834364661717 363.13577763066166
  vertex -7.086716962495552 115.68407069754562 359.72754764158645
  vertex -7.139424008492994 114.89545892781997 361.39389902504826
 endloop
endfacet
facet normal -0.827155775497863 -0.22829354422625703 -0.5135127853570376
 outer loop
  vertex 27.4522118788711 103.31707074433105 428.5091412799208
  vertex 27.86837167852186 101.28243497467346 428.7433423216142
  vertex 27.6184815481674 99.83428131169212 429.78966913603864
 endloop
endfacet
facet normal -0.7016769914949682 -0.2751425995617945 -0.6572259501213781
 outer loop
  vertex 27.4522118788711 103.31707074433105 428.5091412799208
  vertex 27.6184815481674 99.83428131169212 429.78966913603864
  vertex 26.62795583987171 98.86566360759888 431.2526927611763
 endloop
endfacet
facet normal 0.9800254369391214 -0.19722271780108167 -0.02556056602344893
 outer loop
  vertex 27.4522118788711 103.31707074433105 428.5091412799208
  vertex 26.62795583987171 98.86566360759888 431.2526927611763
  vertex 26.243071323200876 96.89323170961781 431.7148015800929
 endloop
endfacet
facet normal 0.9756818404459588 -0.08226311824066576 0.20316920436254285
 outer loop
  vertex 27.4522118788711 103.31707074433105 428.5091412799208
  vertex 26.243071323200876 96.89323170961781 431.7148015800929
  vertex 25.936593603675675 94.66060945396207 432.2826153745124
 endloop
endfacet
facet normal -0.2609328704787741 -0.34700134989427195 -0.9008352237092311
 outer loop
  vertex 27.4522118788711 103.31707074433105 428.5091412799208
  vertex 25.936593603675675 94.66060945396207 432.2826153745124
  vertex 24.69233207168526 92.93377430081814 433.3082001185794
 endloop
endfacet
facet normal -0.30589711739292547 -0.33123695374102713 -0.8925855891997491
 outer loop
  vertex 27.4522118788711 103.31707074433105 428.5091412799208
  vertex 24.69233207168526 92.93377430081814 433.3082001185794
  vertex 23.441910322966102 91.55260127089176 434.24928180939384
 endloop
endfacet
facet normal -0.08734045079542507 -0.4126272932295505 -0.9067030178271751
 outer loop
  vertex 27.4522118788711 103.31707074433105 428.5091412799208
  vertex 23.441910322966102 91.55260127089176 434.24928180939384
  vertex 22.211246925971146 90.27888091440494 434.9474800798888
 endloop
endfacet
facet normal -0.17466664249766542 -0.37862025215247086 -0.908921486520476
 outer loop
  vertex 27.4522118788711 103.31707074433105 428.5091412799208
  vertex 22.211246925971146 90.27888091440494 434.9474800798888
  vertex 20.987548228309546 89.28001523818187 435.5987245778194
 endloop
endfacet
facet normal 0.13526670585929595 -0.49561208698046677 -0.8579461390581817
 outer loop
  vertex 27.4522118788711 103.31707074433105 428.5091412799208
  vertex 20.987548228309546 89.28001523818187 435.5987245778194
  vertex 19.42118531398943 88.05671089777637 436.05843603009464
 endloop
endfacet
facet normal 0.8708447561432526 -0.24847937877150458 0.4241313582171522
 outer loop
  vertex 27.4522118788711 103.31707074433105 428.5091412799208
  vertex 19.42118531398943 88.05671089777637 436.05843603009464
  vertex 19.081322522850847 86.20722299736819 435.67272563189334
 endloop
endfacet
facet normal 0.043010053323759456 -0.40367250247719294 -0.9138920319473675
 outer loop
  vertex 27.4522118788711 103.31707074433105 428.5091412799208
  vertex 19.081322522850847 86.20722299736819 435.67272563189334
  vertex 17.281860747657955 85.25130294108828 436.01027501803276
 endloop
endfacet
facet normal 0.28338271728312125 -0.4994594604886686 -0.8186784978693422
 outer loop
  vertex 27.4522118788711 103.31707074433105 428.5091412799208
  vertex 17.281860747657955 85.25130294108828 436.01027501803276
  vertex 15.304110040890036 84.04475897725632 436.0617719462513
 endloop
endfacet
facet normal 0.7580494712827179 -0.5882235325060253 -0.2816985532339926
 outer loop
  vertex 27.4522118788711 103.31707074433105 428.5091412799208
  vertex 15.304110040890036 84.04475897725632 436.0617719462513
  vertex 13.675254150362152 82.1414035963374 435.6529841853278
 endloop
endfacet
facet normal 0.15921756320266423 -0.40702166242204174 -0.8994348969697601
 outer loop
  vertex 27.4522118788711 103.31707074433105 428.5091412799208
  vertex 13.675254150362152 82.1414035963374 435.6529841853278
  vertex 11.421493341102318 81.64235509720696 435.47985908770113
 endloop
endfacet
facet normal 0.18837952678189715 -0.4241926021665706 -0.8857617005473776
 outer loop
  vertex 27.4522118788711 103.31707074433105 428.5091412799208
  vertex 11.421493341102318 81.64235509720696 435.47985908770113
  vertex 9.440723166162552 81.4980181085035 435.1277216389956
 endloop
endfacet
facet normal 0.2532568474989957 -0.46619062856800936 -0.8476598769732083
 outer loop
  vertex 27.4522118788711 103.31707074433105 428.5091412799208
  vertex 9.440723166162552 81.4980181085035 435.1277216389956
  vertex 7.277760405128295 81.45583637128263 434.5046882574771
 endloop
endfacet
facet normal 0.1708636253034323 -0.4041261915426134 -0.8986031620562167
 outer loop
  vertex 27.4522118788711 103.31707074433105 428.5091412799208
  vertex 7.277760405128295 81.45583637128263 434.5046882574771
  vertex 4.961991706987849 81.49347319601412 434.04743339891553
 endloop
endfacet
facet normal 0.49614668796403855 -0.6557234131573645 -0.5690916178082148
 outer loop
  vertex 27.4522118788711 103.31707074433105 428.5091412799208
  vertex 4.961991706987849 81.49347319601412 434.04743339891553
  vertex 3.2489166343875664 81.17484249137124 432.92107186017427
 endloop
endfacet
facet normal 0.5574623598464328 -0.6986972049834624 -0.4483948406290415
 outer loop
  vertex 27.4522118788711 103.31707074433105 428.5091412799208
  vertex 3.2489166343875664 81.17484249137124 432.92107186017427
  vertex 1.9790996167516013 80.91236232812915 431.7513861562356
 endloop
endfacet
facet normal 0.6642426451329101 -0.7380636342676501 0.1185064561889486
 outer loop
  vertex 27.4522118788711 103.31707074433105 428.5091412799208
  vertex 1.9790996167516013 80.91236232812915 431.7513861562356
  vertex 1.244204609588742 80.02549361911171 430.34710031059774
 endloop
endfacet
facet normal 0.5284959351168081 -0.6387930797394185 -0.5591381294832606
 outer loop
  vertex 27.4522118788711 103.31707074433105 428.5091412799208
  vertex 1.244204609588742 80.02549361911171 430.34710031059774
  vertex -0.4787462678448349 79.77195182367214 429.0082329515251
 endloop
endfacet
facet normal 0.6062973804487181 -0.7261089369463903 -0.32429816241786713
 outer loop
  vertex 27.4522118788711 103.31707074433105 428.5091412799208
  vertex -0.4787462678448349 79.77195182367214 429.0082329515251
  vertex -1.8125635302352625 79.29743060150913 427.5770320821126
 endloop
endfacet
facet normal 0.19162915495358146 -0.1961564247722667 -0.9616657028262671
 outer loop
  vertex 27.4522118788711 103.31707074433105 428.5091412799208
  vertex -1.8125635302352625 79.29743060150913 427.5770320821126
  vertex -3.320570900145945 80.54937972413882 427.02116735668824
 endloop
endfacet
facet normal 0.2662532104090554 -0.30000078798747226 -0.9160287960286877
 outer loop
  vertex 27.4522118788711 103.31707074433105 428.5091412799208
  vertex -3.320570900145945 80.54937972413882 427.02116735668824
  vertex -4.377584432413232 81.67336853613773 426.34582747831024
 endloop
endfacet
facet normal 0.5016616178872474 -0.684944397326668 -0.5283812957605114
 outer loop
  vertex 27.4522118788711 103.31707074433105 428.5091412799208
  vertex -4.377584432413232 81.67336853613773 426.34582747831024
  vertex -5.122745342447579 82.17773845446851 424.98453028019566
 endloop
endfacet
facet normal 0.48070506098045684 -0.6409785805578825 -0.5983887562561458
 outer loop
  vertex 27.4522118788711 103.31707074433105 428.5091412799208
  vertex -5.122745342447579 82.17773845446851 424.98453028019566
  vertex -5.895610601375698 83.10513497772183 423.37025939289566
 endloop
endfacet
facet normal 0.4133337944938863 -0.4862148043169828 -0.7699028110042747
 outer loop
  vertex 27.4522118788711 103.31707074433105 428.5091412799208
  vertex -5.895610601375698 83.10513497772183 423.37025939289566
  vertex -6.124611438505923 84.75453269957912 422.2056768472657
 endloop
endfacet
facet normal 0.42163069755376154 -0.5074872320091706 -0.7514547652573631
 outer loop
  vertex 27.4522118788711 103.31707074433105 428.5091412799208
  vertex -6.124611438505923 84.75453269957912 422.2056768472657
  vertex -6.044629030194816 86.15191085970545 421.30684891087884
 endloop
endfacet
facet normal 0.48324849650558155 -0.7626136092723933 -0.42998996915931476
 outer loop
  vertex 27.4522118788711 103.31707074433105 428.5091412799208
  vertex -6.044629030194816 86.15191085970545 421.30684891087884
  vertex -6.135082458352187 87.06523970265368 419.58534715124154
 endloop
endfacet
facet normal 0.40347781696689233 -0.37576547440719993 -0.8342697162543796
 outer loop
  vertex 27.4522118788711 103.31707074433105 428.5091412799208
  vertex -6.135082458352187 87.06523970265368 419.58534715124154
  vertex -5.501711867149633 89.15830175544694 418.94892290927584
 endloop
endfacet
facet normal 0.448511792921985 -0.5914129589348255 -0.6701252745672712
 outer loop
  vertex 27.4522118788711 103.31707074433105 428.5091412799208
  vertex -5.501711867149633 89.15830175544694 418.94892290927584
  vertex -4.6887681539212505 90.7107829965099 418.1228942499918
 endloop
endfacet
facet normal 0.4381584191257564 -0.5037592779317678 -0.7444755131277871
 outer loop
  vertex 27.4522118788711 103.31707074433105 428.5091412799208
  vertex -4.6887681539212505 90.7107829965099 418.1228942499918
  vertex -3.509953480143238 92.19454170113272 417.812676337262
 endloop
endfacet
facet normal 0.44482529473971794 -0.6948891145529792 -0.5650305970790429
 outer loop
  vertex 27.4522118788711 103.31707074433105 428.5091412799208
  vertex -3.509953480143238 92.19454170113272 417.812676337262
  vertex -1.882131005363125 93.57957859852351 417.3908399759123
 endloop
endfacet
facet normal 0.44753241926813886 -0.6630858717194635 -0.6000265497709629
 outer loop
  vertex 27.4522118788711 103.31707074433105 428.5091412799208
  vertex -1.882131005363125 93.57957859852351 417.3908399759123
  vertex -0.4381503618856694 94.8700722048822 417.04172221229186
 endloop
endfacet
facet normal 0.4540303810758062 -0.4805773045669699 -0.7502678637628724
 outer loop
  vertex 27.4522118788711 103.31707074433105 428.5091412799208
  vertex -0.4381503618856694 94.8700722048822 417.04172221229186
  vertex 0.8333748185199533 96.20528360889114 416.955937869836
 endloop
endfacet
facet normal 0.3241266905133288 -0.9297906880609605 -0.17444530630545013
 outer loop
  vertex 27.4522118788711 103.31707074433105 428.5091412799208
  vertex 0.8333748185199533 96.20528360889114 416.955937869836
  vertex 1.6279166563034502 96.7082016042568 415.7516850467403
 endloop
endfacet
facet normal 0.4822293857533073 -0.28570400910146104 -0.8281473532526324
 outer loop
  vertex 27.4522118788711 103.31707074433105 428.5091412799208
  vertex 1.6279166563034502 96.7082016042568 415.7516850467403
  vertex 2.936817260803193 98.28806727408583 415.9688159451268
 endloop
endfacet
facet normal 0.4604297754253625 -0.5894935500439012 -0.6637030784608347
 outer loop
  vertex 27.4522118788711 103.31707074433105 428.5091412799208
  vertex 2.936817260803193 98.28806727408583 415.9688159451268
  vertex 4.3994048021295376 99.9691428909129 415.49034237709805
 endloop
endfacet
facet normal 0.4795453802651654 -0.5013014568666158 -0.7202312667537745
 outer loop
  vertex 27.4522118788711 103.31707074433105 428.5091412799208
  vertex 4.3994048021295376 99.9691428909129 415.49034237709805
  vertex 5.808960955124435 101.69087490881724 415.23048052972246
 endloop
endfacet
facet normal 0.4114677977682433 -0.6988406629943479 -0.5850777547859534
 outer loop
  vertex 27.4522118788711 103.31707074433105 428.5091412799208
  vertex 5.808960955124435 101.69087490881724 415.23048052972246
  vertex 7.315353587936336 103.11136894397556 414.59318586065996
 endloop
endfacet
facet normal 0.4414828217709811 -0.6395030406505244 -0.6293876222804718
 outer loop
  vertex 27.4522118788711 103.31707074433105 428.5091412799208
  vertex 7.315353587936336 103.11136894397556 414.59318586065996
  vertex 8.601678538441853 104.56911039168 414.0143061583462
 endloop
endfacet
facet normal 0.4509156891025432 -0.6220057187423204 -0.640143676976527
 outer loop
  vertex 27.4522118788711 103.31707074433105 428.5091412799208
  vertex 8.601678538441853 104.56911039168 414.0143061583462
  vertex 9.829201791088115 105.95670573630608 413.53069168641474
 endloop
endfacet
facet normal 0.4703975287225823 -0.5888789733018694 -0.6572272968879364
 outer loop
  vertex 27.4522118788711 103.31707074433105 428.5091412799208
  vertex 9.829201791088115 105.95670573630608 413.53069168641474
  vertex 10.874954299397455 107.35025744605525 413.03053914242804
 endloop
endfacet
facet normal 0.492693067622015 -0.5531288955455329 -0.6717901205211249
 outer loop
  vertex 27.4522118788711 103.31707074433105 428.5091412799208
  vertex 10.874954299397455 107.35025744605525 413.03053914242804
  vertex 11.807431845402151 108.64715749659491 412.6465982923331
 endloop
endfacet
facet normal 0.717879115103754 0.03844632624339553 -0.6951053561124656
 outer loop
  vertex 27.4522118788711 103.31707074433105 428.5091412799208
  vertex 11.807431845402151 108.64715749659491 412.6465982923331
  vertex 12.173869433217476 110.28575667098374 413.1156725223835
 endloop
endfacet
facet normal -0.024758689521794407 -0.9197221475592557 -0.39178843599850427
 outer loop
  vertex 27.4522118788711 103.31707074433105 428.5091412799208
  vertex 12.173869433217476 110.28575667098374 413.1156725223835
  vertex 13.714207653322644 110.61444699281738 412.24673282649564
 endloop
endfacet
facet normal 0.7396698499949494 -0.09288105861445038 -0.6665295356989877
 outer loop
  vertex 27.4522118788711 103.31707074433105 428.5091412799208
  vertex 13.714207653322644 110.61444699281738 412.24673282649564
  vertex 14.47924752541085 112.0713502413724 412.8927030173762
 endloop
endfacet
facet normal 0.06948830901876327 -0.8444497804646077 -0.5311082217241497
 outer loop
  vertex 27.4522118788711 103.31707074433105 428.5091412799208
  vertex 14.47924752541085 112.0713502413724 412.8927030173762
  vertex 16.655008414815264 112.33286425649482 412.7615705950639
 endloop
endfacet
facet normal 0.6572678106623865 -0.3647811109566309 -0.6594950842548559
 outer loop
  vertex 27.4522118788711 103.31707074433105 428.5091412799208
  vertex 16.655008414815264 112.33286425649482 412.7615705950639
  vertex 18.392657066081867 113.47689320071218 413.8605634348653
 endloop
endfacet
facet normal 0.28083965269297556 -0.6985300033952627 -0.658167853842698
 outer loop
  vertex 27.4522118788711 103.31707074433105 428.5091412799208
  vertex 18.392657066081867 113.47689320071218 413.8605634348653
  vertex 20.26713726569678 113.67635785454748 414.44870568559793
 endloop
endfacet
facet normal 0.326629632148684 -0.6734892240653438 -0.6631178993740678
 outer loop
  vertex 27.4522118788711 103.31707074433105 428.5091412799208
  vertex 20.26713726569678 113.67635785454748 414.44870568559793
  vertex 21.551487292528037 113.33349109807281 415.4295626994169
 endloop
endfacet
facet normal 0.6621884182571616 -0.420132451575749 -0.620479831951877
 outer loop
  vertex 27.4522118788711 103.31707074433105 428.5091412799208
  vertex 21.551487292528037 113.33349109807281 415.4295626994169
  vertex 22.550516693648646 112.77671691641709 416.87274353257413
 endloop
endfacet
facet normal 0.69926578178641 -0.38140381815428764 -0.6046143348614651
 outer loop
  vertex 27.4522118788711 103.31707074433105 428.5091412799208
  vertex 22.550516693648646 112.77671691641709 416.87274353257413
  vertex 23.48478382137483 112.01314493362322 418.43494649184805
 endloop
endfacet
facet normal 0.7773132348770221 -0.29132627556217044 -0.5575958536898333
 outer loop
  vertex 27.4522118788711 103.31707074433105 428.5091412799208
  vertex 23.48478382137483 112.01314493362322 418.43494649184805
  vertex 24.381018108381365 111.33880020530025 420.0366605381022
 endloop
endfacet
facet normal 0.7468917779653397 -0.3261002341654345 -0.5794922857856025
 outer loop
  vertex 27.4522118788711 103.31707074433105 428.5091412799208
  vertex 24.381018108381365 111.33880020530025 420.0366605381022
  vertex 25.295645603742397 110.60536541143688 421.62822790980545
 endloop
endfacet
facet normal 0.4778408113783241 -0.5241459176434002 -0.7049391576576397
 outer loop
  vertex 27.4522118788711 103.31707074433105 428.5091412799208
  vertex 25.295645603742397 110.60536541143688 421.62822790980545
  vertex 26.13881072682438 109.41705134073568 423.0833161460498
 endloop
endfacet
facet normal 0.4036206752884659 -0.5580192122384752 -0.7250551077348772
 outer loop
  vertex 27.4522118788711 103.31707074433105 428.5091412799208
  vertex 26.13881072682438 109.41705134073568 423.0833161460498
  vertex 26.915904663441047 108.42362967874743 424.28046591224455
 endloop
endfacet
facet normal 0.7693911637037565 -0.35753800274842235 -0.5293428131232619
 outer loop
  vertex 27.4522118788711 103.31707074433105 428.5091412799208
  vertex 26.915904663441047 108.42362967874743 424.28046591224455
  vertex 27.280093622864527 107.08667095112787 425.7128407395429
 endloop
endfacet
facet normal 0.9657874958525581 -0.12461343062200725 -0.22743351943690981
 outer loop
  vertex 27.4522118788711 103.31707074433105 428.5091412799208
  vertex 27.280093622864527 107.08667095112787 425.7128407395429
  vertex 27.428886732661642 105.48467131220896 427.2224387821798
 endloop
endfacet
facet normal -0.7126976953999962 0.3523776670432421 0.6065409918057445
 outer loop
  vertex 27.4522118788711 103.31707074433105 428.5091412799208
  vertex 27.428886732661642 105.48467131220896 427.2224387821798
  vertex 22.707697168360568 114.68369759065608 416.3306566432269
 endloop
endfacet
endsolid
