solid
facet normal 0.32904557310959404 0.5806111711261863 -0.7447279226539432
 outer loop
  vertex -7.74772600761994 124.72702886226995 380.60446233068393
  vertex -7.1947014147060315 126.23513728560827 382.02457141993347
  vertex -5.555003067841903 126.96504657488339 383.3181028429258
 endloop
endfacet
facet normal 0.5197857883547018 -0.8159861824324776 0.2529610331726068
 outer loop
  vertex -7.74772600761994 124.72702886226995 380.60446233068393
  vertex -5.555003067841903 126.96504657488339 383.3181028429258
  vertex -5.792384987895391 127.35538017653336 385.0649907663322
 endloop
endfacet
facet normal 0.539041120824481 0.6008003609467848 -0.5903165221696749
 outer loop
  vertex -7.74772600761994 124.72702886226995 380.60446233068393
  vertex -5.792384987895391 127.35538017653336 385.0649907663322
  vertex -4.384362702379764 127.36516978341446 386.3606744911696
 endloop
endfacet
facet normal 0.6104657666851787 0.5218170737694225 -0.595851062958013
 outer loop
  vertex -7.74772600761994 124.72702886226995 380.60446233068393
  vertex -4.384362702379764 127.36516978341446 386.3606744911696
  vertex -3.2165414168196236 127.33728079615933 387.53271564396033
 endloop
endfacet
facet normal 0.385658882126406 -0.9178824555534869 0.09358965981406142
 outer loop
  vertex -7.74772600761994 124.72702886226995 380.60446233068393
  vertex -3.2165414168196236 127.33728079615933 387.53271564396033
  vertex -2.6778787906622834 127.72270790915897 389.09310980459753
 endloop
endfacet
facet normal -0.5090533813101455 -0.6699117609162029 0.5404469331607499
 outer loop
  vertex -7.74772600761994 124.72702886226995 380.60446233068393
  vertex -2.6778787906622834 127.72270790915897 389.09310980459753
  vertex -1.8002349012011245 128.37093281317203 390.72328109871694
 endloop
endfacet
facet normal 0.8067572126053784 0.21336023222831987 -0.5510174327665848
 outer loop
  vertex -7.74772600761994 124.72702886226995 380.60446233068393
  vertex -1.8002349012011245 128.37093281317203 390.72328109871694
  vertex -0.8413745306243623 128.85921972263506 392.3162407331051
 endloop
endfacet
facet normal 0.7068287713305678 -0.6853996928826589 -0.17498671096879545
 outer loop
  vertex -7.74772600761994 124.72702886226995 380.60446233068393
  vertex -0.8413745306243623 128.85921972263506 392.3162407331051
  vertex -0.14923691352379265 129.21491494289475 393.7188008783998
 endloop
endfacet
facet normal 0.4826275642225806 0.7042713990293543 -0.5206461665678668
 outer loop
  vertex -7.74772600761994 124.72702886226995 380.60446233068393
  vertex -0.14923691352379265 129.21491494289475 393.7188008783998
  vertex 1.0207422729842546 129.3606271110082 395.000448877207
 endloop
endfacet
facet normal 0.4950682931653589 0.6926852775551111 -0.5244945103246904
 outer loop
  vertex -7.74772600761994 124.72702886226995 380.60446233068393
  vertex 1.0207422729842546 129.3606271110082 395.000448877207
  vertex 2.251450616071596 129.36840867853158 396.1723865123137
 endloop
endfacet
facet normal 0.46372446319999744 0.7222294388956285 -0.5131707901102515
 outer loop
  vertex -7.74772600761994 124.72702886226995 380.60446233068393
  vertex 2.251450616071596 129.36840867853158 396.1723865123137
  vertex 3.560132206443666 128.973311527656 396.79891647193944
 endloop
endfacet
facet normal 0.6175515235935571 0.5392248755761134 -0.5725964104560918
 outer loop
  vertex -7.74772600761994 124.72702886226995 380.60446233068393
  vertex 3.560132206443666 128.973311527656 396.79891647193944
  vertex 4.985647869499137 128.46493610649932 397.85760403151454
 endloop
endfacet
facet normal 0.7534158868285146 0.24672901503184347 -0.6094992162552956
 outer loop
  vertex -7.74772600761994 124.72702886226995 380.60446233068393
  vertex 4.985647869499137 128.46493610649932 397.85760403151454
  vertex 6.252431203856087 127.82648789253392 399.16505606597264
 endloop
endfacet
facet normal 0.6959839226129674 0.40539329466773594 -0.5926741567697257
 outer loop
  vertex -7.74772600761994 124.72702886226995 380.60446233068393
  vertex 6.252431203856087 127.82648789253392 399.16505606597264
  vertex 7.672829296938503 127.24216403147776 400.43336387511675
 endloop
endfacet
facet normal 0.692457156436055 0.41379413772503143 -0.5909970372894358
 outer loop
  vertex -7.74772600761994 124.72702886226995 380.60446233068393
  vertex 7.672829296938503 127.24216403147776 400.43336387511675
  vertex 9.027050724912629 126.95588586958036 401.8196315589709
 endloop
endfacet
facet normal 0.715510056611558 0.35302741755342976 -0.6028407761119691
 outer loop
  vertex -7.74772600761994 124.72702886226995 380.60446233068393
  vertex 9.027050724912629 126.95588586958036 401.8196315589709
  vertex 10.573034017598873 126.32553258988911 403.2854159548005
 endloop
endfacet
facet normal 0.7167903692784403 -0.4303219044438544 -0.5486662237330557
 outer loop
  vertex -7.74772600761994 124.72702886226995 380.60446233068393
  vertex 10.573034017598873 126.32553258988911 403.2854159548005
  vertex 11.159712826319756 124.94540768635895 405.1343063237143
 endloop
endfacet
facet normal 0.7912334286053945 0.03961010750385843 -0.6102300392809952
 outer loop
  vertex -7.74772600761994 124.72702886226995 380.60446233068393
  vertex 11.159712826319756 124.94540768635895 405.1343063237143
  vertex 11.943642866294546 122.606675463471 405.9989543819554
 endloop
endfacet
facet normal 0.6109301510477441 0.6726089462255983 -0.41756622947512273
 outer loop
  vertex -7.74772600761994 124.72702886226995 380.60446233068393
  vertex 11.943642866294546 122.606675463471 405.9989543819554
  vertex 13.44426031243762 120.82585637174516 405.3259535743462
 endloop
endfacet
facet normal 0.597269207961628 0.6937170565297577 -0.4025247057021205
 outer loop
  vertex -7.74772600761994 124.72702886226995 380.60446233068393
  vertex 13.44426031243762 120.82585637174516 405.3259535743462
  vertex 14.684210918287764 119.27140685794589 404.4868402971124
 endloop
endfacet
facet normal 0.699395563893471 -0.16674938498360548 -0.695011142222715
 outer loop
  vertex -7.74772600761994 124.72702886226995 380.60446233068393
  vertex 14.684210918287764 119.27140685794589 404.4868402971124
  vertex 13.977924263878212 117.54857582483322 404.18944544230766
 endloop
endfacet
facet normal 0.648725797034093 0.6470175011588821 -0.40065345806144814
 outer loop
  vertex -7.74772600761994 124.72702886226995 380.60446233068393
  vertex 13.977924263878212 117.54857582483322 404.18944544230766
  vertex 14.502018694378364 116.07214336335201 402.65374407163404
 endloop
endfacet
facet normal 0.7257809819227339 0.3347762592234037 -0.6009715655001131
 outer loop
  vertex -7.74772600761994 124.72702886226995 380.60446233068393
  vertex 14.502018694378364 116.07214336335201 402.65374407163404
  vertex 14.304925493127826 114.27810939321844 401.41633697741304
 endloop
endfacet
facet normal 0.7256491789879905 0.33973371686350406 -0.5983429373362436
 outer loop
  vertex -7.74772600761994 124.72702886226995 380.60446233068393
  vertex 14.304925493127826 114.27810939321844 401.41633697741304
  vertex 14.046293134795603 112.77262276221319 400.247875074218
 endloop
endfacet
facet normal 0.7188124154472761 0.23586256408091302 -0.6539706126914493
 outer loop
  vertex -7.74772600761994 124.72702886226995 380.60446233068393
  vertex 14.046293134795603 112.77262276221319 400.247875074218
  vertex 13.714530243959587 111.44116614928618 399.40301133740394
 endloop
endfacet
facet normal 0.5569952011549754 -0.22955805695098067 -0.7981600368217009
 outer loop
  vertex -7.74772600761994 124.72702886226995 380.60446233068393
  vertex 13.714530243959587 111.44116614928618 399.40301133740394
  vertex 12.793201671649047 109.92898853402221 399.19497907485123
 endloop
endfacet
facet normal 0.7477826858782852 0.2841066629590493 -0.6000870426554227
 outer loop
  vertex -7.74772600761994 124.72702886226995 380.60446233068393
  vertex 12.793201671649047 109.92898853402221 399.19497907485123
  vertex 12.099979919513556 108.636466422124 397.7192042208992
 endloop
endfacet
facet normal 0.7453029060923136 0.2717443818690126 -0.6088337778843912
 outer loop
  vertex -7.74772600761994 124.72702886226995 380.60446233068393
  vertex 12.099979919513556 108.636466422124 397.7192042208992
  vertex 11.24662761056448 107.7029159739705 396.25789724751
 endloop
endfacet
facet normal 0.7491916168431567 0.287026931683897 -0.5969317060938077
 outer loop
  vertex -7.74772600761994 124.72702886226995 380.60446233068393
  vertex 11.24662761056448 107.7029159739705 396.25789724751
  vertex 10.335833196671942 106.92467015798286 394.7405761888891
 endloop
endfacet
facet normal 0.7663389278797003 0.35137694497498057 -0.5378279373147521
 outer loop
  vertex -7.74772600761994 124.72702886226995 380.60446233068393
  vertex 10.335833196671942 106.92467015798286 394.7405761888891
  vertex 9.503510667632089 106.31868656411243 393.15871373912245
 endloop
endfacet
facet normal 0.7510225496131563 0.30412612131966577 -0.5860652116476545
 outer loop
  vertex -7.74772600761994 124.72702886226995 380.60446233068393
  vertex 9.503510667632089 106.31868656411243 393.15871373912245
  vertex 8.459763325475746 105.96199071116547 391.63608741943864
 endloop
endfacet
facet normal 0.7479471384446257 0.2970535092905284 -0.5935775355508982
 outer loop
  vertex -7.74772600761994 124.72702886226995 380.60446233068393
  vertex 8.459763325475746 105.96199071116547 391.63608741943864
  vertex 7.517081099980355 105.85632080918744 390.39536309258665
 endloop
endfacet
facet normal 0.5875026507416228 0.05640324027414163 -0.8072541792137989
 outer loop
  vertex -7.74772600761994 124.72702886226995 380.60446233068393
  vertex 7.517081099980355 105.85632080918744 390.39536309258665
  vertex 6.479147556373018 105.0349069621084 389.5825842583126
 endloop
endfacet
facet normal 0.661960324749048 0.14276640177201855 -0.7358167455169837
 outer loop
  vertex -7.74772600761994 124.72702886226995 380.60446233068393
  vertex 6.479147556373018 105.0349069621084 389.5825842583126
  vertex 5.221779235069007 104.52591556746339 388.35266550780887
 endloop
endfacet
facet normal 0.6818710681288632 0.16439298041831704 -0.712759983751884
 outer loop
  vertex -7.74772600761994 124.72702886226995 380.60446233068393
  vertex 5.221779235069007 104.52591556746339 388.35266550780887
  vertex 3.8083727687056625 104.26054422687777 386.93930591203986
 endloop
endfacet
facet normal 0.7174471002758896 0.19840895365032812 -0.6677600957058601
 outer loop
  vertex -7.74772600761994 124.72702886226995 380.60446233068393
  vertex 3.8083727687056625 104.26054422687777 386.93930591203986
  vertex 2.5081455244692545 104.75330750768575 385.6887435850832
 endloop
endfacet
facet normal 0.8765155337773989 0.3724287974975832 -0.3049873929221103
 outer loop
  vertex -7.74772600761994 124.72702886226995 380.60446233068393
  vertex 2.5081455244692545 104.75330750768575 385.6887435850832
  vertex 1.5842322443356947 106.14788759163564 384.73643353895966
 endloop
endfacet
facet normal 0.6729821953571562 0.17838308860786126 -0.7178261895688834
 outer loop
  vertex -7.74772600761994 124.72702886226995 380.60446233068393
  vertex 1.5842322443356947 106.14788759163564 384.73643353895966
  vertex -0.06827555277207405 106.6769621730534 383.31863856018293
 endloop
endfacet
facet normal 0.8417658010614247 0.289627450281579 -0.4555724708614529
 outer loop
  vertex -7.74772600761994 124.72702886226995 380.60446233068393
  vertex -0.06827555277207405 106.6769621730534 383.31863856018293
  vertex -0.7978838813991238 107.5799142739985 382.5445803212865
 endloop
endfacet
facet normal 0.9170289780585189 0.35005618918964926 -0.1910981889264502
 outer loop
  vertex -7.74772600761994 124.72702886226995 380.60446233068393
  vertex -0.7978838813991238 107.5799142739985 382.5445803212865
  vertex -1.281815302061795 108.45873436283246 381.83215742693574
 endloop
endfacet
facet normal 0.42419769194668167 0.10068381780240461 -0.8999550471994922
 outer loop
  vertex -7.74772600761994 124.72702886226995 380.60446233068393
  vertex -1.281815302061795 108.45873436283246 381.83215742693574
  vertex -2.844669487635658 108.41599768879638 381.0907181384422
 endloop
endfacet
facet normal 0.5846567272331192 0.15198914804707842 -0.7969164386414559
 outer loop
  vertex -7.74772600761994 124.72702886226995 380.60446233068393
  vertex -2.844669487635658 108.41599768879638 381.0907181384422
  vertex -4.137785515207436 109.71719736710895 380.3901920518946
 endloop
endfacet
facet normal 0.6135893840289869 0.1586137594236441 -0.7735306995384391
 outer loop
  vertex -7.74772600761994 124.72702886226995 380.60446233068393
  vertex -4.137785515207436 109.71719736710895 380.3901920518946
  vertex -5.021488771111291 111.34021892746858 380.02201353576055
 endloop
endfacet
facet normal 0.23399130893400608 0.08977313136274173 -0.9680851471997071
 outer loop
  vertex -7.74772600761994 124.72702886226995 380.60446233068393
  vertex -5.021488771111291 111.34021892746858 380.02201353576055
  vertex -6.033455988128199 112.595800466748 379.89384914071263
 endloop
endfacet
facet normal 0.4620520650514484 0.013349357519587605 0.8867523238399245
 outer loop
  vertex -7.74772600761994 124.72702886226995 380.60446233068393
  vertex -6.033455988128199 112.595800466748 379.89384914071263
  vertex -5.8988067515431375 114.26190119876053 379.7986068392419
 endloop
endfacet
facet normal 0.6133549960825787 0.16779395599472388 -0.7717777122411481
 outer loop
  vertex -7.74772600761994 124.72702886226995 380.60446233068393
  vertex -5.8988067515431375 114.26190119876053 379.7986068392419
  vertex -6.425340434531831 115.91401796580331 379.73934514220906
 endloop
endfacet
facet normal 0.5884297910984998 0.008928238853524777 0.8084990213344417
 outer loop
  vertex -7.74772600761994 124.72702886226995 380.60446233068393
  vertex -6.425340434531831 115.91401796580331 379.73934514220906
  vertex -6.0297307160753615 117.69603651973942 379.4317395363688
 endloop
endfacet
facet normal 0.9205106874970999 0.271748153735151 -0.28073655826264077
 outer loop
  vertex -7.74772600761994 124.72702886226995 380.60446233068393
  vertex -6.0297307160753615 117.69603651973942 379.4317395363688
  vertex -6.6699793026418 119.84307725319698 379.41071872128657
 endloop
endfacet
facet normal -0.23562866934886673 0.18136984309541593 -0.9547691397382023
 outer loop
  vertex -7.74772600761994 124.72702886226995 380.60446233068393
  vertex -6.6699793026418 119.84307725319698 379.41071872128657
  vertex -8.093724033604007 121.15961642110848 380.01217885951394
 endloop
endfacet
facet normal 0.995344969674459 -0.09637111997588298 -0.0009992889194336248
 outer loop
  vertex -7.74772600761994 124.72702886226995 380.60446233068393
  vertex -8.093724033604007 121.15961642110848 380.01217885951394
  vertex -7.918456717913712 122.96997967612019 379.9968745489324
 endloop
endfacet
facet normal 0.9305622179054472 -0.2042607296052263 -0.30386100925922593
 outer loop
  vertex 23.666713852627957 154.6465061201566 386.6574053318496
  vertex 24.204073235390382 154.17068302518874 388.62290367937646
  vertex 24.660417330548285 153.33103788987233 390.5848635330634
 endloop
endfacet
facet normal 0.20536868122312982 -0.9111879392344487 -0.3571557701708753
 outer loop
  vertex 23.666713852627957 154.6465061201566 386.6574053318496
  vertex 24.660417330548285 153.33103788987233 390.5848635330634
  vertex 24.052013395453322 152.40050734931341 392.6090254036649
 endloop
endfacet
facet normal 0.9977400991976844 -0.006142056342049893 -0.0669101606401154
 outer loop
  vertex 23.666713852627957 154.6465061201566 386.6574053318496
  vertex 24.052013395453322 152.40050734931341 392.6090254036649
  vertex 24.169671016610774 151.29370694692798 394.4650926414021
 endloop
endfacet
facet normal 0.727221687521971 -0.6124827757510963 -0.30986039857640574
 outer loop
  vertex 23.666713852627957 154.6465061201566 386.6574053318496
  vertex 24.169671016610774 151.29370694692798 394.4650926414021
  vertex 23.81028270594305 150.08064967819595 396.01941101042024
 endloop
endfacet
facet normal 0.9137981071142307 0.3704121464100796 0.1666369143567132
 outer loop
  vertex 23.666713852627957 154.6465061201566 386.6574053318496
  vertex 23.81028270594305 150.08064967819595 396.01941101042024
  vertex 24.02698452112735 149.15429508014188 396.8902341832965
 endloop
endfacet
facet normal 0.923819285691647 -0.3228146695854542 -0.2057877947901902
 outer loop
  vertex 23.666713852627957 154.6465061201566 386.6574053318496
  vertex 24.02698452112735 149.15429508014188 396.8902341832965
  vertex 23.846159366174092 148.16999901938405 397.6225197996395
 endloop
endfacet
facet normal 0.7803662808701587 -0.5327434079888211 -0.3274338542749251
 outer loop
  vertex 23.666713852627957 154.6465061201566 386.6574053318496
  vertex 23.846159366174092 148.16999901938405 397.6225197996395
  vertex 23.189638062296574 146.55461991955468 398.68611012199415
 endloop
endfacet
facet normal 0.9364306157343945 0.27278630156799705 0.22064753701810672
 outer loop
  vertex 23.666713852627957 154.6465061201566 386.6574053318496
  vertex 23.189638062296574 146.55461991955468 398.68611012199415
  vertex 23.54878511160512 144.437771551683 399.77894328019516
 endloop
endfacet
facet normal 0.8550081144473072 -0.4130190476996096 -0.31365010834777046
 outer loop
  vertex 23.666713852627957 154.6465061201566 386.6574053318496
  vertex 23.54878511160512 144.437771551683 399.77894328019516
  vertex 22.79998201787413 142.45899532262803 400.3433924793498
 endloop
endfacet
facet normal 0.5567507716166848 -0.6375578447568874 -0.5324927914002016
 outer loop
  vertex 23.666713852627957 154.6465061201566 386.6574053318496
  vertex 22.79998201787413 142.45899532262803 400.3433924793498
  vertex 21.669569295854892 140.72365451750787 401.23922054708237
 endloop
endfacet
facet normal 0.7600329250419096 -0.5188628565324984 -0.39131993172233753
 outer loop
  vertex 23.666713852627957 154.6465061201566 386.6574053318496
  vertex 21.669569295854892 140.72365451750787 401.23922054708237
  vertex 20.54088107733256 138.9450080296844 401.40541036768127
 endloop
endfacet
facet normal 0.7786115851238824 -0.5049395811093483 -0.372558745622742
 outer loop
  vertex 23.666713852627957 154.6465061201566 386.6574053318496
  vertex 20.54088107733256 138.9450080296844 401.40541036768127
  vertex 19.863908172790588 137.94523072980812 401.3456296873165
 endloop
endfacet
facet normal 0.9091329243886203 -0.3719118400909942 -0.18750709051320152
 outer loop
  vertex 23.666713852627957 154.6465061201566 386.6574053318496
  vertex 19.863908172790588 137.94523072980812 401.3456296873165
  vertex 19.36359685053024 136.70477627279772 401.3802428004887
 endloop
endfacet
facet normal 0.9636131854964384 -0.26423520872999173 -0.040365619093781245
 outer loop
  vertex 23.666713852627957 154.6465061201566 386.6574053318496
  vertex 19.36359685053024 136.70477627279772 401.3802428004887
  vertex 18.890447949494543 134.83408233253618 402.3308211613617
 endloop
endfacet
facet normal 0.8731903712736528 -0.4139814880588218 -0.25721178639320513
 outer loop
  vertex 23.666713852627957 154.6465061201566 386.6574053318496
  vertex 18.890447949494543 134.83408233253618 402.3308211613617
  vertex 17.9309466318962 133.44143687248516 401.3149350873794
 endloop
endfacet
facet normal 0.7684726744683582 -0.4912704232131322 -0.4100038047036135
 outer loop
  vertex 23.666713852627957 154.6465061201566 386.6574053318496
  vertex 17.9309466318962 133.44143687248516 401.3149350873794
  vertex 16.671959177703428 132.3608139237016 400.2500196947563
 endloop
endfacet
facet normal 0.7375318347194232 -0.5049704754910516 -0.44838779160202724
 outer loop
  vertex 23.666713852627957 154.6465061201566 386.6574053318496
  vertex 16.671959177703428 132.3608139237016 400.2500196947563
  vertex 15.41726423577092 131.35875760806985 399.3147386362223
 endloop
endfacet
facet normal 0.8292854651633534 -0.46346632532643606 -0.3122252112773895
 outer loop
  vertex 23.666713852627957 154.6465061201566 386.6574053318496
  vertex 15.41726423577092 131.35875760806985 399.3147386362223
  vertex 14.41660632046979 130.37363792193014 398.1192513714659
 endloop
endfacet
facet normal 0.9033328525988567 -0.4074942066884964 -0.13393367362588524
 outer loop
  vertex 23.666713852627957 154.6465061201566 386.6574053318496
  vertex 14.41660632046979 130.37363792193014 398.1192513714659
  vertex 13.766755967095083 129.43315443512085 396.5976803161941
 endloop
endfacet
facet normal 0.6111503622577298 -0.4862050061429243 -0.6245798001166902
 outer loop
  vertex 23.666713852627957 154.6465061201566 386.6574053318496
  vertex 13.766755967095083 129.43315443512085 396.5976803161941
  vertex 12.469858544987922 129.5941176489226 395.2033661716693
 endloop
endfacet
facet normal 0.913850616749685 -0.325734295199167 0.2424339481123099
 outer loop
  vertex 23.666713852627957 154.6465061201566 386.6574053318496
  vertex 12.469858544987922 129.5941176489226 395.2033661716693
  vertex 12.613377322593601 128.66026955858482 393.4076561386928
 endloop
endfacet
facet normal 0.9228279143204486 -0.38371572713543944 0.03392464148508597
 outer loop
  vertex 23.666713852627957 154.6465061201566 386.6574053318496
  vertex 12.613377322593601 128.66026955858482 393.4076561386928
  vertex 12.186826477801569 127.49333032637442 391.811768689647
 endloop
endfacet
facet normal 0.856234635049547 -0.41928401587025793 -0.30176673736062837
 outer loop
  vertex 23.666713852627957 154.6465061201566 386.6574053318496
  vertex 12.186826477801569 127.49333032637442 391.811768689647
  vertex 11.240828310306627 126.70248324958632 390.2264155072786
 endloop
endfacet
facet normal 0.6703209066363078 -0.3795166072892966 -0.6376809758161992
 outer loop
  vertex 23.666713852627957 154.6465061201566 386.6574053318496
  vertex 11.240828310306627 126.70248324958632 390.2264155072786
  vertex 10.067297348444152 127.81810687031711 388.32885218680445
 endloop
endfacet
facet normal 0.6868724873518096 -0.3865230331373005 -0.6154722828637204
 outer loop
  vertex 23.666713852627957 154.6465061201566 386.6574053318496
  vertex 10.067297348444152 127.81810687031711 388.32885218680445
  vertex 8.898942713921736 127.95324435149936 386.94009037439025
 endloop
endfacet
facet normal 0.8740784824873448 -0.48302754909102236 0.051683588030830084
 outer loop
  vertex 23.666713852627957 154.6465061201566 386.6574053318496
  vertex 8.898942713921736 127.95324435149936 386.94009037439025
  vertex 8.718440755720092 127.45329578107453 385.3203101284243
 endloop
endfacet
facet normal 0.693300170148308 -0.3501404832103423 -0.6298702375009914
 outer loop
  vertex 23.666713852627957 154.6465061201566 386.6574053318496
  vertex 8.718440755720092 127.45329578107453 385.3203101284243
  vertex 7.455169323403808 127.42559436608045 383.9452222760865
 endloop
endfacet
facet normal 0.8227439341415794 -0.4562054311044594 -0.3390708236696735
 outer loop
  vertex 23.666713852627957 154.6465061201566 386.6574053318496
  vertex 7.455169323403808 127.42559436608045 383.9452222760865
  vertex 6.842811928407338 127.22496616248627 382.72929443043574
 endloop
endfacet
facet normal 0.61942050285814 -0.2746815002657029 -0.7354374983985733
 outer loop
  vertex 23.666713852627957 154.6465061201566 386.6574053318496
  vertex 6.842811928407338 127.22496616248627 382.72929443043574
  vertex 6.022557648018781 127.22996888033005 382.03656870733636
 endloop
endfacet
facet normal 0.8440500697402341 -0.5324867350896415 -0.06354019771042464
 outer loop
  vertex 23.666713852627957 154.6465061201566 386.6574053318496
  vertex 6.022557648018781 127.22996888033005 382.03656870733636
  vertex 5.78241185116525 126.98245821788211 380.92075644061373
 endloop
endfacet
facet normal 0.7039340141521254 -0.32401237167130476 -0.6320544966406074
 outer loop
  vertex 23.666713852627957 154.6465061201566 386.6574053318496
  vertex 5.78241185116525 126.98245821788211 380.92075644061373
  vertex 4.7863685210402 126.94640393945203 379.8299221042616
 endloop
endfacet
facet normal 0.7619182198530994 -0.39230061908602265 -0.5153453701359966
 outer loop
  vertex 23.666713852627957 154.6465061201566 386.6574053318496
  vertex 4.7863685210402 126.94640393945203 379.8299221042616
  vertex 3.7393997678044317 126.85858496832003 378.3488704131147
 endloop
endfacet
facet normal 0.7531524358641982 -0.37941915053774067 -0.5374034951105584
 outer loop
  vertex 23.666713852627957 154.6465061201566 386.6574053318496
  vertex 3.7393997678044317 126.85858496832003 378.3488704131147
  vertex 2.860442057499178 126.85217474332902 377.12156730768646
 endloop
endfacet
facet normal 0.7855159040231151 -0.6141407229948713 0.07613105073545741
 outer loop
  vertex 23.666713852627957 154.6465061201566 386.6574053318496
  vertex 2.860442057499178 126.85217474332902 377.12156730768646
  vertex 2.7559787920272925 126.55222183359857 375.77972663367694
 endloop
endfacet
facet normal 0.7394235214928093 -0.3212863936198765 -0.5916315653664084
 outer loop
  vertex 23.666713852627957 154.6465061201566 386.6574053318496
  vertex 2.7559787920272925 126.55222183359857 375.77972663367694
  vertex 1.8629503645437762 126.82589883991912 374.51499539413084
 endloop
endfacet
facet normal 0.7493687367046347 -0.33906582428318677 -0.5687537808690707
 outer loop
  vertex 23.666713852627957 154.6465061201566 386.6574053318496
  vertex 1.8629503645437762 126.82589883991912 374.51499539413084
  vertex 0.9937374941466744 127.37861571620245 373.0402476525203
 endloop
endfacet
facet normal 0.7818882831340813 -0.4201147468645179 -0.4606021191490557
 outer loop
  vertex 23.666713852627957 154.6465061201566 386.6574053318496
  vertex 0.9937374941466744 127.37861571620245 373.0402476525203
  vertex 0.5516008063485104 128.22167363667666 371.52075277507976
 endloop
endfacet
facet normal 0.782763630675489 -0.423545157197091 -0.4559502147237328
 outer loop
  vertex 23.666713852627957 154.6465061201566 386.6574053318496
  vertex 0.5516008063485104 128.22167363667666 371.52075277507976
  vertex 0.3143611325052629 129.1995401276975 370.2050977194977
 endloop
endfacet
facet normal 0.7917457902508227 -0.5281956746561847 -0.30683535144210194
 outer loop
  vertex 23.666713852627957 154.6465061201566 386.6574053318496
  vertex 0.3143611325052629 129.1995401276975 370.2050977194977
  vertex 0.6327590668016196 130.66622848495993 368.501877344744
 endloop
endfacet
facet normal 0.6633409139037766 -0.736682204463553 0.13144642090229133
 outer loop
  vertex 23.666713852627957 154.6465061201566 386.6574053318496
  vertex 0.6327590668016196 130.66622848495993 368.501877344744
  vertex 1.9468487196679238 131.58717464719314 367.03173627151335
 endloop
endfacet
facet normal 0.5870792818513073 -0.7687907491912392 0.25357188483529963
 outer loop
  vertex 23.666713852627957 154.6465061201566 386.6574053318496
  vertex 1.9468487196679238 131.58717464719314 367.03173627151335
  vertex 3.356281533815082 132.20227364352948 365.633448814064
 endloop
endfacet
facet normal 0.8334186257556753 -0.36786056216425334 -0.41242211512929483
 outer loop
  vertex 23.666713852627957 154.6465061201566 386.6574053318496
  vertex 3.356281533815082 132.20227364352948 365.633448814064
  vertex 4.168664175401933 133.73752420714223 365.90573462325324
 endloop
endfacet
facet normal 0.6308394003553784 -0.757048336295746 0.1700572476288783
 outer loop
  vertex 23.666713852627957 154.6465061201566 386.6574053318496
  vertex 4.168664175401933 133.73752420714223 365.90573462325324
  vertex 5.477071966430126 134.67768850154624 365.2374574814444
 endloop
endfacet
facet normal 0.7959992147435548 -0.08174050666146883 -0.5997530656014777
 outer loop
  vertex 23.666713852627957 154.6465061201566 386.6574053318496
  vertex 5.477071966430126 134.67768850154624 365.2374574814444
  vertex 6.167158196064132 136.35982896213076 365.9240885417743
 endloop
endfacet
facet normal 0.8434198978512292 -0.3080804937587376 -0.4401468905649503
 outer loop
  vertex 23.666713852627957 154.6465061201566 386.6574053318496
  vertex 6.167158196064132 136.35982896213076 365.9240885417743
  vertex 7.020015453982691 138.22527496029002 366.2526362613244
 endloop
endfacet
facet normal 0.8429817597167122 -0.2983088164819313 -0.447653440502879
 outer loop
  vertex 23.666713852627957 154.6465061201566 386.6574053318496
  vertex 7.020015453982691 138.22527496029002 366.2526362613244
  vertex 7.770963133742393 140.1800572868697 366.36412070375644
 endloop
endfacet
facet normal 0.8384012832517654 -0.2245367551705617 -0.4966553471163562
 outer loop
  vertex 23.666713852627957 154.6465061201566 386.6574053318496
  vertex 7.770963133742393 140.1800572868697 366.36412070375644
  vertex 8.468342290852073 142.26047483928852 366.6008107430288
 endloop
endfacet
facet normal 0.6158407086388689 0.3703678776773746 -0.6953904347687946
 outer loop
  vertex 23.666713852627957 154.6465061201566 386.6574053318496
  vertex 8.468342290852073 142.26047483928852 366.6008107430288
  vertex 8.196673832739666 144.31480868374874 367.4543668757819
 endloop
endfacet
facet normal 0.6112008399206886 -0.7885374786904819 -0.06813353051693774
 outer loop
  vertex 23.666713852627957 154.6465061201566 386.6574053318496
  vertex 8.196673832739666 144.31480868374874 367.4543668757819
  vertex 9.727453285932716 145.49790403811338 367.4939752701119
 endloop
endfacet
facet normal 0.706375911720052 0.28287775168296403 -0.6488553374554739
 outer loop
  vertex 23.666713852627957 154.6465061201566 386.6574053318496
  vertex 9.727453285932716 145.49790403811338 367.4939752701119
  vertex 9.518221830783064 147.28373540962377 368.0447542846876
 endloop
endfacet
facet normal 0.46171350475736794 -0.8870291046626053 -8.370259742865896e-05
 outer loop
  vertex 23.666713852627957 154.6465061201566 386.6574053318496
  vertex 9.518221830783064 147.28373540962377 368.0447542846876
  vertex 11.222582504801938 148.17085656921518 368.3321079990275
 endloop
endfacet
facet normal 0.5226020372312759 -0.8508512188468461 -0.054215441237313915
 outer loop
  vertex 23.666713852627957 154.6465061201566 386.6574053318496
  vertex 11.222582504801938 148.17085656921518 368.3321079990275
  vertex 12.80755456939661 149.1157788084267 368.7807143445288
 endloop
endfacet
facet normal 0.550235605776058 -0.8314512956384003 -0.07700338380538897
 outer loop
  vertex 23.666713852627957 154.6465061201566 386.6574053318496
  vertex 12.80755456939661 149.1157788084267 368.7807143445288
  vertex 14.38981026688226 150.129498609541 369.1411501952182
 endloop
endfacet
facet normal 0.6524204499233388 0.5749097031476968 -0.4937877982984747
 outer loop
  vertex 23.666713852627957 154.6465061201566 386.6574053318496
  vertex 14.38981026688226 150.129498609541 369.1411501952182
  vertex 14.613434301380515 151.1768509469521 370.6560315211049
 endloop
endfacet
facet normal 0.7195359578418148 0.4719559448858719 -0.5094365431136108
 outer loop
  vertex 23.666713852627957 154.6465061201566 386.6574053318496
  vertex 14.613434301380515 151.1768509469521 370.6560315211049
  vertex 14.613804301309553 152.58885399572858 371.9646723524944
 endloop
endfacet
facet normal 0.4004397998742526 -0.9084975791351958 -0.11949943674409971
 outer loop
  vertex 23.666713852627957 154.6465061201566 386.6574053318496
  vertex 14.613804301309553 152.58885399572858 371.9646723524944
  vertex 16.01132779134582 153.07041152274974 372.98668703711735
 endloop
endfacet
facet normal 0.3163359889941693 -0.9462029268246236 -0.06805559003929683
 outer loop
  vertex 23.666713852627957 154.6465061201566 386.6574053318496
  vertex 16.01132779134582 153.07041152274974 372.98668703711735
  vertex 17.469211247583953 153.47804520144967 374.0957337012573
 endloop
endfacet
facet normal 0.3220172694191006 -0.9440633993546548 -0.0710575555081933
 outer loop
  vertex 23.666713852627957 154.6465061201566 386.6574053318496
  vertex 17.469211247583953 153.47804520144967 374.0957337012573
  vertex 19.004636100130554 153.9196418222478 375.18693520525693
 endloop
endfacet
facet normal 0.28123225289228776 -0.958142304030575 -0.05358866634009055
 outer loop
  vertex 23.666713852627957 154.6465061201566 386.6574053318496
  vertex 19.004636100130554 153.9196418222478 375.18693520525693
  vertex 20.56106631642152 154.3147739081618 376.29025822187856
 endloop
endfacet
facet normal 0.2664417547407857 -0.9626039189031953 -0.04901516747764661
 outer loop
  vertex 23.666713852627957 154.6465061201566 386.6574053318496
  vertex 20.56106631642152 154.3147739081618 376.29025822187856
  vertex 22.126928405600463 154.6918488212985 377.396798429911
 endloop
endfacet
facet normal 0.34753303894952153 0.9361572434607841 -0.05320152586549338
 outer loop
  vertex 23.666713852627957 154.6465061201566 386.6574053318496
  vertex 22.126928405600463 154.6918488212985 377.396798429911
  vertex 21.962943311998753 154.86614692807666 379.3926095562405
 endloop
endfacet
facet normal 0.12938090555681722 -0.9897618247515468 -0.06026700209721802
 outer loop
  vertex 23.666713852627957 154.6465061201566 386.6574053318496
  vertex 21.962943311998753 154.86614692807666 379.3926095562405
  vertex 23.43574507045227 154.98971338703433 380.5250876776553
 endloop
endfacet
facet normal 0.9962836584108147 0.07953010869335428 -0.033073158222133206
 outer loop
  vertex 23.666713852627957 154.6465061201566 386.6574053318496
  vertex 23.43574507045227 154.98971338703433 380.5250876776553
  vertex 23.50123056465512 154.99904588381756 382.52019022509353
 endloop
endfacet
facet normal 0.9992030531382906 0.006096194807013928 -0.03944737010237077
 outer loop
  vertex 23.666713852627957 154.6465061201566 386.6574053318496
  vertex 23.50123056465512 154.99904588381756 382.52019022509353
  vertex 23.58195555599252 154.91042492908372 384.5512611684017
 endloop
endfacet
endsolid
